<svg xmlns="http://www.w3.org/2000/svg" width="231" height="545" viewBox="0 0 231 545">
    <g fill="none" fill-rule="evenodd">
        <g fill="#FFF" fill-rule="nonzero">
            <g>
                <g>
                    <path d="M53.845 277c30.08 0 50.725 18.681 50.725 41.95 0 16.363-7.24 28.665-23.318 39.669l-.522.354-6.623 4.481c-.786.54-1.73 1.1-2.803 1.677l-.469.248-.48.248-.567.285-.566.277-.253.121h33.821c1.611 0 3.472 1.757 3.706 3.394l.018.169.006.167v24.18c0 1.667-1.88 3.6-3.563 3.724l-.167.006H0v-21.415l55.227-38.128c8.23-5.682 12.243-11.474 12.243-17.897 0-7.179-5.35-12.065-13.625-12.065-9.539 0-14.795 5.966-14.795 17.33 0 2.868-1.588 4.604-4.092 4.7l-.223.005H6.46c-2.62 0-4.51-1.739-4.51-4.12 0-29.1 18.82-49.36 51.895-49.36zm163.158 1.95l-.001 67.86h9.53c1.612 0 3.473 1.757 3.706 3.394l.019.169.006.167v24.18c0 1.667-1.88 3.6-3.563 3.724l-.167.006h-9.531v15.575c0 1.615-1.935 3.652-3.596 3.9l-.165.019-.163.006h-29.25c-1.669 0-3.788-2.067-3.919-3.762l-.006-.163-.001-15.575h-60.644v-28.257l56.286-71.243h41.459zM53.845 279C21.91 279 3.95 298.333 3.95 326.36c0 1.186.88 2.046 2.32 2.115l.19.005h28.275c1.51 0 2.315-.84 2.315-2.705 0-12.416 6.091-19.33 16.795-19.33 9.342 0 15.625 5.74 15.625 14.065 0 7.064-4.236 13.3-12.652 19.226l-.455.317L2 377.584v18.366h100.79c.553 0 1.501-.89 1.695-1.52l.026-.109.009-.101v-24.18c0-.585-.998-1.614-1.629-1.721l-.101-.009H64.155v-2.06l1.031-.427c1.144-.484 2.43-1.066 3.709-1.7l.547-.276.472-.243c1.05-.549 1.975-1.08 2.745-1.587l6.952-4.701c15.921-10.742 22.959-22.532 22.959-38.366 0-22.117-19.707-39.95-48.725-39.95zm161.157 1.95h-38.491l-55.254 69.937v25.563h60.646v17.575c0 .588 1.186 1.802 1.832 1.916l.093.009h29.25c.588 0 1.802-1.186 1.916-1.832l.009-.093V376.45h11.53c.585 0 1.614-.998 1.72-1.629l.01-.101v-24.18c0-.585-.998-1.614-1.629-1.721l-.101-.009h-11.53l-.001-67.86zm-33.597 35.486l2.309.577-.218 3.21-.192 3.06-.143 2.567-.065 1.476-.02.714-.003.27v20.5l-19.143.001-.453.009-.793.029-.598.029-1.089.063-.913.062-1.192.088-1.302.105-.678.06-.883-1.767.954-.677.213-.156.468-.348c.704-.532 1.407-1.09 2.061-1.647.412-.35.79-.69 1.129-1.013l.335-.327.15-.153.255-.268 14.076-17.79.198-.233.227-.286.255-.339.282-.388.306-.435.504-.736.364-.544.523-.796c.457-.702.93-1.444 1.4-2.194l.931-1.5.745-1.223zm.095 3.663l-.077.123c-.317.506-.636 1.008-.95 1.498l-.807 1.242-.581.873-.36.528-.335.481-.159.223-.298.41-.139.186-.258.333-.23.28-.104.12-14.08 17.793c-.26.289-.557.591-.887.906-.368.35-.774.715-1.213 1.089l-.523.438-.471.379 1.289-.083.743-.042.68-.032.611-.021.54-.012 17.181-.001.002-18.636.015-.687.035-.903.087-1.736.189-3.189.1-1.56zM53.845 135c30.08 0 50.725 18.681 50.725 41.95 0 16.363-7.24 28.665-23.318 39.669l-.522.354-6.623 4.481c-.786.54-1.73 1.1-2.803 1.677l-.469.248-.48.248-.567.285-.566.277-.253.121h33.821c1.611 0 3.472 1.757 3.706 3.394l.018.169.006.167v24.18c0 1.667-1.88 3.6-3.563 3.724l-.167.006H0v-21.415l55.227-38.128c8.23-5.682 12.243-11.474 12.243-17.897 0-7.179-5.35-12.065-13.625-12.065-9.539 0-14.795 5.966-14.795 17.33 0 2.868-1.588 4.604-4.092 4.7l-.223.005H6.46c-2.62 0-4.51-1.739-4.51-4.12 0-29.1 18.82-49.36 51.895-49.36zm163.158 1.95l-.001 67.86h9.53c1.612 0 3.473 1.757 3.706 3.394l.019.169.006.167v24.18c0 1.667-1.88 3.6-3.563 3.724l-.167.006h-9.531v15.575c0 1.615-1.935 3.652-3.596 3.9l-.165.019-.163.006h-29.25c-1.669 0-3.788-2.067-3.919-3.762l-.006-.163-.001-15.575h-60.644v-28.257l56.286-71.243h41.459zM53.845 137C21.91 137 3.95 156.333 3.95 184.36c0 1.186.88 2.046 2.32 2.115l.19.005h28.275c1.51 0 2.315-.84 2.315-2.705 0-12.416 6.091-19.33 16.795-19.33 9.342 0 15.625 5.74 15.625 14.065 0 7.064-4.236 13.3-12.652 19.226l-.455.317L2 235.584v18.366h100.79c.553 0 1.501-.89 1.695-1.52l.026-.109.009-.101v-24.18c0-.585-.998-1.614-1.629-1.721l-.101-.009H64.155v-2.06l1.031-.427c1.144-.484 2.43-1.066 3.709-1.7l.547-.276.472-.243c1.05-.549 1.975-1.08 2.745-1.587l6.952-4.701c15.921-10.742 22.959-22.532 22.959-38.366 0-22.117-19.707-39.95-48.725-39.95zm161.157 1.95h-38.491l-55.254 69.937v25.563h60.646v17.575c0 .588 1.186 1.802 1.832 1.916l.093.009h29.25c.588 0 1.802-1.186 1.916-1.832l.009-.093V234.45h11.53c.585 0 1.614-.998 1.72-1.629l.01-.101v-24.18c0-.585-.998-1.614-1.629-1.721l-.101-.009h-11.53l-.001-67.86zm-33.597 35.486l2.309.577-.218 3.21-.192 3.06-.143 2.567-.065 1.476-.02.714-.003.27v20.5l-19.143.001-.453.009-.793.029-.598.029-1.089.063-.913.062-1.192.088-1.302.105-.678.06-.883-1.767.954-.677.213-.156.468-.348c.704-.532 1.407-1.09 2.061-1.647.412-.35.79-.69 1.129-1.013l.335-.327.15-.153.255-.268 14.076-17.79.198-.233.227-.286.255-.339.282-.388.306-.435.504-.736.364-.544.523-.796c.457-.702.93-1.444 1.4-2.194l.931-1.5.745-1.223zm.095 3.663l-.077.123c-.317.506-.636 1.008-.95 1.498l-.807 1.242-.581.873-.36.528-.335.481-.159.223-.298.41-.139.186-.258.333-.23.28-.104.12-14.08 17.793c-.26.289-.557.591-.887.906-.368.35-.774.715-1.213 1.089l-.523.438-.471.379 1.289-.083.743-.042.68-.032.611-.021.54-.012 17.181-.001.002-18.636.015-.687.035-.903.087-1.736.189-3.189.1-1.56zM53.845 0c30.08 0 50.725 18.681 50.725 41.95 0 16.363-7.24 28.665-23.318 39.669l-.522.354-6.623 4.481c-.786.54-1.73 1.1-2.803 1.677l-.469.248-.48.248-.567.285-.566.277-.253.121h33.821c1.611 0 3.472 1.757 3.706 3.394l.018.169.006.167v24.18c0 1.667-1.88 3.6-3.563 3.724l-.167.006H0V99.535l55.227-38.128c8.23-5.682 12.243-11.474 12.243-17.897 0-7.179-5.35-12.065-13.625-12.065-9.539 0-14.795 5.966-14.795 17.33 0 2.868-1.588 4.604-4.092 4.7l-.223.005H6.46c-2.62 0-4.51-1.739-4.51-4.12C1.95 20.26 20.77 0 53.845 0zm163.158 1.95l-.001 67.86h9.53c1.612 0 3.473 1.757 3.706 3.394l.019.169.006.167v24.18c0 1.667-1.88 3.6-3.563 3.724l-.167.006h-9.531v15.575c0 1.615-1.935 3.652-3.596 3.9l-.165.019-.163.006h-29.25c-1.669 0-3.788-2.067-3.919-3.762l-.006-.163-.001-15.575h-60.644V73.193L175.544 1.95h41.459zM53.845 2C21.91 2 3.95 21.333 3.95 49.36c0 1.186.88 2.046 2.32 2.115l.19.005h28.275c1.51 0 2.315-.84 2.315-2.705 0-12.416 6.091-19.33 16.795-19.33 9.342 0 15.625 5.74 15.625 14.065 0 7.064-4.236 13.3-12.652 19.226l-.455.317L2 100.584v18.366h100.79c.553 0 1.501-.89 1.695-1.52l.026-.109.009-.101V93.04c0-.585-.998-1.614-1.629-1.721l-.101-.009H64.155v-2.06l1.031-.427c1.144-.484 2.43-1.066 3.709-1.7l.547-.276.472-.243c1.05-.549 1.975-1.08 2.745-1.587l6.952-4.701C95.532 69.574 102.57 57.784 102.57 41.95 102.57 19.833 82.863 2 53.845 2zm161.157 1.95h-38.491l-55.254 69.937V99.45h60.646v17.575c0 .588 1.186 1.802 1.832 1.916l.093.009h29.25c.588 0 1.802-1.186 1.916-1.832l.009-.093V99.45h11.53c.585 0 1.614-.998 1.72-1.629l.01-.101V73.54c0-.585-.998-1.614-1.629-1.721l-.101-.009h-11.53l-.001-67.86zm-33.597 35.486l2.309.577-.218 3.21-.192 3.06-.143 2.567-.065 1.476-.02.714-.003.27v20.5l-19.143.001-.453.009-.793.029-.598.029-1.089.063-.913.062-1.192.088-1.302.105-.678.06-.883-1.767.954-.677.213-.156.468-.348c.704-.532 1.407-1.09 2.061-1.647.412-.35.79-.69 1.129-1.013l.335-.327.15-.153.255-.268 14.076-17.79.198-.233.227-.286.255-.339.282-.388.306-.435.504-.736.364-.544.523-.796c.457-.702.93-1.444 1.4-2.194l.931-1.5.745-1.223zm.095 3.663l-.077.123c-.317.506-.636 1.008-.95 1.498l-.807 1.242-.581.873-.36.528-.335.481-.159.223-.298.41-.139.186-.258.333-.23.28-.104.12-14.08 17.793c-.26.289-.557.591-.887.906-.368.35-.774.715-1.213 1.089l-.523.438-.471.379 1.289-.083.743-.042.68-.032.611-.021.54-.012 17.181-.001.002-18.636.015-.687.035-.903.087-1.736.189-3.189.1-1.56zM53.845 424c30.08 0 50.725 18.681 50.725 41.95 0 16.363-7.24 28.665-23.318 39.669l-.522.354-6.623 4.481c-.786.54-1.73 1.1-2.803 1.677l-.469.248-.48.248-.567.285-.566.277-.253.121h33.821c1.611 0 3.472 1.757 3.706 3.394l.018.169.006.167v24.18c0 1.667-1.88 3.6-3.563 3.724l-.167.006H0v-21.415l55.227-38.128c8.23-5.682 12.243-11.474 12.243-17.897 0-7.179-5.35-12.065-13.625-12.065-9.539 0-14.795 5.966-14.795 17.33 0 2.868-1.588 4.604-4.092 4.7l-.223.005H6.46c-2.62 0-4.51-1.739-4.51-4.12 0-29.1 18.82-49.36 51.895-49.36zm163.158 1.95l-.001 67.86h9.53c1.612 0 3.473 1.757 3.706 3.394l.019.169.006.167v24.18c0 1.667-1.88 3.6-3.563 3.724l-.167.006h-9.531v15.575c0 1.615-1.935 3.652-3.596 3.9l-.165.019-.163.006h-29.25c-1.669 0-3.788-2.067-3.919-3.762l-.006-.163-.001-15.575h-60.644v-28.257l56.286-71.243h41.459zM53.845 426C21.91 426 3.95 445.333 3.95 473.36c0 1.186.88 2.046 2.32 2.115l.19.005h28.275c1.51 0 2.315-.84 2.315-2.705 0-12.416 6.091-19.33 16.795-19.33 9.342 0 15.625 5.74 15.625 14.065 0 7.064-4.236 13.3-12.652 19.226l-.455.317L2 524.584v18.366h100.79c.553 0 1.501-.89 1.695-1.52l.026-.109.009-.101v-24.18c0-.585-.998-1.614-1.629-1.721l-.101-.009H64.155v-2.06l1.031-.427c1.144-.484 2.43-1.066 3.709-1.7l.547-.276.472-.243c1.05-.549 1.975-1.08 2.745-1.587l6.952-4.701c15.921-10.742 22.959-22.532 22.959-38.366 0-22.117-19.707-39.95-48.725-39.95zm161.157 1.95h-38.491l-55.254 69.937v25.563h60.646v17.575c0 .588 1.186 1.802 1.832 1.916l.093.009h29.25c.588 0 1.802-1.186 1.916-1.832l.009-.093V523.45h11.53c.585 0 1.614-.998 1.72-1.629l.01-.101v-24.18c0-.585-.998-1.614-1.629-1.721l-.101-.009h-11.53l-.001-67.86zm-33.597 35.486l2.309.577-.218 3.21-.192 3.06-.143 2.567-.065 1.476-.02.714-.003.27v20.5l-19.143.001-.453.009-.793.029-.598.029-1.089.063-.913.062-1.192.088-1.302.105-.678.06-.883-1.767.954-.677.213-.156.468-.348c.704-.532 1.407-1.09 2.061-1.647.412-.35.79-.69 1.129-1.013l.335-.327.15-.153.255-.268 14.076-17.79.198-.233.227-.286.255-.339.282-.388.306-.435.504-.736.364-.544.523-.796c.457-.702.93-1.444 1.4-2.194l.931-1.5.745-1.223zm.095 3.663l-.077.123c-.317.506-.636 1.008-.95 1.498l-.807 1.242-.581.873-.36.528-.335.481-.159.223-.298.41-.139.186-.258.333-.23.28-.104.12-14.08 17.793c-.26.289-.557.591-.887.906-.368.35-.774.715-1.213 1.089l-.523.438-.471.379 1.289-.083.743-.042.68-.032.611-.021.54-.012 17.181-.001.002-18.636.015-.687.035-.903.087-1.736.189-3.189.1-1.56z" transform="translate(-970.000000, -7491.000000) translate(0.000000, 7516.000000) translate(970.265000, -24.950000)"/>
                </g>
            </g>
        </g>
    </g>
</svg>
