<svg xmlns="http://www.w3.org/2000/svg" xmlns:xlink="http://www.w3.org/1999/xlink" width="1460" height="116" viewBox="0 0 1460 116">
    <defs>
        <path id="9b01b3fcsa" d="M0 0H1460V116H0z"/>
        <path id="o43dm4l8ec" d="M0 0L10.703 0 10.703 14.444 0 14.444z"/>
        <path id="znfmd4pq0e" d="M0 0L22.339 0 22.339 13.733 0 13.733z"/>
    </defs>
    <g fill="none" fill-rule="evenodd">
        <g>
            <g transform="translate(20.000000, -6249.000000) translate(-20.000000, 6249.000000)">
                <mask id="kz04ct1xeb" fill="#fff">
                    <use xlink:href="#9b01b3fcsa"/>
                </mask>
                <path fill="#FFF" d="M0 116h1480v48.231H0V116zm0-75.855C46.409 40.145 46.409 20 92.818 20S138.59 40.145 185 40.145V116H0V40.145zm0 48C46.409 88.145 46.409 68 92.818 68S138.59 88.145 185 88.145V164H0V88.145zm740-48c46.409 0 46.409-20.145 92.818-20.145S878.59 40.145 925 40.145V116H740V40.145zm0 48c46.409 0 46.409-20.145 92.818-20.145S878.59 88.145 925 88.145V164H740V88.145zm-370-48c46.409 0 46.409-20.145 92.818-20.145S508.59 40.145 555 40.145V116H370V40.145zm0 48c46.409 0 46.409-20.145 92.818-20.145S508.59 88.145 555 88.145V164H370V88.145zm740-48c46.409 0 46.409-20.145 92.818-20.145S1248.59 40.145 1295 40.145V116h-185V40.145zm0 48c46.409 0 46.409-20.145 92.818-20.145S1248.59 88.145 1295 88.145V164h-185V88.145zm-925-48c46.409 0 46.409-20.145 92.818-20.145S323.59 40.145 370 40.145V116H185V40.145zm0 48c46.409 0 46.409-20.145 92.818-20.145S323.59 88.145 370 88.145V164H185V88.145zm740-48c46.409 0 46.409-20.145 92.818-20.145S1063.59 40.145 1110 40.145V116H925V40.145zm0 48c46.409 0 46.409-20.145 92.818-20.145S1063.59 88.145 1110 88.145V164H925V88.145zm-370-48c46.409 0 46.409-20.145 92.818-20.145S693.59 40.145 740 40.145V116H555V40.145zm0 48c46.409 0 46.409-20.145 92.818-20.145S693.59 88.145 740 88.145V164H555V88.145zm740-48c46.409 0 46.409-20.145 92.818-20.145S1433.59 40.145 1480 40.145V116h-185V40.145zm0 48c46.409 0 46.409-20.145 92.818-20.145S1433.59 88.145 1480 88.145V164h-185V88.145z" mask="url(#kz04ct1xeb)"/>
                <g mask="url(#kz04ct1xeb)">
                    <g>
                        <g transform="translate(8.000000, 37.000000) translate(0.000000, 18.649223)">
                            <mask id="zjygaus0cd" fill="#fff">
                                <use xlink:href="#o43dm4l8ec"/>
                            </mask>
                            <path fill="#E7C2C2" d="M2.049 14.442c-.131.018-.28-.095-.298-.226L0 1.666c-.017-.13.095-.28.226-.298L10.032.001c.13-.018.33.132.348.263l.26 1.873c.019.131-.131.33-.261.348l-7.104.99.456 3.27 6.362-.888c.13-.019.33.132.348.263l.26 1.873c.019.131-.131.33-.262.347l-6.362.887.638 4.576c.018.131-.095.28-.226.298l-2.44.341z" mask="url(#zjygaus0cd)"/>
                        </g>
                        <path fill="#E7C2C2" d="M15.793 23.991c.823 2.531 3.195 3.495 5.413 2.772 2.218-.72 3.569-2.895 2.745-5.426-.823-2.532-3.195-3.495-5.413-2.773-2.218.721-3.569 2.896-2.745 5.427m11.004-3.579c1.279 3.932-1.05 7.512-4.816 8.737-3.765 1.225-7.754-.3-9.034-4.233-1.258-3.869 1.05-7.512 4.816-8.737 3.764-1.225 7.774.362 9.034 4.233M33.49 21.729l5.975-2.588c.121-.052.352.039.404.16l.752 1.737c.053.12-.039.352-.16.404l-8.478 3.674c-.122.05-.295-.017-.348-.139L26.6 13.35c-.052-.121.016-.295.138-.348l2.26-.979c.121-.053.295.017.347.138l4.145 9.568zM44.34 17.214L50.465 15c.124-.045.349.062.394.186l.643 1.779c.045.124-.061.35-.185.395l-8.69 3.14c-.124.045-.293-.035-.338-.16L37.982 8.424c-.045-.124.034-.293.159-.338l2.317-.837c.124-.045.293.034.338.158l3.544 9.808zM53.316 10c.537 2.607 2.788 3.828 5.072 3.357 2.284-.47 3.869-2.48 3.331-5.087-.538-2.608-2.788-3.83-5.072-3.358-2.283.47-3.867 2.483-3.33 5.089M64.65 7.666c.834 4.05-1.878 7.35-5.756 8.148-3.877.799-7.672-1.16-8.508-5.21-.82-3.985 1.877-7.348 5.755-8.148 3.879-.8 7.687 1.224 8.509 5.21" transform="translate(8.000000, 37.000000)"/>
                        <g transform="translate(8.000000, 37.000000) translate(65.393931, 0.000000)">
                            <mask id="glzusu023f" fill="#fff">
                                <use xlink:href="#znfmd4pq0e"/>
                            </mask>
                            <path fill="#E7C2C2" d="M16.816 13.386l-1.825.06-3.275-7.11c-.166-.37-.36-.913-.36-.913h-.044s-.136.556-.277.935l-2.817 7.314-1.824.06L.096 1.132C.05 1.045.002.937 0 .87-.002.805.04.737.171.733l2.64-.088c.263-.01.307-.01.448.27l3.18 6.212c.351.672.766 1.89.766 1.89l.088-.003s.192-.842.477-1.557L10.462.39 11.87.343l3.156 6.873c.333.716.58 1.522.58 1.522l.087-.003s.333-1.245.64-1.937L19.09.388c.123-.268.167-.291.431-.3L22.16 0c.132-.004.178.06.18.126.003.067-.038.178-.079.267l-5.444 12.993z" mask="url(#glzusu023f)"/>
                        </g>
                        <path fill="#E7C2C2" d="M94.639 3.13c-.131-.02-.28-.218-.262-.35l.265-1.872c.018-.131.218-.281.348-.262l12.377 1.75c.13.019.28.217.262.348l-.265 1.875c-.02.13-.218.28-.35.262l-4.705-.666-1.461 10.328c-.02.13-.168.243-.298.225l-2.441-.346c-.131-.018-.243-.168-.224-.298l1.46-10.33-4.706-.664zM120.059 19.58c-.04.125-.205.211-.331.172l-2.35-.742c-.126-.039-.212-.205-.172-.33l1.41-4.47-7.238-2.285-1.411 4.47c-.04.124-.205.21-.331.171l-2.35-.742c-.125-.039-.212-.205-.172-.33l3.815-12.086c.039-.126.205-.212.33-.172l2.35.741c.126.04.213.206.173.331l-1.65 5.225 7.239 2.285 1.649-5.224c.04-.126.206-.212.33-.172l2.35.741c.127.04.213.206.173.331l-3.814 12.085zM127.4 17.23l-1.206 2.738 7.09 3.121c.121.053.212.286.159.407l-.764 1.731c-.053.121-.285.211-.405.157l-9.588-4.218c-.12-.054-.188-.228-.135-.349l5.106-11.602c.055-.12.228-.188.349-.135l9.466 4.167c.121.053.212.286.157.406l-.761 1.732c-.053.12-.285.211-.406.157l-6.97-3.066-1.08 2.457 6.363 2.801c.121.054.212.285.159.406l-.762 1.733c-.053.121-.286.21-.406.158L127.4 17.23zM143.85 27.066l6.247 1.838c.126.037.245.256.208.383l-.534 1.814c-.037.127-.256.246-.382.21l-8.864-2.609c-.126-.038-.216-.2-.178-.328l3.577-12.156c.037-.127.201-.215.327-.178l2.364.696c.127.037.216.201.18.327l-2.945 10.003zM155.72 32.104c-.022.13-.175.238-.305.216l-2.428-.417c-.13-.023-.238-.175-.216-.305l2.144-12.489c.023-.13.175-.238.305-.216l2.43.417c.13.023.237.175.215.305l-2.145 12.49zM173.633 27.932c-.195 3.38-2.748 6.01-7.293 5.748-3.975-.23-7.116-3.055-6.875-7.227.231-4.017 3.554-6.625 7.66-6.387 4.545.262 6.295 3.16 6.226 5.118-.008.13-.105.28-.368.265l-2.262-.13c-.13-.008-.282-.061-.317-.24-.18-1.067-1.14-2.377-3.423-2.51-2.394-.138-4.385 1.53-4.53 4.056-.16 2.789 1.771 4.42 4.033 4.55 2.372.138 3.867-.966 4.028-2.233l-4.852-.281c-.132-.007-.298-.193-.29-.325l.096-1.67c.008-.13.194-.296.326-.29l7.904.458-.063 1.098zM190.431 32.65c.01.131-.114.271-.246.281l-2.459.165c-.13.01-.272-.114-.28-.245l-.316-4.678-7.576.512.315 4.676c.01.133-.113.273-.245.281l-2.46.166c-.13.01-.272-.113-.28-.246l-.853-12.646c-.009-.133.114-.274.246-.282l2.46-.166c.131-.009.271.114.28.246l.37 5.467 7.574-.51-.369-5.468c-.009-.13.114-.272.246-.282l2.46-.165c.131-.008.272.115.28.246l.853 12.648zM191.557 22.012c-.128.03-.34-.1-.371-.23l-.44-1.838c-.03-.13.1-.34.228-.371l12.15-2.904c.13-.03.342.1.372.228l.44 1.84c.03.129-.1.34-.228.37l-4.621 1.105 2.423 10.14c.03.129-.067.288-.195.318l-2.396.572c-.13.032-.288-.066-.32-.195l-2.421-10.14-4.621 1.105z" transform="translate(8.000000, 37.000000)"/>
                        <path fill="#8E83A3" d="M220.144 18.479l-.239-1.383c-.395-.526-.988-.677-1.533-.44-1.03.446-1.255 1.863-.774 2.973.314.726.91.995 1.476.75.605-.262.934-1.05 1.07-1.9zm7.098 3.878c-1.09 1.19-2.577 2.41-4.837 3.39-4.32 1.87-8.973.648-10.967-3.954-2.01-4.642.244-8.904 4.523-10.757 4.381-1.897 8.924-.653 10.55 3.101 1.075 2.485.364 5.213-2.3 6.367-1.374.595-2.385.362-3.072-.227l-.08.034c-.232.797-.73 1.636-1.74 2.073-1.495.648-3.106.026-3.867-1.73-.918-2.12-.292-4.716 2.01-5.713.726-.316 1.557-.388 2.238-.035l.04-.018.085-.469c.034-.253.13-.367.29-.436l1.232-.534c.141-.06.323.028.376.15.026.06.05.17.08.348l.68 4.117c.138.875.812 1.159 1.52.852 1.371-.593 1.88-2.468 1.136-4.184-1.26-2.906-4.869-3.933-8.583-2.323-3.694 1.598-5.3 5.196-3.745 8.79 1.53 3.531 5.244 4.8 9 3.174 2.14-.927 3.495-2.114 4.476-3.114l.955 1.098zM242.349 9.664c.945 3.254-.586 6.586-4.96 7.855-3.826 1.111-7.732-.505-8.897-4.521-1.122-3.867 1.142-7.434 5.093-8.581 4.375-1.271 6.993.88 7.58 2.749.038.127-.004.299-.257.373l-2.177.632c-.127.036-.287.037-.38-.12-.525-.947-1.868-1.864-4.066-1.225-2.304.668-3.624 2.908-2.92 5.338.78 2.684 3.148 3.578 5.324 2.946 2.283-.663 3.325-2.202 3.054-3.452l-4.671 1.356c-.126.037-.345-.084-.381-.211l-.467-1.606c-.036-.127.083-.346.21-.382l7.608-2.208.307 1.057zM247.404 8.271c.301 2.646 2.434 4.064 4.751 3.801 2.318-.264 4.078-2.125 3.777-4.77-.3-2.646-2.434-4.064-4.752-3.8-2.317.263-4.077 2.124-3.776 4.77m11.501-1.309c.468 4.111-2.53 7.154-6.466 7.602-3.936.448-7.54-1.845-8.009-5.955-.46-4.046 2.531-7.153 6.467-7.602 3.936-.448 7.55 1.91 8.008 5.955M264.688 11.084l6.513-.055c.132-.001.31.174.311.306l.015 1.892c.001.132-.173.31-.305.31l-9.242.078c-.131 0-.265-.131-.266-.261L261.609.68c-.001-.133.13-.266.262-.268l2.464-.02c.132-.001.265.129.266.262l.087 10.43zM277.158 3.17l-.76 8.152 2.87.268c2.783.26 4.398-1.182 4.631-3.68.233-2.497-1.416-4.242-3.914-4.475l-2.827-.264zm-3.71 10.397c-.132-.013-.25-.157-.239-.288L274.387.658c.012-.132.156-.252.287-.238l5.544.517c4.163.388 7.035 3.243 6.661 7.253-.37 3.964-3.243 6.328-7.844 5.898l-5.587-.521zM291.657 13.46l6.337 1.496c.128.03.26.24.23.37l-.436 1.842c-.03.128-.242.259-.37.229l-8.99-2.122c-.13-.031-.228-.19-.198-.318l2.91-12.33c.03-.13.188-.227.317-.197l2.398.566c.128.03.226.19.196.318l-2.394 10.147zM302.157 18.84c-.043.125-.211.207-.335.164l-2.33-.801c-.125-.043-.207-.211-.164-.336l4.122-11.98c.043-.123.21-.205.336-.162l2.329.8c.125.044.207.212.164.337l-4.122 11.979zM315.1 24.524l-3.417-8.987c-.363-.928-.692-2.153-.692-2.153l-.06-.026-3.325 7.6c-.053.12-.227.188-.348.135L305 20.105c-.12-.053-.189-.227-.135-.348l5.08-11.61c.052-.12.226-.188.347-.136l1.855.811 3.391 8.881c.374.957.696 2.25.696 2.25l.081.035 3.325-7.599c.053-.12.227-.188.348-.136l2.257.988c.121.054.19.227.136.348l-5.08 11.61c-.053.121-.226.19-.348.137l-1.854-.812zM335.53 25.746c-1.054 3.22-4.196 5.107-8.523 3.689-3.784-1.24-6.098-4.777-4.796-8.749 1.254-3.825 5.134-5.493 9.044-4.211 4.327 1.417 5.275 4.667 4.707 6.542-.041.125-.172.245-.423.163l-2.154-.705c-.125-.042-.257-.131-.245-.313.099-1.078-.493-2.592-2.667-3.305-2.278-.747-4.631.358-5.42 2.762-.87 2.654.582 4.727 2.735 5.433 2.257.739 3.986.056 4.467-1.128l-4.62-1.515c-.125-.041-.238-.263-.197-.389l.52-1.588c.042-.125.264-.239.39-.198l7.525 2.467-.342 1.045zM342.138 21.926l-.976 8.123 2.86.344c2.773.334 4.425-1.063 4.724-3.552.3-2.49-1.302-4.276-3.79-4.575l-2.818-.34zm-3.983 10.287c-.13-.016-.246-.162-.23-.293l1.511-12.578c.016-.131.162-.246.294-.23l5.524.664c4.15.499 6.942 3.425 6.462 7.42-.475 3.955-3.408 6.238-7.993 5.687l-5.568-.67zM357.45 23.1l.035 4.181 3.19-.026c1.65-.014 2.7-.793 2.69-2.091-.012-1.299-1.075-2.104-2.725-2.09l-3.19.026zm-3.01-2.22c-.002-.131.13-.264.26-.264l6.118-.052c3.212-.026 5.515 1.692 5.54 4.575.015 2.002-1.184 3.355-2.939 3.985l.001.044s.4.415.711.875l2.25 3.238c.111.153.133.24.134.285 0 .087-.043.153-.175.154l-2.926.026c-.11 0-.265-.087-.354-.218l-2.717-3.894-2.839.024.032 3.873c.002.132-.129.264-.26.266l-2.466.02c-.13.002-.265-.13-.266-.263l-.105-12.674zM372.588 32.894c.012.132-.108.273-.24.285l-2.454.215c-.132.013-.275-.106-.286-.238l-1.107-12.621c-.012-.133.108-.276.24-.288l2.453-.213c.132-.012.275.107.287.239l1.107 12.62zM387.93 30.466l-8.04-5.265c-.837-.537-1.822-1.335-1.822-1.335l-.065.015 1.772 8.1c.028.129-.073.285-.201.313l-2.407.526c-.13.029-.286-.072-.314-.201l-2.707-12.375c-.028-.13.073-.286.202-.314l1.976-.432 7.957 5.193c.864.553 1.885 1.41 1.885 1.41l.086-.018-1.772-8.1c-.028-.128.073-.286.2-.314l2.408-.526c.129-.028.286.072.314.2l2.707 12.376c.028.129-.073.287-.201.314l-1.977.433zM398.342 18.972l8.175 4.079c.115.049.152.08.185.162.026.06.018.159-.124.218l-2.929 1.206c-.183.076-.342.094-.523.002l-5.937-2.98-1.078 2.466 1.173 2.848c.05.123-.022.295-.144.346l-2.278.937c-.122.05-.294-.021-.344-.143l-4.825-11.716c-.05-.122.021-.295.143-.345l2.278-.938c.122-.05.294.02.345.144l2.22 5.39.04-.017s.187-.53.447-1.111l2.817-6.561c.108-.26.233-.358.437-.442l2.888-1.19c.142-.058.225.027.242.068.024.06.021.109-.05.282l-3.158 7.295zM408.422 17.663c.246-.097.41-.043.53.146.616.963 1.755 1.273 3.7.507 1.966-.773 2.556-1.857 2.21-2.738-.226-.572-.837-.924-2.106-.543l-3.299.99c-2.579.78-4.36.157-5.086-1.687-.838-2.129.252-4.828 3.877-6.254 3.747-1.475 6.07-.379 6.843 1.587.073.184-.006.405-.252.501l-2.027.798c-.205.081-.352.067-.49-.162-.404-.669-1.375-1.091-3.176-.382-1.72.676-2.409 1.752-2.055 2.652.218.553.748.818 1.906.457l3.28-.982c2.962-.883 4.653.107 5.321 1.806.758 1.926-.055 4.729-4.028 6.291-3.747 1.475-6.516.507-7.314-1.52l-.064-.164c-.08-.204.02-.433.244-.522l1.986-.781z" transform="translate(8.000000, 37.000000)"/>
                        <path fill="#E7C2C2" d="M425.758 16.387c-.13.024-.284-.08-.31-.21l-2.372-12.445c-.025-.13.08-.284.21-.31l9.723-1.853c.129-.025.335.115.36.245l.354 1.858c.025.129-.115.336-.244.36l-7.044 1.343.618 3.24 6.309-1.202c.129-.024.335.116.36.245l.354 1.858c.025.13-.115.336-.244.36l-6.31 1.203.865 4.537c.025.13-.08.285-.21.31l-2.42.46zM439.168 7.566c.154 2.657 2.204 4.191 4.53 4.057 2.328-.134 4.188-1.893 4.034-4.55-.154-2.657-2.203-4.192-4.53-4.058-2.327.135-4.187 1.895-4.034 4.551m11.55-.666c.238 4.13-2.923 6.998-6.876 7.227-3.952.227-7.421-2.26-7.66-6.388-.233-4.063 2.923-6.998 6.875-7.226 3.953-.228 7.426 2.324 7.661 6.387M456.296 11.226l6.507.243c.132.006.303.189.298.32l-.072 1.89c-.005.133-.188.303-.318.298l-9.236-.347c-.133-.006-.26-.142-.255-.274l.475-12.665c.005-.131.142-.258.274-.253l2.464.091c.132.006.259.142.254.274l-.392 10.424zM467.97 12.084l6.45.89c.13.018.28.217.263.347l-.26 1.874c-.017.13-.215.282-.346.264l-9.151-1.264c-.131-.017-.244-.166-.226-.297l1.73-12.55c.019-.131.168-.244.299-.226l2.44.337c.13.018.244.166.226.297l-1.425 10.328zM479.274 9.873c-.742 2.557.679 4.687 2.919 5.338 2.24.65 4.581-.389 5.323-2.946.742-2.558-.679-4.689-2.919-5.339-2.24-.65-4.581.389-5.323 2.947m11.116 3.226c-1.153 3.973-5.093 5.626-8.896 4.521-3.804-1.104-6.247-4.608-5.094-8.582 1.135-3.909 5.093-5.625 8.896-4.52 3.805 1.103 6.229 4.671 5.094 8.581M503.495 26.13l-1.67-.735.13-7.825c.01-.404.07-.978.07-.978l-.04-.018s-.363.442-.654.72l-5.705 5.37-1.671-.735-.214-14.081c-.005-.098 0-.217.026-.277.026-.06.093-.102.214-.05l2.415 1.064c.242.107.282.124.287.439l.173 6.973c.027.757-.127 2.034-.127 2.034l.08.037s.539-.677 1.104-1.197l5.487-5.201 1.288.568-.133 7.559c-.011.788-.138 1.62-.138 1.62l.08.037s.839-.976 1.416-1.468l5.262-4.58c.227-.187.276-.19.517-.084l2.415 1.065c.12.053.135.13.108.19-.026.062-.111.145-.187.207l-10.533 9.347zM518.277 20.305c-.129-.025-.269-.231-.244-.361l.358-1.858c.025-.131.231-.27.361-.244l12.273 2.365c.13.026.27.232.244.362l-.359 1.857c-.025.13-.23.27-.36.244l-4.668-.9-1.974 10.242c-.025.13-.179.234-.309.209l-2.42-.466c-.13-.024-.235-.18-.21-.31l1.975-10.241-4.667-.9zM545.622 33.772c-.005.132-.142.26-.274.254l-2.462-.093c-.133-.004-.26-.14-.254-.273l.175-4.684-7.586-.284-.175 4.684c-.005.131-.142.258-.274.253l-2.463-.092c-.132-.004-.26-.14-.254-.274l.475-12.665c.005-.132.142-.259.274-.254l2.463.093c.13.004.258.142.253.273l-.205 5.475 7.586.285.205-5.475c.005-.132.142-.259.274-.254l2.463.093c.132.003.258.14.254.273l-.475 12.665zM552.343 28.175l.23 2.982 7.719-.596c.132-.01.32.152.33.283l.146 1.887c.01.13-.152.32-.283.33l-10.437.806c-.132.01-.273-.111-.284-.243l-.975-12.63c-.01-.131.11-.273.242-.283l10.306-.797c.13-.01.32.153.33.283l.146 1.887c.01.13-.151.32-.283.33l-7.586.586.206 2.676 6.929-.535c.132-.011.32.15.33.283l.146 1.885c.01.132-.151.32-.283.33l-6.93.536zM571.853 28.148l6.26-1.793c.127-.035.344.085.381.212l.521 1.82c.036.125-.084.343-.21.38l-8.884 2.543c-.127.037-.29-.054-.326-.18l-3.49-12.182c-.036-.126.055-.29.182-.326l2.368-.679c.127-.036.29.055.327.182l2.871 10.023zM584.463 26.186c.049.122-.025.294-.148.343l-2.29.907c-.123.049-.294-.024-.343-.148l-4.667-11.777c-.049-.122.026-.294.148-.343l2.29-.907c.123-.048.294.026.343.149l4.667 11.776zM597.766 14.32c1.332 3.115.217 6.607-3.972 8.398-3.662 1.567-7.735.436-9.379-3.408-1.583-3.703.232-7.517 4.016-9.136 4.188-1.79 7.047.027 7.857 1.81.052.121.032.297-.21.4l-2.085.892c-.122.052-.28.072-.39-.072-.638-.876-2.082-1.622-4.186-.724-2.206.944-3.245 3.326-2.25 5.653 1.1 2.57 3.557 3.17 5.641 2.28 2.186-.935 3.033-2.59 2.612-3.798l-4.47 1.912c-.122.052-.353-.04-.405-.162l-.658-1.538c-.052-.12.041-.353.162-.404l7.284-3.115.433 1.012zM614.944 15.156c.035.127-.058.29-.185.324l-2.378.65c-.126.034-.29-.058-.324-.186l-1.235-4.52-7.322 2 1.235 4.521c.035.127-.058.29-.186.324l-2.376.65c-.128.034-.29-.058-.325-.186l-3.34-12.225c-.034-.127.058-.29.186-.325l2.376-.649c.128-.034.29.058.325.184l1.444 5.286 7.322-2-1.444-5.286c-.034-.126.059-.289.185-.324l2.378-.649c.127-.034.289.057.324.184l3.34 12.227zM615.38 4.574c-.13.015-.324-.14-.34-.27l-.206-1.882c-.015-.13.14-.327.272-.34l12.42-1.369c.13-.015.325.14.34.271l.207 1.881c.015.131-.141.326-.272.34l-4.723.521 1.142 10.364c.015.131-.102.277-.233.292l-2.45.27c-.13.014-.276-.103-.29-.234l-1.143-10.365-4.723.521z" transform="translate(8.000000, 37.000000)"/>
                        <path fill="#8E83A3" d="M644.28 9.027l.386-1.349c-.127-.643-.594-1.038-1.187-1.063-1.12-.047-1.94 1.13-1.992 2.338-.034.791.385 1.293 1 1.318.66.028 1.3-.539 1.792-1.244zm4.695 6.582c-1.5.597-3.368 1.046-5.829.941-4.702-.199-8.356-3.325-8.144-8.335.214-5.053 4.1-7.905 8.757-7.708 4.77.204 8.313 3.303 8.14 7.39-.115 2.702-1.944 4.848-4.845 4.726-1.494-.065-2.303-.715-2.664-1.545l-.088-.003c-.554.614-1.369 1.152-2.468 1.106-1.626-.069-2.805-1.33-2.724-3.242.098-2.307 1.792-4.37 4.297-4.264.791.034 1.571.331 2.03.945l.043.002.28-.384c.142-.215.276-.275.452-.268l1.34.057c.154.006.28.166.274.298-.003.065-.03.175-.08.348l-1.183 4c-.256.848.227 1.397.996 1.43 1.494.063 2.767-1.402 2.846-3.269.134-3.164-2.666-5.66-6.709-5.832-4.02-.17-7.034 2.366-7.2 6.277-.162 3.845 2.626 6.604 6.713 6.777 2.33.1 4.067-.378 5.385-.849l.381 1.402zM668.063 11.479c-.679 3.317-3.583 5.55-8.043 4.639-3.9-.8-6.603-4.045-5.765-8.14.808-3.942 4.47-6.043 8.499-5.22 4.46.913 5.774 4.034 5.425 5.96-.026.13-.143.262-.402.21l-2.219-.455c-.129-.026-.271-.1-.279-.282-.026-1.082-.787-2.518-3.028-2.977-2.348-.48-4.558.886-5.065 3.364-.561 2.737 1.118 4.63 3.337 5.084 2.327.474 3.965-.403 4.307-1.634l-4.761-.975c-.13-.026-.267-.233-.24-.363l.335-1.637c.026-.13.234-.266.363-.24l7.757 1.587-.221 1.079zM673.187 12.618c-.973 2.478.246 4.73 2.417 5.581 2.17.854 4.596.033 5.57-2.445.972-2.477-.247-4.729-2.418-5.58-2.17-.854-4.596-.034-5.569 2.444m10.771 4.23c-1.512 3.85-5.585 5.134-9.27 3.686-3.687-1.447-5.798-5.159-4.286-9.01 1.488-3.788 5.585-5.134 9.271-3.686 3.686 1.447 5.772 5.221 4.285 9.01M687.345 22.986l5.989 2.552c.122.052.215.282.163.404l-.742 1.74c-.052.121-.282.214-.404.162l-8.498-3.62c-.121-.052-.191-.225-.14-.347l4.967-11.655c.052-.12.225-.19.346-.138l2.266.964c.122.053.19.226.139.348l-4.086 9.59zM701.35 19.647l-2.09 7.913 2.787.735c2.701.713 4.531-.442 5.171-2.867.64-2.425-.7-4.417-3.125-5.056l-2.744-.725zm-5.367 9.642c-.128-.035-.222-.196-.188-.323l3.234-12.252c.034-.129.195-.222.323-.188l5.381 1.421c4.042 1.066 6.405 4.352 5.378 8.245-1.017 3.851-4.238 5.708-8.704 4.528l-5.424-1.43zM715.574 30.79l6.481.618c.132.014.29.205.277.336l-.179 1.884c-.013.132-.205.29-.336.276l-9.197-.877c-.13-.012-.25-.156-.237-.288l1.204-12.612c.012-.131.156-.25.288-.238l2.452.234c.131.013.25.156.238.288l-.99 10.379zM727.819 33.719c-.002.132-.137.262-.27.259l-2.463-.048c-.132-.003-.262-.137-.26-.27l.247-12.673c.002-.132.137-.262.269-.26l2.464.049c.133.002.262.136.259.269l-.246 12.674zM743.018 33.396l-7.171-6.408c-.75-.656-1.605-1.592-1.605-1.592l-.066.005.547 8.278c.008.131-.115.272-.247.28l-2.46.164c-.13.007-.271-.116-.28-.247l-.835-12.648c-.008-.13.115-.27.246-.28l2.02-.134 7.1 6.324c.772.676 1.654 1.677 1.654 1.677l.088-.006-.546-8.278c-.01-.13.114-.272.246-.28l2.459-.164c.132-.007.272.116.28.246l.836 12.65c.009.13-.114.27-.246.28l-2.02.133zM761.733 23.476c.832 3.285-.812 6.562-5.229 7.68-3.86.977-7.708-.772-8.734-4.826-.989-3.903 1.397-7.39 5.386-8.4 4.416-1.119 6.958 1.12 7.48 3.009.034.128-.014.3-.27.363l-2.197.558c-.128.03-.289.027-.374-.133-.495-.965-1.805-1.928-4.023-1.366-2.326.59-3.723 2.781-3.102 5.235.687 2.709 3.022 3.684 5.219 3.128 2.304-.584 3.399-2.087 3.171-3.346l-4.715 1.195c-.128.032-.341-.096-.374-.224l-.41-1.62c-.033-.13.095-.342.223-.375l7.679-1.944.27 1.066zM765.338 16.732l3.207 7.525 2.651-1.129c2.57-1.094 3.304-3.128 2.322-5.435-.983-2.307-3.263-3.057-5.57-2.074l-2.61 1.113zm1.682 10.902c-.122.051-.295-.018-.347-.14l-4.966-11.655c-.052-.12.018-.294.14-.345l5.12-2.182c3.843-1.638 7.725-.494 9.303 3.208 1.56 3.663.158 7.105-4.09 8.915l-5.16 2.2zM780.027 10.5l1.433 3.925 2.995-1.093c1.55-.565 2.277-1.65 1.833-2.869-.446-1.219-1.716-1.622-3.265-1.057l-2.996 1.094zm-3.58-1.083c-.044-.124.035-.293.159-.339l5.743-2.095c3.017-1.1 5.76-.253 6.748 2.455.687 1.879.01 3.554-1.432 4.736l.015.041s.515.258.963.586l3.202 2.296c.157.106.207.182.222.223.03.082.012.16-.112.205l-2.748 1.002c-.104.038-.28.008-.407-.086l-3.862-2.757-2.665.972 1.327 3.637c.045.123-.034.293-.158.338l-2.313.844c-.124.045-.293-.034-.34-.158l-4.341-11.9zM796.935 16.148c.032.128-.064.287-.192.32l-2.393.588c-.129.032-.288-.064-.32-.192L790.998 4.56c-.032-.128.065-.288.193-.319l2.392-.59c.128-.03.29.064.32.193l3.032 12.305zM810.813 14.227l-7.529-5.98c-.785-.612-1.694-1.497-1.694-1.497l-.066.008 1.024 8.233c.017.13-.098.277-.229.293l-2.445.303c-.131.018-.279-.096-.295-.227L798.014 2.78c-.016-.13.099-.278.23-.294l2.008-.25 7.454 5.902c.809.632 1.748 1.58 1.748 1.58l.088-.012-1.025-8.232c-.017-.13.099-.278.23-.294l2.445-.305c.131-.015.278.099.295.23l1.564 12.578c.017.13-.098.277-.229.295l-2.009.248zM822.73 6.62l6.064 6.836c.089.087.112.132.113.22 0 .065-.043.154-.198.155l-3.167.026c-.199.002-.353-.04-.487-.193l-4.398-4.98-1.921 1.885.026 3.081c.001.131-.13.265-.261.266l-2.465.02c-.132.001-.265-.13-.267-.26L815.664 1c-.001-.132.129-.265.262-.267l2.464-.02c.132 0 .266.13.267.262l.048 5.83h.044s.371-.42.829-.865l5.063-5.037c.196-.199.35-.245.57-.247l3.124-.026c.155 0 .2.11.2.152.001.066-.021.111-.152.244L822.73 6.62zM832.655 9.77c.263.029.383.152.403.375.1 1.14.967 1.939 3.046 2.16 2.1.223 3.125-.466 3.225-1.406.064-.613-.316-1.206-1.616-1.455l-3.384-.648c-2.646-.502-3.94-1.876-3.73-3.845.242-2.277 2.455-4.165 6.328-3.755 4.004.425 5.558 2.47 5.335 4.57-.021.197-.192.356-.455.327l-2.166-.229c-.22-.024-.343-.103-.36-.37-.05-.78-.715-1.602-2.64-1.806-1.838-.196-2.945.44-3.048 1.401-.062.592.286 1.071 1.48 1.286l3.36.644c3.036.588 4.077 2.246 3.885 4.063-.218 2.056-2.233 4.167-6.478 3.716-4.004-.424-6.013-2.562-5.784-4.728l.019-.175c.023-.22.217-.375.458-.35l2.122.226z" transform="translate(8.000000, 37.000000)"/>
                        <path fill="#E7C2C2" d="M848.596 16.693c-.126-.039-.214-.205-.175-.33l3.727-12.11c.04-.128.204-.215.33-.177l9.462 2.912c.126.04.243.26.204.385l-.557 1.808c-.039.126-.259.242-.385.203l-6.854-2.109-.97 3.154 6.14 1.89c.125.038.242.26.203.385l-.557 1.808c-.039.126-.258.243-.384.204l-6.14-1.889-1.359 4.415c-.039.127-.204.214-.33.176l-2.355-.725zM864.484 15.178c-1.064 2.439.068 4.734 2.205 5.668 2.137.934 4.59.205 5.656-2.234 1.066-2.44-.068-4.735-2.205-5.668-2.135-.933-4.591-.205-5.656 2.234m10.603 4.63c-1.656 3.79-5.773 4.92-9.401 3.335-3.63-1.584-5.598-5.373-3.943-9.162 1.629-3.73 5.773-4.92 9.4-3.334 3.63 1.584 5.572 5.433 3.944 9.162M878.86 25.759l6.125 2.213c.124.045.23.27.186.394l-.644 1.78c-.045.124-.27.229-.395.184l-8.69-3.14c-.124-.044-.203-.213-.158-.337l4.306-11.918c.045-.124.214-.204.338-.16l2.318.838c.124.045.204.214.159.338l-3.544 9.808zM891.128 29.392l6.386 1.265c.13.026.268.233.242.363l-.366 1.854c-.028.13-.233.268-.363.243l-9.062-1.794c-.13-.026-.234-.181-.207-.311l2.46-12.428c.026-.13.18-.232.31-.207l2.416.479c.13.024.235.18.209.31l-2.025 10.226zM902.626 27.057c-.144 2.659 1.722 4.413 4.052 4.539 2.328.127 4.374-1.416 4.518-4.074.144-2.658-1.723-4.412-4.052-4.54-2.33-.125-4.374 1.417-4.518 4.075m11.558.627c-.224 4.13-3.688 6.63-7.642 6.417-3.956-.214-7.128-3.074-6.904-7.205.22-4.066 3.686-6.632 7.641-6.418 3.956.214 7.125 3.14 6.905 7.206M931.953 33.049l-1.817.17-3.7-6.898c-.186-.357-.414-.888-.414-.888l-.043.005s-.102.56-.22.947l-2.368 7.469-1.817.172-7.046-12.195c-.052-.083-.105-.188-.112-.255-.006-.065.03-.134.163-.147l2.628-.247c.263-.026.306-.03.464.243l3.548 6.007c.392.647.88 1.838.88 1.838l.087-.008s.14-.853.38-1.582l2.26-7.215 1.4-.133L929.794 27c.375.694.67 1.484.67 1.484l.088-.01s.256-1.26.52-1.97l2.365-6.562c.107-.276.149-.301.412-.327l2.627-.246c.13-.012.182.049.188.115.006.065-.027.179-.063.27l-4.647 13.295zM941.883 20.052c-.124.047-.35-.056-.397-.18l-.672-1.767c-.047-.124.054-.351.178-.398l11.683-4.437c.123-.047.351.054.397.178l.672 1.769c.047.123-.055.35-.178.398l-4.443 1.687 3.703 9.75c.047.123-.03.294-.153.34l-2.304.876c-.124.047-.294-.03-.34-.153l-3.704-9.75-4.442 1.687zM971.922 19.014c.05.12-.02.294-.143.345l-2.275.944c-.12.05-.294-.02-.345-.142l-1.797-4.326-7.006 2.91 1.796 4.328c.051.12-.02.294-.142.344l-2.275.946c-.122.049-.293-.021-.344-.143l-4.86-11.698c-.05-.122.02-.295.142-.346l2.274-.944c.122-.051.294.02.345.142l2.102 5.057 7.007-2.911-2.102-5.057c-.05-.122.02-.295.143-.345l2.274-.945c.122-.051.295.02.346.142l4.86 11.699zM976.064 12.34l.753 2.895 7.493-1.95c.128-.033.342.092.375.22l.477 1.83c.033.128-.093.343-.221.376l-10.132 2.637c-.128.033-.288-.061-.321-.19l-3.191-12.26c-.034-.127.061-.288.189-.322l10.005-2.603c.127-.033.342.094.375.22l.476 1.83c.034.13-.092.343-.22.377l-7.366 1.917.676 2.596 6.727-1.751c.128-.033.342.094.376.22l.476 1.832c.033.128-.093.343-.22.376l-6.727 1.75zM994.528 12.018l6.49-.52c.132-.01.322.152.332.284l.15 1.884c.01.133-.15.322-.282.332l-9.21.739c-.13.01-.273-.113-.283-.242l-1.01-12.631c-.011-.132.11-.275.24-.284l2.457-.198c.132-.01.273.113.284.243l.832 10.393zM1006.294 13.725c.001.133-.129.266-.26.268l-2.466.035c-.13.002-.264-.13-.266-.261l-.177-12.674c-.001-.132.129-.266.261-.267l2.465-.035c.13-.002.264.128.266.26l.177 12.674zM1023.04 8.752c-.206 3.382-2.77 6.002-7.313 5.725-3.975-.245-7.107-3.08-6.852-7.252.245-4.018 3.578-6.614 7.684-6.363 4.545.279 6.285 3.184 6.21 5.14-.008.133-.106.28-.37.265l-2.261-.138c-.132-.01-.283-.063-.316-.24-.177-1.07-1.133-2.383-3.416-2.524-2.393-.146-4.39 1.518-4.545 4.042-.171 2.788 1.757 4.427 4.019 4.566 2.37.145 3.87-.953 4.036-2.221l-4.853-.297c-.131-.01-.295-.195-.288-.326l.102-1.67c.009-.131.194-.296.326-.288l7.905.483-.067 1.098zM1037.864 17.547c-.028.129-.186.23-.314.2l-2.407-.528c-.13-.028-.23-.186-.201-.315l1.008-4.576-7.412-1.633-1.008 4.577c-.028.129-.186.23-.314.2l-2.407-.53c-.13-.027-.23-.184-.201-.313l2.725-12.375c.028-.13.185-.23.314-.201l2.406.529c.129.029.23.186.202.315l-1.178 5.349 7.412 1.633 1.178-5.35c.028-.128.185-.23.314-.201l2.406.53c.129.029.23.185.202.314l-2.725 12.375zM1043.19 8.411c-.123-.048-.223-.276-.174-.399l.695-1.76c.049-.123.278-.223.4-.174l11.623 4.594c.123.05.222.277.173.4l-.696 1.76c-.047.122-.276.221-.4.173l-4.42-1.747-3.832 9.7c-.05.122-.22.196-.343.147l-2.292-.906c-.123-.049-.197-.219-.148-.342l3.833-9.699-4.42-1.747z" transform="translate(8.000000, 37.000000)"/>
                        <path fill="#8E83A3" d="M1067.412 24.56l.765-1.175c.067-.654-.265-1.169-.825-1.366-1.058-.372-2.187.513-2.59 1.653-.264.747-.01 1.35.57 1.555.624.22 1.402-.136 2.08-.666zm2.565 7.674c-1.61.133-3.53.014-5.853-.806-4.441-1.567-7.022-5.629-5.352-10.36 1.686-4.773 6.238-6.363 10.637-4.81 4.503 1.59 6.987 5.594 5.625 9.453-.901 2.553-3.28 4.07-6.02 3.104-1.411-.498-1.994-1.359-2.097-2.259l-.082-.029c-.711.426-1.65.703-2.686.336-1.536-.541-2.295-2.093-1.658-3.898.77-2.18 2.994-3.659 5.36-2.823.748.265 1.407.776 1.665 1.498l.042.014.38-.285c.199-.163.345-.181.51-.122l1.267.445c.145.052.218.24.175.366-.023.061-.081.157-.18.31l-2.303 3.48c-.492.736-.191 1.404.535 1.66 1.41.498 3.058-.531 3.68-2.296 1.056-2.988-.893-6.195-4.711-7.543-3.798-1.34-7.424.204-8.727 3.898-1.282 3.631.579 7.088 4.438 8.45 2.2.777 4.002.83 5.402.764l-.047 1.453zM1091.579 28.287c-.416 3.363-3.137 5.82-7.656 5.26-3.952-.489-6.904-3.514-6.391-7.662.494-3.996 3.982-6.38 8.065-5.875 4.52.558 6.077 3.566 5.879 5.515-.015.131-.122.274-.383.241l-2.25-.278c-.131-.016-.278-.079-.3-.26-.11-1.077-.984-2.449-3.254-2.729-2.38-.294-4.477 1.241-4.787 3.753-.343 2.773 1.479 4.528 3.728 4.806 2.359.292 3.923-.712 4.167-1.967l-4.825-.597c-.131-.017-.284-.213-.267-.344l.205-1.66c.015-.13.212-.283.343-.267l7.86.972-.134 1.092zM1096.773 27.629c.03 2.662 2.009 4.289 4.34 4.262 2.334-.028 4.272-1.701 4.24-4.364-.03-2.662-2.008-4.29-4.341-4.261-2.332.027-4.27 1.7-4.24 4.363m11.574-.137c.049 4.137-3.242 6.86-7.202 6.907-3.961.046-7.315-2.598-7.363-6.735-.05-4.071 3.24-6.861 7.202-6.907 3.96-.047 7.315 2.665 7.363 6.735M1114.596 30.824l6.45-.885c.13-.018.328.132.346.263l.258 1.874c.017.131-.133.328-.264.347l-9.15 1.256c-.132.018-.28-.095-.299-.226l-1.723-12.55c-.017-.132.096-.28.226-.298l2.44-.335c.131-.018.28.095.298.226l1.418 10.328zM1124.852 20.584l2.463 7.805 2.75-.868c2.663-.841 3.592-2.795 2.837-5.187-.755-2.393-2.952-3.36-5.344-2.605l-2.706.855zm.616 11.018c-.126.039-.29-.047-.33-.173l-3.815-12.085c-.04-.125.047-.291.172-.331l5.308-1.675c3.986-1.26 7.74.256 8.952 4.096 1.2 3.796-.53 7.087-4.936 8.478l-5.35 1.69zM1142.519 22.77l5.976-2.588c.121-.053.352.039.405.16l.752 1.736c.053.122-.039.352-.16.405l-8.479 3.671c-.121.053-.295-.015-.348-.137l-5.036-11.627c-.051-.123.017-.296.138-.348l2.261-.98c.121-.051.295.018.347.139l4.144 9.569zM1154.207 20.289c.05.123-.025.295-.147.344l-2.288.91c-.123.049-.294-.025-.342-.148l-4.686-11.768c-.048-.123.026-.294.149-.343l2.287-.911c.122-.049.294.025.342.148l4.686 11.768zM1167.677 16.354l-8.309-4.834c-.865-.492-1.89-1.236-1.89-1.236l-.065.016 2.198 7.997c.035.127-.058.288-.185.325l-2.375.651c-.128.035-.29-.056-.325-.183l-3.358-12.216c-.034-.127.058-.292.185-.325l1.952-.538 8.222 4.767c.891.508 1.956 1.31 1.956 1.31l.085-.023-2.197-7.996c-.036-.127.057-.29.184-.325l2.376-.653c.127-.034.29.057.324.185l3.358 12.217c.035.127-.058.29-.185.325l-1.95.536zM1185.294 8.098c.34 3.37-1.77 6.369-6.304 6.824-3.963.399-7.51-1.9-7.928-6.06-.403-4.007 2.471-7.104 6.566-7.515 4.532-.455 6.717 2.135 6.956 4.079.013.13-.06.293-.322.32l-2.255.227c-.132.013-.289-.016-.35-.187-.347-1.026-1.502-2.171-3.778-1.943-2.387.239-4.092 2.202-3.84 4.72.28 2.78 2.445 4.09 4.701 3.863 2.365-.236 3.67-1.562 3.63-2.841l-4.84.486c-.132.013-.324-.145-.337-.276l-.167-1.664c-.013-.132.144-.324.276-.338l7.883-.791.11 1.096zM1191.065 3.373l-.113 8.186 2.882.04c2.794.039 4.29-1.525 4.325-4.034.035-2.508-1.747-4.118-4.256-4.152l-2.838-.04zm-2.877 10.656c-.132-.002-.262-.135-.261-.267l.176-12.674c.002-.133.136-.262.269-.261l5.566.077c4.18.059 7.27 2.676 7.214 6.703-.056 3.983-2.733 6.564-7.353 6.5l-5.611-.078zM1207.461 4.176l-.557 4.144 3.162.424c1.635.22 2.785-.402 2.957-1.69.173-1.286-.765-2.233-2.4-2.452l-3.162-.426zm-2.667-2.622c.018-.131.166-.244.297-.227l6.061.815c3.184.428 5.22 2.455 4.836 5.31-.266 1.986-1.644 3.155-3.47 3.53l-.006.045s.337.466.581.965l1.768 3.524c.088.166.1.257.093.3-.012.088-.064.147-.195.13l-2.9-.39c-.109-.015-.25-.122-.32-.265l-2.139-4.238-2.812-.38-.516 3.839c-.017.13-.166.244-.297.227l-2.442-.33c-.13-.016-.244-.165-.226-.295l1.687-12.56zM1219.81 17.048c-.032.128-.192.225-.32.192l-2.393-.59c-.129-.032-.225-.192-.193-.32l3.041-12.304c.031-.13.191-.225.32-.194l2.392.592c.13.03.224.19.193.319l-3.04 12.305zM1232.952 21.85l-3.842-8.813c-.407-.909-.794-2.116-.794-2.116l-.061-.022-2.957 7.749c-.047.122-.218.2-.341.151l-2.302-.877c-.123-.047-.2-.218-.152-.343l4.517-11.837c.047-.122.217-.2.34-.152l1.892.72 3.812 8.708c.419.936.803 2.213.803 2.213l.082.032 2.957-7.75c.047-.123.218-.198.34-.152l2.303.88c.124.046.2.216.153.34l-4.518 11.838c-.047.123-.217.2-.34.154l-1.892-.723zM1247.08 20.148l2.853 8.68c.046.115.049.164.015.244-.025.061-.1.125-.242.065l-2.918-1.232c-.182-.077-.307-.178-.368-.37l-2.061-6.317-2.51.97-1.2 2.837c-.05.121-.223.191-.345.141l-2.27-.959c-.121-.05-.191-.225-.141-.346l4.93-11.672c.053-.12.226-.19.348-.14l2.269.958c.12.051.192.225.14.346l-2.268 5.37.04.017s.507-.239 1.104-.465l6.645-2.613c.259-.106.418-.086.62 0l2.879 1.215c.14.06.139.177.122.218-.026.061-.064.093-.237.163l-7.405 2.89zM1255.864 26.346c.257.062.359.2.35.425-.052 1.142.7 2.05 2.732 2.544 2.052.5 3.158-.046 3.382-.965.146-.6-.152-1.237-1.408-1.656l-3.267-1.09c-2.557-.848-3.654-2.384-3.186-4.308.54-2.223 2.986-3.802 6.769-2.881 3.912.952 5.18 3.186 4.68 5.238-.046.193-.238.327-.493.264l-2.117-.514c-.213-.053-.327-.148-.306-.414.053-.78-.496-1.684-2.378-2.142-1.796-.437-2.978.046-3.206.985-.141.578.14 1.099 1.295 1.47l3.246 1.085c2.93.985 3.742 2.768 3.309 4.542-.488 2.01-2.766 3.833-6.914 2.823-3.912-.952-5.618-3.338-5.103-5.453l.042-.172c.052-.213.264-.343.5-.285l2.073.504z" transform="translate(8.000000, 37.000000)"/>
                        <path fill="#E7C2C2" d="M1273.577 33.973c-.133-.006-.26-.144-.253-.275l.545-12.657c.006-.131.144-.257.275-.252l9.888.426c.132.005.3.189.294.32l-.081 1.89c-.006.132-.19.3-.321.294l-7.163-.31-.142 3.298 6.416.276c.132.006.3.189.294.32l-.081 1.89c-.006.133-.19.3-.32.296l-6.416-.278-.2 4.616c-.006.13-.143.257-.274.25l-2.461-.104zM1288.502 27.71c.168 2.657 2.226 4.18 4.554 4.033 2.327-.147 4.177-1.917 4.01-4.574-.168-2.657-2.227-4.181-4.555-4.033-2.327.147-4.177 1.918-4.009 4.575m11.55-.73c.261 4.126-2.886 7.015-6.838 7.265s-7.438-2.22-7.698-6.347c-.257-4.062 2.884-7.016 6.837-7.266s7.441 2.285 7.698 6.348M1306.656 29.788l6.359-1.392c.129-.027.339.107.368.236l.404 1.847c.028.129-.107.339-.235.367l-9.024 1.974c-.13.028-.286-.072-.314-.201l-2.707-12.375c-.03-.129.072-.287.2-.314l2.407-.528c.129-.027.286.073.314.202l2.228 10.184zM1318.936 26.33l6.098-2.285c.123-.047.349.056.396.18l.664 1.771c.046.123-.056.35-.18.396l-8.652 3.244c-.124.046-.294-.032-.34-.156l-4.447-11.865c-.047-.123.03-.293.154-.34l2.308-.864c.123-.046.293.03.34.155l3.659 9.764zM1327.296 18.494c1.043 2.45 3.49 3.2 5.636 2.285 2.144-.914 3.3-3.199 2.255-5.646-1.043-2.45-3.49-3.2-5.635-2.285-2.145.914-3.299 3.2-2.256 5.646m10.643-4.534c1.621 3.804-.383 7.574-4.025 9.126-3.64 1.552-7.749.385-9.37-3.419-1.595-3.743.383-7.573 4.024-9.126 3.643-1.55 7.776-.324 9.371 3.42M1356.181 15.72l-1.775.426-4.634-6.31c-.237-.328-.536-.821-.536-.821l-.043.01s-.022.57-.084.97l-1.292 7.73-1.776.426-8.696-11.082c-.063-.076-.132-.172-.146-.237-.016-.064.011-.138.14-.17l2.567-.614c.256-.061.3-.072.494.175l4.36 5.448c.48.586 1.13 1.696 1.13 1.696l.086-.02s.018-.863.154-1.62l1.22-7.463 1.37-.328 4.47 6.099c.47.634.872 1.374.872 1.374l.086-.02s.077-1.285.238-2.025l1.417-6.832c.066-.288.105-.32.361-.38l2.568-.616c.128-.031.186.023.201.087.016.065 0 .182-.023.278l-2.729 13.819zM1366.623 3.72c-.132.005-.312-.167-.315-.298l-.05-1.891c-.002-.132.169-.313.302-.316l12.488-.32c.132-.004.312.168.316.299l.048 1.89c.004.133-.168.313-.3.317l-4.75.122.269 10.423c.003.13-.125.266-.257.269l-2.463.065c-.132.003-.267-.126-.27-.258l-.268-10.422-4.75.12zM1394.668 14.893c-.01.13-.151.252-.284.24l-2.455-.195c-.132-.011-.253-.152-.242-.285l.374-4.67-7.565-.607-.375 4.671c-.01.133-.152.253-.284.242l-2.455-.195c-.131-.011-.253-.152-.242-.285l1.01-12.63c.011-.131.153-.253.285-.242l2.456.196c.131.012.252.155.241.284l-.437 5.46 7.566.607.437-5.46c.01-.133.152-.252.284-.242l2.456.196c.13.01.251.153.241.283l-1.01 12.631zM1401.372 10.946l-.678 2.913 7.54 1.757c.129.03.26.241.23.37l-.428 1.842c-.03.13-.241.26-.37.23l-10.197-2.375c-.13-.03-.228-.189-.198-.317l2.874-12.34c.03-.128.189-.227.317-.197l10.069 2.345c.129.03.26.242.23.37l-.43 1.842c-.028.13-.24.26-.368.231l-7.413-1.727-.61 2.614 6.77 1.576c.13.03.26.242.23.37l-.428 1.843c-.03.13-.242.26-.37.23l-6.77-1.577zM1417.858 19.277l5.998 2.534c.12.052.215.282.163.404l-.736 1.743c-.051.122-.281.215-.404.163l-8.51-3.595c-.121-.052-.192-.224-.141-.346l4.93-11.672c.053-.122.225-.192.347-.14l2.27.96c.12.051.19.222.14.345l-4.057 9.604zM1427.797 26.037c-.053.121-.227.19-.348.137l-2.26-.979c-.12-.053-.19-.226-.138-.347l5.036-11.628c.053-.12.227-.19.348-.138l2.26.98c.122.052.19.225.138.346l-5.036 11.63zM1446.051 26.488c-1.034 3.226-4.164 5.134-8.5 3.744-3.793-1.215-6.13-4.736-4.854-8.717 1.23-3.834 5.098-5.528 9.016-4.273 4.337 1.391 5.307 4.635 4.751 6.514-.04.125-.17.245-.423.164l-2.157-.692c-.126-.04-.259-.129-.247-.31.092-1.078-.51-2.588-2.69-3.287-2.283-.732-4.628.388-5.4 2.796-.853 2.662.61 4.725 2.77 5.416 2.261.725 3.986.031 4.46-1.158l-4.63-1.483c-.127-.04-.24-.262-.2-.388l.51-1.592c.04-.126.261-.24.387-.199l7.542 2.416-.335 1.05zM1462.029 34.156c-.015.131-.16.248-.291.233l-2.45-.266c-.13-.015-.247-.16-.233-.29l.507-4.659-7.544-.82-.507 4.656c-.014.131-.16.25-.291.234l-2.45-.266c-.13-.015-.247-.16-.232-.29l1.37-12.596c.016-.13.16-.249.292-.234l2.449.267c.13.013.248.16.234.291l-.593 5.444 7.544.821.592-5.444c.014-.132.16-.248.29-.233l2.45.265c.132.015.249.16.234.291l-1.371 12.596z" transform="translate(8.000000, 37.000000)"/>
                    </g>
                </g>
            </g>
        </g>
    </g>
</svg>
