<svg xmlns="http://www.w3.org/2000/svg" width="152" height="43" viewBox="0 0 152 43">
    <g fill="none" fill-rule="evenodd">
        <g fill="#FFF">
            <g>
                <g>
                    <path d="M41.285 37.444c1.574 0 2.343.754 2.343 1.612-.001.042-.02.083-.052.111-.032.028-.074.042-.117.038h-.867c-.04.007-.08-.004-.111-.03s-.048-.065-.048-.105c-.051-.31-.356-.614-1.138-.614-.783 0-1.162.304-1.162.693 0 .244.16.422.646.469l1.382.103c1.247.108 1.734.726 1.734 1.466-.005.876-.722 1.813-2.446 1.813-1.63 0-2.525-.773-2.525-1.654v-.075c0-.044.018-.086.05-.116.032-.03.075-.045.119-.043l.862-.023c.087-.011.166.05.178.136.089.468.468.735 1.316.735.848 0 1.232-.319 1.232-.703 0-.248-.178-.468-.712-.515l-1.405-.112c-1.082-.09-1.658-.59-1.658-1.406 0-.937.805-1.78 2.38-1.78zm58.07.038c1.687 0 2.657 1.068 2.657 2.126 0 .061-.042.113-.14.113h-.919c-.089 0-.13-.033-.15-.14-.133-.68-.758-1.149-1.447-1.088-.963 0-1.743.78-1.743 1.743 0 .963.78 1.743 1.743 1.743.806 0 1.349-.398 1.447-.993 0-.117.061-.155.169-.155h.89c.038-.003.076.01.104.036.028.026.045.062.046.1 0 1.148-1.077 2.028-2.656 2.028-1.012.042-1.966-.474-2.484-1.344-.519-.87-.519-1.955 0-2.825.518-.87 1.472-1.386 2.484-1.344zm14.012 4.319c.24-.002.457.141.55.362.092.22.042.476-.127.645-.17.17-.425.22-.646.127-.22-.092-.364-.31-.362-.549 0-.323.262-.585.585-.585zm-4.946-4.338c1.602 0 2.941 1.11 2.941 2.754 0 1.673-1.34 2.76-2.941 2.76-1.603 0-2.942-1.087-2.942-2.76 0-1.672 1.34-2.754 2.942-2.754zm-22.899-.019c1.574 0 2.342.754 2.342 1.612 0 .042-.02.083-.051.111-.032.028-.075.042-.117.038h-.88c-.04.007-.082-.004-.112-.03-.031-.026-.049-.065-.048-.105-.052-.31-.356-.614-1.139-.614-.782 0-1.161.304-1.161.693 0 .244.159.422.646.469l1.377.117c1.247.108 1.734.726 1.734 1.466 0 .834-.717 1.77-2.44 1.77-1.631 0-2.526-.772-2.526-1.653v-.075c0-.044.018-.086.05-.116.032-.03.075-.046.119-.043l.876.005c.086-.011.166.05.178.136.089.468.468.735 1.316.735.848 0 1.232-.319 1.232-.703 0-.248-.178-.468-.707-.515l-1.406-.112c-1.086-.09-1.663-.59-1.663-1.406 0-.937.806-1.78 2.38-1.78zm-35.397.108c1.293 0 2.216.773 2.216 2 0 1.227-.96 1.963-2.216 1.963h-1.17v1.265c-.005.057-.051.103-.109.108H47.83c-.058-.005-.103-.05-.108-.108v-5.12c.002-.059.05-.106.108-.108h2.295zm6.877 0c.127 0 .23.103.23.23v4.876c0 .127-.103.23-.23.23h-.749c-.127 0-.23-.103-.23-.23v-4.876c0-.127.103-.23.23-.23h.749zm6.915 0c1.297 0 2.22.702 2.22 1.874.008.693-.42 1.31-1.059 1.551l-.14.046c.104.112.2.23.286.356l.9 1.317c.026.032.044.07.05.112 0 .037 0 .066-.07.066H64.92c-.057-.01-.108-.041-.14-.09l-1.068-1.569h-1.148v1.565c-.006.057-.051.101-.108.108h-.998c-.055-.007-.099-.052-.103-.108l-.014-5.12c.002-.057.047-.104.103-.108h2.474zm7.04 0c.127 0 .23.103.23.23v4.876c0 .127-.103.23-.23.23h-.748c-.127 0-.23-.103-.23-.23v-4.876c0-.127.103-.23.23-.23h.748zm8.967 0c.066.01.117.06.127.126v.764c-.012.064-.063.113-.127.122h-1.92v4.216c-.005.057-.05.103-.108.108h-.994c-.056-.007-.101-.051-.107-.108v-4.216h-1.92c-.063-.011-.112-.06-.123-.122v-.764c.01-.064.058-.115.122-.126h5.05zm28.487.923c-.466-.016-.918.162-1.246.493-.33.33-.506.783-.487 1.25.005.955.783 1.727 1.74 1.723.955-.003 1.728-.78 1.726-1.736-.001-.956-.777-1.73-1.733-1.73zm-58.403.089h-1.077v1.99h1.077c.384.046.76-.133.966-.46.207-.327.207-.743 0-1.07-.206-.327-.582-.506-.966-.46zm13.83 0h-1.29v1.69h1.29c.664 0 1.09-.313 1.09-.833s-.426-.857-1.09-.857zm87.32-30.352l-.618 4.268-4.15-.314c1.31 1.213 2.042 2.927 2.014 4.713 0 4.408-4.259 7.298-9.805 7.298-1.55.01-3.092-.234-4.563-.721l-.469.304c-.433.23-.698.686-.683 1.176 0 .38.304 1.18 2.056 1.256l7.8.412c5.017.267 7.495 1.977 7.495 5.322 0 5.246-6.272 7.963-12.812 7.963-4.83 0-9.73-1.522-9.73-4.98.013-.56.13-1.115.342-1.634l3.748-1.068h.15c-.254.775-.394 1.583-.417 2.398 0 2.886 2.094 4.685 5.893 4.685 5.322 0 9.008-1.79 9.008-4.413 0-1.673-1.255-2.581-5.509-2.81l-6.928-.362c-3.5-.192-4.526-2.051-4.526-3.878s1.218-3.04 3.537-4.409l.417-.23c-2.66-1.18-4.333-3.344-4.333-6.197 0-4.408 4.258-7.299 9.838-7.299 2.81 0 5.246.722 6.961 2.015.418-.264.721-.458 1.005-.642l.337-.22c.707-.465 1.528-1.023 3.942-2.633zm-127.712 0l-.613 4.268-4.137-.314c1.309 1.215 2.04 2.927 2.015 4.713 0 4.408-4.259 7.298-9.81 7.298-1.55.01-3.091-.234-4.563-.721l-.468.304c-.435.228-.7.685-.684 1.176 0 .38.304 1.18 2.052 1.256l7.809.412c5.017.267 7.495 1.977 7.495 5.322 0 5.246-6.272 7.963-12.812 7.963C4.895 39.918 0 38.395 0 34.938c.013-.561.13-1.116.342-1.635l3.748-1.068h.154c-.255.775-.396 1.583-.417 2.398 0 2.886 2.09 4.685 5.889 4.685 5.331-.01 9.022-1.799 9.022-4.422 0-1.673-1.255-2.582-5.513-2.811l-6.957-.38c-3.5-.192-4.525-2.051-4.525-3.878s1.218-3.04 3.537-4.409l.416-.23c-2.665-1.18-4.337-3.344-4.337-6.197 0-4.408 4.258-7.299 9.837-7.299 2.811 0 5.247.722 6.957 2.015.462-.29.785-.496 1.095-.697l.168-.11c.73-.477 1.516-1.014 4.03-2.688zM80.678 0v27.072l.834 2.502-6.84 1.672-1.063-3.19c-1.672 1.897-3.65 3.19-6.347 3.19-4.905 0-8.859-4.216-8.859-10.306 0-6.558 4.685-11.29 10.531-11.29 1.638-.028 3.244.45 4.6 1.368V1.94L80.528 0h.15zM46.017 18.28c1.134 6.478-2.919 11.34-9.318 12.442-6.52 1.12-12.199-2.3-13.313-8.803-1.115-6.502 2.909-11.336 9.317-12.442v.019c6.521-1.12 12.18 2.305 13.314 8.783zM55.869 0v30.792h-7.15V1.939L55.715 0h.155zm35.584 0v30.792H84.29l.019-28.853L91.303 0h.15zm10.78 9.425v21.367h-7.168l.018-19.807 7-1.56h.15zm10.76 0v3.233c1.56-1.71 3.42-3.003 6.46-3.003 4.296 0 6.881 2.319 6.881 7.336h.02v13.8h-7.164V16.158c0-1.33-.042-4.45-2.852-4.45-1.101 0-2.127.417-3.345 1.71v17.375h-7.149V10.985l6.994-1.56h.155zm-78.35.403c-2.774.028-3.945 4.216-3.875 10.381.07 6.165.989 10.18 3.992 10.147 2.773-.033 3.944-4.267 3.874-10.46-.07-6.09-1.026-10.1-3.991-10.068zm35.28.473c-2.853 0-3.992 3.748-3.992 10.152 0 7.07 1.368 8.816 3.879 8.816 1.288 0 2.342-.468 3.724-2.089V14.255c-.468-2.281-1.747-3.954-3.612-3.954zm-58.91-.037c-2.58 0-3.279 2.506-3.279 6.615 0 4.108 1.003 6.727 3.36 6.727 2.505 0 3.278-2.47 3.278-6.559l-.014-.018c0-4.142-1.026-6.765-3.344-6.765zm127.698 0c-2.586 0-3.279 2.506-3.279 6.615 0 4.108.988 6.727 3.345 6.727 2.51 0 3.279-2.47 3.279-6.559v-.018c0-4.142-1.026-6.765-3.345-6.765zM98.475 1.855c.854-.01 1.677.32 2.287.918.61.598.957 1.414.964 2.268 0 1.75-1.413 3.173-3.164 3.184-1.75.012-3.183-1.391-3.207-3.142-.023-1.75 1.37-3.192 3.12-3.228z" transform="translate(-644.000000, -22.000000) translate(31.000000, 20.000000) translate(613.000000, 2.000000)"/>
                </g>
            </g>
        </g>
    </g>
</svg>
