<svg xmlns="http://www.w3.org/2000/svg" width="76" height="75" viewBox="0 0 76 75">
    <g fill="none" fill-rule="evenodd">
        <g fill="#CBD785">
            <g>
                <path d="M24.195 50.775h-3.15V16.928c0-.415-.336-.75-.75-.75h-5.25c-.095 0-.19.017-.277.052l-6.075 2.543c-.264.118-.437.378-.443.667v6.293c.004.217.103.423.27.562.172.133.394.185.607.142l3.818-.787v25.125H9.697c-.414 0-.75.336-.75.75v6.87c0 .414.336.75.75.75h14.498c.414 0 .75-.336.75-.75v-6.893c-.012-.405-.344-.727-.75-.727zM35.58 15.75c8.01 0 9.623 8.445 9.623 22.072 0 16.066-2.52 21.75-9.623 21.75-7.102 0-9.622-5.707-9.622-21.75 0-13.627 1.635-22.072 9.622-22.072zm21.263 0c7.972 0 9.584 8.445 9.622 22.072 0 16.066-2.52 21.75-9.623 21.75-7.102 0-9.622-5.707-9.622-21.75v-.442c.036-13.368 1.7-21.63 9.623-21.63zM35.58 17.19c-5.925 0-8.175 5.633-8.175 20.632v.505c.06 16.527 3.044 19.783 8.175 19.783 5.175 0 8.175-3.322 8.175-20.288 0-15.037-2.25-20.632-8.175-20.632zm21.263 0c-5.926 0-8.176 5.633-8.176 20.632 0 16.965 3 20.288 8.175 20.288 5.138 0 8.138-3.322 8.175-20.288 0-15.037-2.25-20.632-8.174-20.632zm-37.246.465v33.847c0 .415.336.75.75.75h3.15l-.052 5.393H10.418v-5.423h3.247c.414 0 .75-.335.75-.75V24.72c-.014-.23-.133-.44-.322-.57-.173-.133-.394-.185-.608-.142l-3.78.892v-4.95l5.498-2.295h4.395zM35.58 22.5c2.37 0 2.685 3.082 2.685 15.322 0 12-.248 15-2.685 15-2.378 0-2.672-2.64-2.685-14.122v-1.766c.014-11.488.322-14.434 2.685-14.434zm21.263 0c2.332 0 2.647 3.082 2.684 15.322v.884c-.013 11.265-.308 14.116-2.684 14.116-2.379 0-2.672-2.64-2.685-14.122v-1.326c.006-11.853.292-14.874 2.684-14.874zM35.58 23.977c-1.007 0-1.194 5.094-1.23 10.32l-.003.654c-.003.545-.004 1.089-.004 1.627v1.735c.006 8.821.197 13.04 1.237 13.04 1.1 0 1.23-5.713 1.237-12.742v-1.918c0-1.092-.005-2.256-.02-3.42l-.01-.634c-.072-4.431-.326-8.662-1.207-8.662zm21.263 0c-1.007 0-1.195 5.094-1.23 10.32l-.004.654-.002.653-.001.65v2.511c.013 8.513.222 12.587 1.236 12.587 1.11 0 1.2-6.127 1.238-13.5V36.393c-.002-.904-.006-1.851-.017-2.802l-.008-.635-.005-.317-.011-.631c-.087-4.194-.358-8.03-1.197-8.03z" transform="translate(-229.000000, -1414.000000) translate(229.500000, 1414.000000)"/>
            </g>
        </g>
    </g>
</svg>
