<svg xmlns="http://www.w3.org/2000/svg" width="76" height="75" viewBox="0 0 76 75">
    <g fill="none" fill-rule="evenodd">
        <g fill="#E7C2C2">
            <g>
                <path d="M29.883 61.905h13.92c.154.003.302-.06.407-.173.104-.114.156-.266.14-.42 0-.052-.517-5.25-7.072-5.512h-.42c-6.982 0-7.5 5.483-7.5 5.535-.014.154.038.306.143.42.103.097.24.15.382.15zm5.588-2.828c.36-.609.42-1.35.165-2.01 0-.037 0-.067-.053-.097.418-.055.839-.085 1.26-.09.186.549.165 1.146-.06 1.68-.06.12-.135.232-.202.345-.068.112-.188.3-.27.457-.238.441-.334.943-.278 1.44h-1.665c.037-.266.129-.521.27-.75.1-.136.21-.263.33-.382.186-.18.355-.38.503-.593zm3.42-1.972c.21.471.253 1.001.12 1.5-.067.182-.15.357-.248.525-.1.177-.19.36-.27.547-.126.354-.162.732-.105 1.103h-1.237c-.078-.327-.024-.672.15-.96.062-.12.133-.234.21-.345.09-.15.18-.293.262-.45.3-.652.38-1.384.225-2.085.315.06.615.105.893.165zm4.245 3.698H39.52c-.075-.224-.075-.467 0-.69.065-.15.137-.294.217-.435.124-.22.232-.448.323-.683.15-.485.18-1 .082-1.5 1.456.579 2.562 1.8 2.993 3.308zM41.898 11.25c.304.004.548.251.548.555v.832h8.827c1.288 0 2.333 1.045 2.333 2.333v1.005c-.009 1.281-1.052 2.314-2.333 2.31h-4.942c-.68 0-1.23.55-1.23 1.23 0 .68.55 1.23 1.23 1.23h4.942c.618-.002 1.211.242 1.65.678.437.437.683 1.03.683 1.647v.203c0 .617-.246 1.21-.684 1.646-.438.436-1.03.68-1.649.678h-4.942c-.677.005-1.223.554-1.223 1.23v.398c0 .676.546 1.226 1.223 1.23h6.75c.28.033.49.27.49.551 0 .282-.21.519-.49.552h-6.75c-1.286-.005-2.325-1.048-2.325-2.333v-.383c0-1.284 1.04-2.325 2.325-2.325h4.942c.68 0 1.23-.55 1.23-1.23v-.202c0-.326-.13-.638-.36-.867-.231-.23-.544-.357-.87-.355h-4.942c-1.289 0-2.333-1.045-2.333-2.333 0-1.288 1.044-2.332 2.333-2.332h4.942c.326.001.639-.126.87-.356.23-.23.36-.541.36-.867v-1.02c.002-.327-.127-.64-.358-.872-.231-.231-.545-.36-.872-.358h-8.827v.848c0 .303-.244.55-.548.554h-1.957c-.182-.008-.359.06-.488.188-.303.426-.459.94-.442 1.463v1.687c.775.07 1.368.722 1.365 1.5v3.51c-.002 3.902 1.279 7.697 3.645 10.8 1.257 1.64 2.777 3.06 4.5 4.2 2.644 1.595 4.262 4.457 4.267 7.545l.003.03-.003.03c-.005.853-.132 1.702-.375 2.52-.624 2.205-2.093 4.076-4.087 5.205.87.45 1.42 1.345 1.425 2.325v7.5c0 .307-.249.555-.555.555h-24.75c-.307 0-.555-.248-.555-.555v-7.5c.001-1.015.584-1.94 1.5-2.378-1.94-1.14-3.365-2.986-3.975-5.152-.233-.78-.36-1.587-.375-2.4-.024-.057-.037-.118-.038-.18-.004-.032-.004-.065 0-.098.042-3.048 1.656-5.859 4.268-7.432 1.724-1.138 3.245-2.558 4.5-4.2 2.331-3.12 3.574-6.92 3.54-10.815v-3.51c0-.828.671-1.5 1.5-1.5V15.03c.006-.188.189-3.78 4.41-3.78zm5.183 43.335H26.456c-.852.004-1.541.693-1.545 1.545v6.967h23.67V56.13c-.004-.834-.666-1.517-1.5-1.545zm-12.645 2.64c.072.087.132.183.18.285.128.34.095.722-.09 1.035-.109.161-.232.312-.368.45-.154.155-.294.323-.42.503-.268.402-.438.862-.495 1.342h-2.722c.533-1.838 2.04-3.23 3.915-3.615zM51.61 46.568H22.098c.04.579.14 1.152.3 1.71.908 3.014 3.413 5.197 5.955 5.197h16.995c2.543 0 5.048-2.175 5.955-5.197.163-.558.266-1.131.308-1.71zm-5.183-8.22H27.273c-.457.367-.937.72-1.44 1.05-2.148 1.306-3.542 3.561-3.75 6.067h29.541l-.027-.28c-.273-2.298-1.546-4.359-3.477-5.632l-.244-.155c-.503-.3-.983-.683-1.448-1.05zm-7.56-18.788h-4.035c-.223 0-.405.181-.405.405v3.51c.017 4.135-1.318 8.162-3.802 11.468-.634.802-1.329 1.554-2.078 2.25h16.613c-.751-.694-1.446-1.447-2.078-2.25-2.49-3.304-3.828-7.332-3.81-11.468v-3.51c0-.224-.181-.405-.405-.405zm-1.995 8.175c.485-.029.96.14 1.317.468.358.328.567.787.58 1.272v3.345c-.009.48-.22.934-.581 1.25-.361.317-.839.468-1.316.415-.48.044-.957-.114-1.317-.435-.36-.322-.57-.778-.58-1.26v-3.113c-.012-.51.182-1.005.54-1.37.356-.366.846-.572 1.357-.572zm.765 3.615h-1.59v1.402c.045.218.12.593.795.593s.788-.337.795-.54V31.35zm-.795-2.55c-.218.002-.426.092-.576.25-.15.16-.229.372-.219.59v.585h1.59v-.773c-.045-.187-.105-.652-.795-.652zm4.5-16.448h-2.122c-3.15 0-3.308 2.423-3.308 2.693v3.42h2.003v-1.672c-.02-.815.245-1.611.75-2.25.337-.338.797-.525 1.275-.518h1.402v-1.673z" transform="translate(-229.000000, -1668.000000) translate(229.500000, 1668.000000)"/>
            </g>
        </g>
    </g>
</svg>
