<svg xmlns="http://www.w3.org/2000/svg" width="55" height="55" viewBox="0 0 55 55">
    <g fill="none" fill-rule="evenodd">
        <g>
            <g>
                <g transform="translate(-1107.000000, -8507.000000) translate(0.000000, 7939.000000) translate(1107.000000, 568.000000)">
                    <circle cx="27.5" cy="27.5" r="27.5" fill="#292340"/>
                    <path fill="#E7C2C2" d="M22.933 6.76c-.054-1.221-.252-2.061-.535-2.789-.292-.773-.741-1.464-1.33-2.04-.575-.583-1.271-1.037-2.035-1.325-.732-.283-1.567-.48-2.79-.534C15.014.014 14.624 0 11.5 0 8.378 0 7.987.014 6.76.067 5.54.121 4.7.32 3.972.602c-.773.292-1.464.741-2.04 1.33C1.349 2.507.895 3.203.607 3.967c-.283.732-.48 1.567-.534 2.79C.014 7.986 0 8.376 0 11.5c0 3.122.014 3.513.067 4.74.054 1.221.252 2.061.535 2.789.292.773.746 1.464 1.33 2.04.575.583 1.271 1.037 2.035 1.325.732.283 1.567.48 2.79.534 1.226.054 1.617.067 4.739.067s3.512-.013 4.739-.067c1.222-.054 2.062-.251 2.79-.534 1.545-.598 2.767-1.82 3.364-3.365.283-.732.48-1.568.535-2.79.054-1.226.067-1.617.067-4.739s-.005-3.513-.058-4.74zM12.107 2.09h.528c2.063.003 2.477.02 3.519.066 1.123.05 1.73.238 2.134.396.498.184.952.476 1.32.858.382.372.674.822.858 1.32.158.405.346 1.015.396 2.134.05 1.13.065 1.523.067 4.048v1.194c-.002 2.525-.017 2.914-.067 4.043-.05 1.123-.238 1.73-.396 2.134-.386 1.002-1.181 1.797-2.183 2.183-.404.158-1.015.346-2.134.396l-.57.024-.21.008c-.626.022-1.257.032-2.74.034l-.817.001H10.38c-2.061-.004-2.479-.02-3.52-.067-1.124-.05-1.73-.238-2.134-.396-.499-.184-.953-.476-1.32-.858-.383-.372-.675-.822-.859-1.32-.157-.405-.346-1.016-.395-2.134-.049-1.087-.064-1.492-.067-3.776V10.64c.002-1.67.01-2.337.034-2.998l.008-.21.025-.568c.05-1.123.238-1.73.395-2.134.184-.498.476-.952.863-1.32.372-.382.822-.674 1.32-.858.405-.158 1.016-.346 2.134-.396 1.046-.046 1.46-.063 3.52-.066h.528l.29-.001h.905zM11.5 5.592c-3.261 0-5.907 2.646-5.907 5.907s2.646 5.907 5.907 5.907 5.907-2.646 5.907-5.907-2.646-5.907-5.907-5.907zm0 2.075c2.116 0 3.832 1.716 3.832 3.832 0 2.05-1.61 3.724-3.635 3.827l-.197.004-.197-.004c-2.024-.103-3.635-1.777-3.635-3.827 0-2.116 1.716-3.832 3.832-3.832zm6.14-3.688c-.76 0-1.378.617-1.378 1.38 0 .76.617 1.378 1.379 1.378s1.379-.617 1.379-1.379-.617-1.379-1.38-1.379z" transform="translate(16.000000, 16.000000)"/>
                </g>
            </g>
        </g>
    </g>
</svg>
