<svg xmlns="http://www.w3.org/2000/svg" width="62" height="37" viewBox="0 0 62 37">
    <g fill="none" fill-rule="evenodd">
        <g fill="#4F662E">
            <g>
                <path d="M14.567 0c.828 0 1.5.672 1.5 1.5 0 6.83-2.505 12.914-6.385 16.508h50.333c1.052 0 1.905.853 1.905 1.905l-.006.149c-.076.982-.897 1.755-1.9 1.755H9.683c3.88 3.594 6.385 9.678 6.385 16.508 0 .829-.672 1.5-1.5 1.5s-1.5-.671-1.5-1.5c0-8.142-3.96-14.833-9.07-16.508h-1.35c-.443 0-.851-.151-1.175-.405H1.5c-.828 0-1.5-.671-1.5-1.5 0-.818.656-1.484 1.472-1.5.324-.253.732-.404 1.175-.404h1.352c5.109-1.675 9.068-8.366 9.068-16.508 0-.828.672-1.5 1.5-1.5z" transform="translate(-66.000000, -3041.000000) translate(65.257810, 3039.500000)"/>
            </g>
        </g>
    </g>
</svg>
