<svg xmlns="http://www.w3.org/2000/svg" width="76" height="75" viewBox="0 0 76 75">
    <g fill="none" fill-rule="evenodd">
        <g fill="#F5ABA0">
            <g>
                <path d="M37.351 7.658c-.249-.21-.613-.21-.862 0-.645.548-15.75 13.5-14.685 28.688.547 7.875 5.43 14.812 14.46 20.715v8.595c0 .372.302.675.675.675.373 0 .675-.303.675-.675v-8.43c1.83-1.133 14.25-9.308 15.262-22.245.698-9.113-4.522-18.323-15.525-27.323zm14.183 27.21c-.84 11.04-10.83 18.63-13.92 20.738v-5.948l8.04-9.675c.147-.286.072-.636-.18-.836-.251-.2-.61-.196-.855.011l-7.005 8.408V38.52l9.262-8.895c.24-.264.233-.668-.015-.924-.248-.255-.651-.275-.922-.044l-8.325 7.995v-8.317l4.027-5.723c.183-.194.234-.478.13-.724-.103-.245-.34-.407-.607-.413-.267-.006-.512.146-.625.387l-2.925 4.155v-6.885c0-.373-.302-.675-.675-.675-.373 0-.675.302-.675.675v12.203l-5.025-6.428c-.111-.142-.274-.234-.453-.255-.179-.021-.359.03-.5.143-.141.109-.233.27-.254.448-.021.178.03.357.142.497l6.09 7.792v9.93l-8.25-9.36c-.249-.27-.668-.292-.944-.05-.275.243-.306.662-.069.943l9.248 10.5v9.937c-8.175-5.52-12.6-12-13.103-19.192-.9-13.103 11.348-24.96 13.793-27.195 10.335 8.61 15.24 17.295 14.595 25.822z" transform="translate(-229.000000, -1138.000000) translate(229.500000, 1138.000000)"/>
            </g>
        </g>
    </g>
</svg>
