<svg xmlns="http://www.w3.org/2000/svg" xmlns:xlink="http://www.w3.org/1999/xlink" width="52" height="75" viewBox="0 0 52 75">
    <defs>
        <path id="6i07mvhpma" d="M4.673 1.453C.104 1.453-.65 6.086.444 8.734c1.09 2.648 4.336 4.493 7.231 4.236 10.371-.926 12.977.576 14.33 3.31 1.863 3.775 4.084 3.72 6.368 3.72 4.097 0 3.487-5.86 3.625-11.407C32.162 2.33 20.23 0 20.23 0S6.857 1.453 4.673 1.453"/>
    </defs>
    <g fill="none" fill-rule="evenodd">
        <g>
            <g>
                <path fill="#FFE099" d="M1 35.982v14.115C1 66.853 8.4 75 23.624 75 41.598 75 48 62.773 48 51.338c0-5.613-1.564-7.4-4.335-10.066-.283-.273-1.948-1.166-11.497-1.166-9.374 0-20.877.868-20.99.874h-.07c-3.285 0-6.131-2.572-8.21-4.447-.604-.545-1.39-1.254-1.829-1.533-.038.19-.069.5-.069.982z" transform="translate(-1046.000000, -6808.000000) translate(1046.000000, 6807.999978)"/>
                <path fill="#4F662E" d="M1.752 33.739c-.487 0-.752.56-.752 2.015v13.86C1 63.573 6.107 75 24.108 75c18.002 0 24.827-12.26 24.827-24.173 0-5.723-1.638-7.757-4.534-10.556-1.109-1.07-6.13-1.4-11.914-1.4-9.34 0-20.657.865-20.657.865-4.565-.007-8.489-5.997-10.078-5.997m1.096 2.967c.111.1.216.193.314.286 2.15 1.947 5.089 4.61 8.668 4.61.05 0 .093 0 .142-.006.11-.007 11.354-.859 20.515-.859 8.686 0 10.43.778 10.676.92 2.581 2.495 3.924 4.057 3.924 9.17 0 6.015-1.848 11.458-5.205 15.321-4.03 4.634-10.005 6.986-17.774 6.986-7.86 0-13.368-2.202-16.843-6.73-2.932-3.826-4.417-9.469-4.417-16.784V36.706" transform="translate(-1046.000000, -6808.000000) translate(1046.000000, 6807.999978)"/>
                <path fill="#FFE099" d="M19.06 1.138c-2.815.65-4.578 3.452-3.923 6.255l7.965 34.128c.554 2.377 2.657 4.034 5.107 4.034.396 0 .8-.05 1.19-.137 1.429-.332 2.625-1.214 3.362-2.49.17-.294.491-.47.825-.47.044 0 .094 0 .132.007.378.044.712.313.812.682.548 1.99 2.261 3.478 4.307 3.79.271.044.259.063.888.063 2.519 0 4.704-1.902 5.107-4.422l5.106-33.521c.441-2.84-1.53-5.499-4.388-5.936-.265-.038-.542-.05-.806-.05-2.563 0-4.792 1.92-5.182 4.447l-4.566 28.091c-.075.445-.447.876-.894.876h-.044c-.428 0-.812-.375-.92-.794L25.357 5.035C24.802 2.658 22.7 1 20.25 1c-.397 0-.8.05-1.19.138z" transform="translate(-1046.000000, -6808.000000) translate(1046.000000, 6807.999978)"/>
                <path fill="#4F662E" d="M21.117 0c-.47 0-.938.05-1.414.163-3.353.771-5.438 4.083-4.665 7.4l8.018 34.21c.666 2.847 3.233 4.772 6.066 4.772.469 0 .938-.05 1.413-.163 1.756-.401 3.163-1.505 3.993-2.941.627 2.283 2.554 4.101 5.064 4.484.323.05.64.075.957.075 3.023 0 5.68-2.182 6.155-5.23l5.222-33.608c.526-3.367-1.813-6.516-5.21-7.03-.323-.05-.64-.075-.957-.075-3.023 0-5.679 2.182-6.154 5.23l-4.595 28.12L27.182 4.78C26.51 1.925 23.95 0 21.117 0m0 1.881c2.022 0 3.752 1.368 4.214 3.318 0 .012.007.025.007.038l7.827 30.628c.216.84.976 1.417 1.845 1.417h.082c.9-.037 1.648-.696 1.794-1.58l4.601-28.139c.323-2.07 2.161-3.637 4.272-3.637.222 0 .444.019.666.05 2.357.357 3.986 2.552 3.619 4.885L44.82 42.47c-.323 2.07-2.161 3.637-4.272 3.637-.222 0-.444-.019-.665-.05-1.693-.257-3.074-1.48-3.518-3.117-.203-.734-.83-1.28-1.59-1.373-.083-.013-.166-.013-.242-.013-.672 0-1.305.358-1.648.947-.608 1.047-1.59 1.775-2.77 2.045-.323.075-.652.112-.982.112-2.021 0-3.752-1.367-4.215-3.317L16.89 7.137c-.539-2.302.913-4.61 3.239-5.143.33-.075.659-.113.989-.113" transform="translate(-1046.000000, -6808.000000) translate(1046.000000, 6807.999978)"/>
                <path fill="#FFE099" d="M18.347 47.279c-2.827 0-5.14-2.101-5.394-4.886l-.932-10.31c-.126-1.43.311-2.821 1.243-3.919.931-1.097 2.237-1.775 3.676-1.906.165-.013.33-.025.494-.025 2.82 0 5.14 2.1 5.394 4.885l.932 10.31c.126 1.43-.311 2.822-1.243 3.92-.931 1.097-2.237 1.774-3.676 1.906-.17.019-.336.025-.494.025" transform="translate(-1046.000000, -6808.000000) translate(1046.000000, 6807.999978)"/>
                <path fill="#4F662E" d="M16.849 26c-.186 0-.372.006-.565.024-3.43.304-5.966 3.272-5.656 6.635l.918 10.004c.292 3.18 3.014 5.57 6.208 5.57.186 0 .372-.005.564-.024 3.43-.304 5.966-3.271 5.656-6.634l-.911-9.998C22.765 28.39 20.043 26 16.849 26m.006 1.824c2.239 0 4.149 1.715 4.353 3.91l.912 9.999c.105 1.143-.248 2.256-.998 3.132-.75.881-1.805 1.423-2.97 1.52-.131.012-.268.018-.398.018-2.276 0-4.149-1.678-4.353-3.91l-.912-9.998c-.106-1.143.248-2.256.998-3.132.75-.882 1.805-1.423 2.971-1.52.13-.012.26-.019.397-.019" transform="translate(-1046.000000, -6808.000000) translate(1046.000000, 6807.999978)"/>
                <path fill="#FFE099" d="M5.194 31.116c-1.38.302-2.562 1.14-3.332 2.363-.771 1.223-1.039 2.684-.747 4.113l1.437 7.069c.51 2.51 2.68 4.339 5.16 4.339.36 0 .733-.039 1.094-.116 1.38-.302 2.562-1.14 3.332-2.363.771-1.223 1.039-2.684.746-4.113l-1.436-7.069C10.938 32.83 8.768 31 6.288 31c-.367 0-.733.039-1.094.116z" transform="translate(-1046.000000, -6808.000000) translate(1046.000000, 6807.999978)"/>
                <path fill="#4F662E" d="M6.24 31c-.424 0-.854.043-1.29.136-3.368.704-5.525 3.973-4.815 7.31l1.44 6.783c.618 2.91 3.206 4.9 6.093 4.9.424 0 .854-.043 1.29-.136 3.368-.704 5.526-3.973 4.815-7.31l-1.44-6.783C11.708 32.996 9.12 31 6.24 31m0 1.854c2.046 0 3.835 1.445 4.26 3.429l1.44 6.784c.492 2.33-1.017 4.628-3.368 5.116-.299.062-.605.092-.904.092-2.045 0-3.835-1.445-4.259-3.429l-1.44-6.784c-.493-2.33 1.016-4.628 3.367-5.116.3-.062.599-.092.904-.092M40.343 54.133c-2.313-.674-4.857-.915-7.09.16-2.307 1.113-3.473 3.35-4.402 5.598-.455 1.106 1.353 1.582 1.802.495.767-1.854 1.746-3.738 3.716-4.542 1.778-.729 3.686-.445 5.475.08 1.16.334 1.653-1.451.5-1.791" transform="translate(-1046.000000, -6808.000000) translate(1046.000000, 6807.999978)"/>
                <path fill="#FFE099" d="M20.602 42.516c-1.295 0-2.268.495-2.888 1.459-.906 1.413-.863 3.508-.353 4.85.821 2.165 3.29 3.862 5.612 3.862.145 0 .298-.007.443-.02 2.025-.193 3.74-.289 5.259-.289 5.423 0 8.08 1.208 9.49 4.305.72 1.578 1.585 2.952 2.48 4.004.923.324 1.881.313 2.852.313 3.957 0 3.368-6.142 3.501-11.956.043-1.757-.752-3.219-1.938-4.418-3.298-1.788-7.27-3.069-9.485-3.626-1.55.186-12.943 1.516-14.973 1.516z" transform="translate(-1046.000000, -6808.000000) translate(1046.000000, 6807.999978)"/>
                <g transform="translate(-1046.000000, -6808.000000) translate(1046.000000, 6807.999978) translate(15.000000, 40.000022)">
                    <mask id="wjzpd6q4db" fill="#fff">
                        <use xlink:href="#6i07mvhpma"/>
                    </mask>
                    <path fill="#4F662E" d="M20.23-.006S6.857 1.453 4.673 1.453C.105 1.453-.65 6.086.444 8.734c1.026 2.483 3.94 4.26 6.684 4.26.182 0 .365-.006.547-.024 2.083-.184 3.852-.276 5.356-.276 6.01 0 7.891 1.397 8.967 3.585 1.863 3.776 4.632 6.406 6.91 6.442h.202c7.583 0 8.03-7.416 7.489-12.933C35.994 3.555 20.23-.006 20.23-.006m-.12 1.863c.976.24 4.148 1.06 7.338 2.384 4.45 1.852 7.105 3.936 7.282 5.72.453 4.627-.101 7.814-1.656 9.481-.9.969-2.196 1.435-3.952 1.435h-.17c-1.277-.025-3.587-2.048-5.242-5.4-1.623-3.286-4.713-4.622-10.673-4.622-1.598 0-3.41.092-5.532.282-.12.012-.245.018-.377.018-2.046 0-4.217-1.367-4.934-3.107-.422-1.03-.472-2.697.27-3.77.46-.662 1.184-.987 2.21-.987 2.101 0 13.045-1.17 15.437-1.434" mask="url(#wjzpd6q4db)"/>
                </g>
            </g>
        </g>
    </g>
</svg>
