<svg xmlns="http://www.w3.org/2000/svg" width="63" height="37" viewBox="0 0 63 37">
    <g fill="none" fill-rule="evenodd">
        <g fill="#4F662E">
            <g>
                <path d="M15.39 0c.828 0 1.5.672 1.5 1.5 0 6.83-2.505 12.914-6.386 16.508h50.333c1.052 0 1.905.853 1.905 1.905l-.006.149c-.075.982-.897 1.755-1.899 1.755H10.504c3.88 3.594 6.386 9.678 6.386 16.508 0 .829-.672 1.5-1.5 1.5-.829 0-1.5-.671-1.5-1.5 0-8.142-3.96-14.833-9.07-16.508H3.47c-.444 0-.852-.151-1.175-.405h.028c-.829 0-1.5-.671-1.5-1.5 0-.818.656-1.484 1.471-1.5.324-.253.732-.404 1.176-.404H4.82C9.931 16.333 13.89 9.642 13.89 1.5c0-.828.671-1.5 1.5-1.5z" transform="translate(-1314.000000, -3041.000000) translate(1345.193695, 3059.412600) scale(-1, 1) translate(-1345.193695, -3059.412600) translate(1313.822600, 3039.500000)"/>
            </g>
        </g>
    </g>
</svg>
