<?xml version="1.0" encoding="UTF-8"?>
<svg width="62px" height="37px" viewBox="0 0 62 37" version="1.1" xmlns="http://www.w3.org/2000/svg" xmlns:xlink="http://www.w3.org/1999/xlink">
    <title>9E60D165-E553-49F4-A696-2024B4E7AEBA</title>
    <g id="Page-1" stroke="none" stroke-width="1" fill="none" fill-rule="evenodd">
        <g id="Homepage-HD" transform="translate(-66.000000, -3041.000000)" fill="#4F662E">
            <g id="svg-arrow" transform="translate(65.257810, 3039.500000)">
                <path d="M14.56699,0 C15.3954171,0 16.06699,0.671572875 16.06699,1.5 C16.06699,8.33030234 13.5619926,14.4137525 9.68168295,18.007891 L60.01484,18.0079 C61.0668044,18.0079 61.91959,18.8606856 61.91959,19.91265 L61.91959,19.91265 L61.9138593,20.0615151 C61.8379207,21.0439083 61.0167108,21.81741 60.01484,21.81741 L60.01484,21.81741 L9.68168295,21.817309 C13.5619926,25.4114475 16.06699,31.4948977 16.06699,38.3252 C16.06699,39.1536271 15.3954171,39.8252 14.56699,39.8252 C13.7385629,39.8252 13.06699,39.1536271 13.06699,38.3252 C13.06699,30.1830339 9.10700512,23.491705 3.99781758,21.8167686 L2.64694,21.81741 C2.20370161,21.81741 1.7958235,21.6660146 1.47219629,21.4121146 L1.5,21.4126 C0.671572875,21.4126 0,20.7410271 0,19.9126 C0,19.093583 0.656402699,18.4278771 1.47183109,18.4128592 C1.7958235,18.1592954 2.20370161,18.0079 2.64694,18.0079 L2.64694,18.0079 L3.99881996,18.0081027 C9.10752306,16.3326198 13.06699,9.64163362 13.06699,1.5 C13.06699,0.671572875 13.7385629,0 14.56699,0 Z" id="Rectangle-2"></path>
            </g>
        </g>
    </g>
</svg>