<?xml version="1.0" encoding="UTF-8"?>
<svg width="63px" height="37px" viewBox="0 0 63 37" version="1.1" xmlns="http://www.w3.org/2000/svg" xmlns:xlink="http://www.w3.org/1999/xlink">
    <title>F7B1DB5C-CF04-46BF-8232-A0E2F29D7D7B</title>
    <g id="Page-1" stroke="none" stroke-width="1" fill="none" fill-rule="evenodd">
        <g id="Homepage-HD" transform="translate(-1314.000000, -3041.000000)" fill="#4F662E">
            <g id="svg-arrow" transform="translate(1345.193695, 3059.412600) scale(-1, 1) translate(-1345.193695, -3059.412600) translate(1313.822600, 3039.500000)">
                <path d="M15.38959,0 C16.2180171,0 16.88959,0.671572875 16.88959,1.5 C16.88959,8.33030234 14.3845926,14.4137525 10.5042829,18.007891 L60.83744,18.0079 C61.8894044,18.0079 62.74219,18.8606856 62.74219,19.91265 L62.74219,19.91265 L62.7364593,20.0615151 C62.6605207,21.0439083 61.8393108,21.81741 60.83744,21.81741 L60.83744,21.81741 L10.5042829,21.817309 C14.3845926,25.4114475 16.88959,31.4948977 16.88959,38.3252 C16.88959,39.1536271 16.2180171,39.8252 15.38959,39.8252 C14.5611629,39.8252 13.88959,39.1536271 13.88959,38.3252 C13.88959,30.1830339 9.92960512,23.491705 4.82041758,21.8167686 L3.46954,21.81741 C3.02630161,21.81741 2.6184235,21.6660146 2.29479629,21.4121146 L2.3226,21.4126 C1.49417288,21.4126 0.8226,20.7410271 0.8226,19.9126 C0.8226,19.093583 1.4790027,18.4278771 2.29443109,18.4128592 C2.6184235,18.1592954 3.02630161,18.0079 3.46954,18.0079 L3.46954,18.0079 L4.82141996,18.0081027 C9.93012306,16.3326198 13.88959,9.64163362 13.88959,1.5 C13.88959,0.671572875 14.5611629,0 15.38959,0 Z" id="Rectangle-2"></path>
            </g>
        </g>
    </g>
</svg>