<svg xmlns="http://www.w3.org/2000/svg" width="55" height="55" viewBox="0 0 55 55">
    <g fill="none" fill-rule="evenodd">
        <g>
            <g>
                <g transform="translate(-1237.000000, -8507.000000) translate(0.000000, 7939.000000) translate(1237.000000, 568.000000)">
                    <circle cx="27.5" cy="27.5" r="27.5" fill="#292340"/>
                    <g fill="#E7C2C2">
                        <path d="M22.732 2.28c-.835.386-1.735.649-2.678.766.964-.604 1.702-1.556 2.05-2.69-.9.556-1.9.96-2.96 1.18C18.291.591 17.08 0 15.737 0c-2.575 0-4.663 2.177-4.663 4.864 0 .38.041.753.121 1.108C7.32 5.77 3.885 3.832 1.583.89c-.4.72-.63 1.555-.63 2.446 0 1.688.823 3.176 2.072 4.048-.765-.025-1.483-.243-2.112-.608l-.001.061c0 2.357 1.607 4.324 3.741 4.77-.39.111-.804.17-1.228.17-.302 0-.592-.03-.878-.087.593 1.933 2.316 3.34 4.357 3.378-1.596 1.305-3.607 2.082-5.792 2.082-.377 0-.746-.023-1.112-.068 2.063 1.38 4.514 2.186 7.148 2.186 8.578 0 13.268-7.413 13.268-13.84 0-.21-.005-.42-.015-.63.915-.684 1.704-1.54 2.331-2.519" transform="translate(16.000000, 16.000000) translate(0.000000, 1.751953)"/>
                    </g>
                </g>
            </g>
        </g>
    </g>
</svg>
