<svg xmlns="http://www.w3.org/2000/svg" width="36" height="36" viewBox="0 0 36 36">
    <g fill="none" fill-rule="evenodd" opacity=".5">
        <g fill="#FFF">
            <g>
                <g>
                    <path d="M30.728 5.272C27.328 1.872 22.808 0 18 0S8.672 1.872 5.272 5.272C1.872 8.672 0 13.192 0 18s1.872 9.328 5.272 12.728C8.672 34.128 13.192 36 18 36s9.328-1.872 12.728-5.272C34.128 27.328 36 22.808 36 18s-1.872-9.328-5.272-12.728zM9.024 31.105c.753-4.334 4.509-7.532 8.976-7.532 4.467 0 8.223 3.198 8.976 7.532-2.556 1.756-5.648 2.786-8.976 2.786-3.328 0-6.42-1.03-8.976-2.786zm3.253-15.364c0-3.156 2.567-5.724 5.723-5.724 3.156 0 5.723 2.568 5.723 5.724 0 3.155-2.567 5.723-5.723 5.723-3.156 0-5.723-2.568-5.723-5.723zm16.526 13.901c-.568-2.018-1.695-3.849-3.275-5.279-.97-.877-2.074-1.57-3.26-2.058 2.144-1.399 3.565-3.819 3.565-6.564 0-4.32-3.514-7.833-7.833-7.833-4.319 0-7.833 3.514-7.833 7.833 0 2.745 1.42 5.165 3.565 6.564-1.186.488-2.29 1.18-3.26 2.058-1.58 1.43-2.707 3.261-3.275 5.28C4.07 26.737 2.109 22.592 2.109 18 2.11 9.238 9.238 2.11 18 2.11S33.89 9.237 33.89 18c0 4.594-1.96 8.738-5.087 11.642z" transform="translate(-1324.000000, -20.000000) translate(31.000000, 20.000000) translate(1293.000000, 0.000000)"/>
                </g>
            </g>
        </g>
    </g>
</svg>
