<svg xmlns="http://www.w3.org/2000/svg" width="90" height="90" viewBox="0 0 90 90">
    <defs>
        <filter id="90vvn7ngaa" color-interpolation-filters="auto">
            <feColorMatrix in="SourceGraphic" values="0 0 0 0 0.309804 0 0 0 0 0.400000 0 0 0 0 0.180392 0 0 0 1.000000 0"/>
        </filter>
    </defs>
    <g fill="none" fill-rule="evenodd">
        <g filter="url(#90vvn7ngaa)" transform="translate(-143.000000, -2999.000000)">
            <g>
                <g fill="#F5ABA0">
                    <path d="M44.822 9.19c-.3-.253-.737-.253-1.035 0-.774.657-18.9 16.2-17.622 34.425.657 9.45 6.516 17.775 17.352 24.858v10.314c0 .447.362.81.81.81.447 0 .81-.363.81-.81V68.67c2.196-1.36 17.1-11.17 18.315-26.694.837-10.935-5.427-21.987-18.63-32.787zM61.84 41.842C60.833 55.09 48.845 64.198 45.137 66.727V59.59l9.648-11.61c.176-.344.086-.764-.216-1.004s-.731-.235-1.026.014l-8.406 10.089V46.225L56.252 35.55c.287-.317.279-.802-.019-1.108-.297-.307-.781-.33-1.106-.053l-9.99 9.594v-9.981l4.833-6.867c.219-.234.28-.574.156-.869-.124-.295-.41-.489-.73-.496-.32-.007-.613.175-.75.465l-3.51 4.986V22.96c0-.448-.362-.81-.81-.81-.447 0-.81.362-.81.81v14.643l-6.03-7.713c-.133-.17-.328-.28-.543-.306-.215-.026-.43.036-.6.17-.17.132-.28.326-.305.54-.025.213.036.427.17.595l7.309 9.35v11.917l-9.9-11.232c-.299-.325-.802-.351-1.132-.06-.331.292-.368.794-.083 1.13l11.097 12.6V66.52c-9.81-6.624-15.12-14.4-15.723-23.031-1.08-15.723 13.617-29.952 16.55-32.634C56.73 21.187 62.616 31.609 61.842 41.842z" transform="translate(28.000000, 2999.000000) translate(115.000000, 0.000000)"/>
                </g>
            </g>
        </g>
    </g>
</svg>
