<svg xmlns="http://www.w3.org/2000/svg" width="90" height="90" viewBox="0 0 90 90">
    <defs>
        <filter id="w5xtz4nqsa" color-interpolation-filters="auto">
            <feColorMatrix in="SourceGraphic" values="0 0 0 0 0.309804 0 0 0 0 0.400000 0 0 0 0 0.180392 0 0 0 1.000000 0"/>
        </filter>
    </defs>
    <g fill="none" fill-rule="evenodd">
        <g filter="url(#w5xtz4nqsa)" transform="translate(-143.000000, -3529.000000)">
            <g>
                <g fill="#E7C2C2">
                    <path d="M35.86 74.286h16.704c.185.003.362-.072.488-.208.125-.136.187-.319.169-.503 0-.063-.621-6.3-8.487-6.615h-.504c-8.38 0-9 6.579-9 6.642-.017.185.045.368.17.504.125.117.29.18.46.18zm6.705-3.393c.432-.731.505-1.62.198-2.412 0-.045 0-.081-.063-.117.501-.066 1.006-.102 1.512-.108.223.658.197 1.375-.072 2.016-.072.144-.162.279-.243.414-.081.135-.225.36-.324.549-.285.529-.401 1.132-.333 1.728h-1.998c.043-.32.154-.626.324-.9.12-.163.252-.317.396-.459.223-.217.425-.455.603-.711zm4.104-2.367c.253.566.304 1.201.144 1.8-.08.218-.18.429-.297.63-.12.213-.229.432-.324.657-.152.424-.195.878-.126 1.323H44.58c-.094-.393-.029-.806.18-1.152.075-.143.16-.281.252-.414.108-.18.216-.351.315-.54.36-.782.455-1.66.27-2.502.378.072.738.126 1.07.198zm5.094 4.437h-4.338c-.09-.269-.09-.56 0-.828.078-.178.165-.353.26-.522.15-.263.28-.537.388-.819.181-.583.215-1.201.099-1.8 1.747.695 3.074 2.16 3.59 3.969zM50.278 13.5c.364.005.657.302.657.666v.999h10.593c1.546 0 2.799 1.253 2.799 2.799v1.206c-.01 1.537-1.262 2.777-2.8 2.772h-5.93c-.815 0-1.476.66-1.476 1.476 0 .815.66 1.476 1.476 1.476h5.93c.742-.002 1.454.29 1.98.814.525.523.82 1.234.82 1.976v.243c0 .742-.295 1.453-.82 1.976-.526.524-1.238.816-1.98.814h-5.93c-.812.005-1.467.664-1.467 1.476v.477c0 .812.655 1.471 1.467 1.476h8.1c.335.04.589.324.589.661 0 .338-.254.623-.59.662h-8.1c-1.542-.005-2.79-1.257-2.79-2.799v-.459c0-1.54 1.25-2.79 2.79-2.79h5.932c.815 0 1.476-.66 1.476-1.476v-.243c0-.39-.156-.765-.433-1.04-.277-.276-.653-.43-1.043-.427h-5.931c-1.546 0-2.8-1.253-2.8-2.799s1.254-2.799 2.8-2.799h5.93c.391.002.767-.151 1.044-.426.277-.276.433-.65.433-1.041v-1.224c.002-.392-.152-.769-.43-1.046-.277-.278-.654-.432-1.046-.43H50.935v1.017c0 .364-.293.661-.657.666h-2.35c-.217-.01-.429.072-.584.225-.364.511-.55 1.128-.531 1.755v2.025c.93.084 1.642.866 1.638 1.8v4.212c-.002 4.683 1.535 9.236 4.374 12.96 1.508 1.968 3.333 3.67 5.4 5.04 3.173 1.914 5.115 5.348 5.12 9.054l.004.036-.003.036c-.007 1.024-.158 2.042-.45 3.024-.75 2.646-2.512 4.89-4.905 6.246 1.045.54 1.703 1.614 1.71 2.79v9c0 .368-.298.666-.666.666h-29.7c-.368 0-.666-.298-.666-.666v-9c.002-1.218.701-2.327 1.8-2.853-2.328-1.368-4.037-3.584-4.77-6.183-.28-.935-.431-1.904-.45-2.88-.029-.068-.044-.142-.045-.216-.005-.039-.005-.078 0-.117.05-3.658 1.987-7.03 5.12-8.919 2.07-1.366 3.896-3.07 5.4-5.04 2.798-3.745 4.29-8.304 4.249-12.978v-4.212c0-.994.806-1.8 1.8-1.8v-4.12c0-.028.005-.13.025-.287l.02-.147c.179-1.142 1.048-4.104 5.247-4.104zm6.219 52.002h-24.75c-1.022.005-1.85.832-1.854 1.854v8.361h28.404v-8.361c-.004-1.001-.8-1.82-1.8-1.854zM41.323 68.67c.086.104.159.22.216.342.154.409.114.866-.108 1.242-.13.193-.278.374-.441.54-.185.186-.354.388-.504.603-.322.483-.526 1.035-.594 1.611h-3.267c.64-2.205 2.449-3.875 4.698-4.338zm20.61-12.789H26.518c.047.695.167 1.383.36 2.052 1.089 3.618 4.095 6.237 7.146 6.237h20.394c3.05 0 6.057-2.61 7.146-6.237.195-.67.318-1.357.369-2.052zm-6.22-9.864H32.729c-.55.441-1.125.864-1.728 1.26-2.578 1.567-4.251 4.274-4.5 7.281h35.449l-.029-.301c-.32-2.783-1.862-5.28-4.205-6.814l-.264-.166c-.603-.36-1.18-.819-1.737-1.26zm-9.071-22.545H41.8c-.269 0-.486.218-.486.486v4.212c.02 4.962-1.582 9.794-4.563 13.761-.76.962-1.594 1.865-2.493 2.7h19.935c-.902-.832-1.735-1.735-2.493-2.7-2.988-3.964-4.594-8.797-4.572-13.761v-4.212c0-.268-.218-.486-.486-.486zm-2.394 9.81c.581-.034 1.151.168 1.58.562.43.393.68.944.697 1.526v4.014c-.012.576-.265 1.12-.698 1.5-.433.38-1.006.561-1.58.498-.576.053-1.148-.137-1.58-.522-.431-.386-.684-.933-.696-1.512v-3.735c-.015-.613.219-1.206.647-1.645.429-.439 1.016-.686 1.63-.686zm.918 4.338h-1.908v1.683c.054.261.144.711.954.711.81 0 .945-.405.954-.648V37.62zm-.954-3.06c-.262.002-.512.11-.692.301-.18.19-.274.445-.262.707v.702h1.908v-.927c-.054-.225-.126-.783-.954-.783zm5.4-19.737h-2.547c-3.78 0-3.97 2.907-3.97 3.231v4.104H45.5v-2.007c-.025-.978.294-1.933.9-2.7.405-.405.957-.629 1.53-.621h1.683v-2.007z" transform="translate(28.000000, 2999.000000) translate(115.000000, 530.000000)"/>
                </g>
            </g>
        </g>
    </g>
</svg>
