<svg xmlns="http://www.w3.org/2000/svg" width="90" height="90" viewBox="0 0 90 90">
    <defs>
        <filter id="7g7xgl0ala" color-interpolation-filters="auto">
            <feColorMatrix in="SourceGraphic" values="0 0 0 0 0.309804 0 0 0 0 0.400000 0 0 0 0 0.180392 0 0 0 1.000000 0"/>
        </filter>
    </defs>
    <g fill="none" fill-rule="evenodd">
        <g filter="url(#7g7xgl0ala)" transform="translate(-143.000000, -3275.000000)">
            <g>
                <g fill="#CBD785">
                    <path d="M29.034 60.93h-3.78V20.313c0-.497-.403-.9-.9-.9h-6.3c-.114 0-.227.021-.333.063l-7.29 3.051c-.317.142-.523.454-.531.801v7.551c.005.261.123.508.324.675.207.16.473.223.729.171l4.581-.945v30.15h-3.897c-.497 0-.9.403-.9.9v8.244c0 .497.403.9.9.9h17.397c.497 0 .9-.403.9-.9v-8.271c-.015-.486-.413-.873-.9-.873zM42.696 18.9c9.612 0 11.547 10.134 11.547 26.487 0 19.278-3.024 26.1-11.547 26.1s-11.547-6.849-11.547-26.1v-.489C31.19 28.832 33.208 18.9 42.697 18.9zm25.515 0c9.567 0 11.502 10.134 11.547 26.487 0 19.278-3.024 26.1-11.547 26.1s-11.547-6.849-11.547-26.1v-.489c.04-16.066 2.031-25.998 11.547-25.998zm-25.515 1.728c-7.11 0-9.81 6.759-9.81 24.759 0 20.358 3.591 24.345 9.81 24.345 6.21 0 9.81-3.987 9.81-24.345 0-18.045-2.7-24.759-9.81-24.759zm25.515 0c-7.11 0-9.81 6.759-9.81 24.759 0 20.358 3.6 24.345 9.81 24.345 6.165 0 9.765-3.987 9.81-24.345 0-18.045-2.7-24.759-9.81-24.759zm-44.694.558v40.617c0 .497.403.9.9.9h3.78l-.063 6.471H12.501v-6.507h3.897c.497 0 .9-.403.9-.9V29.664c-.017-.275-.16-.527-.387-.684-.207-.16-.473-.223-.729-.171l-4.536 1.071v-5.94l6.597-2.754h5.274zM42.696 27c2.844 0 3.222 3.699 3.222 18.387 0 14.4-.297 18-3.222 18-2.861 0-3.208-3.187-3.222-17.06v-1.891C39.49 30.556 39.853 27 42.696 27zm25.515 0c2.799 0 3.177 3.699 3.222 18.387 0 14.4-.297 18-3.222 18-2.861 0-3.208-3.187-3.222-17.06v-1.891C65.004 30.556 65.368 27 68.211 27zm-25.515 1.773c-1.12 0-1.395 5.248-1.463 11.008l-.007.708-.003.355-.008 1.423-.002.71-.001.707v2.735c.013 10.283.254 15.204 1.484 15.204 1.305 0 1.472-6.69 1.484-14.985v-.808l.001-.407v-1.585c-.009-6.53-.114-15.065-1.485-15.065zm25.515 0c-1.12 0-1.395 5.248-1.463 11.008l-.007.708-.003.355-.008 1.423-.002.71-.001.707v2.735c.014 10.283.263 15.204 1.484 15.204 1.332 0 1.44-7.353 1.485-16.2v-1.585c-.009-6.53-.114-15.065-1.485-15.065z" transform="translate(28.000000, 2999.000000) translate(115.000000, 276.000000)"/>
                </g>
            </g>
        </g>
    </g>
</svg>
