<svg xmlns="http://www.w3.org/2000/svg" width="1440" height="658" viewBox="0 0 1440 658">
    <g fill="none" fill-rule="evenodd">
        <g fill="#CBD785">
            <g>
                <path d="M0 96h1440v562H0V96zm0-75.855C46.409 20.145 46.409 0 92.818 0S138.59 20.145 185 20.145V96H0V20.145zm740 0C786.409 20.145 786.409 0 832.818 0S878.59 20.145 925 20.145V96H740V20.145zm-370 0C416.409 20.145 416.409 0 462.818 0S508.59 20.145 555 20.145V96H370V20.145zm740 0c46.409 0 46.409-20.145 92.818-20.145S1248.59 20.145 1295 20.145V96h-185V20.145zm-925 0C231.409 20.145 231.409 0 277.818 0S323.59 20.145 370 20.145V96H185V20.145zm740 0C971.409 20.145 971.409 0 1017.818 0S1063.59 20.145 1110 20.145V96H925V20.145zm-370 0C601.409 20.145 601.409 0 647.818 0S693.59 20.145 740 20.145V96H555V20.145zm740 0c46.409 0 46.409-20.145 92.818-20.145S1433.59 20.145 1480 20.145V96h-185V20.145z" transform="translate(0.000000, -1807.000000) translate(0.000000, 1807.000000)"/>
            </g>
        </g>
    </g>
</svg>
