<svg xmlns="http://www.w3.org/2000/svg" width="375" height="1617" viewBox="0 0 375 1617">
    <g fill="none" fill-rule="evenodd">
        <g fill="#CBD785">
            <path d="M-553 3021H887v1521H-553V3021zm0-75.855c46.409 0 46.409-20.145 92.818-20.145s45.773 20.145 92.182 20.145V3021h-185v-75.855zm740 0c46.409 0 46.409-20.145 92.818-20.145s45.773 20.145 92.182 20.145V3021H187v-75.855zm-370 0c46.409 0 46.409-20.145 92.818-20.145S-44.41 2945.145 2 2945.145V3021h-185v-75.855zm740 0c46.409 0 46.409-20.145 92.818-20.145s45.773 20.145 92.182 20.145V3021H557v-75.855zm-925 0c46.409 0 46.409-20.145 92.818-20.145s45.773 20.145 92.182 20.145V3021h-185v-75.855zm740 0c46.409 0 46.409-20.145 92.818-20.145s45.773 20.145 92.182 20.145V3021H372v-75.855zm-370 0c46.409 0 46.409-20.145 92.818-20.145s45.773 20.145 92.182 20.145V3021H2v-75.855zm740 0c46.409 0 46.409-20.145 92.818-20.145s45.773 20.145 92.182 20.145V3021H742v-75.855z" transform="translate(0.000000, -2925.000000)"/>
        </g>
    </g>
</svg>
