<?xml version="1.0" encoding="UTF-8"?>
<svg width="2500px" height="1282px" viewBox="0 0 2500 1282" version="1.1" xmlns="http://www.w3.org/2000/svg" xmlns:xlink="http://www.w3.org/1999/xlink">
    <title>Cloud-01</title>
    <defs>
        <linearGradient x1="89.5256907%" y1="60.2175679%" x2="8.74208713%" y2="60.2175679%" id="linearGradient-1">
            <stop stop-color="#FFFFFE" offset="0%"></stop>
            <stop stop-color="#FCD9B4" offset="22.4964747%"></stop>
            <stop stop-color="#FFFFFC" offset="100%"></stop>
        </linearGradient>
        <path d="M2487.61342,808.615436 C2483.89128,796.47356 2479.00484,784.719673 2473.02217,773.517566 L2464.34629,756.757348 C2454.50894,733.656681 2440.54398,712.542202 2423.13588,694.448771 C2403.60166,675.868964 2382.85197,658.610485 2361.02448,642.787862 C2342.31022,633.894161 2322.37225,627.846308 2301.87076,624.844569 C2290.75843,623.349099 2279.56255,622.558801 2268.35033,622.478421 C2230.37749,623.620193 2192.96973,631.985076 2158.12724,647.125801 C2156.06101,638.564751 2153.29108,630.189023 2149.84572,622.084063 C2143.50837,607.411604 2135.50277,593.517585 2125.98706,580.676464 C2114.08917,565.539498 2099.52069,552.708545 2083.00203,542.818088 C2078.83981,540.616226 2074.56132,538.64154 2070.18539,536.902717 C2060.75432,533.597997 2051.14272,530.833015 2041.39725,528.621197 C2030.31918,526.41012 2019.48723,523.107697 2009.05989,518.762245 C1997.6235,513.832769 1994.863,500.424594 1991.90531,484.84745 C1990.4145,471.883535 1985.88841,459.453683 1978.69432,448.566506 C1971.09702,438.567557 1961.82375,429.961425 1951.28643,423.13041 C1946.20871,420.857619 1940.82934,419.330144 1935.31493,418.595292 C1929.1036,417.92822 1923.11367,415.909145 1917.76599,412.679921 L1917.76599,412.679921 C1911.62585,404.057238 1909.21002,393.328096 1911.0619,382.905885 C1911.36607,378.310068 1911.36607,373.69917 1911.0619,369.103353 C1909.76623,355.045311 1907.25932,341.12537 1903.5691,327.498575 C1894.06822,300.829266 1880.78745,275.662212 1864.13329,252.767718 C1848.61643,228.996398 1827.66373,209.260313 1803.00779,195.191438 C1789.96858,187.772152 1776.14745,181.820469 1761.79737,177.445324 C1750.82949,159.917938 1737.56665,143.936207 1722.36156,129.925175 C1712.56986,121.31906 1702.08369,113.536867 1691.01009,106.658048 C1667.72355,91.6941709 1642.14734,80.6377903 1615.29334,73.9263275 C1603.85991,71.0934079 1592.27292,68.9208464 1580.58983,67.4194191 C1559.85733,64.8797577 1538.94275,64.1540155 1518.08407,65.2504496 C1511.57717,65.2504496 1505.85897,65.2504496 1500.53514,65.2504496 L1491.85926,65.2504496 C1483.44427,54.9946813 1473.69618,45.909728 1462.87394,38.236921 C1438.40683,18.2594211 1406.36693,10.1051221 1375.32645,15.9556893 L1372.56594,15.9556893 L1363.69289,18.7161959 C1350.0991,21.8338847 1337.10961,27.1629077 1325.24297,34.4905192 C1312.58447,42.6854412 1300.99352,52.4218358 1290.73664,63.4758383 C1285.41281,69.3912095 1280.08897,75.8981179 1275.1595,83.1937424 C1270.56134,89.3885688 1266.53548,95.988328 1263.13157,102.911647 C1256.42749,94.2357687 1249.32904,85.954249 1241.83624,77.8699083 L1231.97729,68.0109562 L1220.93526,57.7576461 L1215.8086,53.2225281 C1201.84333,41.206797 1186.32399,31.1258538 1169.66871,23.2513138 L1153.50003,15.3641522 L1148.57055,13.3923617 C1128.48878,3.5538901 1106.22726,-0.993433308 1083.89583,0.181365964 C1047.22824,3.50875791 1011.74676,14.8870685 979.982471,33.504624 C962.815183,43.3095424 946.57909,54.6616071 931.476427,67.4194191 C919.27965,77.7164863 907.815481,88.8512253 897.167273,100.742677 C893.420872,105.080616 889.67447,109.418555 886.519605,113.559315 C880.712638,121.410633 875.442539,129.645162 870.745282,138.206695 C867.393238,143.530529 864.238374,149.248721 861.083509,154.769734 C857.928644,160.290748 851.816094,170.741237 846.886618,178.23404 C842.712085,185.142527 838.032774,191.733106 832.886906,197.951945 C827.103688,205.106806 819.925422,211.010427 811.788749,215.3037 C803.768274,219.410056 794.713716,221.056339 785.761115,220.035997 C777.970057,219.017946 770.424047,216.613907 763.479883,212.937552 C756.713866,209.325618 750.132988,205.377091 743.761979,201.106809 C735.336142,195.355785 726.430099,190.342013 717.142809,186.121202 L713.002049,183.557875 L712.016154,183.557875 C685.434587,174.359617 656.257002,176.352233 631.172747,189.078888 C583.064457,213.727746 548.130447,258.16957 535.540911,310.738356 C533.656797,318.206451 532.208375,325.77775 531.202973,333.413946 C530.333105,341.73853 530.333105,350.1311 531.202973,358.455684 L532.386047,370.483606 C535.883621,387.979836 535.411958,406.0378 531.005793,423.327589 C529.903483,425.857715 528.213561,428.088412 526.076317,429.834497 C521.882582,433.666153 516.550447,436.020602 510.893531,436.538585 C507.48995,436.971917 504.168302,437.901979 501.034579,439.299091 C495.122088,441.918318 489.503949,445.157009 484.274361,448.960864 L483.288465,448.960864 C475.036843,456.763411 468.345209,466.064783 463.570561,476.368751 C454.697504,473.805424 445.824448,471.242096 436.754212,469.270306 C416.078445,464.748656 395.013477,462.23935 373.854097,461.777502 C349.383685,460.93668 324.911336,463.390547 301.095031,469.073127 C275.441164,475.230186 251.165144,486.130988 229.519039,501.21331 C201.547692,521.260741 179.536852,548.518747 165.830209,580.084927 C149.821743,617.023798 139.19723,656.068883 134.281562,696.026203 C134.281562,699.181068 134.281562,702.92747 133.295667,707.265409 L127.971833,707.265409 C114.177272,709.530172 100.852221,714.06069 88.5360245,720.673583 C68.0169046,730.835338 50.08048,745.535114 36.0863995,763.658614 C22.5366024,781.248813 12.6170364,801.356042 6.90390134,822.812327 C0.118578126,850.401823 -1.68434429,878.981482 1.58006722,907.204957 C3.74035123,946.073282 16.4166441,983.625096 38.2553689,1015.85061 C44.2237357,1023.00094 50.8229397,1029.60015 57.9732731,1035.56851 C57.4799879,1039.95836 57.4799879,1044.38966 57.9732731,1048.77951 C62.1280172,1077.18862 72.9380335,1104.21367 89.5219197,1127.65112 C106.644639,1145.92209 128.164639,1159.49937 152.027676,1167.08693 C178.838436,1175.6218 207.637755,1175.6218 234.448515,1167.08693 L235.631589,1168.46719 C240.8699,1173.41543 246.472391,1177.96334 252.391808,1182.07254 L252.391808,1182.07254 C265.592725,1191.50207 280.541005,1198.20533 296.362734,1201.79044 L296.362734,1201.79044 C307.207497,1201.04275 317.963704,1199.32704 328.502918,1196.66379 C344.616389,1209.0923 362.322952,1219.30508 381.149722,1227.02936 C383.71305,1228.21244 386.670735,1229.19833 389.431242,1230.18423 C412.458727,1239.84426 437.559646,1243.50764 462.387487,1240.83189 C472.977753,1238.7583 483.252104,1235.31142 492.950238,1230.57858 L506.555592,1224.86039 C512.829029,1222.22692 519.488178,1220.62873 526.273496,1220.1281 L530.414256,1220.1281 L532.977584,1220.1281 C537.071219,1221.72123 540.869915,1223.98712 544.216789,1226.83218 L549.343444,1230.77576 C552.933148,1233.80393 556.685106,1236.63436 560.58265,1239.25446 L565.906484,1242.40933 C576.686223,1249.85846 588.703718,1255.33309 601.398711,1258.57801 C612.56158,1260.18333 623.846617,1260.77728 635.116327,1260.35262 C657.075776,1259.32954 678.812396,1255.48587 699.791053,1248.91624 L709.452826,1245.56419 C742.466272,1229.62695 771.706079,1206.84007 795.225709,1178.7205 L807.253631,1165.5095 C822.436417,1148.5521 839.590993,1129.22856 857.731465,1127.25677 L865.224269,1126.07369 L868.181954,1126.07369 C874.294505,1124.69344 874.294505,1124.89062 904.857256,1150.32671 L919.448505,1162.15746 C930.723629,1171.09829 942.72778,1179.07907 955.335091,1186.01612 L970.715056,1195.08636 C975.644532,1197.45251 980.17965,1199.4243 984.714768,1201.19891 C999.962852,1207.67986 1015.90861,1212.37757 1032.23492,1215.19862 C1068.09334,1221.61206 1104.31044,1225.82642 1140.68339,1227.81808 L1141.86646,1227.81808 C1170.89245,1228.9857 1199.95375,1226.66874 1228.42806,1220.91681 L1235.13215,1220.91681 C1242.03342,1220.91681 1248.34315,1218.55066 1254.85005,1217.17041 C1261.01273,1215.65349 1267.07195,1213.74352 1272.99053,1211.45222 C1280.17859,1208.53576 1287.64385,1206.35564 1295.27176,1204.94531 C1298.40797,1204.46019 1301.60014,1204.46019 1304.73635,1204.94531 C1313.11507,1206.42016 1321.02274,1209.86709 1327.8063,1215.00144 L1332.14424,1217.76195 L1334.90475,1219.33938 L1337.07371,1220.71963 C1369.45735,1240.19565 1404.17316,1255.49975 1440.39553,1266.26799 C1473.73584,1276.24261 1508.32613,1281.4212 1543.12581,1281.64796 L1550.42144,1281.64796 C1569.24011,1281.58189 1588.00315,1279.59988 1606.42029,1275.73259 C1614.38651,1273.71342 1622.22244,1271.21119 1629.88459,1268.23978 L1641.1238,1263.90184 C1660.59415,1254.27324 1682.50366,1250.70178 1704.02391,1253.64853 L1708.75621,1254.83161 C1733.51713,1262.05942 1759.2933,1265.18986 1785.0645,1264.09902 C1796.79945,1264.515 1808.54784,1263.85498 1820.16237,1262.12723 C1842.54553,1255.23242 1863.95029,1245.49093 1883.8512,1233.14191 C1888.18914,1230.38141 1892.52707,1227.22654 1896.86501,1224.07168 C1917.3039,1236.91961 1940.94738,1243.75299 1965.08896,1243.78958 L1965.08896,1243.78958 C1980.75569,1243.59727 1996.30635,1241.07195 2011.22886,1236.29678 C2028.4091,1230.85528 2044.73795,1223.02275 2059.7349,1213.02965 C2077.70982,1200.95274 2093.9044,1186.41744 2107.84659,1169.84744 C2112.97324,1163.73489 2117.70554,1157.0308 2122.43784,1150.12954 C2126.18424,1153.87594 2129.93064,1158.0167 2133.47986,1162.15746 L2137.22627,1166.29822 C2139.98677,1169.45308 2142.94446,1172.80513 2146.09932,1175.76281 C2151.09442,1180.45163 2156.50636,1184.67558 2162.268,1188.38227 L2169.16927,1192.32585 L2169.16927,1192.32585 L2172.52131,1194.49482 C2174.79923,1196.02106 2177.16996,1197.40399 2179.61976,1198.63558 C2193.52465,1205.52868 2208.86046,1209.04173 2224.3794,1208.88889 L2224.3794,1208.88889 C2240.26485,1208.62819 2256.01976,1205.96913 2271.11083,1201.00173 C2274.01649,1200.02945 2276.97992,1199.2392 2279.98389,1198.63558 C2284.51901,1197.45251 2289.25131,1196.46661 2293.58924,1195.67789 C2298.57336,1194.5848 2303.45488,1193.06757 2308.18049,1191.14278 L2317.64509,1187.98791 L2317.64509,1187.98791 C2327.19502,1183.66273 2336.42063,1178.65454 2345.25015,1173.0023 C2352.94014,1168.07283 2360.63012,1162.55182 2367.92574,1156.83362 L2371.67215,1153.67876 C2403.36904,1128.78884 2429.44169,1097.47478 2448.17761,1061.79333 L2448.17761,1061.79333 C2453.75786,1051.18862 2458.69622,1040.25837 2462.96604,1029.0616 C2462.96604,1029.0616 2464.93783,1025.3152 2466.71244,1022.35752 C2468.01332,1020.11961 2469.19796,1017.81613 2470.26167,1015.45625 C2480.49743,991.314905 2488.54827,966.304511 2494.31751,940.725394 C2496.67175,927.695972 2498.12119,914.519205 2498.65545,901.289585 L2498.65545,899.317795 C2500.22613,868.673371 2496.49051,837.987957 2487.61342,808.615436 Z" id="path-2"></path>
        <filter x="-51.6%" y="-57.0%" width="203.2%" height="214.0%" filterUnits="objectBoundingBox" id="filter-4">
            <feGaussianBlur stdDeviation="38" in="SourceGraphic"></feGaussianBlur>
        </filter>
        <filter x="-4.2%" y="-28.2%" width="108.4%" height="156.4%" filterUnits="objectBoundingBox" id="filter-5">
            <feGaussianBlur stdDeviation="33" in="SourceGraphic"></feGaussianBlur>
        </filter>
        <linearGradient x1="38.5521597%" y1="35.2911056%" x2="48.0447194%" y2="43.0376013%" id="linearGradient-6">
            <stop stop-color="#FFFFFF" offset="0%"></stop>
            <stop stop-color="#FEF1D3" offset="100%"></stop>
        </linearGradient>
        <path d="M1971.79305,568.845721 C1969.4269,566.085215 1963.51153,563.916245 1959.17359,559.381127 C1953.39544,551.224527 1950.1077,541.566786 1949.709,531.578883 C1949.02085,511.695649 1946.64617,491.906708 1942.61055,472.42517 C1938.99854,461.793918 1933.59703,451.857794 1926.63905,443.045493 C1916.15261,429.921908 1902.61342,419.564428 1887.20324,412.8771 L1884.63991,411.694025 C1866.30226,404.004043 1833.9649,414.454532 1815.62725,401.637894 C1812.00081,398.997243 1809.03197,395.556088 1806.95137,391.581763 C1805.18563,388.126019 1803.79737,384.490088 1802.81061,380.736916 C1797.69616,351.485983 1794.79597,321.890854 1794.13473,292.203526 C1791.41053,257.571431 1782.1085,223.776272 1766.72685,192.62811 C1765.14941,189.473246 1763.3748,186.51556 1761.60019,183.557875 C1750.0403,163.274985 1735.55659,144.804936 1718.61516,128.742101 C1709.70912,120.724223 1700.14516,113.468805 1690.0242,107.052406 C1667.08079,92.2013415 1641.82538,81.2728781 1615.29334,74.7150436 C1603.89273,71.7335196 1592.29616,69.5591638 1580.58983,68.2081353 C1559.98641,65.7070241 1539.20614,64.9813638 1518.47843,66.0391658 C1512.36588,66.0391658 1506.45051,66.0391658 1500.73232,66.0391658 C1495.01413,66.0391658 1494.22541,66.0391658 1490.87337,66.0391658 C1482.57999,55.9810859 1472.96221,47.0929274 1462.28241,39.6171743 C1438.31808,19.8722147 1406.82599,11.7825053 1376.31234,17.5331216 L1363.69289,19.8992701 C1350.39732,22.9784966 1337.68196,28.1711543 1326.03169,35.2792353 C1313.54623,43.3140764 1302.14754,52.9234356 1292.11689,63.8701963 C1286.58184,70.1138212 1281.44504,76.6994612 1276.73693,83.5881005 C1271.26768,90.6875204 1266.69785,98.4363666 1263.13157,106.658048 C1255.73199,96.9235514 1247.8343,87.5779478 1239.47009,78.6586245 C1236.31522,75.3065808 1233.16036,72.1517161 1229.80832,68.9968514 L1218.96347,58.7435413 L1213.83681,54.2084233 C1199.90288,42.3970607 1184.5327,32.3931923 1168.09128,24.4343881 L1152.11977,16.7444054 L1146.79594,13.3923617 C1127.36512,3.7091199 1105.77897,-0.838904298 1084.093,0.181365964 C1047.81737,3.47162664 1012.72718,14.7866965 981.362724,33.3074449 C964.299756,42.9314719 948.190094,54.1554164 933.251038,66.827882 C920.995803,77.2068437 909.588895,88.5478159 899.139064,100.742677 C895.392662,104.883437 891.843439,109.024197 888.491396,113.362136 C882.595411,121.302832 877.195568,129.600152 872.322714,138.206695 C864.238374,151.417691 856.74557,165.417403 848.46405,177.642503 C844.239283,184.566082 839.493256,191.157786 834.267159,197.360407 C828.257777,204.809759 820.815395,210.97822 812.380286,215.500879 C803.97326,219.727881 794.525179,221.43949 785.169578,220.430355 C777.044997,219.38652 769.168447,216.916755 761.902451,213.134731 C746.128128,205.247569 731.536879,193.416827 715.565376,186.318381 L710.438721,184.54377 C684.50829,175.592324 656.059353,177.512627 631.567105,189.867604 C584.757808,214.7447 550.921501,258.566669 538.695776,310.146819 C536.739758,317.532132 535.290407,325.04241 534.357837,332.62523 C533.485065,340.817844 533.485065,349.079996 534.357837,357.27261 C536.329628,378.567946 541.259104,407.158907 534.357837,423.327589 C533.005379,426.092858 531.130577,428.570276 528.836824,430.623213 C519.569409,439.101912 511.09071,436.538585 503.203549,440.284986 C497.642574,442.946063 492.301921,446.04496 487.232046,449.552401 L485.851793,449.552401 C473.367539,460.649912 464.448296,475.195141 460.218518,491.354358 C451.454921,523.279512 451.79642,557.019573 461.204413,588.760805 C461.204413,591.126953 462.387487,593.295923 463.176203,595.662071 C465.739531,603.943591 468.894395,612.225111 472.04926,619.717914 C474.021051,623.858674 475.795662,627.999434 477.964631,632.140194 C482.415516,640.991415 487.42067,649.552863 492.950238,657.773469 C496.499461,662.702945 501.231758,669.604212 506.555592,676.308299 C478.238019,663.234414 445.404079,664.331317 418.022203,679.265985 C402.638581,688.219175 389.755058,700.899274 380.558185,716.138465 L379.57229,718.110256 C373.058596,733.59025 363.232126,747.454995 350.78415,758.729138 C346.554769,761.756839 341.904518,764.148396 336.981617,765.827584 C316.366938,771.921682 297.550756,782.954192 282.165843,797.967768 L278.419441,801.714169 C265.415509,817.254755 255.207858,834.934672 248.251048,853.966615 C240.966953,876.201282 238.087013,899.642655 239.772349,922.97928 C241.060664,939.900562 246.846963,956.170273 256.532568,970.105071 L259.293074,973.654294 C262.95764,978.300017 267.050666,982.591093 271.518175,986.470931 C277.236367,991.597586 283.348917,996.132704 289.461468,1000.66782 C299.601014,1007.47955 309.045419,1015.27283 317.658071,1023.93495 C319.53628,1025.87987 321.313238,1027.92008 322.981905,1030.0475 C330.56959,1040.58281 336.181599,1052.40811 339.544944,1064.94819 C345.956274,1086.20978 347.771054,1108.59206 344.868778,1130.60881 C357.314179,1129.36862 369.881606,1130.43819 381.938438,1133.76368 C383.639979,1134.1784 385.292471,1134.77329 386.867914,1135.53829 C392.822509,1138.44322 398.38735,1142.08687 403.430954,1146.38313 C418.583149,1162.88438 434.998745,1178.17924 452.528535,1192.12867 C476.957856,1206.54477 503.610581,1216.80607 531.400152,1222.49424 C565.570231,1229.83465 600.956926,1229.36283 634.919148,1221.11399 C656.225463,1215.74361 676.129486,1205.85885 693.284145,1192.12867 C708.866039,1179.69692 723.558901,1166.19002 737.255071,1151.70697 C750.814475,1138.10688 761.655804,1122.04565 769.198076,1104.384 C784.836003,1073.85188 795.297224,1040.93569 800.155185,1006.97755 C800.41751,988.013741 798.899144,969.067172 795.620067,950.387167 C795.620067,947.035123 795.620067,943.4859 795.620067,939.936677 C794.116998,920.638056 791.284037,901.466154 787.141368,882.557576 C783.985786,867.745069 779.969671,853.129043 775.113447,838.783829 C769.841089,822.816583 763.245572,807.317119 755.395543,792.446754 C742.834197,767.049108 723.788767,745.418941 700.185411,729.743819 C689.815779,723.211463 678.197793,718.913479 666.073437,717.124361 C655.22859,715.546928 644.7781,715.15257 634.52479,714.561033 C639.848624,708.645662 642.609131,697.603636 649.707576,694.843129 L652.270904,694.843129 L664.496005,692.082622 C672.896804,690.35251 681.389222,689.101689 689.932101,688.336221 L713.002049,686.36443 L742.578905,686.36443 C757.761691,686.36443 772.944477,686.36443 787.930084,684.786998 C802.044054,683.755059 816.035348,681.445175 829.732041,677.885731 L837.422024,675.519583 C847.478155,672.167539 857.139928,668.421137 868.181954,663.886019 C884.400792,656.595859 899.801087,647.606845 914.124671,637.06967 C928.46042,625.897813 941.66862,613.350024 953.560479,599.605652 C962.827894,589.549521 971.89813,579.887748 981.165545,568.845721 C995.584118,552.013297 1011.41616,536.445126 1028.48852,522.311468 C1035.47023,517.027783 1042.92963,512.406919 1050.76975,508.508935 L1054.12179,506.931502 C1065.09117,502.084826 1076.43269,498.128484 1088.03659,495.10076 C1106.49137,490.82329 1124.7204,485.624399 1142.65518,479.523616 L1148.17619,477.354646 C1162.17591,471.833633 1175.97844,466.115441 1189.38661,459.805712 C1212.63945,448.964899 1234.70935,435.749393 1255.24441,420.369903 C1260.9626,416.229143 1266.48362,411.496846 1272.00463,406.764549 C1277.49878,423.152675 1284.77208,438.889454 1293.69433,453.693161 C1310.60872,450.425945 1327.74688,448.448465 1344.96088,447.77779 C1366.31299,447.05502 1387.68765,448.17653 1408.84689,451.129834 L1418.1143,452.510087 C1429.55069,454.284698 1441.18425,456.650847 1452.62063,459.214174 C1464.05702,461.777502 1472.33854,464.14365 1483.18338,467.101336 C1517.67665,477.432432 1551.24781,490.623456 1583.54752,506.537144 L1593.40647,511.46662 C1602.27953,515.804559 1610.9554,520.536856 1619.23692,525.466332 C1644.18551,540.321471 1667.39902,557.913473 1688.44677,577.915957 C1697.49539,586.912886 1706.05224,596.391242 1714.08004,606.309739 C1720.5327,614.264831 1727.5156,621.774745 1734.98102,628.78815 C1744.52826,637.496737 1755.72545,644.201643 1767.90992,648.506054 C1774.81119,651.069382 1781.90963,653.238351 1788.8109,655.407321 C1800.12335,658.343867 1811.1451,662.303777 1821.7398,667.238063 C1827.70651,670.150477 1833.32829,673.721958 1838.50002,677.885731 C1844.22107,682.667021 1849.44037,688.018458 1854.07716,693.857234 L1886.80888,683.801103 L1905.34371,678.674448 C1916.72868,675.638004 1927.5718,670.848406 1937.4839,664.477557 L1938.86415,664.477557 C1950.69866,655.407939 1960.61742,644.081797 1968.04665,631.154299 C1972.68296,623.679551 1976.39098,615.667593 1979.08867,607.295635 C1984.3197,594.14875 1981.4762,579.162735 1971.79305,568.845721 Z" id="path-7"></path>
        <filter x="-2.8%" y="-3.8%" width="105.6%" height="108.0%" filterUnits="objectBoundingBox" id="filter-8">
            <feGaussianBlur stdDeviation="10" in="SourceGraphic"></feGaussianBlur>
        </filter>
        <filter x="-3.4%" y="-4.7%" width="106.8%" height="109.7%" filterUnits="objectBoundingBox" id="filter-9">
            <feOffset dx="0" dy="2" in="SourceAlpha" result="shadowOffsetOuter1"></feOffset>
            <feGaussianBlur stdDeviation="9.5" in="shadowOffsetOuter1" result="shadowBlurOuter1"></feGaussianBlur>
            <feColorMatrix values="0 0 0 0 0.996078431   0 0 0 0 0.937254902   0 0 0 0 0.803921569  0 0 0 1 0" type="matrix" in="shadowBlurOuter1"></feColorMatrix>
        </filter>
        <filter x="-10.1%" y="-37.8%" width="120.1%" height="175.7%" filterUnits="objectBoundingBox" id="filter-10">
            <feGaussianBlur stdDeviation="50" in="SourceGraphic"></feGaussianBlur>
        </filter>
        <path d="M799.16929,482.481301 C795.754107,499.14099 789.483423,515.084538 780.63446,529.607092 L778.66267,533.353494 C769.607155,550.266575 758.187405,565.802747 744.747874,579.49339 C739.900398,584.530023 734.69439,589.208841 729.17073,593.493102 C708.673208,607.40584 685.826447,617.493153 661.735498,623.267137 C646.040978,627.575074 631.084804,634.222263 617.370214,642.985041 C601.05923,655.5663 587.896178,671.766979 578.920301,690.308011 C571.067575,704.801727 565.103676,720.241599 561.174187,736.250728 C557.816541,750.457581 556.292434,765.035997 556.639069,779.630117 C556.651345,821.072307 574.721393,860.452051 606.131008,887.487052 L614.412528,894.388319 C640.294992,915.511108 672.90231,926.63678 706.297961,925.739786 C721.086389,925.739786 734.691743,918.246983 748.691455,927.514398 C755.329103,932.212745 760.574706,938.616469 763.874241,946.049228 C767.226285,952.556136 769.789613,959.851761 772.747298,967.344564 C783.066473,996.108016 796.072003,1023.83554 811.591569,1050.15976 C815.267449,1056.54513 819.560172,1062.55494 824.408207,1068.10305 C828.004715,1071.9388 831.823419,1075.55998 835.844592,1078.9479 C842.340101,1083.90571 849.792344,1087.46399 857.731465,1089.39839 C864.212506,1090.85049 870.812476,1091.70849 877.449369,1091.96172 L890.463186,1091.96172 C911.302681,1090.21343 932.281803,1092.62636 952.180226,1099.06016 C968.087267,1105.58522 983.449972,1113.36547 998.122943,1122.32729 C1017.84085,1134.15803 1037.55875,1146.97467 1058.45973,1157.42516 C1066.34689,1161.36874 1074.43123,1164.91796 1082.90993,1168.27001 C1099.5346,1174.98311 1116.68064,1180.32476 1134.17648,1184.24151 C1158.70192,1189.83922 1183.75299,1192.81362 1208.90734,1193.11457 C1215.61143,1193.11457 1222.31551,1193.11457 1228.62524,1193.11457 C1243.9442,1191.20317 1259.05772,1187.90327 1273.77924,1183.25561 C1291.35038,1178.38198 1308.54913,1172.25369 1325.24297,1164.91796 C1344.96088,1156.24209 1364.67878,1145.20006 1384.39668,1135.73547 C1393.46692,1131.00317 1402.1428,1126.07369 1410.6215,1120.55268 C1441.89984,1099.89636 1471.5622,1076.89155 1499.35207,1051.73719 L1516.30946,1037.14594 C1529.9463,1025.07645 1546.9332,1017.44266 1565.01269,1015.25907 C1584.73059,1012.69574 1604.4485,1013.87882 1624.1664,1009.54088 L1633.43381,1007.56909 C1667.80098,1001.79931 1698.37812,982.386387 1718.2208,953.73921 C1731.31471,932.260234 1741.2742,909.021431 1747.79766,884.726546 C1747.79766,880.980144 1749.57227,877.233742 1750.16381,873.881699 C1752.56221,859.080412 1753.81473,844.116098 1753.91021,829.122056 C1753.91021,817.882851 1752.33278,805.65775 1752.1356,793.827008 C1751.76701,787.222498 1752.23074,780.597854 1753.51585,774.109104 C1756.86789,758.729138 1766.33249,742.166099 1771.06479,727.57485 C1775.73102,715.374267 1779.74598,702.934468 1783.09271,690.308011 C1783.09271,685.575714 1785.0645,680.843417 1785.85321,676.11112 C1789.10448,654.716561 1790.22731,633.052436 1789.20526,611.436394 C1788.47365,594.521325 1786.29674,577.699813 1782.69835,561.155739 C1779.31913,544.663626 1774.50272,528.498975 1768.30428,512.846874 C1760.75255,493.439785 1751.4466,474.761869 1740.50203,457.045205 C1725.74795,433.362457 1708.63787,411.231653 1689.43266,390.990226 C1654.6999,351.987238 1613.6363,319.123027 1567.97037,293.780959 C1536.89859,280.404417 1502.40111,277.161654 1469.38085,284.513544 C1463.78219,286.224136 1458.31296,288.332753 1453.01499,290.823273 C1430.93094,301.470941 1411.01586,314.681937 1386.76283,311.724251 C1383.55857,311.331663 1380.3927,310.672106 1377.29824,309.752461 C1355.60854,303.639911 1336.67936,292.795063 1315.97556,286.879692 C1305.83278,284.125184 1295.31786,282.993832 1284.82127,283.527649 C1272.53869,284.216335 1260.37052,286.266407 1248.54033,289.640199 C1222.09097,298.016817 1197.13464,310.528255 1174.59818,326.709859 L1164.93641,333.413946 C1152.47031,342.469814 1140.73491,352.491049 1129.83854,363.38516 C1124.31753,368.708994 1119.19087,374.230008 1114.06422,380.145379 C1108.93756,386.06075 1100.06451,396.511239 1092.17735,404.004043 C1087.28439,408.893353 1081.78418,413.134483 1075.81148,416.623501 C1056.96762,424.181409 1036.12361,425.15413 1016.65777,419.384008 C1007.78472,417.609397 999.108838,415.834785 991.024497,414.84889 L967.363012,412.285563 C942.731431,409.649131 917.855564,410.378823 893.420872,414.454532 C889.568397,415.033825 885.750549,415.823725 881.984487,416.820681 C872.160475,419.413476 862.641796,423.049083 853.590705,427.665528 C844.520469,432.003467 835.647413,436.932943 826.774356,442.256777 L817.112583,448.566506 C806.950657,457.109476 800.514849,469.273859 799.16929,482.481301 Z" id="path-11"></path>
        <path d="M800.16929,482.481301 C796.754107,499.14099 790.483423,515.084538 781.63446,529.607092 L779.66267,533.353494 C770.607155,550.266575 759.187405,565.802747 745.747874,579.49339 C740.900398,584.530023 735.69439,589.208841 730.17073,593.493102 C709.673208,607.40584 686.826447,617.493153 662.735498,623.267137 C647.040978,627.575074 632.084804,634.222263 618.370214,642.985041 C602.05923,655.5663 588.896178,671.766979 579.920301,690.308011 C572.067575,704.801727 566.103676,720.241599 562.174187,736.250728 C558.816541,750.457581 557.292434,765.035997 557.639069,779.630117 C557.651345,821.072307 575.721393,860.452051 607.131008,887.487052 L615.412528,894.388319 C641.294992,915.511108 673.90231,926.63678 707.297961,925.739786 C722.086389,925.739786 735.691743,918.246983 749.691455,927.514398 C756.329103,932.212745 761.574706,938.616469 764.874241,946.049228 C768.226285,952.556136 770.789613,959.851761 773.747298,967.344564 C784.066473,996.108016 797.072003,1023.83554 812.591569,1050.15976 C816.267449,1056.54513 820.560172,1062.55494 825.408207,1068.10305 C829.004715,1071.9388 832.823419,1075.55998 836.844592,1078.9479 C843.340101,1083.90571 850.792344,1087.46399 858.731465,1089.39839 C865.212506,1090.85049 871.812476,1091.70849 878.449369,1091.96172 L891.463186,1091.96172 C912.302681,1090.21343 933.281803,1092.62636 953.180226,1099.06016 C969.087267,1105.58522 984.449972,1113.36547 999.122943,1122.32729 C1018.84085,1134.15803 1038.55875,1146.97467 1059.45973,1157.42516 C1067.34689,1161.36874 1075.43123,1164.91796 1083.90993,1168.27001 C1100.5346,1174.98311 1117.68064,1180.32476 1135.17648,1184.24151 C1159.70192,1189.83922 1184.75299,1192.81362 1209.90734,1193.11457 C1216.61143,1193.11457 1223.31551,1193.11457 1229.62524,1193.11457 C1244.9442,1191.20317 1260.05772,1187.90327 1274.77924,1183.25561 C1292.35038,1178.38198 1309.54913,1172.25369 1326.24297,1164.91796 C1345.96088,1156.24209 1365.67878,1145.20006 1385.39668,1135.73547 C1394.46692,1131.00317 1403.1428,1126.07369 1411.6215,1120.55268 C1442.89984,1099.89636 1472.5622,1076.89155 1500.35207,1051.73719 L1517.30946,1037.14594 C1530.9463,1025.07645 1547.9332,1017.44266 1566.01269,1015.25907 C1585.73059,1012.69574 1605.4485,1013.87882 1625.1664,1009.54088 L1634.43381,1007.56909 C1668.80098,1001.79931 1699.37812,982.386387 1719.2208,953.73921 C1732.31471,932.260234 1742.2742,909.021431 1748.79766,884.726546 C1748.79766,880.980144 1750.57227,877.233742 1751.16381,873.881699 C1753.56221,859.080412 1754.81473,844.116098 1754.91021,829.122056 C1754.91021,817.882851 1753.33278,805.65775 1753.1356,793.827008 C1752.76701,787.222498 1753.23074,780.597854 1754.51585,774.109104 C1757.86789,758.729138 1767.33249,742.166099 1772.06479,727.57485 C1776.73102,715.374267 1780.74598,702.934468 1784.09271,690.308011 C1784.09271,685.575714 1786.0645,680.843417 1786.85321,676.11112 C1790.10448,654.716561 1791.22731,633.052436 1790.20526,611.436394 C1789.47365,594.521325 1787.29674,577.699813 1783.69835,561.155739 C1780.31913,544.663626 1775.50272,528.498975 1769.30428,512.846874 C1761.75255,493.439785 1752.4466,474.761869 1741.50203,457.045205 C1726.74795,433.362457 1709.63787,411.231653 1690.43266,390.990226 C1655.6999,351.987238 1614.6363,319.123027 1568.97037,293.780959 C1537.89859,280.404417 1503.40111,277.161654 1470.38085,284.513544 C1464.78219,286.224136 1459.31296,288.332753 1454.01499,290.823273 C1431.93094,301.470941 1412.01586,314.681937 1387.76283,311.724251 C1384.55857,311.331663 1381.3927,310.672106 1378.29824,309.752461 C1356.60854,303.639911 1337.67936,292.795063 1316.97556,286.879692 C1306.83278,284.125184 1296.31786,282.993832 1285.82127,283.527649 C1273.53869,284.216335 1261.37052,286.266407 1249.54033,289.640199 C1223.09097,298.016817 1198.13464,310.528255 1175.59818,326.709859 L1165.93641,333.413946 C1153.47031,342.469814 1141.73491,352.491049 1130.83854,363.38516 C1125.31753,368.708994 1120.19087,374.230008 1115.06422,380.145379 C1109.93756,386.06075 1101.06451,396.511239 1093.17735,404.004043 C1088.28439,408.893353 1082.78418,413.134483 1076.81148,416.623501 C1057.96762,424.181409 1037.12361,425.15413 1017.65777,419.384008 C1008.78472,417.609397 1000.10884,415.834785 992.024497,414.84889 L968.363012,412.285563 C943.731431,409.649131 918.855564,410.378823 894.420872,414.454532 C890.568397,415.033825 886.750549,415.823725 882.984487,416.820681 C873.160475,419.413476 863.641796,423.049083 854.590705,427.665528 C845.520469,432.003467 836.647413,436.932943 827.774356,442.256777 L818.112583,448.566506 C807.950657,457.109476 801.514849,469.273859 800.16929,482.481301 Z" id="path-13"></path>
        <filter x="-3.0%" y="-3.0%" width="107.7%" height="110.4%" filterUnits="objectBoundingBox" id="filter-15">
            <feOffset dx="11" dy="20" in="SourceAlpha" result="shadowOffsetOuter1"></feOffset>
            <feGaussianBlur stdDeviation="12.5" in="shadowOffsetOuter1" result="shadowBlurOuter1"></feGaussianBlur>
            <feColorMatrix values="0 0 0 0 0.960784314   0 0 0 0 0.650980392   0 0 0 0 0.443137255  0 0 0 0.00923295455 0" type="matrix" in="shadowBlurOuter1"></feColorMatrix>
        </filter>
        <linearGradient x1="42.4282242%" y1="30.6144993%" x2="69.3033591%" y2="74.072869%" id="linearGradient-16">
            <stop stop-color="#FFFDF2" offset="0%"></stop>
            <stop stop-color="#FACDA5" offset="100%"></stop>
        </linearGradient>
        <path d="M242.578422,201.813471 C239.163239,218.47316 232.892555,234.416708 224.043592,248.939262 L222.071802,252.685664 C213.016287,269.598745 201.596537,285.134917 188.157007,298.82556 C183.309531,303.862193 178.103522,308.541011 172.579863,312.825272 C152.08234,326.73801 129.23558,336.825323 105.14463,342.599307 C89.4501107,346.907244 74.4939365,353.554433 60.7793462,362.317211 C44.4683623,374.898469 31.3053106,391.099148 22.3294331,409.640181 C14.4767074,424.133897 8.51280842,439.573768 4.58331935,455.582898 C1.22567331,469.789751 -0.298433794,484.368167 0.0482013947,498.962287 C0.0604778938,540.404477 18.130525,579.784221 49.5401408,606.819222 L57.8216605,613.720489 C83.7041246,634.843277 116.311442,645.96895 149.707094,645.071956 C164.495522,645.071956 178.100876,637.579153 192.100588,646.846568 C198.738235,651.544915 203.983839,657.948639 207.283374,665.381398 C210.635418,671.888306 213.198745,679.183931 216.156431,686.676734 C226.475606,715.440186 239.481135,743.167711 255.000702,769.491932 C258.676582,775.877299 262.969304,781.887111 267.81734,787.435224 C271.413848,791.270969 275.232552,794.892154 279.253724,798.280072 C285.749234,803.237883 293.201477,806.796162 301.140598,808.730561 C307.621639,810.18266 314.221608,811.040656 320.858502,811.293888 L333.872319,811.293888 C354.711813,809.545597 375.690936,811.958531 395.589359,818.392334 C411.496399,824.917387 426.859105,832.697641 441.532075,841.659461 C461.249979,853.490203 480.967883,866.306841 501.868862,876.75733 C509.756024,880.700911 517.840364,884.250134 526.319063,887.602177 C542.943729,894.315276 560.089777,899.656929 577.585614,903.57368 C602.111056,909.171391 627.162125,912.145792 652.31647,912.446737 C659.020558,912.446737 665.724645,912.446737 672.034375,912.446737 C687.353336,910.535336 702.46685,907.235442 717.188375,902.587784 C734.759513,897.714145 751.958261,891.585856 768.652105,884.250134 C788.370009,875.574256 808.087913,864.532229 827.805817,855.067635 C836.876053,850.335339 845.551931,845.405862 854.03063,839.884849 C885.308968,819.228526 914.971331,796.223716 942.761199,771.069364 L959.718596,756.478115 C973.355428,744.408623 990.342335,736.774831 1008.42182,734.591241 C1028.13972,732.027914 1047.85763,733.210988 1067.57553,728.873049 L1076.84295,726.901259 C1111.21012,721.131485 1141.78726,701.718556 1161.62993,673.07138 C1174.72385,651.592404 1184.68333,628.353601 1191.20679,604.058716 C1191.20679,600.312314 1192.9814,596.565912 1193.57294,593.213868 C1195.97134,578.412582 1197.22386,563.448268 1197.31934,548.454226 C1197.31934,537.215021 1195.74191,524.98992 1195.54473,513.159178 C1195.17615,506.554668 1195.63987,499.930024 1196.92498,493.441273 C1200.27703,478.061308 1209.74162,461.498269 1214.47392,446.90702 C1219.14015,434.706437 1223.15511,422.266637 1226.50184,409.640181 C1226.50184,404.907884 1228.47363,400.175587 1229.26235,395.44329 C1232.51361,374.048731 1233.63644,352.384606 1232.61439,330.768564 C1231.88278,313.853495 1229.70588,297.031982 1226.10748,280.487909 C1222.72826,263.995796 1217.91185,247.831145 1211.71341,232.179044 C1204.16169,212.771954 1194.85573,194.094039 1183.91117,176.377375 C1169.15709,152.694627 1152.047,130.563823 1132.84179,110.322396 C1098.10903,71.3194077 1057.04544,38.4551965 1011.3795,13.1131285 C980.307721,-0.263412768 945.810241,-3.50617584 912.789984,3.84571359 C907.191319,5.5563058 901.722094,7.66492261 896.424124,10.1554429 C874.340071,20.8031112 854.424988,34.0141069 830.171966,31.0564213 C826.967703,30.6638328 823.801832,30.0042763 820.707372,29.0846309 C799.017677,22.9720806 780.088489,12.1272333 759.38469,6.21186209 C749.241909,3.45735356 738.72699,2.32600157 728.230401,2.85981839 C715.947823,3.54850468 703.779654,5.59857652 691.949458,8.97236867 C665.500101,17.3489868 640.543775,29.8604253 618.007317,46.0420285 L608.345544,52.7461159 C595.879439,61.8019837 584.144045,71.823219 573.247675,82.7173302 C567.726662,88.0411643 562.600007,93.5621774 557.473352,99.4775487 C552.346696,105.39292 543.47364,115.843409 535.586478,123.336213 C530.693527,128.225523 525.193311,132.466653 519.220618,135.955671 C500.376756,143.513579 479.532741,144.4863 460.066905,138.716178 C451.193848,136.941567 442.51797,135.166955 434.43363,134.18106 L410.772145,131.617732 C386.140563,128.981301 361.264696,129.710993 336.830004,133.786702 C332.97753,134.365995 329.159681,135.155895 325.39362,136.15285 C315.569608,138.745646 306.050928,142.381253 296.999838,146.997698 C287.929602,151.335637 279.056545,156.265113 270.183488,161.588947 L260.521715,167.898676 C250.359789,176.441646 243.923982,188.606029 242.578422,201.813471 Z" id="path-17"></path>
        <linearGradient x1="85.2820744%" y1="23.6705214%" x2="60.2743351%" y2="56.3635023%" id="linearGradient-19">
            <stop stop-color="#FEFCF0" offset="0%"></stop>
            <stop stop-color="#F8D1AB" offset="100%"></stop>
        </linearGradient>
        <filter x="-16.8%" y="-18.3%" width="133.5%" height="136.6%" filterUnits="objectBoundingBox" id="filter-20">
            <feGaussianBlur stdDeviation="50" in="SourceGraphic"></feGaussianBlur>
        </filter>
        <filter x="-22.8%" y="-22.6%" width="145.6%" height="145.3%" filterUnits="objectBoundingBox" id="filter-21">
            <feGaussianBlur stdDeviation="44" in="SourceGraphic"></feGaussianBlur>
        </filter>
        <filter x="-17.6%" y="-15.9%" width="135.2%" height="131.7%" filterUnits="objectBoundingBox" id="filter-22">
            <feGaussianBlur stdDeviation="27" in="SourceGraphic"></feGaussianBlur>
        </filter>
        <radialGradient cx="50%" cy="33.751736%" fx="50%" fy="33.751736%" r="68.1566498%" gradientTransform="translate(0.500000,0.337517),scale(1.000000,0.972000),rotate(90.000000),translate(-0.500000,-0.337517)" id="radialGradient-23">
            <stop stop-color="#F39C60" offset="0%"></stop>
            <stop stop-color="#FFDBC2" offset="100%"></stop>
        </radialGradient>
        <filter x="-34.8%" y="-33.8%" width="169.6%" height="167.6%" filterUnits="objectBoundingBox" id="filter-24">
            <feGaussianBlur stdDeviation="50" in="SourceGraphic"></feGaussianBlur>
        </filter>
    </defs>
    <g id="Page-1" stroke="none" stroke-width="1" fill="none" fill-rule="evenodd">
        <g id="Cloud-01" transform="translate(0.115892, 0.169198)">
            <mask id="mask-3" fill="white">
                <use xlink:href="#path-2"></use>
            </mask>
            <use id="Path" fill="url(#linearGradient-1)" fill-rule="nonzero" xlink:href="#path-2"></use>
            <path d="M478.16181,672.167539 C475.795662,655.998858 474.021051,638.647102 473.232334,632.731731 C469.091574,604.337949 480.922317,555.437547 475.992841,528.226839 C471.658081,529.328538 467.116605,529.328538 462.781845,528.226839 C395.149434,517.973529 387.853809,502.593564 321.404472,543.606804 L306.813223,552.282682 C287.36253,597.851141 270.831803,644.611365 257.321284,692.279801 C271.966128,690.42557 286.737576,689.76613 301.489389,690.308011 C328.78717,692.345144 355.08499,701.450849 377.797678,716.730003 C403.515957,689.480421 438.940215,673.468657 476.387199,672.167539 L478.16181,672.167539 Z" id="Path" fill="#FCE6C5" fill-rule="nonzero" filter="url(#filter-4)" mask="url(#mask-3)"></path>
            <path d="M2405.19258,1053.90616 C2268.15315,1103.79246 2146.69086,1013.28728 2015.96115,991.991944 C2004.04285,995.934227 1991.63189,998.190767 1979.08867,998.696032 C1821.34544,1006.38601 1669.12322,1078.9479 1513.54896,1105.17271 C1371.35843,1126.45319 1226.0481,1106.89613 1094.54349,1048.77951 C978.602218,999.681927 893.223693,930.472083 763.479883,933.824127 C745.73377,933.824127 718.720241,933.824127 689.932101,935.795918 C629.003777,953.542031 568.66699,971.682503 526.865034,1012.69574 C495.810475,1047.4403 447.252671,1060.71843 402.839417,1046.61054 C379.859176,1066.46712 350.391911,1077.20163 320.024219,1076.77893 C274.870219,1076.77893 229.913397,1076.77893 185.350934,1073.22971 C181.972683,1108.06261 163.345991,1139.61247 134.478741,1159.39695 C142.852567,1164.29736 151.706046,1168.32767 160.900733,1171.42487 C187.711492,1179.95974 216.510812,1179.95974 243.321572,1171.42487 L244.504646,1172.80513 C249.742957,1177.75337 255.345448,1182.30128 261.264865,1186.41048 L261.264865,1186.41048 C274.465782,1195.84 289.414062,1202.54327 305.235791,1206.12838 L305.235791,1206.12838 C316.411774,1205.43995 327.500618,1203.72381 338.36187,1201.00173 C354.475341,1213.43024 372.181905,1223.64301 391.008674,1231.3673 C393.572002,1232.55037 396.529687,1233.53627 399.290194,1234.52217 C422.317679,1244.1822 447.418598,1247.84558 472.246439,1245.16983 C482.836705,1243.09624 493.111056,1239.64936 502.809191,1234.91652 L516.414544,1229.19833 C522.687981,1226.56486 529.34713,1224.96666 536.132449,1224.46603 L540.273208,1224.46603 L542.836536,1224.46603 C546.930172,1226.05917 550.728867,1228.32506 554.075741,1231.17012 L559.202396,1235.1137 C562.7921,1238.14187 566.544058,1240.9723 570.441602,1243.5924 L575.765436,1246.74727 C586.545175,1254.1964 598.56267,1259.67103 611.257663,1262.91595 C622.420532,1264.52127 633.705569,1265.11522 644.975279,1264.69056 C666.934728,1263.66748 688.671348,1259.82381 709.650005,1253.25417 L719.311778,1249.90213 C752.325224,1233.96489 781.565031,1211.17801 805.084661,1183.05844 L817.112583,1169.84744 C832.295369,1152.89004 849.449945,1133.5665 867.590417,1131.59471 L875.083221,1130.41163 L878.040906,1130.41163 C884.153457,1129.03138 884.153457,1129.22856 914.716208,1154.66465 L929.307457,1166.4954 C940.582581,1175.43623 952.586733,1183.41701 965.194043,1190.35406 L980.574008,1199.4243 C985.503484,1201.79044 990.038602,1203.76223 994.57372,1205.53685 C1009.8218,1212.01779 1025.76756,1216.71551 1042.09387,1219.53656 C1077.95229,1225.95 1114.16939,1230.16436 1150.54234,1232.15602 L1151.72542,1232.15602 C1180.75141,1233.32363 1209.8127,1231.00667 1238.28702,1225.25475 L1244.9911,1225.25475 C1251.89237,1225.25475 1258.2021,1222.8886 1264.70901,1221.50835 C1270.87168,1219.99143 1276.9309,1218.08146 1282.84948,1215.79016 C1289.85428,1212.97874 1297.11936,1210.86526 1304.53917,1209.48043 C1307.67539,1208.9953 1310.86755,1208.9953 1314.00377,1209.48043 C1322.38249,1210.95528 1330.29016,1214.40221 1337.07371,1219.53656 L1341.41165,1222.29706 L1343.97498,1222.69142 L1346.14395,1224.07168 C1378.52759,1243.54769 1413.2434,1258.8518 1449.46577,1269.62003 C1482.80608,1279.59466 1517.39636,1284.77324 1552.19605,1285 L1560.87193,1285 C1579.6906,1284.93394 1598.45364,1282.95193 1616.87077,1279.08463 C1624.62005,1277.30096 1632.25753,1275.06238 1639.74354,1272.38054 L1650.98275,1268.0426 C1670.4531,1258.414 1692.36261,1254.84254 1713.88286,1257.78929 L1718.61516,1258.97237 C1743.37608,1266.20018 1769.15225,1269.33062 1794.92345,1268.23978 C1806.5213,1267.24515 1818.00485,1265.19923 1829.2326,1262.12723 C1851.61576,1255.23242 1873.02053,1245.49093 1892.92143,1233.14191 C1897.25937,1230.38141 1901.59731,1227.22654 1905.93525,1224.07168 C1926.7463,1236.57847 1950.67361,1242.93629 1974.94791,1242.40933 L1974.94791,1242.40933 C1990.61464,1242.21702 2006.16531,1239.6917 2021.08781,1234.91652 C2038.26805,1229.47503 2054.5969,1221.64249 2069.59385,1211.6494 C2087.56877,1199.57249 2103.76336,1185.03719 2117.70554,1168.46719 C2122.8322,1162.35464 2127.56449,1155.65055 2132.29679,1148.74928 C2136.04319,1152.49568 2139.78959,1156.63644 2143.33882,1160.7772 L2147.08522,1164.91796 C2149.84572,1168.07283 2152.80341,1171.42487 2155.95827,1174.38256 C2160.95338,1179.07138 2166.36531,1183.29533 2172.12696,1187.00202 L2179.02822,1190.9456 L2179.02822,1190.9456 L2182.38027,1193.11457 C2184.65818,1194.64081 2187.02891,1196.02374 2189.47871,1197.25533 C2203.3836,1204.14843 2218.71941,1207.66148 2234.23835,1207.50864 L2234.23835,1207.50864 C2250.1238,1207.24793 2265.87872,1204.58888 2280.96979,1199.62148 C2283.87544,1198.64919 2286.83887,1197.85894 2289.84284,1197.25533 C2294.37796,1196.07225 2299.11026,1195.08636 2303.4482,1194.29764 C2308.43231,1193.20455 2313.31384,1191.68731 2318.03945,1189.76252 L2327.50404,1186.60766 L2327.50404,1186.60766 C2337.05397,1182.28248 2346.27958,1177.27429 2355.10911,1171.62205 C2362.79909,1166.69258 2370.48907,1161.17156 2377.7847,1155.45337 L2381.5311,1152.29851 C2412.36505,1127.60692 2437.74388,1096.78977 2456.06478,1061.79333 L2456.06478,1061.79333 C2461.64502,1051.18862 2466.58338,1040.25837 2470.8532,1029.0616 C2470.8532,1029.0616 2472.82499,1025.3152 2474.5996,1022.35752 C2475.90048,1020.11961 2477.08512,1017.81613 2478.14883,1015.45625 C2480.12062,1010.52677 2482.09241,1005.20294 2484.0642,999.879106 C2462.43215,1023.8903 2435.397,1042.40938 2405.19258,1053.90616 L2405.19258,1053.90616 Z" id="Path" fill="#FDEECF" fill-rule="nonzero" filter="url(#filter-5)" mask="url(#mask-3)"></path>
            <g id="Path" fill-rule="nonzero" filter="url(#filter-8)" mask="url(#mask-3)">
                <use fill="black" fill-opacity="1" filter="url(#filter-9)" xlink:href="#path-7"></use>
                <use fill="url(#linearGradient-6)" xlink:href="#path-7"></use>
            </g>
            <path d="M2077.48102,959.851761 C2046.31776,960.93119 2015.98843,949.663984 1993.08839,928.500293 C1971.05404,939.593632 1946.55551,944.886944 1921.90675,943.880258 C1871.23174,1033.59672 1706.78442,1003.03397 1683.32011,897.346005 C1655.55405,912.571415 1624.94429,921.902023 1593.40647,924.753891 C1544.83467,927.963587 1496.6792,914.005478 1457.35293,885.318083 C1429.82034,892.776563 1403.32535,903.639507 1378.48131,917.655446 C1353.04522,931.457979 1328.00348,947.62666 1302.96174,963.006625 C1283.24384,975.231726 1263.52593,987.062468 1242.62495,997.118599 C1237.4983,999.681927 1232.56882,1002.04808 1227.44217,1004.21704 C1208.11504,1012.70038 1188.37201,1020.20272 1168.28846,1026.69546 C1136.81393,1036.48458 1104.55442,1043.54341 1071.8679,1047.79361 L1063.19203,1048.77951 C1037.42145,1050.72445 1011.51879,1049.99759 985.897842,1046.61054 C971.700951,1045.03311 957.306881,1043.06132 942.912811,1041.08953 L918.659789,1037.93466 C909.195195,1036.55441 898.941885,1034.97698 891.054723,1033.20236 C877.557352,1030.45436 864.35244,1026.42686 851.618915,1021.17444 C836.331758,1014.97578 822.199564,1006.24315 809.816958,995.343988 C802.126975,1019.59701 789.113159,1044.83593 779.254207,1067.90588 C760.788061,1118.45097 730.73684,1163.96675 691.509533,1200.80455 C664.170507,1224.06841 634.111355,1243.93128 601.990248,1259.95826 L604.356397,1259.95826 C615.312967,1261.63995 626.40895,1262.23438 637.482476,1261.73287 C659.244942,1260.67894 680.782054,1256.83539 701.565664,1250.29649 L711.030258,1247.14162 C743.7803,1231.3177 772.758998,1208.65918 796.014425,1180.69229 C815.732329,1160.97438 835.450233,1131.39753 859.900435,1128.63702 C863.646836,1128.63702 866.407343,1128.63702 868.576312,1127.25677 C877.843727,1125.67933 874.886042,1123.70754 913.335955,1155.25619 L923.589265,1163.73489 C939.651406,1175.82046 956.589751,1186.69527 974.264279,1196.26943 L988.066812,1202.38198 C1003.18703,1208.79468 1019.00192,1213.42666 1035.1926,1216.18451 C1070.78977,1222.57242 1106.74289,1226.7867 1142.85236,1228.80397 L1144.42979,1228.80397 C1175.58637,1229.72456 1206.746,1227.07831 1237.30112,1220.91681 C1243.61085,1219.93092 1249.92058,1218.74784 1257.01902,1217.17041 C1270.82156,1214.01555 1284.03255,1207.11428 1297.83509,1204.94531 C1301.16222,1204.36737 1304.56408,1204.36737 1307.89122,1204.94531 C1318.22817,1207.04962 1327.94298,1211.50223 1336.285,1217.95913 L1341.21447,1220.91681 C1372.95659,1240.23512 1407.0087,1255.47244 1442.5645,1266.26799 C1477.96865,1276.98473 1514.81484,1282.17246 1551.80169,1281.64796 C1570.42846,1281.64948 1589.00239,1279.6665 1607.209,1275.73259 C1615.11973,1273.74476 1622.89201,1271.24182 1630.47613,1268.23978 L1641.71533,1263.90184 C1661.7076,1254.14224 1684.17813,1250.63766 1706.19288,1253.84571 C1732.21237,1261.58386 1759.31553,1265.04667 1786.44475,1264.09902 C1797.86986,1262.82508 1809.15551,1260.51515 1820.16237,1257.19776 C1842.34483,1250.44178 1863.55496,1240.83094 1883.25966,1228.60679 C1905.17834,1214.44733 1924.57262,1196.71923 1940.63876,1176.15717 C1945.66329,1169.89152 1950.27391,1163.30491 1954.44129,1156.43926 C1963.06984,1141.00623 1969.19291,1124.30089 1972.58177,1106.94733 C1973.19255,1089.72376 1975.90749,1072.63954 1980.66611,1056.07513 C1982.77149,1052.16639 1985.4277,1048.58051 1988.55327,1045.42746 C2001.36991,1032.80801 2018.91884,1029.85032 2032.72137,1019.59701 C2045.40446,1010.37057 2057.27816,1000.08003 2068.2136,988.83708 C2076.63294,979.919053 2084.34616,970.359928 2091.28355,960.246119 L2077.48102,959.851761 Z" id="Path" fill="#F6B683" fill-rule="nonzero" filter="url(#filter-10)" mask="url(#mask-3)"></path>
            <mask id="mask-12" fill="white">
                <use xlink:href="#path-11"></use>
            </mask>
            <use id="Path" fill="#FFFFF1" fill-rule="nonzero" xlink:href="#path-11"></use>
            <mask id="mask-14" fill="white">
                <use xlink:href="#path-13"></use>
            </mask>
            <g id="Path-Copy" fill-rule="nonzero">
                <use fill="black" fill-opacity="1" filter="url(#filter-15)" xlink:href="#path-13"></use>
                <use fill="#FFFFFC" xlink:href="#path-13"></use>
            </g>
            <g id="Group" mask="url(#mask-14)">
                <g transform="translate(556.590867, 280.667830)">
                    <mask id="mask-18" fill="white">
                        <use xlink:href="#path-17"></use>
                    </mask>
                    <use id="Path" stroke="none" fill="url(#linearGradient-16)" fill-rule="nonzero" xlink:href="#path-17"></use>
                    <path d="M1211.71341,232.179044 C1204.16169,212.771954 1194.85573,194.094039 1183.91117,176.377375 C1176.74476,164.806161 1168.97845,153.61742 1160.64404,142.856938 C1111.94082,132.012091 1062.05452,95.7311469 1014.53437,92.3791032 C971.15498,89.4214176 925.606622,109.730859 878.67801,104.998562 C786.989756,95.9283259 760.370585,125.89954 691.752279,182.884283 C632.598566,230.995969 527.699316,313.416809 444.68694,288.572249 L435.222346,288.572249 C427.253907,305.115161 417.886704,320.947053 407.222922,335.895219 C389.104074,366.657723 365.74852,394.017087 338.210257,416.738626 C366.228295,444.559101 382.887102,481.812973 384.94169,521.243518 C470.123036,534.257335 542.684923,619.833039 477.813019,706.591817 C450.679315,745.801772 419.843633,782.315973 385.730406,815.631827 C388.737865,816.30348 391.701149,817.15954 394.603463,818.195155 C410.510504,824.720208 425.87321,832.500462 440.54618,841.462282 C460.264084,853.293024 479.981988,866.109662 500.882967,876.560151 C508.770128,880.503732 516.854469,884.052955 525.333168,887.404998 C541.957834,894.118097 559.103882,899.45975 576.599719,903.376501 C601.12516,908.974212 626.17623,911.948613 651.330575,912.249558 C658.034663,912.249558 664.73875,912.249558 671.048479,912.249558 C686.694003,910.461923 702.140079,907.227488 717.188375,902.587784 C734.759513,897.714145 751.958261,891.585856 768.652105,884.250134 C788.370009,875.574256 808.087913,864.532229 827.805817,855.067635 C836.876053,850.335339 845.551931,845.405862 854.03063,839.884849 C885.308968,819.228526 914.971331,796.223716 942.761199,771.069364 L959.718596,756.478115 C973.355428,744.408623 990.342335,736.774831 1008.42182,734.591241 C1028.13972,732.027914 1047.85763,733.210988 1067.57553,728.873049 L1076.84295,726.901259 C1111.21012,721.131485 1141.78726,701.718556 1161.62993,673.07138 C1174.72385,651.592404 1184.68333,628.353601 1191.20679,604.058716 C1191.20679,600.312314 1192.9814,596.565912 1193.57294,593.213868 C1195.97134,578.412582 1197.22386,563.448268 1197.31934,548.454226 C1197.31934,537.215021 1195.74191,524.98992 1195.54473,513.159178 C1195.17615,506.554668 1195.63987,499.930024 1196.92498,493.441273 C1200.27703,478.061308 1209.74162,461.498269 1214.47392,446.90702 C1219.14015,434.706437 1223.15511,422.266637 1226.50184,409.640181 C1226.50184,404.907884 1228.47363,400.175587 1229.26235,395.44329 C1232.51361,374.048731 1233.63644,352.384606 1232.61439,330.768564 C1231.88278,313.853495 1229.70588,297.031982 1226.10748,280.487909 C1222.72826,263.995796 1217.91185,247.831145 1211.71341,232.179044 L1211.71341,232.179044 Z" id="Path" stroke="none" fill="url(#linearGradient-19)" fill-rule="nonzero" filter="url(#filter-20)" mask="url(#mask-18)"></path>
                    <path d="M400.913193,782.308569 L418.067769,780.928316 C435.602868,780.337496 453.007998,777.690328 469.925857,773.041154 L478.601735,771.069364 C492.840084,768.798267 507.348417,768.798267 521.586766,771.069364 C543.36116,773.895425 564.45929,780.572049 583.895343,790.787268 C610.908872,805.378517 637.9224,828.251286 666.90772,833.180762 C679.981139,835.124456 693.270108,835.124456 706.343528,833.180762 C724.054139,830.811154 741.208334,825.337832 757.018541,817.012081 C779.328593,804.372797 799.007578,787.572031 814.98918,767.520141 L787.384114,767.520141 C743.261995,766.867831 700.527189,752.000544 665.527466,725.126647 C616.711098,690.965576 573.533685,649.384862 537.558268,601.889746 L534.403404,597.157449 C518.143093,571.285846 504.910955,543.630678 494.967595,514.73661 C487.474792,493.638453 481.165063,471.948758 475.249691,450.653422 L473.277901,442.76626 C468.125154,422.13214 464.305138,401.187914 461.841516,380.063325 C457.793575,348.050597 457.793575,315.655501 461.841516,283.642773 C456.575485,279.400212 450.89415,275.700738 444.884119,272.600747 C430.850116,265.449357 416.114946,259.766736 400.913193,255.64335 C392.653073,253.521842 384.194485,252.266271 375.674275,251.896948 C367.151884,251.356684 358.601937,252.358631 350.435358,254.854633 C343.054131,257.080249 335.969781,260.192067 329.337201,264.122048 C289.897002,289.38548 261.339153,328.494258 249.28251,373.753595 C240.921352,403.531999 236.67546,434.314715 236.663051,465.244671 C238.008178,489.120602 242.721369,512.686553 250.662763,535.24323 C252.791639,541.977135 255.360495,548.563946 258.352746,554.961134 C262.296327,563.439833 266.437086,570.3411 269.78913,577.636724 C274.253904,586.084293 277.001538,595.332425 277.873471,604.847432 C278.859366,613.52331 279.648082,622.396367 280.633977,631.269423 C282.307316,648.347246 285.206755,665.282605 289.309855,681.944437 C294.662651,701.215617 303.409777,719.377587 315.14031,735.577136 C336.455929,761.84869 367.281145,778.643118 400.913193,782.308569 L400.913193,782.308569 Z" id="Path" stroke="none" fill="#FCF4D9" fill-rule="nonzero" filter="url(#filter-21)" mask="url(#mask-18)"></path>
                    <path d="M903.522569,192.743235 L887.353888,194.123489 C870.886571,194.752564 854.545574,197.266564 838.650665,201.616292 L830.566324,203.390904 C817.113859,205.563596 803.399906,205.563596 789.947441,203.390904 C769.192598,200.478395 749.145109,193.795899 730.793729,183.672999 C705.160454,169.870466 681.696148,231.390327 654.288261,226.855209 C642.06316,224.68624 664.147213,301.783245 652.31647,303.360678 C635.95061,305.332468 667.696436,295.276337 652.31647,303.360678 C631.199618,315.173413 612.635279,331.05698 597.697876,350.09211 C606.176575,350.09211 614.852453,350.09211 622.739614,350.09211 C656.930874,350.803437 690.328145,360.530137 719.554524,378.288713 C725.864253,382.035115 886.565172,503.103047 758.990332,376.514102 C721.526314,339.050084 740.455502,313.613988 773.187223,361.725674 C774.370297,363.105927 775.356192,364.683359 776.342088,366.063613 C791.727933,390.430921 804.23387,416.501498 813.608926,443.752155 C820.510193,463.470059 826.622743,483.187963 831.749398,504.088942 C831.749398,506.652269 833.129651,509.018418 833.721189,511.581745 C838.526015,531.052885 842.082475,550.810998 844.368857,570.735458 C848.31656,600.840713 848.31656,631.332561 844.368857,661.437817 C849.274501,665.618392 854.71113,669.13231 860.537538,671.888306 C873.745283,678.692005 887.621745,684.110433 901.945137,688.056987 C910.028524,690.059661 918.279148,691.313756 926.592517,691.803389 C934.645623,692.284816 942.720774,691.350501 950.451181,689.042883 C957.326096,686.893441 963.939661,683.983472 970.169085,680.367005 C1007.24277,656.482168 1034.09468,619.648667 1045.49148,577.045187 C1053.40931,549.009853 1057.39101,520.009842 1057.3231,490.877946 C1056.0786,468.425641 1051.69815,446.257948 1044.3084,425.020146 C1042.13944,418.907596 1039.77329,412.795046 1037.01278,406.879674 C1034.25227,400.964303 1029.51998,392.485604 1026.16793,385.781517 C1022.16313,377.737532 1019.56237,369.068339 1018.47795,360.148241 C1018.47795,351.866722 1016.90052,343.585202 1015.91462,335.106503 C1014.326,319.032988 1011.62474,303.088974 1007.83028,287.389175 C1003.01528,269.663016 995.141264,252.914045 984.563155,237.897236 C964.631028,212.665641 935.466801,196.415987 903.522569,192.743235 Z" id="Path" stroke="none" fill="#FCF4D9" fill-rule="nonzero" opacity="0.793852307" filter="url(#filter-22)" mask="url(#mask-18)"></path>
                    <path d="M873.748534,472.737474 C873.748534,595.185659 858.368569,768.506036 735.723205,768.506036 C613.077841,768.506036 442.517883,669.916516 442.517883,546.876794 C442.465591,487.976432 465.840476,431.473422 507.489337,389.82456 C549.138199,348.175698 605.641209,324.800814 664.541571,324.853105 C787.384114,324.853105 873.748534,350.486468 873.748534,472.737474 Z" id="Path" stroke="none" fill="url(#radialGradient-23)" fill-rule="nonzero" opacity="0.481143043" filter="url(#filter-24)" mask="url(#mask-18)"></path>
                </g>
            </g>
        </g>
    </g>
</svg>