<svg xmlns="http://www.w3.org/2000/svg" width="1136" height="577" viewBox="0 0 1136 577">
    <defs>
        <radialGradient id="mlhhfsuafa" cx="51.833%" cy="50%" r="50%" fx="51.833%" fy="50%" gradientTransform="translate(0.518330,0.500000),scale(0.512863,1.000000),rotate(90.000000),scale(1.000000,1.423943),translate(-0.518330,-0.500000)">
            <stop offset="0%" stop-color="#FFECD8"/>
            <stop offset="99.779%" stop-color="#FFFCFA"/>
        </radialGradient>
    </defs>
    <g fill="none" fill-rule="evenodd">
        <g fill="url(#mlhhfsuafa)" transform="translate(-152.000000, -74.000000)">
            <g>
                <g>
                    <path d="M1098.577 357.1c-1.644-5.362-3.802-10.553-6.444-15.5l-3.831-7.402c-4.344-10.201-10.512-19.526-18.2-27.516-8.626-8.205-17.79-15.827-27.429-22.815-8.264-3.927-17.07-6.598-26.123-7.924-4.908-.66-9.852-1.01-14.804-1.045-16.77.504-33.29 4.199-48.676 10.885-.913-3.78-2.136-7.48-3.657-11.059-2.8-6.48-6.335-12.615-10.537-18.286-5.254-6.685-11.688-12.351-18.983-16.72-1.838-.972-3.727-1.844-5.66-2.612-4.165-1.459-8.41-2.68-12.713-3.657-4.893-.976-9.676-2.435-14.281-4.354-5.05-2.177-6.27-8.098-7.576-14.977-.658-5.725-2.657-11.215-5.834-16.023-3.355-4.415-7.45-8.216-12.104-11.233-2.242-1.003-4.618-1.678-7.053-2.002-2.743-.295-5.389-1.187-7.75-2.613-2.712-3.808-3.779-8.546-2.96-13.149.133-2.03.133-4.065 0-6.095-.573-6.208-1.68-12.356-3.31-18.373-4.196-11.778-10.06-22.892-17.415-33.003-6.853-10.498-16.106-19.214-26.995-25.427-5.758-3.276-11.862-5.905-18.199-7.837-4.844-7.74-10.7-14.798-17.416-20.986-4.324-3.8-8.955-7.237-13.845-10.275-10.284-6.608-21.579-11.49-33.438-14.455-5.05-1.25-10.166-2.21-15.326-2.873-9.155-1.122-18.392-1.442-27.603-.958h-11.582c-3.716-4.53-8.02-8.541-12.8-11.93-10.805-8.822-24.955-12.423-38.663-9.84h-1.219l-3.918 1.22c-6.004 1.376-11.74 3.73-16.98 6.966-5.59 3.619-10.71 7.918-15.24 12.8-2.35 2.612-4.701 5.486-6.878 8.708-2.031 2.736-3.809 5.65-5.312 8.708-2.96-3.832-6.096-7.489-9.405-11.06l-4.354-4.353-4.876-4.528-2.264-2.003c-6.167-5.306-13.02-9.758-20.376-13.236l-7.14-3.483-2.178-.87C498.362 1.568 488.53-.44 478.67.08c-16.193 1.47-31.862 6.494-45.89 14.716-7.582 4.33-14.752 9.344-21.421 14.978-5.387 4.547-10.45 9.464-15.152 14.716-1.654 1.916-3.309 3.831-4.702 5.66-2.565 3.467-4.892 7.104-6.966 10.885-1.48 2.35-2.874 4.876-4.267 7.314-1.393 2.438-4.093 7.054-6.27 10.363-1.843 3.05-3.91 5.961-6.182 8.707-2.554 3.16-5.724 5.767-9.318 7.663-3.542 1.814-7.54 2.54-11.494 2.09-3.44-.45-6.773-1.511-9.84-3.135-2.988-1.595-5.894-3.339-8.708-5.224-3.72-2.54-7.654-4.754-11.755-6.618l-1.829-1.132h-.435C302.7 77 289.816 77.88 278.738 83.5c-21.246 10.885-36.673 30.512-42.233 53.727-.832 3.298-1.472 6.642-1.916 10.014-.384 3.676-.384 7.383 0 11.059l.523 5.312c1.544 7.726 1.336 15.701-.61 23.336-.487 1.118-1.233 2.103-2.177 2.874-1.852 1.692-4.207 2.732-6.705 2.96-1.503.192-2.97.603-4.354 1.22-2.61 1.156-5.092 2.587-7.401 4.267h-.436c-3.644 3.445-6.599 7.553-8.707 12.103-3.919-1.132-7.837-2.264-11.843-3.134-9.13-1.997-18.434-3.105-27.778-3.31-10.807-.37-21.614.713-32.132 3.223-11.329 2.719-22.05 7.533-31.609 14.193-12.353 8.854-22.073 20.891-28.126 34.831-7.07 16.313-11.762 33.556-13.933 51.202 0 1.394 0 3.048-.435 4.964h-2.351c-6.092 1-11.977 3-17.416 5.921-9.061 4.488-16.983 10.98-23.163 18.983-5.983 7.768-10.364 16.648-12.887 26.124C.052 375.554-.744 388.175.698 400.639c.954 17.165 6.552 33.748 16.196 47.98 2.636 3.158 5.55 6.072 8.708 8.708-.218 1.938-.218 3.895 0 5.834 1.835 12.546 6.609 24.48 13.933 34.831 7.561 8.069 17.065 14.065 27.603 17.416 11.84 3.769 24.559 3.769 36.399 0l.522.61c2.314 2.184 4.788 4.193 7.402 6.008 5.83 4.164 12.431 7.124 19.418 8.707 4.79-.33 9.54-1.087 14.194-2.264 7.116 5.489 14.936 10 23.25 13.41 1.132.523 2.438.958 3.657 1.394 10.17 4.266 21.255 5.884 32.22 4.702 4.676-.916 9.213-2.438 13.496-4.528l6.009-2.525c2.77-1.163 5.71-1.87 8.707-2.09h2.961c1.808.703 3.485 1.704 4.963 2.96l2.264 1.742c1.586 1.337 3.243 2.587 4.964 3.744l2.351 1.393c4.76 3.29 10.068 5.708 15.674 7.14 4.93.71 9.913.972 14.89.785 9.698-.452 19.297-2.15 28.562-5.05l4.267-1.481c14.58-7.038 27.492-17.102 37.879-29.52l5.311-5.834c6.705-7.489 14.281-16.022 22.292-16.893l3.31-.523h1.306c2.699-.61 2.699-.522 16.196 10.711l6.444 5.225c4.98 3.948 10.28 7.473 15.848 10.536l6.792 4.006c2.177 1.045 4.18 1.915 6.183 2.7 6.734 2.861 13.775 4.936 20.985 6.182 15.836 2.832 31.83 4.693 47.893 5.573h.523c12.818.515 25.652-.508 38.227-3.048h2.96c3.048 0 5.835-1.045 8.709-1.655 2.721-.67 5.397-1.513 8.01-2.525 3.175-1.288 6.472-2.25 9.84-2.873 1.386-.215 2.795-.215 4.18 0 3.7.651 7.193 2.173 10.188 4.44l1.916 1.22 1.22.696.957.61c14.301 8.6 29.632 15.36 45.629 20.115 14.724 4.405 30 6.692 45.368 6.792h3.221c8.311-.03 16.597-.904 24.73-2.612 3.519-.892 6.98-1.997 10.363-3.31l4.963-1.915c8.599-4.252 18.274-5.83 27.778-4.528l2.09.522c10.935 3.192 22.318 4.575 33.7 4.093 5.182.184 10.37-.108 15.5-.87 9.884-3.046 19.337-7.348 28.125-12.801 1.916-1.22 3.832-2.613 5.747-4.006 9.027 5.674 19.468 8.692 30.13 8.708 6.918-.085 13.786-1.2 20.376-3.309 7.587-2.403 14.798-5.862 21.42-10.275 7.939-5.334 15.09-11.753 21.248-19.07 2.264-2.7 4.354-5.66 6.444-8.708 1.654 1.654 3.309 3.483 4.876 5.312l1.655 1.828c1.219 1.394 2.525 2.874 3.918 4.18 2.206 2.07 4.596 3.936 7.14 5.573l3.048 1.742 1.48.958c1.007.674 2.053 1.284 3.135 1.828 6.141 3.044 12.914 4.596 19.767 4.528 7.015-.115 13.973-1.29 20.638-3.483 1.283-.43 2.591-.778 3.918-1.045 2.003-.522 4.093-.958 6.008-1.306 2.202-.483 4.357-1.153 6.444-2.003l4.18-1.393c4.217-1.91 8.292-4.122 12.19-6.618 3.397-2.177 6.793-4.615 10.015-7.14l1.654-1.394c13.998-10.991 25.512-24.82 33.787-40.578 2.464-4.683 4.645-9.51 6.53-14.455 0 0 .871-1.654 1.655-2.96.574-.989 1.098-2.006 1.567-3.048 4.52-10.662 8.076-21.707 10.624-33.003 1.04-5.754 1.68-11.573 1.916-17.415v-.871c.693-13.533-.957-27.085-4.877-40.056z" transform="translate(152.000000, 74.000000) translate(32.000000, 11.000000)"/>
                </g>
            </g>
        </g>
    </g>
</svg>
