<?xml version="1.0" standalone="no"?>
<!DOCTYPE svg PUBLIC "-//W3C//DTD SVG 1.1//EN" "http://www.w3.org/Graphics/SVG/1.1/DTD/svg11.dtd" >
<svg xmlns="http://www.w3.org/2000/svg" xmlns:xlink="http://www.w3.org/1999/xlink" version="1.1">
<metadata>
Created by FontForge 20190801 at Thu Nov  7 00:53:27 2013
 By www-data
Copyright (c) 2013 by Nikola &#38; Zoran Kostic. All rights reserved.
</metadata>
<defs>
<font id="BicycletteBlack" horiz-adv-x="734" >
  <font-face 
    font-family="BicycletteBlack"
    font-weight="900"
    font-stretch="normal"
    units-per-em="1000"
    panose-1="0 0 0 0 0 0 0 0 0 0"
    ascent="720"
    descent="-280"
    x-height="410"
    cap-height="601"
    bbox="-131 -334 1219 893"
    underline-thickness="50"
    underline-position="-199"
    unicode-range="U+0020-FFFB"
  />
<missing-glyph horiz-adv-x="470" 
d="M117 59h235v616h-235v-616zM59 0v733h353v-733h-353z" />
    <glyph glyph-name=".notdef" horiz-adv-x="470" 
d="M117 59h235v616h-235v-616zM59 0v733h353v-733h-353z" />
    <glyph glyph-name=".null" horiz-adv-x="0" 
 />
    <glyph glyph-name="nonmarkingreturn" horiz-adv-x="333" 
 />
    <glyph glyph-name="space" unicode=" " horiz-adv-x="220" 
 />
    <glyph glyph-name="exclam" unicode="!" horiz-adv-x="240" 
d="M79 600l82 -1q36 0 36 -41v-76q0 -50 -10 -114q-11 -69 -21 -113l-10 -45h-72q-41 170 -41 273v76q0 17 9 29t27 12zM42 67l-4 -4q0 33 23 56t56 23q34 0 56 -22q23 -23 23 -55q0 -33 -22 -55q-22 -21 -55 -21q-31 0 -55 22q-22 22 -22 56z" />
    <glyph glyph-name="quotedbl" unicode="&#x22;" horiz-adv-x="390" 
d="M94 610l22 -1q59 -3 59 -59v-16q0 -26 -9 -75q-9 -48 -18 -85l-9 -36h-68q-36 138 -36 197v16q0 26 16 42q18 18 43 17zM274 609l22 -1q59 -3 59 -59v-16q0 -25 -9 -75q-9 -48 -18 -85l-9 -36h-68q-36 138 -36 197v16q0 26 16 42q18 18 43 17z" />
    <glyph glyph-name="numbersign" unicode="#" horiz-adv-x="666" 
d="M596 583l-36 -175h68v-78h-83l-17 -83h100v-78h-115l-30 -154q-1 -4 -9 -10q-6 -5 -12 -5h-134q-5 0 -10 5q-6 6 -4 11l30 154h-75l-30 -154q-1 -4 -9 -10t-12 -6h-134q-4 0 -10 6t-4 11l30 154h-68v78h83l17 83h-100v78h115l34 173q2 5 9 11q8 6 12 6h134q4 0 10 -6
t5 -11l-34 -173h75l34 173q2 5 9 11t12 6h134q4 0 10 -6q7 -6 5 -11zM302 330l-17 -83h75l17 83h-75z" />
    <glyph glyph-name="dollar" unicode="$" horiz-adv-x="646" 
d="M223 -79l-1 77q-90 15 -142 62q-51 46 -51 108v8q0 11 7 18t18 7h114q19 0 24 -17q8 -31 28 -44l1 1v100q-89 9 -141 50q-51 41 -51 108q0 74 51 128t142 72v79h78v-70h11h19v70h78v-79q86 -18 133 -63q46 -45 46 -102q0 -10 -6 -16t-16 -6h-114q-17 0 -21 13
q-9 22 -20 33l-1 -1v-93h1q106 -11 155 -55q50 -45 50 -113q0 -71 -52 -126q-53 -56 -153 -71v-77h-78v70h-9h-12h-10v-71h-78zM300 120h21h9v110l-30 3v-113zM311 476h-11v-104l30 -3v106q-4 1 -19 1zM448 179q0 32 -40 42v-90q40 15 40 48zM191 420v1q0 -29 31 -39v79
q-31 -13 -31 -41z" />
    <glyph glyph-name="percent" unicode="%" horiz-adv-x="743" 
d="M25 465v-2q0 63 45 104q46 41 112 41t112 -41q45 -41 45 -104t-45 -103q-44 -40 -112 -40q-66 0 -112 41q-45 41 -45 104zM133 463v-1q0 -21 14 -37q14 -15 35 -15q22 0 35 15q14 16 14 38t-14 38q-14 15 -35 15q-22 0 -35 -15q-14 -16 -14 -38zM94 9l477 636l78 -60
l-477 -635zM404 131v-2q0 63 45 104q46 41 112 41t112 -41q45 -41 45 -104t-45 -103q-45 -39 -112 -39q-68 0 -112 40q-45 41 -45 104zM512 129v-1q0 -21 14 -37q14 -15 35 -15t35 15q14 16 14 38t-14 38q-14 15 -35 15t-35 -15q-14 -16 -14 -38z" />
    <glyph glyph-name="ampersand" unicode="&#x26;" horiz-adv-x="705" 
d="M487 6l-31 28q-76 -41 -180 -41q-119 0 -181 52q-63 53 -63 126q0 95 105 153q-62 62 -62 126q0 68 58 114q59 47 154 47q101 0 158 -51t57 -120q0 -95 -117 -155l70 -63q22 28 34 84q3 14 18 14h135q15 0 15 -13v-9q0 -98 -83 -183l111 -99q5 -5 5 -9q0 -7 -9 -7h-175
q-12 0 -19 6zM236 442l-1 1q0 -21 37 -55l31 15q34 16 34 40q0 14 -15 26t-37 12q-23 0 -36 -12t-13 -27zM272 131l-1 -1q38 0 62 12l-91 82q-45 -20 -45 -49q0 -20 21 -32t54 -12z" />
    <glyph glyph-name="quotesingle" unicode="'" horiz-adv-x="210" 
d="M94 610l22 -1q59 -3 59 -59v-16q0 -26 -9 -75q-9 -48 -18 -85l-9 -36h-68q-36 138 -36 197v16q0 26 16 42q18 18 43 17z" />
    <glyph glyph-name="parenleft" unicode="(" horiz-adv-x="294" 
d="M184 267h-1q0 -131 17 -204q16 -68 60 -123q19 -23 19 -37q0 -13 -24 -31t-40 -18q-15 0 -31 13q-74 61 -115 149q-40 87 -40 249q0 159 41 252q40 91 114 153q16 13 31 13q17 0 41 -18t24 -31q0 -11 -19 -36q-41 -56 -59 -128t-18 -203z" />
    <glyph glyph-name="parenright" unicode=")" horiz-adv-x="294" 
d="M110 267l-1 -1q0 131 -18 203t-59 128q-19 25 -19 36q0 14 24 32t41 18q15 0 31 -13q73 -62 114 -153q41 -93 41 -252q0 -162 -40 -249q-41 -88 -115 -149q-16 -13 -31 -13q-16 0 -40 18t-24 31q0 14 19 37q44 55 60 123q17 73 17 204z" />
    <glyph glyph-name="asterisk" unicode="*" horiz-adv-x="500" 
d="M143 484l76 -47l6 4l-23 89v35q0 25 12 36q13 11 38 11h28q49 0 49 -47v-35l-23 -89l6 -4l77 49l33 11q45 14 60 -33l9 -27q15 -46 -30 -61l-33 -11l-92 -5l-2 -7l71 -58l21 -29q27 -37 -12 -66l-23 -17q-39 -29 -67 9l-21 29l-34 85h-6l-34 -85l-21 -29q-28 -38 -67 -9
l-23 17q-39 29 -12 66l21 29l71 58l-3 7l-91 5l-33 11q-45 14 -30 60l9 27q15 47 60 32z" />
    <glyph glyph-name="plus" unicode="+" horiz-adv-x="500" 
d="M450 223h-143v-140h-114v140h-143v114h143v141h114v-141h143v-114z" />
    <glyph glyph-name="comma" unicode="," horiz-adv-x="218" 
d="M31 68q0 31 23 54t56 23q35 0 59 -26q24 -25 24 -75q0 -58 -30 -104q-30 -47 -85 -66q-16 -6 -26 -6t-15 9l-17 37q-3 8 -3 11q0 7 7 10q30 14 43 25q14 12 18 34v2q-24 5 -39 25q-15 21 -15 47z" />
    <glyph glyph-name="hyphen" unicode="-" horiz-adv-x="340" 
d="M295 174h-250v114h250v-114z" />
    <glyph glyph-name="period" unicode="." horiz-adv-x="218" 
d="M31 68l-4 -4q0 33 23 56t56 23q34 0 56 -22q23 -23 23 -55q0 -33 -22 -55q-23 -21 -55 -21q-31 0 -55 22q-22 22 -22 56z" />
    <glyph glyph-name="slash" unicode="/" horiz-adv-x="465" 
d="M0 -99l347 779h118l-347 -779h-118z" />
    <glyph glyph-name="zero" unicode="0" horiz-adv-x="622" 
d="M38 300v-2q0 139 74 225t198 86q125 0 198 -85q74 -86 74 -225t-74 -225q-72 -84 -198 -84q-125 0 -198 85q-74 86 -74 225zM218 298v-2q0 -73 24 -115t69 -42t69 42t24 116t-24 116t-69 42t-69 -42t-24 -115z" />
    <glyph glyph-name="one" unicode="1" horiz-adv-x="424" 
d="M374 610l-3 -595q0 -4 -5 -9t-9 -5h-150q-4 0 -9 5t-5 9v349l-2 1l-85 -57q-14 -9 -23 2l-66 99q-8 11 3 19l269 182h85z" />
    <glyph glyph-name="two" unicode="2" horiz-adv-x="600" 
d="M27 0v104l281 194q65 45 65 96q0 30 -21 48t-55 18q-39 0 -60 -24t-21 -70q0 -19 -17 -19h-145q-18 0 -18 16q0 107 66 177q66 71 195 71q117 0 186 -63t69 -148q0 -120 -120 -201l-34 -23l-43 -22v-2h193q4 0 9 -5t5 -9v-124q0 -5 -4 -9q-5 -5 -9 -5h-522z" />
    <glyph glyph-name="three" unicode="3" horiz-adv-x="590" 
d="M312 234h-115q-4 0 -9 5t-5 9v105q0 4 5 9t9 5h91q71 0 71 51q0 23 -19 36q-20 14 -51 14q-62 0 -70 -53q-1 -16 -15 -16h-147q-7 0 -12 5t-5 11q0 81 65 138t182 57q129 0 191 -54t62 -126q0 -70 -54 -105v-3q74 -41 74 -132q0 -86 -70 -143q-69 -56 -204 -56
q-125 0 -193 56q-69 57 -69 137q0 17 18 17h146q14 0 15 -15q6 -54 86 -54q40 0 65 17q24 17 24 41q0 44 -66 44z" />
    <glyph glyph-name="four" unicode="4" horiz-adv-x="597" 
d="M562 100h-56v-85q0 -4 -5 -9t-9 -5h-150q-4 0 -9 5t-5 9v85h-311v138l286 362h205v-348h54q4 0 9 -5t5 -9v-124q0 -4 -5 -9t-9 -5zM240 252h92v100l3 54l-4 1q-19 -33 -27 -42l-72 -91l-26 -22l1 -2q30 2 33 2z" />
    <glyph glyph-name="five" unicode="5" horiz-adv-x="588" 
d="M494 448l-258 1l-8 -71q1 -1 3 -1q45 20 102 20q107 0 165 -57q59 -57 59 -132q0 -97 -70 -157q-69 -59 -187 -59q-115 0 -191 52q-77 53 -77 123q0 8 7 14t15 6h137q13 0 21 -11q27 -37 88 -37q37 0 57 17t20 39q0 23 -21 38t-57 15q-33 0 -87 -17q-28 -9 -44 -2
l-117 51q-13 7 -12 19l39 301h416q4 0 9 -5t5 -9v-124q0 -4 -5 -9t-9 -5z" />
    <glyph glyph-name="six" unicode="6" horiz-adv-x="614" 
d="M315 -9l-3 -3q-139 0 -207 83q-69 84 -69 217q0 146 72 233t205 87q107 0 170 -48t63 -116q0 -20 -16 -20h-137q-18 0 -27 12q-19 25 -57 25q-37 0 -63 -27t-30 -76h3q46 41 126 41q111 0 170 -55q60 -56 60 -136q0 -92 -68 -155q-66 -62 -192 -62zM306 249l-3 -2
q-38 0 -61 -16q-24 -17 -24 -36q0 -25 24 -43t63 -18q43 0 65 18q23 18 23 44q0 23 -21 38t-66 15z" />
    <glyph glyph-name="seven" unicode="7" horiz-adv-x="489" 
d="M256 448h-236q-4 0 -9 5t-5 9v124q0 4 5 9t9 5h485v-19l-264 -570q-5 -11 -23 -11h-169q-8 0 -8 7q0 4 4 11l211 429v1z" />
    <glyph glyph-name="eight" unicode="8" horiz-adv-x="600" 
d="M300 610l-1 -1q115 0 183 -51q67 -51 67 -130q0 -68 -57 -114v-2q76 -49 76 -133q0 -90 -74 -140q-73 -49 -195 -49t-195 49q-74 50 -74 140q0 84 76 133v2q-57 46 -57 114q0 80 68 131q67 51 183 51zM388 187v-1q0 22 -23 36t-66 14t-66 -14t-23 -36t23 -36
q22 -13 66 -13q43 0 66 14t23 36zM375 421l1 -1q0 20 -19 33t-57 13t-57 -13t-19 -33q0 -45 76 -45q40 0 57 13q18 14 18 33z" />
    <glyph glyph-name="nine" unicode="9" horiz-adv-x="608" 
d="M293 610l2 1q138 0 207 -84t69 -217q0 -146 -72 -233q-71 -86 -205 -86q-109 0 -173 48q-66 49 -66 117q0 20 16 20h137q18 0 27 -12q18 -25 62 -25q87 0 94 103h-3q-46 -41 -126 -41q-110 0 -169 55q-60 56 -60 136q0 92 68 155q67 63 192 63zM301 349v-1q39 0 62 16
q24 16 24 36q0 26 -24 44t-63 18q-42 0 -64 -18t-22 -43q0 -22 21 -37t66 -15z" />
    <glyph glyph-name="colon" unicode=":" horiz-adv-x="218" 
d="M31 68l-4 -4q0 33 23 56t56 23q34 0 56 -22q23 -23 23 -55q0 -33 -22 -55q-23 -21 -55 -21q-31 0 -55 22q-22 22 -22 56zM27 308l-4 -4q0 33 23 56t56 23q34 0 56 -22q23 -23 23 -55q0 -33 -22 -55t-55 -22q-32 0 -55 23q-22 22 -22 56z" />
    <glyph glyph-name="semicolon" unicode=";" horiz-adv-x="218" 
d="M31 68q0 31 23 54t56 23q35 0 59 -26q24 -25 24 -75q0 -58 -30 -104q-30 -47 -85 -66q-16 -6 -26 -6t-15 9l-17 37q-3 8 -3 11q0 7 7 10q30 14 43 25q14 12 18 34v2q-24 5 -39 25q-15 21 -15 47zM31 312l-4 -4q0 33 23 56t56 23q34 0 56 -22q23 -23 23 -55q0 -33 -22 -55
t-55 -22q-32 0 -55 23q-22 22 -22 56z" />
    <glyph glyph-name="less" unicode="&#x3c;" horiz-adv-x="500" 
d="M431 486v-110l-192 -120v-3l192 -121v-109h-35l-327 207v50l327 206h35z" />
    <glyph glyph-name="equal" unicode="=" horiz-adv-x="500" 
d="M450 311h-400v114h400v-114zM450 143h-400v114h400v-114z" />
    <glyph glyph-name="greater" unicode="&#x3e;" horiz-adv-x="500" 
d="M69 376v110h35l327 -206v-50l-327 -207h-35v109l192 121v3z" />
    <glyph glyph-name="question" unicode="?" horiz-adv-x="436" 
d="M157 430l-127 -1q-16 0 -16 15q0 76 57 121t141 45t140 -45t56 -123q0 -93 -94 -147l-14 -8q-24 -13 -24 -46v-23q0 -5 -6 -11t-10 -6h-120q-4 0 -10 6t-6 11v43q0 43 18 69q19 26 60 50l23 13q32 17 32 49q0 16 -11 27t-30 11q-20 0 -31 -10q-12 -10 -12 -25t-16 -15z
M120 67l-4 -4q0 33 23 56t56 23q34 0 56 -22q23 -23 23 -55q0 -33 -22 -55q-22 -21 -55 -21q-31 0 -55 22q-22 22 -22 56z" />
    <glyph glyph-name="at" unicode="@" horiz-adv-x="848" 
d="M666 5l19 -74q-122 -54 -259 -54q-169 0 -281 98q-111 96 -111 263t110 268q109 100 276 100t278 -90t111 -229q0 -95 -61 -159t-162 -64q-96 0 -132 60h-3q-45 -50 -104 -50q-58 0 -96 41t-38 105q0 79 51 139t134 60q62 0 93 -39h2l12 18q9 13 20 13h91q6 0 11 -5t5 -9
q0 -5 -3 -17l-46 -187q-6 -21 6 -36q11 -14 31 -14q44 0 78 43q35 44 35 103q0 104 -87 173t-223 69q-137 0 -222 -82q-86 -83 -86 -207t87 -204q88 -79 228 -79q118 0 236 46zM389 189h3q26 0 48 36l12 46q-6 29 -37 29q-26 0 -42 -22t-16 -52q0 -16 9 -27q9 -10 23 -10z
" />
    <glyph glyph-name="A" unicode="A" 
d="M527 13l-29 67h-262l-29 -67q-6 -13 -21 -13h-168q-8 0 -8 7q0 3 4 12l269 581h168l269 -581q4 -7 4 -12q0 -7 -8 -7h-168q-15 0 -21 13zM325 283l-27 -61h138l-27 61l-39 114h-6q-22 -77 -39 -114z" />
    <glyph glyph-name="B" unicode="B" horiz-adv-x="655" 
d="M399 0l-331 -1q-5 0 -8 3q-3 4 -3 9v576q0 5 3 9t8 4h330q100 0 156 -47t56 -120q0 -68 -49 -111v-1q70 -49 70 -136t-61 -136t-171 -49zM236 241v-101h143q71 0 71 50q0 51 -73 51h-141zM236 456l1 -87h137q57 0 57 43q0 20 -16 32q-17 12 -48 12h-131z" />
    <glyph glyph-name="C" unicode="C" horiz-adv-x="699" 
d="M652 347l-148 -1q-14 0 -18 16q-10 43 -44 69t-85 26q-62 0 -105 -43t-43 -115q0 -71 42 -115q42 -43 105 -43q104 0 129 88q4 16 21 16h143q18 0 18 -14q0 -97 -84 -169q-83 -71 -227 -71q-141 0 -234 86q-94 87 -94 222q0 133 95 222t234 89t225 -73q87 -73 87 -174
q0 -16 -17 -16z" />
    <glyph glyph-name="D" unicode="D" horiz-adv-x="696" 
d="M331 0h-263q-6 0 -8 3q-3 5 -3 9v576q0 4 3 9q3 4 8 4h260q149 0 243 -82t94 -219q0 -138 -87 -219t-247 -81zM328 447l-91 1v-296h93q77 0 116 39t39 109q0 69 -43 108q-42 37 -114 39z" />
    <glyph glyph-name="E" unicode="E" horiz-adv-x="609" 
d="M531 232l-297 -2v-80h328q4 0 9 -5t5 -9v-124q0 -5 -4 -9t-9 -4h-496q-5 0 -8 3q-3 4 -3 9v576q0 5 3 9t8 4h492q4 0 9 -5t5 -9v-124q0 -5 -4 -9q-5 -5 -9 -5h-324v-74h294q4 0 9 -5t5 -9v-114q0 -5 -4 -9q-5 -5 -9 -5z" />
    <glyph glyph-name="F" unicode="F" horiz-adv-x="569" 
d="M225 0l-159 -2q-5 0 -8 3q-3 5 -3 9v576q0 4 3 9q3 4 8 4h462q4 0 9 -5t5 -9v-124q0 -5 -4 -9q-5 -5 -9 -5h-294v-105h268q5 0 9 -4q5 -5 5 -9v-118q0 -5 -4 -9t-9 -4h-268v-185q0 -5 -3 -9t-8 -4z" />
    <glyph glyph-name="G" unicode="G" horiz-adv-x="732" 
d="M702 352l-4 -77q-6 -127 -88 -205q-87 -83 -234 -83q-157 0 -252 89q-96 90 -96 221q0 133 96 222q97 89 243 89q138 0 225 -69t87 -144q0 -13 -18 -13h-140q-13 0 -21 11q-40 64 -133 64q-68 0 -114 -46t-46 -111q0 -70 48 -114q49 -44 122 -44q65 0 99 22q35 23 42 49
v1h-186q-4 0 -9 5q-4 4 -4 9v110q0 4 5 9t9 5h369z" />
    <glyph glyph-name="H" unicode="H" horiz-adv-x="756" 
d="M699 588v-576q0 -4 -3 -9q-2 -3 -8 -3h-156q-6 0 -8 3q-3 5 -3 9v194h-282v-194q0 -4 -3 -9q-2 -3 -8 -3h-156q-6 0 -8 3q-3 5 -3 9v576q0 4 3 9q3 4 8 4h156q5 0 8 -4q3 -5 3 -9v-230h282v230q0 4 3 9q3 4 8 4h156q5 0 8 -4q3 -5 3 -9z" />
    <glyph glyph-name="I" unicode="I" horiz-adv-x="294" 
d="M237 588v-576q0 -4 -3 -9q-2 -3 -8 -3h-156q-6 0 -8 3q-3 5 -3 9v576q0 4 3 9q3 4 8 4h156q5 0 8 -4q3 -5 3 -9z" />
    <glyph glyph-name="J" unicode="J" horiz-adv-x="560" 
d="M188 224l-1 -7q0 -38 19 -57t51 -19q33 0 51 20q18 19 18 57v369q0 5 4 9t9 4h156q5 0 9 -4t4 -9v-361q0 -107 -64 -171t-186 -64q-113 0 -181 52q-69 53 -69 140v35q0 6 6 13t13 7h147q4 0 9 -5t5 -9z" />
    <glyph glyph-name="K" unicode="K" horiz-adv-x="693" 
d="M664 575l-229 -242l243 -315q5 -7 5 -10q0 -8 -9 -8h-192q-13 0 -22 10l-149 192l-74 -78v-112q0 -4 -3 -9q-2 -3 -8 -3h-156q-6 0 -8 3q-3 5 -3 9v576q0 4 3 9q3 4 8 4h156q5 0 8 -4q3 -5 3 -9v-227h3q13 19 35 42l177 185q10 12 26 12h182q11 0 11 -10q0 -8 -7 -15z
" />
    <glyph glyph-name="L" unicode="L" horiz-adv-x="535" 
d="M237 588v-437h264q4 0 9 -5t5 -9v-124q0 -5 -4 -9t-9 -4h-432q-6 0 -8 3q-3 5 -3 9v576q0 4 3 9q3 4 8 4h156q5 0 8 -4q3 -5 3 -9z" />
    <glyph glyph-name="M" unicode="M" horiz-adv-x="844" 
d="M641 600l132 -1q5 0 8 -4q3 -5 3 -9v-576q0 -4 -3 -9q-3 -3 -8 -3h-156q-5 0 -8 3q-3 5 -3 9v304h-2q-15 -32 -37 -61l-146 -199l-145 199q-7 9 -19 29l-14 25l-4 8h-3v-304q0 -5 -3 -9q-3 -3 -8 -3h-156q-5 0 -8 3q-3 4 -3 9v576q0 5 3 9t8 4h134q12 0 19 -10l199 -273
h2l199 273q7 10 19 10z" />
    <glyph glyph-name="N" unicode="N" horiz-adv-x="756" 
d="M552 0l-251 255l-60 68h-4v-311q0 -4 -3 -9q-2 -3 -8 -3h-156q-6 0 -8 3q-3 5 -3 9v576q0 4 3 9q3 4 8 4h135l257 -260l55 -62h3v310q0 5 3 9t8 4h156q5 0 8 -4t3 -9v-576q0 -5 -3 -9t-8 -4h-135z" />
    <glyph glyph-name="O" unicode="O" 
d="M367 610h-2q143 0 240 -84q98 -84 98 -225t-97 -225q-96 -83 -240 -83t-240 83q-97 84 -97 225t98 225q97 84 240 84zM365 458v-2q-65 0 -111 -43t-46 -114t46 -114t111 -43q64 0 111 44q46 43 46 114t-46 114q-47 44 -111 44z" />
    <glyph glyph-name="P" unicode="P" horiz-adv-x="610" 
d="M225 0l-156 -1q-5 0 -8 3q-3 4 -3 9v576q0 5 3 9t8 4h264q113 0 183 -64q71 -65 71 -168q0 -104 -72 -165q-71 -61 -183 -61h-96v-129q0 -5 -3 -9t-8 -4zM315 446l-78 -1v-165h78q41 0 66 23q24 23 24 60t-24 60q-25 23 -66 23z" />
    <glyph glyph-name="Q" unicode="Q" 
d="M367 610l-2 1q143 0 240 -84q98 -84 98 -225q0 -126 -83 -212l61 -87q7 -12 -6 -21l-96 -64q-6 -4 -15 -3q-8 1 -13 8l-62 88q-61 -18 -123 -18q-144 0 -240 83q-97 84 -97 225t98 225q97 84 240 84zM365 459v-2q-65 0 -111 -43t-46 -114t46 -114t111 -43q64 0 111 44
q46 43 46 114t-46 114q-47 44 -111 44z" />
    <glyph glyph-name="R" unicode="R" horiz-adv-x="655" 
d="M57 12l-1 576q0 4 3 9q3 4 8 4h300q113 0 183 -61q71 -62 71 -162q0 -124 -116 -180v-2q11 -15 24 -35l90 -139q7 -10 7 -15q0 -7 -10 -7h-184q-11 0 -15 7l-101 158h-81v-153q0 -4 -3 -9q-2 -3 -8 -3h-156q-6 0 -8 3q-3 5 -3 9zM352 448l-116 -1v-141h116q41 0 66 20
q24 20 24 51t-24 51q-25 20 -66 20z" />
    <glyph glyph-name="S" unicode="S" horiz-adv-x="644" 
d="M56 202l130 1q16 0 24 -17q22 -51 108 -51q113 0 113 52q0 32 -61 38l-149 14q-95 9 -144 48q-51 41 -51 111q0 91 75 151t206 60t201 -51t70 -124q0 -10 -6 -16t-16 -6h-136q-15 0 -21 13q-20 41 -90 41q-47 0 -74 -15t-27 -36q0 -29 52 -33l147 -14q205 -19 205 -171
q0 -87 -75 -147q-74 -59 -217 -59q-135 0 -211 50q-78 51 -78 128v8q0 11 7 18t18 7z" />
    <glyph glyph-name="T" unicode="T" horiz-adv-x="630" 
d="M225 448h-202q-4 0 -9 5q-4 4 -4 9v124q0 4 5 9t9 5h576q4 0 9 -5t5 -9v-124q0 -5 -4 -9q-5 -5 -9 -5h-198v-436q0 -4 -3 -9q-2 -3 -8 -3h-156q-6 0 -8 3q-3 5 -3 9v436z" />
    <glyph glyph-name="U" unicode="U" horiz-adv-x="736" 
d="M504 296l-5 291q0 5 4 9t9 4h156q5 0 9 -4t4 -9v-295q0 -146 -84 -225q-82 -78 -232 -78q-149 0 -232 79q-84 80 -84 224v295q0 5 4 9t9 4h156q5 0 9 -4t4 -9v-292q0 -76 36 -115t100 -39q65 0 101 39q37 41 36 116z" />
    <glyph glyph-name="V" unicode="V" horiz-adv-x="706" 
d="M207 587l107 -233q5 -10 17 -45q11 -32 14 -42l5 -16h6q18 62 36 101l107 235q6 13 22 13h167q8 0 8 -7q0 -3 -6 -17l-263 -576h-148l-263 576q-6 14 -6 17q0 7 8 7h167q16 0 22 -13z" />
    <glyph glyph-name="W" unicode="W" horiz-adv-x="1050" 
d="M1037 582l-252 -580h-134l-112 279l-12 32h-2l-12 -32l-112 -279h-134l-253 582q-3 8 -3 11q0 7 8 7h166q16 0 22 -14l111 -250l24 -70h3q14 42 22 63l110 270h98l109 -270l23 -64h2q11 37 24 69l111 250q6 14 22 14h166q8 0 8 -7q0 -3 -3 -11z" />
    <glyph glyph-name="X" unicode="X" horiz-adv-x="690" 
d="M242 586l110 -145h2q22 36 31 48l72 97q11 14 25 14h185q6 0 6 -6q0 -5 -4 -9l-211 -284l217 -287q4 -4 4 -8q0 -6 -6 -6h-189q-18 0 -27 12l-117 155h-2q-17 -32 -27 -44l-78 -107q-12 -16 -31 -16h-184q-6 0 -6 6q0 4 4 8l216 295l-208 277q-4 5 -4 8q0 6 6 6h190
q15 0 26 -14z" />
    <glyph glyph-name="Y" unicode="Y" horiz-adv-x="664" 
d="M422 230l2 -219q0 -5 -4 -9q-4 -3 -9 -3h-156q-5 0 -9 3q-4 4 -4 9v218l-227 353q-5 8 -5 12q0 6 6 6h182q16 0 24 -12l80 -132l28 -54h4q10 25 28 54l80 132q8 12 24 12h181q7 0 7 -6q0 -3 -5 -11z" />
    <glyph glyph-name="Z" unicode="Z" horiz-adv-x="677" 
d="M20 0l-1 2l284 397l37 46v3h-287q-4 0 -9 5t-5 9v124q0 4 5 9t9 5h603v-2l-288 -403l-35 -41v-2h299q4 0 9 -5t5 -9v-124q0 -5 -4 -9q-5 -5 -9 -5h-613z" />
    <glyph glyph-name="bracketleft" unicode="[" horiz-adv-x="288" 
d="M57 -142v855h214v-100h-80v-655h80v-100h-214z" />
    <glyph glyph-name="backslash" unicode="\" horiz-adv-x="465" 
d="M118 680l347 -779h-118l-347 779h118z" />
    <glyph glyph-name="bracketright" unicode="]" horiz-adv-x="288" 
d="M231 713v-855h-214v100h80v655h-80v100h214z" />
    <glyph glyph-name="asciicircum" unicode="^" horiz-adv-x="500" 
d="M161 300h-133l180 300h83l180 -300h-133l-87 146h-3z" />
    <glyph glyph-name="underscore" unicode="_" horiz-adv-x="500" 
d="M500 -69v-68h-500v68h500z" />
    <glyph glyph-name="grave" unicode="`" horiz-adv-x="290" 
d="M53 653l31 26q13 13 31 13q20 0 36 -22l102 -150q6 -8 6 -12q0 -9 -10 -9h-63q-19 0 -26 7l-103 88q-16 13 -16 32q0 15 12 27z" />
    <glyph glyph-name="a" unicode="a" horiz-adv-x="522" 
d="M322 236l2 14q0 51 -58 51q-34 0 -43 -26q-5 -12 -18 -12h-132q-4 0 -10 6t-6 11v5q0 17 5 35q4 16 18 36t36 33q24 15 61 23q39 9 89 9q105 0 165 -54t60 -138v-212q0 -5 -6 -11t-11 -6h-105q-13 0 -21 17l-9 20h-3q-59 -46 -145 -46q-76 0 -117 34q-42 35 -42 90
q0 53 45 89q50 40 133 36l111 -5zM244 99h-1q44 0 81 28v24h-79q-42 0 -42 -25q0 -27 41 -27z" />
    <glyph glyph-name="b" unicode="b" horiz-adv-x="545" 
d="M204 643l-2 -256h4q41 32 107 32q93 0 147 -60t54 -154q0 -92 -57 -154q-56 -60 -150 -60q-72 0 -123 42h-2l-9 -17q-9 -16 -20 -16h-100q-5 0 -11 6t-6 11v626q0 5 6 11t11 6h134q5 0 11 -6t6 -11zM346 205l-2 -2q0 34 -19 54q-19 21 -52 21q-25 0 -45 -12t-27 -30v-83
q29 -24 71 -24q32 0 53 21t21 55z" />
    <glyph glyph-name="c" unicode="c" horiz-adv-x="531" 
d="M501 268h-1q1 -4 1 -16q0 -8 -7 -15t-15 -7h-125q-12 0 -19 12l-5 9q-18 33 -58 33q-34 0 -55 -22t-21 -54q0 -33 25 -55t64 -22q52 0 112 39q19 13 33 13q16 0 27 -17l36 -56q6 -10 6 -19q0 -18 -32 -42q-75 -57 -189 -57q-107 0 -177 60q-72 62 -72 157t72 153
q73 59 172 59t159 -45t69 -108z" />
    <glyph glyph-name="d" unicode="d" horiz-adv-x="545" 
d="M341 396v247q0 5 6 11t11 6h134q5 0 11 -6t6 -11v-626q0 -5 -6 -11t-10 -6h-99q-11 0 -20 16l-11 21h-2q-52 -46 -127 -46q-86 0 -145 59q-60 60 -60 155q0 91 59 153t152 62q64 0 97 -24h4zM197 205l-1 2q0 -34 21 -55t53 -21q43 0 70 29v89q-9 14 -29 23q-19 9 -39 9
q-33 0 -54 -22q-21 -23 -21 -54z" />
    <glyph glyph-name="e" unicode="e" horiz-adv-x="541" 
d="M504 164l-306 -2q7 -46 96 -46q54 0 126 22q15 5 27 5q19 0 24 -17l14 -50q5 -20 5 -23q0 -15 -18 -24q-79 -40 -179 -40q-119 0 -192 58q-74 59 -74 156q0 90 69 153t179 63t173 -54t63 -134q0 -10 -2 -32q-2 -18 -3 -26zM277 304q-29 0 -51 -13t-27 -39h144
q-1 52 -66 52z" />
    <glyph glyph-name="f" unicode="f" horiz-adv-x="385" 
d="M27 410l39 -1v79q0 84 54 132t143 48q64 0 112 -23q17 -8 17 -18q0 -4 -5 -21l-25 -71q-8 -19 -30 -12q-27 9 -46 9q-22 0 -37 -15t-15 -45v-62h109q4 0 9 -5t5 -9v-112q0 -5 -4 -9q-5 -5 -9 -5h-109v-253q0 -5 -6 -11t-11 -6h-134q-5 0 -11 6t-6 11v253h-41q-4 0 -9 5
q-4 4 -4 9v112q0 4 5 9t9 5z" />
    <glyph glyph-name="g" unicode="g" horiz-adv-x="501" 
d="M44 248l-2 2q0 73 56 123q55 49 144 49q72 0 125 -38h3q36 38 92 38q27 0 27 -14v-90q0 -3 -4 -6q-5 -3 -9 -3h-7h-10q-16 0 -27 -8q10 -20 10 -51q0 -76 -53 -124t-147 -48q-38 0 -73 13q-9 -9 -9 -21q0 -29 44 -29h105q87 0 131 -38q44 -36 44 -95q0 -70 -57 -118
t-171 -48h-4q-104 0 -162 40q-59 41 -59 100q0 45 37 83v6q-41 29 -41 77q0 60 52 100q-35 46 -35 100zM190 250l-2 -2q0 -19 14 -31t39 -12t39 12t14 32t-13 32t-39 12t-39 -12t-13 -31zM277 -64h-70q-15 -14 -15 -30q0 -20 16 -30q17 -11 42 -11h8q29 0 44 12t15 29
q0 12 -10 21q-11 9 -30 9z" />
    <glyph glyph-name="h" unicode="h" horiz-adv-x="526" 
d="M204 643v-261h3q42 39 118 39q79 0 124 -46t45 -121v-236q0 -5 -6 -11t-11 -6h-134q-5 0 -11 6t-6 11v217q0 21 -14 33t-36 12q-50 0 -72 -46v-217q0 -5 -6 -11t-11 -6h-134q-5 0 -11 6t-6 11v626q0 5 6 11t11 6h134q5 0 11 -6t6 -11z" />
    <glyph glyph-name="i" unicode="i" horiz-adv-x="240" 
d="M204 393v-376q0 -5 -6 -11t-11 -6h-134q-5 0 -11 6t-6 11v376q0 5 6 11t11 6h134q5 0 11 -6t6 -11zM26 536l-2 -1q0 32 26 53t69 21t69 -21t26 -52q0 -32 -25 -54t-69 -22t-69 22t-25 54z" />
    <glyph glyph-name="j" unicode="j" horiz-adv-x="240" 
d="M-127 -189l32 74q7 16 19 16q4 0 16 -5q31 -14 45 -14q24 0 38 17t14 45v450q0 5 6 11t11 6h134q5 0 11 -6t6 -11v-432q0 -102 -48 -161t-142 -59q-79 0 -134 39q-11 8 -11 18q0 5 3 12zM27 537l-2 -1q0 32 26 53q25 21 69 21t69 -21q26 -21 26 -52q0 -32 -25 -54
t-69 -22t-69 22t-25 54z" />
    <glyph glyph-name="k" unicode="k" horiz-adv-x="551" 
d="M339 18l-69 108h-1l-65 -77v-33q0 -5 -6 -11q-5 -5 -11 -5h-134q-6 0 -11 5q-6 6 -6 11v626q0 5 6 11t11 6h134q5 0 11 -6t6 -11v-384h4q10 18 24 33l86 102q13 16 39 16h155q12 0 12 -11q0 -8 -9 -18l-120 -143l138 -213q6 -9 6 -14q0 -10 -14 -10h-153q-22 0 -33 18z
" />
    <glyph glyph-name="l" unicode="l" horiz-adv-x="240" 
d="M204 643v-626q0 -5 -6 -11t-11 -6h-134q-5 0 -11 6t-6 11v626q0 5 6 11t11 6h134q5 0 11 -6t6 -11z" />
    <glyph glyph-name="m" unicode="m" horiz-adv-x="768" 
d="M53 410l108 -1q12 0 18 -16l9 -26h4q55 52 126 52q76 0 120 -59h2q59 59 137 59q74 0 116 -45t42 -120v-239q0 -5 -6 -11q-5 -5 -11 -5h-134q-6 0 -11 5q-6 6 -6 11v225q0 17 -11 28q-10 10 -27 10q-18 0 -35 -12t-24 -31v-219q0 -5 -6 -11q-5 -5 -11 -5h-134q-6 0 -11 5
q-6 6 -6 11v225q0 20 -11 29t-27 9q-20 0 -36 -12q-17 -12 -24 -31v-219q0 -5 -6 -11t-11 -6h-134q-5 0 -11 6t-6 11v376q0 5 6 11t11 6z" />
    <glyph glyph-name="n" unicode="n" horiz-adv-x="526" 
d="M36 17l1 374q0 5 6 11t11 6h113q11 0 17 -17l8 -24h3q55 51 132 51q83 0 125 -45t42 -121v-236q0 -5 -6 -11q-5 -5 -11 -5h-134q-6 0 -11 5q-6 6 -6 11v217q0 22 -13 34q-14 12 -34 12q-23 0 -44 -12q-20 -12 -31 -33v-217q0 -5 -6 -11t-11 -6h-134q-5 0 -11 6t-6 11z
" />
    <glyph glyph-name="o" unicode="o" horiz-adv-x="550" 
d="M275 420v-2q103 0 174 -57t71 -157t-71 -157q-69 -56 -174 -56t-174 56q-71 57 -71 158t71 158t174 57zM353 203q0 32 -22 53q-23 21 -57 21t-57 -21q-22 -21 -22 -53t22 -53q23 -21 57 -21t57 21q22 21 22 53z" />
    <glyph glyph-name="p" unicode="p" horiz-adv-x="545" 
d="M53 410h101q8 0 15 -16l10 -24h5q55 50 132 50q90 0 145 -60q55 -59 55 -154q0 -96 -57 -156q-56 -59 -142 -59q-64 0 -111 30h-2v-253q0 -5 -6 -11t-11 -6h-134q-5 0 -11 6t-6 11v625q0 5 6 11t11 6zM348 206l-1 1q0 31 -20 53q-19 21 -51 21q-26 0 -45 -13
q-20 -14 -27 -31v-80q29 -26 71 -26q31 0 52 21t21 54z" />
    <glyph glyph-name="q" unicode="q" horiz-adv-x="545" 
d="M341 -232l-2 257h-3q-45 -35 -111 -35q-83 0 -140 58t-57 152t60 157t149 63q78 0 124 -46h3l8 20q6 16 17 16h101q5 0 11 -6t6 -11v-625q0 -5 -6 -11t-10 -6h-134q-4 0 -10 6t-6 11zM195 204h2q0 -33 21 -54t53 -21q41 0 69 31v85q-21 34 -69 34q-34 0 -55 -21t-21 -54z
" />
    <glyph glyph-name="r" unicode="r" horiz-adv-x="470" 
d="M253 280l1 -1q-17 0 -31 -13q-15 -13 -19 -31v-219q0 -5 -6 -11q-5 -5 -11 -5h-134q-6 0 -11 5q-6 6 -6 11v376q0 5 6 11t11 6h112q11 0 17 -17l14 -40h4q45 67 124 67q60 0 93 -34q33 -35 33 -102v-70q0 -5 -6 -11t-11 -6h-134q-5 0 -11 6t-6 11v35q0 32 -29 32z" />
    <glyph glyph-name="s" unicode="s" horiz-adv-x="503" 
d="M53 136l117 -1q16 0 21 -12q7 -24 59 -24q25 0 39 8q13 7 13 18q0 21 -45 24l-88 7q-72 6 -108 35q-37 30 -37 81q0 62 59 104t158 42q100 0 152 -34q53 -35 53 -85q0 -7 -6 -13t-14 -6h-123q-13 0 -21 12q-11 17 -42 17q-23 0 -34 -7q-12 -8 -12 -18q0 -18 29 -20
l102 -8q146 -12 146 -120q0 -61 -55 -103q-54 -41 -165 -41q-107 0 -165 34t-58 87q0 9 7 16t18 7z" />
    <glyph glyph-name="t" unicode="t" horiz-adv-x="391" 
d="M65 270l-41 2q-4 0 -9 5t-5 9v112q0 4 5 9t9 5h41v93q0 5 6 11t11 6h134q5 0 11 -6t6 -11v-93h115q4 0 9 -5t5 -9v-112q0 -4 -5 -9t-9 -5h-115v-90q0 -52 48 -52q21 0 52 14q7 4 17 1t11 -10l16 -76q2 -14 2 -18q0 -14 -13 -21q-48 -29 -126 -29q-83 0 -128 42
q-47 44 -47 124v113z" />
    <glyph glyph-name="u" unicode="u" horiz-adv-x="526" 
d="M349 38h-2q-56 -47 -139 -47q-79 0 -127 49t-48 131v223q0 5 6 11t11 6h134q5 0 11 -6t6 -11v-210q0 -23 14 -39q13 -15 36 -15q50 0 71 44v219q0 5 6 11t11 6h134q5 0 11 -6t6 -11v-376q0 -5 -6 -11t-11 -6h-100q-11 0 -17 17z" />
    <glyph glyph-name="v" unicode="v" horiz-adv-x="524" 
d="M180 0l-167 390q-3 8 -3 12q0 8 9 8h147q16 0 22 -14l55 -133l17 -60h4q8 37 17 60l56 133q6 14 21 14h147q9 0 9 -8q0 -4 -3 -12l-167 -390h-164z" />
    <glyph glyph-name="w" unicode="w" horiz-adv-x="728" 
d="M185 396l39 -108l15 -66h4q10 49 16 66l47 122h118l46 -122l16 -65h4q13 59 15 66l39 107q5 14 20 14h147q8 0 8 -7q0 -1 -2 -9l-154 -394h-132l-47 120l-17 60h-4q-11 -40 -18 -60l-47 -120h-133l-153 394q-2 8 -2 9q0 7 8 7h147q15 0 20 -14z" />
    <glyph glyph-name="x" unicode="x" horiz-adv-x="522" 
d="M13 8h-1q0 3 8 16l128 186l-121 174q-8 13 -8 16q0 10 9 10h155q17 0 25 -11l56 -84h2q4 10 14 27l34 57q6 11 21 11h158q9 0 9 -8q0 -4 -8 -18l-120 -177l128 -184q7 -10 7 -15q0 -8 -9 -8h-154q-18 0 -27 13l-62 90h-2q-5 -12 -15 -28l-39 -62q-9 -13 -28 -13h-151
q-9 0 -9 8z" />
    <glyph glyph-name="y" unicode="y" horiz-adv-x="545" 
d="M105 -224l92 224l-182 387q-5 12 -5 15q0 8 9 8h149q18 0 24 -13l69 -150l15 -44h2l80 194q6 13 21 13h147q8 0 8 -8q0 -7 -5 -18l-253 -622q-4 -12 -21 -12h-147q-8 0 -8 8q0 7 5 18z" />
    <glyph glyph-name="z" unicode="z" horiz-adv-x="475" 
d="M434 0h-415v7l141 220l31 41v2h-147q-4 0 -9 5q-4 4 -4 9v112q0 4 5 9t9 5h410v-9l-142 -219l-31 -40v-2h152q4 0 9 -5t5 -9v-112q0 -4 -5 -9t-9 -5z" />
    <glyph glyph-name="braceleft" unicode="{" horiz-adv-x="305" 
d="M44 235h-22v100h22q44 0 44 45q0 20 -15 75t-15 99q0 68 45 108q46 41 126 41q33 0 56 -4q10 -1 10 -12v-76q0 -10 -13 -10h-15h-16q-53 0 -53 -59q0 -25 13 -78t13 -88q0 -70 -51 -90v-4q51 -20 51 -90q0 -36 -13 -89t-13 -78q0 -57 53 -57q20 0 31 1q13 1 13 -9v-76
q0 -11 -10 -12q-23 -4 -56 -4q-80 0 -126 41q-45 41 -45 107q0 44 15 99t15 75q0 45 -44 45z" />
    <glyph glyph-name="bar" unicode="|" horiz-adv-x="240" 
d="M66 -99v779h108v-779h-108z" />
    <glyph glyph-name="braceright" unicode="}" horiz-adv-x="305" 
d="M283 235l-22 -1q-44 -2 -44 -45q0 -19 15 -75t15 -99q0 -67 -45 -107q-46 -41 -126 -41q-33 0 -56 4q-10 1 -10 12v76q0 10 13 9q11 -1 31 -1q53 0 53 57q0 25 -13 78t-13 89q0 71 51 90v4q-51 19 -51 90q0 36 13 89t13 78q0 59 -53 59h-16h-15q-13 0 -13 10v76
q0 11 10 12q23 4 56 4q80 0 126 -41q45 -40 45 -108q0 -44 -15 -99t-15 -75q0 -45 44 -45h22v-100z" />
    <glyph glyph-name="asciitilde" unicode="~" horiz-adv-x="616" 
d="M140 172l-113 -2q0 114 42 171t116 57q41 0 78 -18t60 -39q21 -20 50 -39q27 -18 48 -18q26 0 41 29t15 84h114q0 -115 -42 -172t-117 -57q-40 0 -78 18t-60 40q-20 20 -50 40q-27 18 -48 18q-56 0 -56 -112z" />
    <glyph glyph-name="nbspace" unicode="&#xa0;" horiz-adv-x="220" 
 />
    <glyph glyph-name="exclamdown" unicode="&#xa1;" horiz-adv-x="240" 
d="M161 -219l-83 1q-36 0 -36 41v76q0 44 11 113t21 113l10 45h72q41 -170 41 -272v-76q0 -17 -9 -29t-27 -12zM197 313l-4 -4q0 -33 -22 -55t-55 -22q-32 0 -55 23q-22 22 -22 56q0 33 23 56t56 23q34 0 56 -22q23 -23 23 -55z" />
    <glyph glyph-name="cent" unicode="&#xa2;" horiz-adv-x="531" 
d="M159 -77l20 82q-68 24 -111 77q-42 53 -42 125q0 95 72 153q73 59 172 59q15 0 19 -1l24 91l75 -20l-23 -84q59 -18 93 -55q35 -38 41 -82q1 -4 1 -16q0 -8 -7 -15t-15 -7h-115q-13 0 -18 12l-3 7q-5 13 -9 17h-2l-36 -136q47 2 102 39q19 13 33 13q16 0 27 -17l36 -56
q6 -10 6 -19q0 -18 -32 -42q-82 -63 -189 -57l-21 1l-23 -89zM195 207q0 -35 23 -56l35 130q-28 -4 -43 -25t-15 -49z" />
    <glyph glyph-name="sterling" unicode="&#xa3;" horiz-adv-x="555" 
d="M36 232v76h58q-4 9 -18 30t-21 42q-8 22 -8 48q0 74 58 126q59 53 163 53q111 0 168 -51t57 -135q0 -8 -6 -14t-15 -6h-131q-16 0 -16 18q0 20 -15 35t-41 15q-25 0 -39 -15q-14 -16 -14 -37q0 -19 24 -55q24 -37 30 -52h153v-78h-145q-3 -42 -26 -90v-1q19 -2 40 -7
q24 -6 32 -6q36 0 36 33q0 15 16 15h136q16 0 16 -15q0 -170 -153 -170q-32 0 -97 13q-62 14 -93 14q-46 0 -98 -23q-7 -4 -14 -4q-10 0 -15 11l-28 81q-5 17 -5 20q0 10 14 19q24 15 51 23q20 39 21 87h-75z" />
    <glyph glyph-name="currency" unicode="&#xa4;" horiz-adv-x="527" 
d="M194 300q0 -27 20 -49q20 -21 48 -21t48 21q20 22 20 49t-20 49q-20 21 -48 21t-48 -21q-20 -22 -20 -49zM416 68l-72 74q-38 -21 -81 -21t-81 20l-71 -72l-79 79l71 72q-20 38 -20 81t20 81l-71 72l79 79l71 -73q39 21 81 21q41 0 80 -21l73 73l79 -79l-73 -73
q21 -39 21 -80q0 -43 -21 -81l73 -73z" />
    <glyph glyph-name="yen" unicode="&#xa5;" horiz-adv-x="611" 
d="M72 238l2 78h105v1q-9 9 -22 30l-152 236q-5 8 -5 12q0 6 6 6h162q16 0 24 -12l82 -132l32 -64h4q12 28 32 63l76 132q8 12 24 12h167q7 0 7 -6q0 -3 -5 -11l-152 -236l-22 -29v-2h105v-78h-150v-48h150v-78h-150v-100q0 -5 -4 -9q-3 -3 -9 -3h-144q-6 0 -9 3q-4 4 -4 9
v100h-150v78h150v48h-150z" />
    <glyph glyph-name="brokenbar" unicode="&#xa6;" horiz-adv-x="240" 
d="M174 340h-108v340h108v-340zM66 240h108v-339h-108v339z" />
    <glyph glyph-name="section" unicode="&#xa7;" horiz-adv-x="535" 
d="M490 263l-2 -179q0 -65 -57 -110q-56 -46 -161 -46q-100 0 -150 37q-51 38 -51 89q0 8 6 14t15 6h113q12 0 18 -12q14 -29 55 -29q23 0 36 10t13 27q0 31 -52 40l-93 17q-136 25 -136 145v178q0 64 59 111t161 47q98 0 149 -36t51 -84q0 -7 -6 -13t-14 -6h-113
q-11 0 -21 12q-16 21 -51 21q-26 0 -39 -10t-13 -27q0 -29 56 -40l84 -15q144 -26 143 -147zM280 299l-55 7l-21 5v-36q0 -21 12 -30q13 -10 39 -14l36 -6l35 -8v37q0 39 -46 45z" />
    <glyph glyph-name="dieresis" unicode="&#xa8;" horiz-adv-x="418" 
d="M28 586l-4 -4q0 33 23 56t56 23q34 0 56 -22q23 -23 23 -55q0 -33 -22 -55t-55 -22q-32 0 -55 23q-22 22 -22 56zM230 582l-4 -4q0 33 23 56t56 23q34 0 56 -22q23 -23 23 -55q0 -33 -22 -55t-55 -22q-32 0 -55 23q-22 22 -22 56z" />
    <glyph glyph-name="copyright" unicode="&#xa9;" horiz-adv-x="660" 
d="M50 310q0 116 82 198t198 82t198 -82t82 -198t-82 -198t-198 -82t-198 82t-82 198zM104 310l-2 -1q0 -94 66 -160t161 -66t161 66t66 161q0 94 -66 160t-160 66t-160 -66t-66 -160zM454 353l-1 -3q2 -8 2 -10q0 -10 -11 -10h-32q-8 0 -9 9l-3 8q-15 42 -72 42
q-37 0 -60 -23q-22 -22 -22 -60t24 -60q23 -22 64 -22q51 0 87 39q4 3 8 3q5 0 6 -3l18 -19q3 -3 3 -7t-4 -8q-44 -51 -118 -51q-62 0 -102 34t-40 96t39 96q38 34 97 34q108 0 126 -85z" />
    <glyph glyph-name="ordfeminine" unicode="&#xaa;" horiz-adv-x="342" 
d="M205 455q0 35 -40 35q-25 0 -30 -17q-1 -6 -12 -6h-83q-3 0 -7 4t-4 7v4q0 38 34 63q35 26 102 26q74 0 111 -34q38 -35 38 -90v-138q0 -3 -4 -7t-7 -4h-70q-8 0 -11 7l-7 16h-3q-38 -30 -90 -30q-49 0 -78 23q-28 22 -28 60q0 35 29 59t86 24q39 0 73 -3zM152 360
q32 0 53 18v17h-51q-28 0 -28 -17q0 -18 26 -18z" />
    <glyph glyph-name="guillemotleft" unicode="&#xab;" horiz-adv-x="527" 
d="M33 220l1 1q0 7 15 27l144 177q7 9 15 9q4 0 12 -3l49 -20q8 -5 8 -12q0 -5 -5 -17l-77 -162l77 -162q5 -12 5 -16q0 -7 -8 -12l-50 -20q-7 -3 -13 -3q-8 0 -14 8l-144 177q-15 18 -15 28zM254 221l1 1q0 7 15 27l144 177q8 9 15 9q5 0 12 -3l49 -20q8 -5 8 -12
q0 -5 -5 -17l-77 -162l77 -162q5 -12 5 -16q0 -7 -8 -12l-50 -20q-8 -3 -13 -3q-8 0 -14 8l-144 177q-15 18 -15 28z" />
    <glyph glyph-name="logicalnot" unicode="&#xac;" horiz-adv-x="500" 
d="M450 368v-253h-114v139h-286v114h400z" />
    <glyph glyph-name="registered" unicode="&#xae;" horiz-adv-x="660" 
d="M50 310q0 116 82 198t198 82t198 -82t82 -198t-82 -198t-198 -82t-198 82t-82 198zM104 310l-2 -1q0 -94 66 -160t161 -66t161 66t66 161q0 94 -66 160t-160 66t-160 -66t-66 -160zM453 351h-1q0 -57 -66 -81v-3q10 -7 21 -21l50 -60v-4h-62l-65 79h-59v-79h-54v260h129
q48 0 77 -25q30 -25 30 -66zM337 397h-66v-91h68q59 0 59 45q0 46 -61 46z" />
    <glyph glyph-name="macron" unicode="&#xaf;" horiz-adv-x="350" 
d="M304 523h-259v100h259v-100z" />
    <glyph glyph-name="degree" unicode="&#xb0;" horiz-adv-x="394" 
d="M34 447l-1 -1q0 68 48 116t116 48q67 0 115 -48t48 -115t-48 -115t-115 -48t-115 48t-48 115zM139 446v-1q0 -22 17 -39q16 -16 39 -16q22 0 39 17t17 39q0 24 -16 40t-40 16t-40 -16t-16 -40z" />
    <glyph glyph-name="plusminus" unicode="&#xb1;" horiz-adv-x="500" 
d="M450 18h-400v114h400v-114zM450 283h-143v-120h-114v120h-143v114h143v121h114v-121h143v-114z" />
    <glyph glyph-name="twosuperior" unicode="&#xb2;" horiz-adv-x="417" 
d="M26 214l1 82l184 119q44 29 44 54q0 14 -12 23t-34 9t-34 -12t-12 -32q0 -12 -11 -12h-109q-12 0 -12 10q0 64 44 110q43 45 135 45q82 0 129 -42t47 -99q0 -68 -79 -120l-12 -8l-33 -16v-3h121q3 0 6 -3t3 -6v-90q0 -3 -3 -6t-6 -3h-357z" />
    <glyph glyph-name="threesuperior" unicode="&#xb3;" horiz-adv-x="411" 
d="M217 365l-79 2q-3 0 -6 3t-3 6v69q0 3 3 6t6 3h63q41 0 41 28q0 27 -41 27q-34 0 -41 -25q-3 -10 -13 -10h-107q-5 0 -8 3t-3 6q0 53 48 90q49 38 128 38q83 0 126 -34q44 -35 44 -84q0 -46 -36 -70v-2q49 -28 49 -84q0 -55 -48 -93q-49 -38 -139 -38q-91 0 -135 37
q-45 37 -45 90q0 11 12 11h106q11 0 15 -9q10 -27 51 -27q51 0 51 32q0 24 -39 25z" />
    <glyph glyph-name="acute" unicode="&#xb4;" horiz-adv-x="470" 
d="M348 680l31 -26q12 -12 12 -27q0 -19 -16 -32l-103 -88q-7 -7 -26 -7h-63q-10 0 -10 9q0 5 6 12l102 150q16 22 36 22q18 0 31 -13z" />
    <glyph glyph-name="mu" unicode="&#xb5;" horiz-adv-x="530" 
d="M353 38l-3 1q-56 -47 -139 -47h-7v-223q0 -5 -6 -11t-11 -6h-134q-5 0 -11 6t-6 11v625q0 5 6 11t11 6h134q5 0 11 -6t6 -11v-215q0 -21 15 -36q13 -13 36 -13q50 0 71 44v219q0 5 6 11t11 6h134q5 0 11 -6t6 -11v-376q0 -5 -6 -11t-11 -6h-100q-11 0 -17 17z" />
    <glyph glyph-name="paragraph" unicode="&#xb6;" horiz-adv-x="559" 
d="M372 -59v562h-60v-559h-100v284q-76 1 -133 51q-57 49 -57 129q0 90 57 141t148 51h308v-100h-63v-559h-100z" />
    <glyph glyph-name="periodcentered" unicode="&#xb7;" horiz-adv-x="240" 
d="M42 250l-4 -4q0 33 23 56t56 23q34 0 56 -22q23 -23 23 -55q0 -33 -22 -55t-55 -22q-32 0 -55 23q-22 22 -22 56z" />
    <glyph glyph-name="cedilla" unicode="&#xb8;" horiz-adv-x="306" 
d="M27 -185l9 43q2 11 17 6q33 -9 73 -9q30 0 30 18q0 17 -23 17h-61q-23 0 -19 22l16 88h87l-2 -40h18q44 0 66 -24q23 -25 23 -61q0 -45 -32 -72q-31 -27 -99 -27q-52 0 -93 12q-12 3 -12 12q0 7 2 15z" />
    <glyph glyph-name="onesuperior" unicode="&#xb9;" horiz-adv-x="302" 
d="M270 610l-3 -386q0 -3 -3 -6t-6 -3h-112q-3 0 -6 3t-3 6v224l-2 2l-58 -41q-4 -2 -7 -2q-5 0 -6 4l-48 72q-4 7 2 12l166 115h86z" />
    <glyph glyph-name="ordmasculine" unicode="&#xba;" horiz-adv-x="361" 
d="M180 573h1q70 0 114 -37q45 -38 45 -103q0 -66 -46 -103t-114 -37t-114 37t-46 103t46 103t114 37zM231 433v-2q0 21 -14 35t-36 14q-23 0 -36 -13q-14 -14 -14 -34q0 -22 14 -36q13 -13 36 -13q22 0 36 14t14 35z" />
    <glyph glyph-name="guillemotright" unicode="&#xbb;" horiz-adv-x="527" 
d="M494 220l-1 -1q0 -10 -15 -28l-144 -177q-6 -8 -14 -8q-4 0 -12 3l-50 20q-8 5 -8 12q0 4 5 16l77 162l-77 162q-5 12 -5 17q0 7 8 12l49 20q7 3 13 3q8 0 15 -9l144 -177q15 -20 15 -27zM273 219v-1q0 -10 -15 -28l-144 -177q-6 -8 -14 -8q-4 0 -12 3l-50 20q-8 5 -8 12
q0 4 5 16l77 162l-77 162q-5 12 -5 17q0 7 8 12l49 20q7 3 12 3q7 0 15 -9l144 -177q15 -20 15 -27z" />
    <glyph glyph-name="onequarter" unicode="&#xbc;" horiz-adv-x="855" 
d="M834 62l-40 -1v-52q0 -3 -3 -6t-6 -3h-112q-3 0 -6 3t-3 6v52h-208v98l187 236h153v-228h38q3 0 6 -3t3 -6v-87q0 -3 -3 -6t-6 -3zM616 167h52v61l3 39l-3 1q-14 -24 -21 -31l-42 -52l-20 -19l1 -2q22 3 30 3zM268 609l-3 -386q0 -3 -3 -6t-6 -3h-112q-3 0 -6 3t-3 6v224
l-2 2l-58 -41q-4 -2 -7 -2q-5 0 -6 4l-48 72q-4 7 2 12l166 115h86zM150 11l477 636l78 -60l-477 -635z" />
    <glyph glyph-name="onehalf" unicode="&#xbd;" horiz-adv-x="932" 
d="M545 0l1 82l184 119q44 29 44 54q0 14 -12 23t-34 9t-34 -12t-12 -32q0 -12 -11 -12h-109q-12 0 -12 10q0 64 44 110q44 45 135 45q83 0 129 -42q47 -42 47 -99q0 -68 -79 -120l-12 -8l-33 -16v-3h121q3 0 6 -3t3 -6v-90q0 -3 -3 -6t-6 -3h-357zM271 610l-3 -386
q0 -3 -3 -6t-6 -3h-112q-3 0 -6 3t-3 6v224l-2 2l-58 -41q-4 -2 -7 -2q-5 0 -6 4l-48 72q-4 7 2 12l166 115h86zM159 12l477 636l78 -60l-477 -635z" />
    <glyph glyph-name="threequarters" unicode="&#xbe;" horiz-adv-x="926" 
d="M217 365l-79 2q-3 0 -6 3t-3 6v69q0 3 3 6t6 3h63q41 0 41 28q0 27 -41 27q-34 0 -41 -25q-3 -10 -13 -10h-107q-5 0 -8 3t-3 6q0 53 48 90q49 38 128 38q83 0 126 -34q44 -35 44 -84q0 -46 -36 -70v-2q49 -28 49 -84q0 -55 -48 -93q-49 -38 -139 -38q-91 0 -135 37
q-45 37 -45 90q0 11 12 11h106q11 0 15 -9q10 -27 51 -27q51 0 51 32q0 24 -39 25zM899 64l-40 -1v-52q0 -3 -3 -6t-6 -3h-112q-3 0 -6 3t-3 6v52h-208v98l187 236h153v-228h38q3 0 6 -3t3 -6v-87q0 -3 -3 -6t-6 -3zM681 169h52v61l3 39l-3 1q-14 -24 -21 -31l-42 -52
l-20 -19l1 -2q23 3 30 3zM216 13l477 636l78 -60l-477 -635z" />
    <glyph glyph-name="questiondown" unicode="&#xbf;" horiz-adv-x="436" 
d="M279 -49l125 1q16 0 16 -15q0 -76 -57 -121t-141 -45t-140 45t-56 123q0 92 94 146l14 8q24 13 24 46v23q0 5 6 11t11 6h120q5 0 11 -6t6 -11v-43q0 -43 -18 -69q-19 -26 -60 -50l-23 -12q-32 -17 -32 -49q0 -16 11 -27t30 -11q20 0 31 10q12 10 12 25t16 15zM158 313
l-4 -4q0 33 23 56t56 23q34 0 56 -22q23 -23 23 -55q0 -33 -22 -55t-55 -22q-32 0 -55 23q-22 22 -22 56z" />
    <glyph glyph-name="Agrave" unicode="&#xc0;" 
d="M527 13l-29 67h-262l-29 -67q-6 -13 -21 -13h-168q-8 0 -8 7q0 3 4 12l269 581h168l269 -581q4 -7 4 -12q0 -7 -8 -7h-168q-15 0 -21 13zM325 283l-27 -61h138l-27 61l-39 114h-6q-22 -77 -39 -114zM239 805l31 26q13 13 31 13q20 0 36 -22l102 -150q6 -8 6 -12
q0 -9 -10 -9h-63q-19 0 -26 7l-103 88q-16 13 -16 32q0 15 12 27z" />
    <glyph glyph-name="Aacute" unicode="&#xc1;" 
d="M527 13l-29 67h-262l-29 -67q-6 -13 -21 -13h-168q-8 0 -8 7q0 3 4 12l269 581h168l269 -581q4 -7 4 -12q0 -7 -8 -7h-168q-15 0 -21 13zM325 283l-27 -61h138l-27 61l-39 114h-6q-22 -77 -39 -114zM468 832l31 -26q12 -12 12 -27q0 -19 -16 -32l-103 -88q-7 -7 -26 -7
h-63q-10 0 -10 9q0 5 6 12l102 150q16 22 36 22q18 0 31 -13z" />
    <glyph glyph-name="Acircumflex" unicode="&#xc2;" 
d="M527 13l-29 67h-262l-29 -67q-6 -13 -21 -13h-168q-8 0 -8 7q0 3 4 12l269 581h168l269 -581q4 -7 4 -12q0 -7 -8 -7h-168q-15 0 -21 13zM325 283l-27 -61h138l-27 61l-39 114h-6q-22 -77 -39 -114zM369 717l-102 -66q-13 -9 -24 -9q-7 0 -18 8l-26 20q-10 9 -10 17
q0 9 12 21l101 97q32 32 62 32h10q30 0 62 -32l101 -97q12 -12 12 -21q0 -8 -10 -17l-26 -20q-11 -8 -18 -8q-11 0 -24 9z" />
    <glyph glyph-name="Atilde" unicode="&#xc3;" 
d="M527 13l-29 67h-262l-29 -67q-6 -13 -21 -13h-168q-8 0 -8 7q0 3 4 12l269 581h168l269 -581q4 -7 4 -12q0 -7 -8 -7h-168q-15 0 -21 13zM325 283l-27 -61h138l-27 61l-39 114h-6q-22 -77 -39 -114zM264 651h-57q-21 0 -21 20q0 64 26 98q26 33 72 33q40 0 72 -19l36 -21
q23 -14 36 -14q28 0 28 41q0 13 15 13h57q21 0 21 -20q0 -64 -26 -98q-25 -33 -72 -33q-40 0 -72 19l-36 21q-23 14 -36 14q-28 0 -28 -41q0 -13 -15 -13z" />
    <glyph glyph-name="Adieresis" unicode="&#xc4;" 
d="M527 13l-29 67h-262l-29 -67q-6 -13 -21 -13h-168q-8 0 -8 7q0 3 4 12l269 581h168l269 -581q4 -7 4 -12q0 -7 -8 -7h-168q-15 0 -21 13zM325 283l-27 -61h138l-27 61l-39 114h-6q-22 -77 -39 -114zM187 736l-4 -4q0 33 23 56t56 23q34 0 56 -22q23 -23 23 -55
q0 -33 -22 -55t-55 -22q-32 0 -55 23q-22 22 -22 56zM389 732l-4 -4q0 33 23 56t56 23q34 0 56 -22q23 -23 23 -55q0 -33 -22 -55t-55 -22q-32 0 -55 23q-22 22 -22 56z" />
    <glyph glyph-name="Aring" unicode="&#xc5;" 
d="M527 13l-29 67h-262l-29 -67q-6 -13 -21 -13h-168q-8 0 -8 7q0 3 4 12l269 581h168l269 -581q4 -7 4 -12q0 -7 -8 -7h-168q-15 0 -21 13zM325 283l-27 -61h138l-27 61l-39 114h-6q-22 -77 -39 -114zM249 743l-1 -3q0 46 33 78q34 32 86 32q54 0 86 -31q33 -31 33 -78
q0 -45 -33 -76q-32 -31 -85 -31q-52 0 -86 32q-33 32 -33 77zM333 740q0 -14 10 -23q11 -9 24 -9q15 0 24 9t9 23q0 15 -9 24t-24 9q-13 0 -24 -9q-10 -9 -10 -24z" />
    <glyph glyph-name="AE" unicode="&#xc6;" horiz-adv-x="928" 
d="M400 85l-161 -1l-34 -72q-5 -12 -20 -12h-168q-8 0 -8 6q0 5 4 12l267 561q9 20 27 20h573q4 0 9 -5t5 -9v-124q0 -5 -4 -9q-5 -5 -9 -5h-301v-74h271q4 0 9 -5t5 -9v-114q0 -5 -4 -9q-5 -5 -9 -5h-271v-80h304q4 0 9 -5t5 -9v-124q0 -4 -5 -9q-4 -4 -9 -4h-472
q-6 0 -9 3q-4 4 -4 9v73zM346 312l-44 -94h97v209h-11q-22 -72 -42 -115z" />
    <glyph glyph-name="Ccedilla" unicode="&#xc7;" horiz-adv-x="699" 
d="M652 347l-148 -1q-14 0 -18 16q-10 43 -44 69t-85 26q-62 0 -105 -43t-43 -115q0 -71 42 -115q42 -43 105 -43q104 0 129 88q4 16 21 16h143q18 0 18 -14q0 -97 -84 -169q-83 -71 -227 -71q-141 0 -234 86q-94 87 -94 222q0 133 95 222t234 89t225 -73q87 -73 87 -174
q0 -16 -17 -16zM281 -186l9 43q2 11 17 6q33 -9 73 -9q30 0 30 18q0 17 -23 17h-61q-23 0 -19 22l16 88h87l-2 -40h18q44 0 66 -24q23 -25 23 -61q0 -45 -32 -72q-31 -27 -99 -27q-52 0 -93 12q-12 3 -12 12q0 7 2 15z" />
    <glyph glyph-name="Egrave" unicode="&#xc8;" horiz-adv-x="609" 
d="M531 232l-297 -2v-80h328q4 0 9 -5t5 -9v-124q0 -5 -4 -9t-9 -4h-496q-5 0 -8 3q-3 4 -3 9v576q0 5 3 9t8 4h492q4 0 9 -5t5 -9v-124q0 -5 -4 -9q-5 -5 -9 -5h-324v-74h294q4 0 9 -5t5 -9v-114q0 -5 -4 -9q-5 -5 -9 -5zM196 804l31 26q13 13 31 13q20 0 36 -22l102 -150
q6 -7 6 -12q0 -9 -10 -9h-63q-19 0 -26 7l-103 88q-16 13 -16 32q0 15 12 27z" />
    <glyph glyph-name="Eacute" unicode="&#xc9;" horiz-adv-x="609" 
d="M531 232l-297 -2v-80h328q4 0 9 -5t5 -9v-124q0 -5 -4 -9t-9 -4h-496q-5 0 -8 3q-3 4 -3 9v576q0 5 3 9t8 4h492q4 0 9 -5t5 -9v-124q0 -5 -4 -9q-5 -5 -9 -5h-324v-74h294q4 0 9 -5t5 -9v-114q0 -5 -4 -9q-5 -5 -9 -5zM395 830l31 -26q12 -12 12 -27q0 -19 -16 -32
l-103 -88q-7 -7 -26 -7h-63q-10 0 -10 9q0 5 6 12l102 150q16 22 36 22q18 0 31 -13z" />
    <glyph glyph-name="Ecircumflex" unicode="&#xca;" horiz-adv-x="609" 
d="M531 232l-297 -2v-80h328q4 0 9 -5t5 -9v-124q0 -5 -4 -9t-9 -4h-496q-5 0 -8 3q-3 4 -3 9v576q0 5 3 9t8 4h492q4 0 9 -5t5 -9v-124q0 -5 -4 -9q-5 -5 -9 -5h-324v-74h294q4 0 9 -5t5 -9v-114q0 -5 -4 -9q-5 -5 -9 -5zM316 705l-102 -66q-14 -9 -24 -9q-7 0 -18 8
l-26 20q-10 9 -10 17q0 9 12 21l101 97q32 32 62 32h10q30 0 62 -32l101 -97q12 -12 12 -21q0 -8 -10 -17l-26 -20q-11 -8 -18 -8q-10 0 -24 9z" />
    <glyph glyph-name="Edieresis" unicode="&#xcb;" horiz-adv-x="609" 
d="M531 232l-297 -2v-80h328q4 0 9 -5t5 -9v-124q0 -5 -4 -9t-9 -4h-496q-5 0 -8 3q-3 4 -3 9v576q0 5 3 9t8 4h492q4 0 9 -5t5 -9v-124q0 -5 -4 -9q-5 -5 -9 -5h-324v-74h294q4 0 9 -5t5 -9v-114q0 -5 -4 -9q-5 -5 -9 -5zM134 734l-4 -4q0 33 23 56t56 23q34 0 56 -22
q23 -23 23 -55q0 -33 -22 -55t-55 -22q-32 0 -55 23q-22 22 -22 56zM336 730l-4 -4q0 33 23 56t56 23q34 0 56 -22q23 -23 23 -55q0 -33 -22 -55t-55 -22q-32 0 -55 23q-22 22 -22 56z" />
    <glyph glyph-name="Igrave" unicode="&#xcc;" horiz-adv-x="294" 
d="M237 588v-576q0 -4 -3 -9q-2 -3 -8 -3h-156q-6 0 -8 3q-3 5 -3 9v576q0 4 3 9q3 4 8 4h156q5 0 8 -4q3 -5 3 -9zM5 805l31 26q13 13 31 13q20 0 36 -22l102 -150q6 -8 6 -12q0 -9 -10 -9h-63q-19 0 -26 7l-103 88q-15 14 -15 32q0 14 11 27z" />
    <glyph glyph-name="Iacute" unicode="&#xcd;" horiz-adv-x="294" 
d="M237 588v-576q0 -4 -3 -9q-2 -3 -8 -3h-156q-6 0 -8 3q-3 5 -3 9v576q0 4 3 9q3 4 8 4h156q5 0 8 -4q3 -5 3 -9zM262 832l31 -26q12 -12 12 -27q0 -19 -16 -32l-103 -88q-7 -7 -26 -7h-63q-10 0 -10 9q0 5 6 12l102 150q16 22 36 22q18 0 31 -13z" />
    <glyph glyph-name="Icircumflex" unicode="&#xce;" horiz-adv-x="294" 
d="M237 588v-576q0 -4 -3 -9q-2 -3 -8 -3h-156q-6 0 -8 3q-3 5 -3 9v576q0 4 3 9q3 4 8 4h156q5 0 8 -4q3 -5 3 -9zM148 717l-102 -66q-14 -9 -24 -9q-7 0 -18 8l-25 20q-10 9 -10 17q0 9 12 21l100 97q32 32 62 32h10q30 0 62 -32l101 -97q12 -12 12 -21q0 -8 -10 -17
l-26 -20q-11 -8 -18 -8q-10 0 -24 9z" />
    <glyph glyph-name="Idieresis" unicode="&#xcf;" horiz-adv-x="294" 
d="M237 588v-576q0 -4 -3 -9q-2 -3 -8 -3h-156q-6 0 -8 3q-3 5 -3 9v576q0 4 3 9q3 4 8 4h156q5 0 8 -4q3 -5 3 -9zM-32 736l-4 -4q0 33 23 56q21 23 55 23t56 -22q23 -23 23 -55q0 -33 -22 -55t-55 -22t-54 23q-22 22 -22 56zM169 732l-4 -4q0 33 23 56t56 23q34 0 56 -22
q23 -23 23 -55q0 -33 -22 -55t-55 -22q-32 0 -55 23q-22 22 -22 56z" />
    <glyph glyph-name="Eth" unicode="&#xd0;" horiz-adv-x="697" 
d="M331 0h-263q-6 0 -8 3q-3 5 -3 9v249h-52v78h52v249q0 4 3 9q3 4 8 4h260q149 0 243 -82t94 -219q0 -138 -87 -219t-247 -81zM328 447l-91 1v-109h102v-78h-102v-109h93q77 0 116 39t39 109q0 69 -43 108q-42 37 -114 39z" />
    <glyph glyph-name="Ntilde" unicode="&#xd1;" horiz-adv-x="756" 
d="M552 0l-251 255l-60 68h-4v-311q0 -4 -3 -9q-2 -3 -8 -3h-156q-6 0 -8 3q-3 5 -3 9v576q0 4 3 9q3 4 8 4h135l257 -260l55 -62h3v310q0 5 3 9t8 4h156q5 0 8 -4t3 -9v-576q0 -5 -3 -9t-8 -4h-135zM280 651h-57q-21 0 -21 20q0 64 26 98q26 33 72 33q40 0 72 -19l36 -21
q23 -14 36 -14q28 0 28 41q0 13 15 13h57q21 0 21 -20q0 -64 -26 -98q-25 -33 -72 -33q-40 0 -72 19l-36 21q-23 14 -36 14q-28 0 -28 -41q0 -13 -15 -13z" />
    <glyph glyph-name="Ograve" unicode="&#xd2;" 
d="M367 610h-2q143 0 240 -84q98 -84 98 -225t-97 -225q-96 -83 -240 -83t-240 83q-97 84 -97 225t98 225q97 84 240 84zM365 458v-2q-65 0 -111 -43t-46 -114t46 -114t111 -43q64 0 111 44q46 43 46 114t-46 114q-47 44 -111 44zM216 803l31 26q13 13 31 13q20 0 36 -22
l102 -150q6 -8 6 -12q0 -9 -10 -9h-63q-19 0 -26 7l-103 88q-16 13 -16 32q0 15 12 27z" />
    <glyph glyph-name="Oacute" unicode="&#xd3;" 
d="M367 610h-2q143 0 240 -84q98 -84 98 -225t-97 -225q-96 -83 -240 -83t-240 83q-97 84 -97 225t98 225q97 84 240 84zM365 458v-2q-65 0 -111 -43t-46 -114t46 -114t111 -43q64 0 111 44q46 43 46 114t-46 114q-47 44 -111 44zM455 830l31 -26q12 -12 12 -27
q0 -19 -16 -32l-103 -88q-7 -7 -26 -7h-63q-10 0 -10 9q0 5 6 12l102 150q16 22 36 22q18 0 31 -13z" />
    <glyph glyph-name="Ocircumflex" unicode="&#xd4;" 
d="M367 610h-2q143 0 240 -84q98 -84 98 -225t-97 -225q-96 -83 -240 -83t-240 83q-97 84 -97 225t98 225q97 84 240 84zM365 458v-2q-65 0 -111 -43t-46 -114t46 -114t111 -43q64 0 111 44q46 43 46 114t-46 114q-47 44 -111 44zM366 715l-102 -66q-14 -9 -24 -9
q-7 0 -18 8l-26 20q-10 9 -10 17q0 9 12 21l101 97q32 32 62 32h10q30 0 62 -32l101 -97q12 -12 12 -21q0 -8 -10 -17l-26 -20q-11 -8 -18 -8q-10 0 -24 9z" />
    <glyph glyph-name="Otilde" unicode="&#xd5;" 
d="M263 651h-57q-21 0 -21 20q0 64 26 98q25 33 72 33q40 0 72 -19l36 -21q23 -14 36 -14q28 0 28 41q0 13 15 13h57q21 0 21 -20q0 -64 -26 -98q-26 -33 -72 -33q-40 0 -72 19l-36 21q-23 14 -36 14q-28 0 -28 -41q0 -13 -15 -13zM367 610h-2q143 0 240 -84q98 -84 98 -225
t-97 -225q-96 -83 -240 -83t-240 83q-97 84 -97 225t98 225q97 84 240 84zM365 458v-2q-65 0 -111 -43t-46 -114t46 -114t111 -43q64 0 111 44q46 43 46 114t-46 114q-47 44 -111 44z" />
    <glyph glyph-name="Odieresis" unicode="&#xd6;" 
d="M367 610h-2q143 0 240 -84q98 -84 98 -225t-97 -225q-96 -83 -240 -83t-240 83q-97 84 -97 225t98 225q97 84 240 84zM365 458v-2q-65 0 -111 -43t-46 -114t46 -114t111 -43q64 0 111 44q46 43 46 114t-46 114q-47 44 -111 44zM184 734l-4 -4q0 33 23 56t56 23
q34 0 56 -22q23 -23 23 -55q0 -33 -22 -55t-55 -22q-32 0 -55 23q-22 22 -22 56zM386 730l-4 -4q0 33 23 56t56 23q34 0 56 -22q23 -23 23 -55q0 -33 -22 -55t-55 -22q-32 0 -55 23q-22 22 -22 56z" />
    <glyph glyph-name="multiply" unicode="&#xd7;" horiz-adv-x="500" 
d="M437 386l-106 -106l105 -105l-81 -81l-105 105l-106 -105l-81 81l106 105l-106 106l81 81l106 -106l106 106z" />
    <glyph glyph-name="Oslash" unicode="&#xd8;" horiz-adv-x="735" 
d="M367 610l-2 -2q115 0 201 -55l55 55l55 -55l-50 -50q77 -83 77 -204q0 -141 -98 -225q-96 -83 -240 -83q-114 0 -198 53l-61 -60l-55 55l55 55q-77 86 -77 207q0 141 98 225q97 84 240 84zM365 457v1q-67 0 -111 -43q-45 -43 -45 -117q0 -46 21 -81l218 218
q-37 22 -83 22zM522 298h1q0 45 -21 81l-217 -218q39 -21 81 -21q65 0 111 44q45 44 45 114z" />
    <glyph glyph-name="Ugrave" unicode="&#xd9;" horiz-adv-x="736" 
d="M504 296l-5 291q0 5 4 9t9 4h156q5 0 9 -4t4 -9v-295q0 -146 -84 -225q-82 -78 -232 -78q-149 0 -232 79q-84 80 -84 224v295q0 5 4 9t9 4h156q5 0 9 -4t4 -9v-292q0 -76 36 -115t100 -39q65 0 101 39q37 41 36 116zM224 804l31 26q13 13 31 13q20 0 36 -22l102 -150
q6 -7 6 -12q0 -9 -10 -9h-63q-19 0 -26 7l-103 88q-16 13 -16 32q0 15 12 27z" />
    <glyph glyph-name="Uacute" unicode="&#xda;" horiz-adv-x="736" 
d="M504 296l-5 291q0 5 4 9t9 4h156q5 0 9 -4t4 -9v-295q0 -146 -84 -225q-82 -78 -232 -78q-149 0 -232 79q-84 80 -84 224v295q0 5 4 9t9 4h156q5 0 9 -4t4 -9v-292q0 -76 36 -115t100 -39q65 0 101 39q37 41 36 116zM473 831l31 -26q12 -12 12 -27q0 -19 -16 -32
l-103 -88q-7 -7 -26 -7h-63q-10 0 -10 9q0 4 6 12l102 150q16 22 36 22q18 0 31 -13z" />
    <glyph glyph-name="Ucircumflex" unicode="&#xdb;" horiz-adv-x="736" 
d="M504 296l-5 291q0 5 4 9t9 4h156q5 0 9 -4t4 -9v-295q0 -146 -84 -225q-82 -78 -232 -78q-149 0 -232 79q-84 80 -84 224v295q0 5 4 9t9 4h156q5 0 9 -4t4 -9v-292q0 -76 36 -115t100 -39q65 0 101 39q37 41 36 116zM364 716l-102 -66q-14 -9 -24 -9q-7 0 -18 8l-26 20
q-10 9 -10 17q0 9 12 21l101 97q32 32 62 32h10q30 0 62 -32l101 -97q12 -12 12 -21q0 -8 -10 -17l-26 -20q-11 -8 -18 -8q-10 0 -24 9z" />
    <glyph glyph-name="Udieresis" unicode="&#xdc;" horiz-adv-x="736" 
d="M504 296l-5 291q0 5 4 9t9 4h156q5 0 9 -4t4 -9v-295q0 -146 -84 -225q-82 -78 -232 -78q-149 0 -232 79q-84 80 -84 224v295q0 5 4 9t9 4h156q5 0 9 -4t4 -9v-292q0 -76 36 -115t100 -39q65 0 101 39q37 41 36 116zM182 735l-4 -4q0 33 23 56t56 23q34 0 56 -22
q23 -23 23 -55q0 -33 -22 -55t-55 -22q-32 0 -55 23q-22 22 -22 56zM384 731l-4 -4q0 33 23 56t56 23q34 0 56 -22q23 -23 23 -55q0 -33 -22 -55t-55 -22q-32 0 -55 23q-22 22 -22 56z" />
    <glyph glyph-name="Yacute" unicode="&#xdd;" horiz-adv-x="664" 
d="M422 230l2 -219q0 -5 -4 -9q-4 -3 -9 -3h-156q-5 0 -9 3q-4 4 -4 9v218l-227 353q-5 8 -5 12q0 6 6 6h182q16 0 24 -12l80 -132l28 -54h4q10 25 28 54l80 132q8 12 24 12h181q7 0 7 -6q0 -3 -5 -11zM454 831l31 -26q12 -12 12 -27q0 -19 -16 -32l-103 -88q-7 -7 -26 -7
h-63q-10 0 -10 9q0 4 6 12l102 150q16 22 36 22q18 0 31 -13z" />
    <glyph glyph-name="Thorn" unicode="&#xde;" horiz-adv-x="617" 
d="M315 378l-78 -1v-165h78q41 0 66 23q24 23 24 60t-24 60q-25 23 -66 23zM237 587l1 -59h96q113 0 183 -64q71 -65 71 -168q0 -104 -72 -165q-71 -61 -183 -61h-96v-59q0 -5 -3 -9q-3 -3 -8 -3h-156q-5 0 -8 3q-3 4 -3 9v576q0 5 3 9t8 4h156q5 0 8 -4t3 -9z" />
    <glyph glyph-name="germandbls" unicode="&#xdf;" horiz-adv-x="572" 
d="M249 36l9 85q2 8 8 11q7 3 14 2q38 -12 56 -12q17 0 30 11q12 11 12 27q0 30 -41 50l-24 12q-69 34 -69 99q0 29 29 75t29 76q0 25 -13 39q-13 15 -36 15q-22 0 -36 -17q-13 -16 -13 -44v-452q0 -5 -6 -11q-7 -5 -11 -5h-134q-4 0 -11 5q-6 6 -6 11v439q0 97 59 156
q58 58 158 58t158 -50q57 -50 57 -126q0 -39 -15 -69q-14 -29 -30 -49q-15 -20 -15 -33q0 -19 25 -34l24 -14q86 -50 86 -135q0 -68 -45 -117q-44 -48 -129 -48q-63 0 -108 20q-13 7 -12 25z" />
    <glyph glyph-name="agrave" unicode="&#xe0;" horiz-adv-x="522" 
d="M322 236l2 14q0 51 -58 51q-34 0 -43 -26q-5 -12 -18 -12h-132q-4 0 -10 6t-6 11v5q0 17 5 35q4 16 18 36t36 33q24 15 61 23q39 9 89 9q105 0 165 -54t60 -138v-212q0 -5 -6 -11t-11 -6h-105q-13 0 -21 17l-9 20h-3q-59 -46 -145 -46q-76 0 -117 34q-42 35 -42 90
q0 53 45 89q50 40 133 36l111 -5zM244 99h-1q44 0 81 28v24h-79q-42 0 -42 -25q0 -27 41 -27zM129 654l31 26q13 13 31 13q20 0 36 -22l102 -150q6 -7 6 -12q0 -9 -10 -9h-63q-19 0 -26 7l-103 88q-16 13 -16 32q0 15 12 27z" />
    <glyph glyph-name="aacute" unicode="&#xe1;" horiz-adv-x="522" 
d="M322 236l2 14q0 51 -58 51q-34 0 -43 -26q-5 -12 -18 -12h-132q-4 0 -10 6t-6 11v5q0 17 5 35q4 16 18 36t36 33q24 15 61 23q39 9 89 9q105 0 165 -54t60 -138v-212q0 -5 -6 -11t-11 -6h-105q-13 0 -21 17l-9 20h-3q-59 -46 -145 -46q-76 0 -117 34q-42 35 -42 90
q0 53 45 89q50 40 133 36l111 -5zM244 99h-1q44 0 81 28v24h-79q-42 0 -42 -25q0 -27 41 -27zM401 681l31 -26q12 -12 12 -27q0 -19 -16 -32l-103 -88q-7 -7 -26 -7h-63q-10 0 -10 9q0 4 6 12l102 150q16 22 36 22q18 0 31 -13z" />
    <glyph glyph-name="acircumflex" unicode="&#xe2;" horiz-adv-x="522" 
d="M322 236l2 14q0 51 -58 51q-34 0 -43 -26q-5 -12 -18 -12h-132q-4 0 -10 6t-6 11v5q0 17 5 35q4 16 18 36t36 33q24 15 61 23q39 9 89 9q105 0 165 -54t60 -138v-212q0 -5 -6 -11t-11 -6h-105q-13 0 -21 17l-9 20h-3q-59 -46 -145 -46q-76 0 -117 34q-42 35 -42 90
q0 53 45 89q50 40 133 36l111 -5zM244 99h-1q44 0 81 28v24h-79q-42 0 -42 -25q0 -27 41 -27zM269 568l-102 -66q-13 -9 -24 -9q-7 0 -18 8l-26 20q-10 9 -10 17q0 9 12 21l101 97q32 32 62 32h10q30 0 62 -32l101 -97q12 -12 12 -21q0 -8 -10 -17l-26 -20q-11 -8 -18 -8
q-11 0 -24 9z" />
    <glyph glyph-name="atilde" unicode="&#xe3;" horiz-adv-x="522" 
d="M322 236l2 14q0 51 -58 51q-34 0 -43 -26q-5 -12 -18 -12h-132q-4 0 -10 6t-6 11v5q0 17 5 35q4 16 18 36t36 33q24 15 61 23q39 9 89 9q105 0 165 -54t60 -138v-212q0 -5 -6 -11t-11 -6h-105q-13 0 -21 17l-9 20h-3q-59 -46 -145 -46q-76 0 -117 34q-42 35 -42 90
q0 53 45 89q50 40 133 36l111 -5zM244 99h-1q44 0 81 28v24h-79q-42 0 -42 -25q0 -27 41 -27zM163 499h-57q-21 0 -21 20q0 64 26 98q25 33 72 33q40 0 72 -19l36 -21q23 -14 36 -14q28 0 28 41q0 13 15 13h57q21 0 21 -20q0 -64 -26 -98q-26 -33 -72 -33q-40 0 -72 19
l-36 21q-23 14 -36 14q-28 0 -28 -41q0 -13 -15 -13z" />
    <glyph glyph-name="adieresis" unicode="&#xe4;" horiz-adv-x="522" 
d="M322 236l2 14q0 51 -58 51q-34 0 -43 -26q-5 -12 -18 -12h-132q-4 0 -10 6t-6 11v5q0 17 5 35q4 16 18 36t36 33q24 15 61 23q39 9 89 9q105 0 165 -54t60 -138v-212q0 -5 -6 -11t-11 -6h-105q-13 0 -21 17l-9 20h-3q-59 -46 -145 -46q-76 0 -117 34q-42 35 -42 90
q0 53 45 89q50 40 133 36l111 -5zM244 99h-1q44 0 81 28v24h-79q-42 0 -42 -25q0 -27 41 -27zM83 577l-4 -4q0 33 23 56t56 23q34 0 56 -22q23 -23 23 -55q0 -33 -22 -55t-55 -22q-32 0 -55 23q-22 22 -22 56zM285 573l-4 -4q0 33 23 56t56 23q34 0 56 -22q23 -23 23 -55
q0 -33 -22 -55t-55 -22q-32 0 -55 23q-22 22 -22 56z" />
    <glyph glyph-name="aring" unicode="&#xe5;" horiz-adv-x="522" 
d="M322 236l2 14q0 51 -58 51q-34 0 -43 -26q-5 -12 -18 -12h-132q-4 0 -10 6t-6 11v5q0 17 5 35q4 16 18 36t36 33q24 15 61 23q39 9 89 9q105 0 165 -54t60 -138v-212q0 -5 -6 -11t-11 -6h-105q-13 0 -21 17l-9 20h-3q-59 -46 -145 -46q-76 0 -117 34q-42 35 -42 90
q0 53 45 89q50 40 133 36l111 -5zM244 99h-1q44 0 81 28v24h-79q-42 0 -42 -25q0 -27 41 -27zM153 612l-1 -3q0 47 33 78q34 32 86 32q54 0 86 -31q33 -32 33 -78q0 -44 -33 -76q-32 -31 -85 -31q-52 0 -86 32q-33 31 -33 77zM237 609q0 -14 10 -23q11 -9 24 -9q15 0 24 9
t9 23q0 15 -9 24t-24 9q-13 0 -24 -9q-10 -9 -10 -24z" />
    <glyph glyph-name="ae" unicode="&#xe6;" horiz-adv-x="832" 
d="M795 164l-305 -2q7 -46 96 -46q54 0 126 22q15 5 27 5q19 0 24 -17l14 -50q5 -20 5 -23q0 -15 -18 -24q-79 -40 -179 -40q-116 0 -189 55h-3q-82 -55 -188 -55q-84 0 -128 35q-45 36 -45 92q0 53 45 89t133 36h112v7q0 51 -58 51q-34 0 -43 -26q-5 -12 -18 -12h-132
q-4 0 -10 6t-6 11v5q0 17 5 35q4 16 18 36t36 33q24 15 61 23q39 9 89 9q88 0 150 -44h2q65 44 150 44q110 0 173 -54t63 -134q0 -10 -2 -32q-2 -18 -3 -26zM242 98v1q52 0 90 34q-4 8 -7 25h-85q-39 0 -39 -29q0 -13 11 -22q10 -9 30 -9zM569 300v1q-29 0 -51 -15
q-23 -15 -27 -40h144q-1 54 -66 54z" />
    <glyph glyph-name="ccedilla" unicode="&#xe7;" horiz-adv-x="531" 
d="M501 268h-1q1 -4 1 -16q0 -8 -7 -15t-15 -7h-125q-12 0 -19 12l-5 9q-18 33 -58 33q-34 0 -55 -22t-21 -54q0 -33 25 -55t64 -22q52 0 112 39q19 13 33 13q16 0 27 -17l36 -56q6 -10 6 -19q0 -18 -32 -42q-75 -57 -189 -57q-107 0 -177 60q-72 62 -72 157t72 153
q73 59 172 59t159 -45t69 -108zM182 -185l9 43q2 11 17 6q33 -9 73 -9q30 0 30 18q0 17 -23 17h-61q-23 0 -19 22l16 88h87l-2 -40h18q43 0 66 -24q23 -25 23 -61q0 -45 -32 -72t-99 -27q-53 0 -93 12q-12 3 -12 12q0 7 2 15z" />
    <glyph glyph-name="egrave" unicode="&#xe8;" horiz-adv-x="541" 
d="M504 164l-306 -2q7 -46 96 -46q54 0 126 22q15 5 27 5q19 0 24 -17l14 -50q5 -20 5 -23q0 -15 -18 -24q-79 -40 -179 -40q-119 0 -192 58q-74 59 -74 156q0 90 69 153t179 63t173 -54t63 -134q0 -10 -2 -32q-2 -18 -3 -26zM277 304q-29 0 -51 -13t-27 -39h144
q-1 52 -66 52zM118 651l31 26q13 13 31 13q20 0 36 -22l102 -150q6 -8 6 -12q0 -9 -10 -9h-63q-19 0 -26 7l-103 88q-16 13 -16 32q0 15 12 27z" />
    <glyph glyph-name="eacute" unicode="&#xe9;" horiz-adv-x="541" 
d="M504 164l-306 -2q7 -46 96 -46q54 0 126 22q15 5 27 5q19 0 24 -17l14 -50q5 -20 5 -23q0 -15 -18 -24q-79 -40 -179 -40q-119 0 -192 58q-74 59 -74 156q0 90 69 153t179 63t173 -54t63 -134q0 -10 -2 -32q-2 -18 -3 -26zM277 304q-29 0 -51 -13t-27 -39h144
q-1 52 -66 52zM411 678l31 -26q12 -12 12 -27q0 -19 -16 -32l-103 -88q-7 -7 -26 -7h-63q-10 0 -10 9q0 5 6 12l102 150q16 22 36 22q18 0 31 -13z" />
    <glyph glyph-name="ecircumflex" unicode="&#xea;" horiz-adv-x="541" 
d="M504 164l-306 -2q7 -46 96 -46q54 0 126 22q15 5 27 5q19 0 24 -17l14 -50q5 -20 5 -23q0 -15 -18 -24q-79 -40 -179 -40q-119 0 -192 58q-74 59 -74 156q0 90 69 153t179 63t173 -54t63 -134q0 -10 -2 -32q-2 -18 -3 -26zM277 304q-29 0 -51 -13t-27 -39h144
q-1 52 -66 52zM278 565l-102 -66q-14 -9 -24 -9q-7 0 -18 8l-26 20q-10 9 -10 17q0 9 12 21l101 97q32 32 62 32h10q30 0 62 -32l101 -97q12 -12 12 -21q0 -8 -10 -17l-26 -20q-11 -8 -18 -8q-10 0 -24 9z" />
    <glyph glyph-name="edieresis" unicode="&#xeb;" horiz-adv-x="541" 
d="M504 164l-306 -2q7 -46 96 -46q54 0 126 22q15 5 27 5q19 0 24 -17l14 -50q5 -20 5 -23q0 -15 -18 -24q-79 -40 -179 -40q-119 0 -192 58q-74 59 -74 156q0 90 69 153t179 63t173 -54t63 -134q0 -10 -2 -32q-2 -18 -3 -26zM277 304q-29 0 -51 -13t-27 -39h144
q-1 52 -66 52zM96 572l-4 -4q0 33 23 56t56 23q34 0 56 -22q23 -23 23 -55q0 -33 -22 -55t-55 -22q-32 0 -55 23q-22 22 -22 56zM298 568l-4 -4q0 33 23 56t56 23q34 0 56 -22q23 -23 23 -55q0 -33 -22 -55t-55 -22q-32 0 -55 23q-22 22 -22 56z" />
    <glyph glyph-name="igrave" unicode="&#xec;" horiz-adv-x="240" 
d="M204 393v-376q0 -5 -6 -11t-11 -6h-134q-5 0 -11 6t-6 11v376q0 5 6 11t11 6h134q5 0 11 -6t6 -11zM-8 653l30 26q13 13 31 13q20 0 36 -22l102 -150q6 -8 6 -12q0 -9 -10 -9h-63q-19 0 -26 7l-102 88q-16 13 -16 32q0 15 12 27z" />
    <glyph glyph-name="iacute" unicode="&#xed;" horiz-adv-x="240" 
d="M204 393v-376q0 -5 -6 -11t-11 -6h-134q-5 0 -11 6t-6 11v376q0 5 6 11t11 6h134q5 0 11 -6t6 -11zM238 680l31 -26q12 -12 12 -27q0 -19 -16 -32l-103 -88q-7 -7 -26 -7h-63q-10 0 -10 9q0 5 6 12l102 150q16 22 36 22q18 0 31 -13z" />
    <glyph glyph-name="icircumflex" unicode="&#xee;" horiz-adv-x="240" 
d="M204 393v-376q0 -5 -6 -11t-11 -6h-134q-5 0 -11 6t-6 11v376q0 5 6 11t11 6h134q5 0 11 -6t6 -11zM120 567l-102 -66q-14 -9 -23 -9q-7 0 -18 8l-26 20q-10 9 -10 17q0 9 12 21l100 97q32 32 62 32h10q30 0 62 -32l101 -97q12 -12 12 -21q0 -8 -10 -17l-26 -20
q-11 -8 -18 -8q-10 0 -24 9z" />
    <glyph glyph-name="idieresis" unicode="&#xef;" horiz-adv-x="240" 
d="M204 393v-376q0 -5 -6 -11t-11 -6h-134q-5 0 -11 6t-6 11v376q0 5 6 11t11 6h134q5 0 11 -6t6 -11zM-60 572l-4 -4q0 33 23 56t55 23q34 0 56 -22q23 -23 23 -55q0 -33 -22 -55t-55 -22q-31 0 -54 23q-22 22 -22 56zM141 568l-4 -4q0 33 23 56t56 23q34 0 56 -22
q23 -23 23 -55q0 -33 -22 -55t-55 -22q-32 0 -55 23q-22 22 -22 56z" />
    <glyph glyph-name="eth" unicode="&#xf0;" horiz-adv-x="554" 
d="M525 256l1 2q0 -118 -66 -192q-65 -72 -184 -72q-110 0 -177 57q-69 59 -69 157t66 156q67 59 155 59q49 0 77 -17l3 2q-27 53 -86 89l-118 -74l-41 66l76 47v1q-19 7 -76 23q-20 4 -15 24l18 72q4 16 18 16q12 0 33 -4q78 -13 153 -50l87 55l40 -66l-53 -33
q77 -58 117 -141q41 -84 41 -177zM354 207l-2 -1q0 34 -23 55t-57 21q-33 0 -54 -21t-21 -53q0 -33 24 -54t55 -21q36 0 57 23q21 22 21 51z" />
    <glyph glyph-name="ntilde" unicode="&#xf1;" horiz-adv-x="526" 
d="M36 17l1 374q0 5 6 11t11 6h113q11 0 17 -17l8 -24h3q55 51 132 51q83 0 125 -45t42 -121v-236q0 -5 -6 -11q-5 -5 -11 -5h-134q-6 0 -11 5q-6 6 -6 11v217q0 22 -13 34q-14 12 -34 12q-23 0 -44 -12q-20 -12 -31 -33v-217q0 -5 -6 -11t-11 -6h-134q-5 0 -11 6t-6 11z
M158 497h-57q-21 0 -21 20q0 64 26 98q26 33 72 33q40 0 72 -19l36 -21q23 -14 36 -14q28 0 28 41q0 13 15 13h57q21 0 21 -20q0 -64 -26 -98q-25 -33 -72 -33q-40 0 -72 19l-36 21q-23 14 -36 14q-28 0 -28 -41q0 -13 -15 -13z" />
    <glyph glyph-name="ograve" unicode="&#xf2;" horiz-adv-x="550" 
d="M275 420v-2q103 0 174 -57t71 -157t-71 -157q-69 -56 -174 -56t-174 56q-71 57 -71 158t71 158t174 57zM353 203q0 32 -22 53q-23 21 -57 21t-57 -21q-22 -21 -22 -53t22 -53q23 -21 57 -21t57 21q22 21 22 53zM120 651l31 26q13 13 31 13q20 0 36 -22l102 -150
q6 -8 6 -12q0 -9 -10 -9h-63q-19 0 -26 7l-103 88q-16 13 -16 32q0 15 12 27z" />
    <glyph glyph-name="oacute" unicode="&#xf3;" horiz-adv-x="550" 
d="M275 420v-2q103 0 174 -57t71 -157t-71 -157q-69 -56 -174 -56t-174 56q-71 57 -71 158t71 158t174 57zM353 203q0 32 -22 53q-23 21 -57 21t-57 -21q-22 -21 -22 -53t22 -53q23 -21 57 -21t57 21q22 21 22 53zM402 678l31 -26q12 -12 12 -27q0 -19 -16 -32l-103 -88
q-7 -7 -26 -7h-63q-10 0 -10 9q0 5 6 12l102 150q16 22 36 22q18 0 31 -13z" />
    <glyph glyph-name="ocircumflex" unicode="&#xf4;" horiz-adv-x="550" 
d="M275 420v-2q103 0 174 -57t71 -157t-71 -157q-69 -56 -174 -56t-174 56q-71 57 -71 158t71 158t174 57zM353 203q0 32 -22 53q-23 21 -57 21t-57 -21q-22 -21 -22 -53t22 -53q23 -21 57 -21t57 21q22 21 22 53zM275 565l-102 -66q-13 -9 -24 -9q-7 0 -18 8l-26 20
q-10 9 -10 17q0 9 12 21l101 97q32 32 62 32h10q30 0 62 -32l101 -97q12 -12 12 -21q0 -8 -10 -17l-26 -20q-11 -8 -18 -8q-11 0 -24 9z" />
    <glyph glyph-name="otilde" unicode="&#xf5;" horiz-adv-x="550" 
d="M171 498h-57q-21 0 -21 20q0 64 26 98q25 33 72 33q40 0 72 -19l36 -21q23 -14 36 -14q28 0 28 41q0 13 15 13h57q21 0 21 -20q0 -64 -26 -98q-26 -33 -72 -33q-40 0 -72 19l-36 21q-23 14 -36 14q-28 0 -28 -41q0 -13 -15 -13zM275 420v-2q103 0 174 -57t71 -157
t-71 -157q-69 -56 -174 -56t-174 56q-71 57 -71 158t71 158t174 57zM353 203q0 32 -22 53q-23 21 -57 21t-57 -21q-22 -21 -22 -53t22 -53q23 -21 57 -21t57 21q22 21 22 53z" />
    <glyph glyph-name="odieresis" unicode="&#xf6;" horiz-adv-x="550" 
d="M275 420v-2q103 0 174 -57t71 -157t-71 -157q-69 -56 -174 -56t-174 56q-71 57 -71 158t71 158t174 57zM353 203q0 32 -22 53q-23 21 -57 21t-57 -21q-22 -21 -22 -53t22 -53q23 -21 57 -21t57 21q22 21 22 53zM94 573l-4 -4q0 33 23 56t56 23q34 0 56 -22q23 -23 23 -55
q0 -33 -22 -55t-55 -22q-32 0 -55 23q-22 22 -22 56zM296 569l-4 -4q0 33 23 56t56 23q34 0 56 -22q23 -23 23 -55q0 -33 -22 -55t-55 -22q-32 0 -55 23q-22 22 -22 56z" />
    <glyph glyph-name="divide" unicode="&#xf7;" horiz-adv-x="500" 
d="M172 467l-4 -4q0 33 23 56t56 23q34 0 56 -22q23 -23 23 -55q0 -33 -22 -55t-55 -22q-32 0 -55 23q-22 22 -22 56zM168 89l-4 -4q0 33 23 56t56 23q34 0 56 -22q23 -23 23 -55q0 -33 -22 -55t-55 -22q-32 0 -55 23q-22 22 -22 56zM442 215h-400v114h400v-114z" />
    <glyph glyph-name="oslash" unicode="&#xf8;" horiz-adv-x="550" 
d="M48 34l32 32q-51 56 -51 138q0 101 71 158q70 57 174 57q70 0 131 -29l40 40l55 -55l-32 -32q52 -56 52 -139q0 -100 -71 -157q-69 -56 -174 -56q-73 0 -132 28l-40 -39zM363 205l1 1q0 12 -5 29l-110 -110v-1q12 -3 27 -3q39 0 63 24t24 60zM188 206v-1q0 -18 4 -27
l110 109v1q-12 3 -26 3q-40 0 -64 -24t-24 -61z" />
    <glyph glyph-name="ugrave" unicode="&#xf9;" horiz-adv-x="526" 
d="M349 38h-2q-56 -47 -139 -47q-79 0 -127 49t-48 131v223q0 5 6 11t11 6h134q5 0 11 -6t6 -11v-210q0 -23 14 -39q13 -15 36 -15q50 0 71 44v219q0 5 6 11t11 6h134q5 0 11 -6t6 -11v-376q0 -5 -6 -11t-11 -6h-100q-11 0 -17 17zM117 653l31 26q13 13 31 13q20 0 36 -22
l102 -150q6 -8 6 -12q0 -9 -10 -9h-63q-19 0 -26 7l-103 88q-16 13 -16 32q0 15 12 27z" />
    <glyph glyph-name="uacute" unicode="&#xfa;" horiz-adv-x="526" 
d="M349 38h-2q-56 -47 -139 -47q-79 0 -127 49t-48 131v223q0 5 6 11t11 6h134q5 0 11 -6t6 -11v-210q0 -23 14 -39q13 -15 36 -15q50 0 71 44v219q0 5 6 11t11 6h134q5 0 11 -6t6 -11v-376q0 -5 -6 -11t-11 -6h-100q-11 0 -17 17zM400 680l31 -26q12 -12 12 -27
q0 -19 -16 -32l-103 -88q-7 -7 -26 -7h-63q-10 0 -10 9q0 5 6 12l102 150q16 22 36 22q18 0 31 -13z" />
    <glyph glyph-name="ucircumflex" unicode="&#xfb;" horiz-adv-x="526" 
d="M349 38h-2q-56 -47 -139 -47q-79 0 -127 49t-48 131v223q0 5 6 11t11 6h134q5 0 11 -6t6 -11v-210q0 -23 14 -39q13 -15 36 -15q50 0 71 44v219q0 5 6 11t11 6h134q5 0 11 -6t6 -11v-376q0 -5 -6 -11t-11 -6h-100q-11 0 -17 17zM265 567l-102 -66q-13 -9 -24 -9
q-7 0 -18 8l-26 20q-10 9 -10 17q0 9 12 21l101 97q32 32 62 32h10q30 0 62 -32l101 -97q12 -12 12 -21q0 -8 -10 -17l-26 -20q-11 -8 -18 -8q-11 0 -24 9z" />
    <glyph glyph-name="udieresis" unicode="&#xfc;" horiz-adv-x="526" 
d="M349 38h-2q-56 -47 -139 -47q-79 0 -127 49t-48 131v223q0 5 6 11t11 6h134q5 0 11 -6t6 -11v-210q0 -23 14 -39q13 -15 36 -15q50 0 71 44v219q0 5 6 11t11 6h134q5 0 11 -6t6 -11v-376q0 -5 -6 -11t-11 -6h-100q-11 0 -17 17zM84 572l-4 -4q0 33 23 56t56 23
q34 0 56 -22q23 -23 23 -55q0 -33 -22 -55t-55 -22q-32 0 -55 23q-22 22 -22 56zM286 568l-4 -4q0 33 23 56t56 23q34 0 56 -22q23 -23 23 -55q0 -33 -22 -55t-55 -22q-32 0 -55 23q-22 22 -22 56z" />
    <glyph glyph-name="yacute" unicode="&#xfd;" horiz-adv-x="545" 
d="M105 -224l92 224l-182 387q-5 12 -5 15q0 8 9 8h149q18 0 24 -13l69 -150l15 -44h2l80 194q6 13 21 13h147q8 0 8 -8q0 -7 -5 -18l-253 -622q-4 -12 -21 -12h-147q-8 0 -8 8q0 7 5 18zM404 680l31 -26q12 -12 12 -27q0 -19 -16 -32l-103 -88q-7 -7 -26 -7h-63
q-10 0 -10 9q0 5 6 12l102 150q16 22 36 22q18 0 31 -13z" />
    <glyph glyph-name="thorn" unicode="&#xfe;" horiz-adv-x="545" 
d="M204 643v-258h3q49 35 109 35q90 0 145 -60q55 -59 55 -154q0 -96 -57 -156q-56 -59 -142 -59q-64 0 -111 30h-2v-253q0 -5 -6 -11t-11 -6h-134q-5 0 -11 6t-6 11v875q0 5 6 11t11 6h134q5 0 11 -6t6 -11zM348 206l-1 1q0 31 -20 53q-19 21 -51 21q-26 0 -45 -13
q-20 -14 -27 -31v-80q29 -26 71 -26q31 0 52 21t21 54z" />
    <glyph glyph-name="ydieresis" unicode="&#xff;" horiz-adv-x="545" 
d="M105 -224l92 224l-182 387q-5 12 -5 15q0 8 9 8h149q18 0 24 -13l69 -150l15 -44h2l80 194q6 13 21 13h147q8 0 8 -8q0 -7 -5 -18l-253 -622q-4 -12 -21 -12h-147q-8 0 -8 8q0 7 5 18zM96 573l-4 -4q0 33 23 56t56 23q34 0 56 -22q23 -23 23 -55q0 -33 -22 -55t-55 -22
q-32 0 -55 23q-22 22 -22 56zM298 569l-4 -4q0 33 23 56t56 23q34 0 56 -22q23 -23 23 -55q0 -33 -22 -55t-55 -22q-32 0 -55 23q-22 22 -22 56z" />
    <glyph glyph-name="Amacron" unicode="&#x100;" 
d="M527 13l-29 67h-262l-29 -67q-6 -13 -21 -13h-168q-8 0 -8 7q0 3 4 12l269 581h168l269 -581q4 -7 4 -12q0 -7 -8 -7h-168q-15 0 -21 13zM325 283l-27 -61h138l-27 61l-39 114h-6q-22 -77 -39 -114zM497 655h-259v100h259v-100z" />
    <glyph glyph-name="amacron" unicode="&#x101;" horiz-adv-x="522" 
d="M322 236l2 14q0 51 -58 51q-34 0 -43 -26q-5 -12 -18 -12h-132q-4 0 -10 6t-6 11v5q0 17 5 35q4 16 18 36t36 33q24 15 61 23q39 9 89 9q105 0 165 -54t60 -138v-212q0 -5 -6 -11t-11 -6h-105q-13 0 -21 17l-9 20h-3q-59 -46 -145 -46q-76 0 -117 34q-42 35 -42 90
q0 53 45 89q50 40 133 36l111 -5zM244 99h-1q44 0 81 28v24h-79q-42 0 -42 -25q0 -27 41 -27zM400 509h-259v100h259v-100z" />
    <glyph glyph-name="Abreve" unicode="&#x102;" 
d="M527 13l-29 67h-262l-29 -67q-6 -13 -21 -13h-168q-8 0 -8 7q0 3 4 12l269 581h168l269 -581q4 -7 4 -12q0 -7 -8 -7h-168q-15 0 -21 13zM325 283l-27 -61h138l-27 61l-39 114h-6q-22 -77 -39 -114zM368 651v-1q-70 0 -111 39q-40 39 -40 99q0 17 14 17h76q5 0 8 -4
q3 -5 3 -9q0 -22 14 -36q13 -13 36 -13q22 0 36 14t14 36q0 5 3 9t8 4h76q14 0 14 -17q0 -60 -40 -99q-41 -39 -111 -39z" />
    <glyph glyph-name="abreve" unicode="&#x103;" horiz-adv-x="522" 
d="M322 236l2 14q0 51 -58 51q-34 0 -43 -26q-5 -12 -18 -12h-132q-4 0 -10 6t-6 11v5q0 17 5 35q4 16 18 36t36 33q24 15 61 23q39 9 89 9q105 0 165 -54t60 -138v-212q0 -5 -6 -11t-11 -6h-105q-13 0 -21 17l-9 20h-3q-59 -46 -145 -46q-76 0 -117 34q-42 35 -42 90
q0 53 45 89q50 40 133 36l111 -5zM244 99h-1q44 0 81 28v24h-79q-42 0 -42 -25q0 -27 41 -27zM263 492v-1q-71 0 -111 39t-40 99q0 17 14 17h76q5 0 8 -4t3 -9q0 -22 14 -36q13 -13 36 -13q22 0 36 14t14 36q0 4 3 9q3 4 8 4h76q14 0 14 -17q0 -60 -40 -99t-111 -39z" />
    <glyph glyph-name="Aogonek" unicode="&#x104;" 
d="M527 13l-29 67h-262l-29 -67q-6 -13 -21 -13h-168q-8 0 -8 7q0 3 4 12l269 581h168l269 -581q4 -7 4 -12q0 -7 -8 -7h-168q-15 0 -21 13zM325 283l-27 -61h138l-27 61l-39 114h-6q-22 -77 -39 -114zM720 -132l-1 2q7 -28 7 -51q0 -10 -12 -16q-24 -12 -65 -12
q-54 0 -85 26q-30 25 -30 69q0 62 59 116h97q-48 -57 -48 -95q0 -31 34 -31q3 0 15 2q3 0 7 1l4 1q15 2 18 -12z" />
    <glyph glyph-name="aogonek" unicode="&#x105;" horiz-adv-x="522" 
d="M322 236l2 14q0 51 -58 51q-34 0 -43 -26q-5 -12 -18 -12h-132q-4 0 -10 6t-6 11v5q0 17 5 35q4 16 18 36t36 33q24 15 61 23q39 9 89 9q105 0 165 -54t60 -138v-212q0 -5 -6 -11t-11 -6h-105q-13 0 -21 17l-9 20h-3q-59 -46 -145 -46q-76 0 -117 34q-42 35 -42 90
q0 53 45 89q50 40 133 36l111 -5zM244 99h-1q44 0 81 28v24h-79q-42 0 -42 -25q0 -27 41 -27zM507 -131l-1 2q7 -28 7 -51q0 -10 -12 -16q-24 -12 -65 -12q-54 0 -85 26q-30 26 -30 69q0 62 59 116h97q-48 -57 -48 -95q0 -31 34 -31q3 0 15 2q3 1 7 1q3 1 4 1q15 1 18 -12z
" />
    <glyph glyph-name="Cacute" unicode="&#x106;" horiz-adv-x="699" 
d="M652 347l-148 -1q-14 0 -18 16q-10 43 -44 69t-85 26q-62 0 -105 -43t-43 -115q0 -71 42 -115q42 -43 105 -43q104 0 129 88q4 16 21 16h143q18 0 18 -14q0 -97 -84 -169q-83 -71 -227 -71q-141 0 -234 86q-94 87 -94 222q0 133 95 222t234 89t225 -73q87 -73 87 -174
q0 -16 -17 -16zM451 831l31 -26q12 -12 12 -27q0 -19 -16 -32l-103 -88q-7 -7 -26 -7h-63q-10 0 -10 9q0 4 6 12l102 150q16 22 36 22q18 0 31 -13z" />
    <glyph glyph-name="cacute" unicode="&#x107;" horiz-adv-x="531" 
d="M501 268h-1q1 -4 1 -16q0 -8 -7 -15t-15 -7h-125q-12 0 -19 12l-5 9q-18 33 -58 33q-34 0 -55 -22t-21 -54q0 -33 25 -55t64 -22q52 0 112 39q19 13 33 13q16 0 27 -17l36 -56q6 -10 6 -19q0 -18 -32 -42q-75 -57 -189 -57q-107 0 -177 60q-72 62 -72 157t72 153
q73 59 172 59t159 -45t69 -108zM401 680l31 -26q12 -12 12 -27q0 -19 -16 -32l-103 -88q-7 -7 -26 -7h-63q-10 0 -10 9q0 5 6 12l102 150q16 22 36 22q18 0 31 -13z" />
    <glyph glyph-name="Ccircumflex" unicode="&#x108;" horiz-adv-x="699" 
d="M652 347l-148 -1q-14 0 -18 16q-10 43 -44 69t-85 26q-62 0 -105 -43t-43 -115q0 -71 42 -115q42 -43 105 -43q104 0 129 88q4 16 21 16h143q18 0 18 -14q0 -97 -84 -169q-83 -71 -227 -71q-141 0 -234 86q-94 87 -94 222q0 133 95 222t234 89t225 -73q87 -73 87 -174
q0 -16 -17 -16zM352 716l-102 -66q-14 -9 -24 -9q-7 0 -18 8l-26 20q-10 9 -10 17q0 9 12 21l101 97q32 32 62 32h10q30 0 62 -32l101 -97q12 -12 12 -21q0 -8 -10 -17l-26 -20q-11 -8 -18 -8q-10 0 -24 9z" />
    <glyph glyph-name="ccircumflex" unicode="&#x109;" horiz-adv-x="531" 
d="M276 567l-102 -66q-14 -9 -24 -9q-7 0 -18 8l-26 20q-10 9 -10 17q0 9 12 21l101 97q32 32 62 32h10q30 0 62 -32l101 -97q12 -12 12 -21q0 -8 -10 -17l-26 -20q-11 -8 -18 -8q-10 0 -24 9zM501 268h-1q1 -4 1 -16q0 -8 -7 -15t-15 -7h-125q-12 0 -19 12l-5 9
q-18 33 -58 33q-34 0 -55 -22t-21 -54q0 -33 25 -55t64 -22q52 0 112 39q19 13 33 13q16 0 27 -17l36 -56q6 -10 6 -19q0 -18 -32 -42q-75 -57 -189 -57q-107 0 -177 60q-72 62 -72 157t72 153q73 59 172 59t159 -45t69 -108z" />
    <glyph glyph-name="Cdotaccent" unicode="&#x10a;" horiz-adv-x="699" 
d="M652 347l-148 -1q-14 0 -18 16q-10 43 -44 69t-85 26q-62 0 -105 -43t-43 -115q0 -71 42 -115q42 -43 105 -43q104 0 129 88q4 16 21 16h143q18 0 18 -14q0 -97 -84 -169q-83 -71 -227 -71q-141 0 -234 86q-94 87 -94 222q0 133 95 222t234 89t225 -73q87 -73 87 -174
q0 -16 -17 -16zM273 735l-4 -4q0 33 23 56t56 23q34 0 56 -22q23 -23 23 -55q0 -33 -22 -55t-55 -22q-32 0 -55 23q-22 22 -22 56z" />
    <glyph glyph-name="cdotaccent" unicode="&#x10b;" horiz-adv-x="531" 
d="M501 268h-1q1 -4 1 -16q0 -8 -7 -15t-15 -7h-125q-12 0 -19 12l-5 9q-18 33 -58 33q-34 0 -55 -22t-21 -54q0 -33 25 -55t64 -22q52 0 112 39q19 13 33 13q16 0 27 -17l36 -56q6 -10 6 -19q0 -18 -32 -42q-75 -57 -189 -57q-107 0 -177 60q-72 62 -72 157t72 153
q73 59 172 59t159 -45t69 -108zM201 577l-4 -4q0 33 23 56t56 23q34 0 56 -22q23 -23 23 -55q0 -33 -22 -55t-55 -22q-32 0 -55 23q-22 22 -22 56z" />
    <glyph glyph-name="Ccaron" unicode="&#x10c;" horiz-adv-x="699" 
d="M652 347l-148 -1q-14 0 -18 16q-10 43 -44 69t-85 26q-62 0 -105 -43t-43 -115q0 -71 42 -115q42 -43 105 -43q104 0 129 88q4 16 21 16h143q18 0 18 -14q0 -97 -84 -169q-83 -71 -227 -71q-141 0 -234 86q-94 87 -94 222q0 133 95 222t234 89t225 -73q87 -73 87 -174
q0 -16 -17 -16zM352 757l101 66q13 9 24 9q7 0 18 -8l26 -20q10 -9 10 -17q0 -9 -12 -21l-96 -92q-29 -29 -66 -29h-10q-39 0 -68 29l-95 92q-12 12 -12 21q0 8 10 17l26 20q11 8 18 8q10 0 24 -9z" />
    <glyph glyph-name="ccaron" unicode="&#x10d;" horiz-adv-x="531" 
d="M275 603l101 66q14 9 24 9q7 0 18 -8l26 -20q10 -9 10 -17q0 -9 -12 -21l-96 -92q-29 -29 -66 -29h-10q-39 0 -68 29l-95 92q-12 12 -12 21q0 8 10 17l26 20q11 8 18 8q11 0 24 -9zM500 268h-1q1 -4 1 -16q0 -8 -7 -15t-15 -7h-125q-12 0 -19 12l-5 9q-18 33 -58 33
q-34 0 -55 -22t-21 -54q0 -33 25 -55t64 -22q52 0 112 39q19 13 33 13q16 0 27 -17l36 -56q6 -10 6 -19q0 -18 -32 -42q-75 -57 -189 -57q-107 0 -177 60q-72 62 -72 157t72 153q73 59 172 59t159 -45t69 -108z" />
    <glyph glyph-name="Dcaron" unicode="&#x10e;" horiz-adv-x="696" 
d="M331 0h-263q-6 0 -8 3q-3 5 -3 9v576q0 4 3 9q3 4 8 4h260q149 0 243 -82t94 -219q0 -138 -87 -219t-247 -81zM328 447l-91 1v-296h93q77 0 116 39t39 109q0 69 -43 108q-42 37 -114 39zM312 758l101 66q13 9 24 9q7 0 18 -8l26 -20q10 -9 10 -17q0 -9 -12 -21l-96 -92
q-29 -29 -66 -29h-10q-39 0 -68 29l-95 92q-12 12 -12 21q0 8 10 17l26 20q11 8 18 8q10 0 24 -9z" />
    <glyph glyph-name="dcaron" unicode="&#x10f;" horiz-adv-x="710" 
d="M341 396v247q0 5 6 11t11 6h134q5 0 11 -6t6 -11v-626q0 -5 -6 -11t-10 -6h-99q-11 0 -20 16l-11 21h-2q-52 -46 -127 -46q-86 0 -145 59q-60 60 -60 155q0 91 59 153t152 62q64 0 97 -24h4zM197 205l-1 2q0 -34 21 -55t53 -21q43 0 70 29v89q-9 14 -29 23q-19 9 -39 9
q-33 0 -54 -22q-21 -23 -21 -54zM548 597l-1 -4q0 33 23 56t54 23q35 0 59 -25t24 -75q0 -43 -21 -88q-19 -40 -59 -77q-16 -13 -24 -13q-11 0 -18 7l-28 25q-11 11 -11 18q0 6 7 13q41 37 45 66v2q-22 7 -36 27t-14 45z" />
    <glyph glyph-name="Dmacron" unicode="&#x110;" horiz-adv-x="697" 
d="M331 0h-263q-6 0 -8 3q-3 5 -3 9v249h-52v78h52v249q0 4 3 9q3 4 8 4h260q149 0 243 -82t94 -219q0 -138 -87 -219t-247 -81zM328 447l-91 1v-109h102v-78h-102v-109h93q77 0 116 39t39 109q0 69 -43 108q-42 37 -114 39z" />
    <glyph glyph-name="dmacron" unicode="&#x111;" horiz-adv-x="545" 
d="M204 482l1 78h136v83q0 5 6 11t11 6h134q5 0 11 -6t6 -11v-83h46v-78h-46v-465q0 -5 -6 -11t-11 -6h-99q-11 0 -20 16l-11 21h-2q-52 -46 -127 -46q-86 0 -145 59q-60 60 -60 155q0 91 59 153t152 62q64 0 97 -24h4v86h-136zM197 205l-1 2q0 -34 21 -55t53 -21
q43 0 70 29v89q-9 14 -29 23q-19 9 -39 9q-33 0 -54 -22q-21 -23 -21 -54z" />
    <glyph glyph-name="Emacron" unicode="&#x112;" horiz-adv-x="609" 
d="M531 232l-297 -2v-80h328q4 0 9 -5t5 -9v-124q0 -5 -4 -9t-9 -4h-496q-5 0 -8 3q-3 4 -3 9v576q0 5 3 9t8 4h492q4 0 9 -5t5 -9v-124q0 -5 -4 -9q-5 -5 -9 -5h-324v-74h294q4 0 9 -5t5 -9v-114q0 -5 -4 -9q-5 -5 -9 -5zM444 653h-259v100h259v-100z" />
    <glyph glyph-name="emacron" unicode="&#x113;" horiz-adv-x="541" 
d="M504 164l-306 -2q7 -46 96 -46q54 0 126 22q15 5 27 5q19 0 24 -17l14 -50q5 -20 5 -23q0 -15 -18 -24q-79 -40 -179 -40q-119 0 -192 58q-74 59 -74 156q0 90 69 153t179 63t173 -54t63 -134q0 -10 -2 -32q-2 -18 -3 -26zM277 304q-29 0 -51 -13t-27 -39h144
q-1 52 -66 52zM403 503h-259v100h259v-100z" />
    <glyph glyph-name="Ebreve" unicode="&#x114;" horiz-adv-x="609" 
d="M531 232l-297 -2v-80h328q4 0 9 -5t5 -9v-124q0 -5 -4 -9t-9 -4h-496q-5 0 -8 3q-3 4 -3 9v576q0 5 3 9t8 4h492q4 0 9 -5t5 -9v-124q0 -5 -4 -9q-5 -5 -9 -5h-324v-74h294q4 0 9 -5t5 -9v-114q0 -5 -4 -9q-5 -5 -9 -5zM315 649v-1q-71 0 -111 39t-40 99q0 17 14 17h76
q5 0 8 -4q3 -5 3 -9q0 -22 14 -36q13 -13 36 -13q22 0 36 14t14 36q0 5 3 9t8 4h76q14 0 14 -17q0 -60 -40 -99t-111 -39z" />
    <glyph glyph-name="ebreve" unicode="&#x115;" horiz-adv-x="541" 
d="M504 164l-306 -2q7 -46 96 -46q54 0 126 22q15 5 27 5q19 0 24 -17l14 -50q5 -20 5 -23q0 -15 -18 -24q-79 -40 -179 -40q-119 0 -192 58q-74 59 -74 156q0 90 69 153t179 63t173 -54t63 -134q0 -10 -2 -32q-2 -18 -3 -26zM277 304q-29 0 -51 -13t-27 -39h144
q-1 52 -66 52zM277 485v-1q-71 0 -111 39t-40 99q0 17 14 17h76q5 0 8 -4q3 -5 3 -9q0 -22 14 -36q13 -13 36 -13q22 0 36 14t14 36q0 5 3 9t8 4h76q14 0 14 -17q0 -60 -40 -99t-111 -39z" />
    <glyph glyph-name="Edotaccent" unicode="&#x116;" horiz-adv-x="609" 
d="M531 232l-297 -2v-80h328q4 0 9 -5t5 -9v-124q0 -5 -4 -9t-9 -4h-496q-5 0 -8 3q-3 4 -3 9v576q0 5 3 9t8 4h492q4 0 9 -5t5 -9v-124q0 -5 -4 -9q-5 -5 -9 -5h-324v-74h294q4 0 9 -5t5 -9v-114q0 -5 -4 -9q-5 -5 -9 -5zM237 734l-4 -4q0 33 23 56t56 23q34 0 56 -22
q23 -23 23 -55q0 -33 -22 -55t-55 -22q-32 0 -55 23q-22 22 -22 56z" />
    <glyph glyph-name="edotaccent" unicode="&#x117;" horiz-adv-x="541" 
d="M504 164l-306 -2q7 -46 96 -46q54 0 126 22q15 5 27 5q19 0 24 -17l14 -50q5 -20 5 -23q0 -15 -18 -24q-79 -40 -179 -40q-119 0 -192 58q-74 59 -74 156q0 90 69 153t179 63t173 -54t63 -134q0 -10 -2 -32q-2 -18 -3 -26zM277 304q-29 0 -51 -13t-27 -39h144
q-1 52 -66 52zM202 570l-4 -4q0 33 23 56t56 23q34 0 56 -22q23 -23 23 -55q0 -33 -22 -55t-55 -22q-32 0 -55 23q-22 22 -22 56z" />
    <glyph glyph-name="Eogonek" unicode="&#x118;" horiz-adv-x="609" 
d="M531 232l-297 -2v-80h328q4 0 9 -5t5 -9v-124q0 -5 -4 -9t-9 -4h-496q-5 0 -8 3q-3 4 -3 9v576q0 5 3 9t8 4h492q4 0 9 -5t5 -9v-124q0 -5 -4 -9q-5 -5 -9 -5h-324v-74h294q4 0 9 -5t5 -9v-114q0 -5 -4 -9q-5 -5 -9 -5zM586 -134l-1 2q7 -28 7 -51q0 -10 -12 -16
q-24 -12 -65 -12q-54 0 -85 26q-30 25 -30 69q0 62 59 116h97q-48 -57 -48 -95q0 -31 34 -31q3 0 15 2q3 0 7 1l4 1q15 2 18 -12z" />
    <glyph glyph-name="eogonek" unicode="&#x119;" horiz-adv-x="541" 
d="M504 164l-306 -2q7 -46 96 -46q54 0 126 22q15 5 27 5q19 0 24 -17l14 -50q5 -20 5 -23q0 -15 -18 -24q-79 -40 -179 -40q-119 0 -192 58q-74 59 -74 156q0 90 69 153t179 63t173 -54t63 -134q0 -10 -2 -32q-2 -18 -3 -26zM277 304q-29 0 -51 -13t-27 -39h144
q-1 52 -66 52zM374 -134l-1 2q7 -28 7 -51q0 -10 -12 -16q-24 -12 -65 -12q-54 0 -85 26q-30 25 -30 69q0 62 59 116h97q-48 -57 -48 -95q0 -31 34 -31q3 0 15 2q3 0 7 1l4 1q15 2 18 -12z" />
    <glyph glyph-name="Ecaron" unicode="&#x11a;" horiz-adv-x="609" 
d="M531 232l-297 -2v-80h328q4 0 9 -5t5 -9v-124q0 -5 -4 -9t-9 -4h-496q-5 0 -8 3q-3 4 -3 9v576q0 5 3 9t8 4h492q4 0 9 -5t5 -9v-124q0 -5 -4 -9q-5 -5 -9 -5h-324v-74h294q4 0 9 -5t5 -9v-114q0 -5 -4 -9q-5 -5 -9 -5zM316 741l101 66q13 9 24 9q7 0 18 -8l26 -20
q10 -9 10 -17q0 -9 -12 -21l-96 -92q-29 -29 -66 -29h-10q-39 0 -68 29l-95 92q-12 12 -12 21q0 8 10 17l26 20q11 8 18 8q10 0 24 -9z" />
    <glyph glyph-name="ecaron" unicode="&#x11b;" horiz-adv-x="541" 
d="M504 164l-306 -2q7 -46 96 -46q54 0 126 22q15 5 27 5q19 0 24 -17l14 -50q5 -20 5 -23q0 -15 -18 -24q-79 -40 -179 -40q-119 0 -192 58q-74 59 -74 156q0 90 69 153t179 63t173 -54t63 -134q0 -10 -2 -32q-2 -18 -3 -26zM277 304q-29 0 -51 -13t-27 -39h144
q-1 52 -66 52zM273 601l101 66q14 9 24 9q7 0 18 -8l26 -20q10 -9 10 -17q0 -9 -12 -21l-96 -92q-29 -29 -66 -29h-10q-39 0 -68 29l-95 92q-12 12 -12 21q0 8 10 17l26 20q11 8 18 8q11 0 24 -9z" />
    <glyph glyph-name="Gcircumflex" unicode="&#x11c;" horiz-adv-x="732" 
d="M702 352l-4 -77q-6 -127 -88 -205q-87 -83 -234 -83q-157 0 -252 89q-96 90 -96 221q0 133 96 222q97 89 243 89q138 0 225 -69t87 -144q0 -13 -18 -13h-140q-13 0 -21 11q-40 64 -133 64q-68 0 -114 -46t-46 -111q0 -70 48 -114q49 -44 122 -44q65 0 99 22q35 23 42 49
v1h-186q-4 0 -9 5q-4 4 -4 9v110q0 4 5 9t9 5h369zM365 712l-102 -66q-13 -9 -24 -9q-7 0 -18 8l-26 20q-10 9 -10 17q0 9 12 21l101 97q32 32 62 32h10q30 0 62 -32l101 -97q12 -12 12 -21q0 -8 -10 -17l-26 -20q-11 -8 -18 -8q-11 0 -24 9z" />
    <glyph glyph-name="gcircumflex" unicode="&#x11d;" horiz-adv-x="501" 
d="M44 248l-2 2q0 73 56 123q55 49 144 49q72 0 125 -38h3q36 38 92 38q27 0 27 -14v-90q0 -3 -4 -6q-5 -3 -9 -3h-7h-10q-16 0 -27 -8q10 -20 10 -51q0 -76 -53 -124t-147 -48q-38 0 -73 13q-9 -9 -9 -21q0 -29 44 -29h105q87 0 131 -38q44 -36 44 -95q0 -70 -57 -118
t-171 -48h-4q-104 0 -162 40q-59 41 -59 100q0 45 37 83v6q-41 29 -41 77q0 60 52 100q-35 46 -35 100zM190 250l-2 -2q0 -19 14 -31t39 -12t39 12t14 32t-13 32t-39 12t-39 -12t-13 -31zM277 -64h-70q-15 -14 -15 -30q0 -20 16 -30q17 -11 42 -11h8q29 0 44 12t15 29
q0 12 -10 21q-11 9 -30 9zM238 567l-102 -66q-14 -9 -24 -9q-7 0 -18 8l-26 20q-10 9 -10 17q0 9 12 21l101 97q32 32 62 32h10q30 0 62 -32l101 -97q12 -12 12 -21q0 -8 -10 -17l-26 -20q-11 -8 -18 -8q-10 0 -24 9z" />
    <glyph glyph-name="Gbreve" unicode="&#x11e;" horiz-adv-x="732" 
d="M702 352l-4 -77q-6 -127 -88 -205q-87 -83 -234 -83q-157 0 -252 89q-96 90 -96 221q0 133 96 222q97 89 243 89q138 0 225 -69t87 -144q0 -13 -18 -13h-140q-13 0 -21 11q-40 64 -133 64q-68 0 -114 -46t-46 -111q0 -70 48 -114q49 -44 122 -44q65 0 99 22q35 23 42 49
v1h-186q-4 0 -9 5q-4 4 -4 9v110q0 4 5 9t9 5h369zM364 646v-1q-70 0 -111 39q-40 39 -40 99q0 17 14 17h76q5 0 8 -4t3 -9q0 -22 14 -36q13 -13 36 -13q22 0 36 14t14 36q0 4 3 9q3 4 8 4h76q14 0 14 -17q0 -60 -40 -99q-41 -39 -111 -39z" />
    <glyph glyph-name="gbreve" unicode="&#x11f;" horiz-adv-x="501" 
d="M44 248l-2 2q0 73 56 123q55 49 144 49q72 0 125 -38h3q36 38 92 38q27 0 27 -14v-90q0 -3 -4 -6q-5 -3 -9 -3h-7h-10q-16 0 -27 -8q10 -20 10 -51q0 -76 -53 -124t-147 -48q-38 0 -73 13q-9 -9 -9 -21q0 -29 44 -29h105q87 0 131 -38q44 -36 44 -95q0 -70 -57 -118
t-171 -48h-4q-104 0 -162 40q-59 41 -59 100q0 45 37 83v6q-41 29 -41 77q0 60 52 100q-35 46 -35 100zM190 250l-2 -2q0 -19 14 -31t39 -12t39 12t14 32t-13 32t-39 12t-39 -12t-13 -31zM277 -64h-70q-15 -14 -15 -30q0 -20 16 -30q17 -11 42 -11h8q29 0 44 12t15 29
q0 12 -10 21q-11 9 -30 9zM241 491v-1q-71 0 -111 39t-40 99q0 17 14 17h76q5 0 8 -4q3 -5 3 -9q0 -22 14 -36q13 -13 36 -13q22 0 36 14t14 36q0 5 3 9t8 4h76q14 0 14 -17q0 -60 -40 -99t-111 -39z" />
    <glyph glyph-name="Gdotaccent" unicode="&#x120;" horiz-adv-x="732" 
d="M702 352l-4 -77q-6 -127 -88 -205q-87 -83 -234 -83q-157 0 -252 89q-96 90 -96 221q0 133 96 222q97 89 243 89q138 0 225 -69t87 -144q0 -13 -18 -13h-140q-13 0 -21 11q-40 64 -133 64q-68 0 -114 -46t-46 -111q0 -70 48 -114q49 -44 122 -44q65 0 99 22q35 23 42 49
v1h-186q-4 0 -9 5q-4 4 -4 9v110q0 4 5 9t9 5h369zM286 731l-4 -4q0 33 23 56t56 23q34 0 56 -22q23 -23 23 -55q0 -33 -22 -55t-55 -22q-32 0 -55 23q-22 22 -22 56z" />
    <glyph glyph-name="gdotaccent" unicode="&#x121;" horiz-adv-x="501" 
d="M44 248l-2 2q0 73 56 123q55 49 144 49q72 0 125 -38h3q36 38 92 38q27 0 27 -14v-90q0 -3 -4 -6q-5 -3 -9 -3h-7h-10q-16 0 -27 -8q10 -20 10 -51q0 -76 -53 -124t-147 -48q-38 0 -73 13q-9 -9 -9 -21q0 -29 44 -29h105q87 0 131 -38q44 -36 44 -95q0 -70 -57 -118
t-171 -48h-4q-104 0 -162 40q-59 41 -59 100q0 45 37 83v6q-41 29 -41 77q0 60 52 100q-35 46 -35 100zM190 250l-2 -2q0 -19 14 -31t39 -12t39 12t14 32t-13 32t-39 12t-39 -12t-13 -31zM277 -64h-70q-15 -14 -15 -30q0 -20 16 -30q17 -11 42 -11h8q29 0 44 12t15 29
q0 12 -10 21q-11 9 -30 9zM162 573l-4 -4q0 33 23 56t56 23q34 0 56 -22q23 -23 23 -55q0 -33 -22 -55t-55 -22q-32 0 -55 23q-22 22 -22 56z" />
    <glyph glyph-name="Gcommaaccent" unicode="&#x122;" horiz-adv-x="732" 
d="M702 352l-4 -77q-6 -127 -88 -205q-87 -83 -234 -83q-157 0 -252 89q-96 90 -96 221q0 133 96 222q97 89 243 89q138 0 225 -69t87 -144q0 -13 -18 -13h-140q-13 0 -21 11q-40 64 -133 64q-68 0 -114 -46t-46 -111q0 -70 48 -114q49 -44 122 -44q65 0 99 22q35 23 42 49
v1h-186q-4 0 -9 5q-4 4 -4 9v110q0 4 5 9t9 5h369zM287 -133q0 31 23 54t56 23q35 0 59 -26t24 -75q0 -59 -30 -105q-30 -47 -85 -66q-17 -6 -26 -6q-10 0 -15 9l-17 37q-3 8 -3 11q0 6 7 10q30 14 43 25q14 12 18 34v2q-24 4 -39 26q-15 21 -15 47z" />
    <glyph glyph-name="gcommaaccent" unicode="&#x123;" horiz-adv-x="501" 
d="M44 248l-2 2q0 73 56 123q55 49 144 49q72 0 125 -38h3q36 38 92 38q27 0 27 -14v-90q0 -3 -4 -6q-5 -3 -9 -3h-7h-10q-16 0 -27 -8q10 -20 10 -51q0 -76 -53 -124t-147 -48q-38 0 -73 13q-9 -9 -9 -21q0 -29 44 -29h105q87 0 131 -38q44 -36 44 -95q0 -70 -57 -118
t-171 -48h-4q-104 0 -162 40q-59 41 -59 100q0 45 37 83v6q-41 29 -41 77q0 60 52 100q-35 46 -35 100zM190 250l-2 -2q0 -19 14 -31t39 -12t39 12t14 32t-13 32t-39 12t-39 -12t-13 -31zM277 -64h-70q-15 -14 -15 -30q0 -20 16 -30q17 -11 42 -11h8q29 0 44 12t15 29
q0 12 -10 21q-11 9 -30 9zM319 560q0 -33 -22 -55t-54 -22q-35 0 -59 26q-24 25 -24 75q0 44 21 89q19 40 59 77q16 13 24 13q11 0 18 -7l28 -25q11 -11 11 -18q0 -6 -7 -13q-40 -38 -45 -66v-2q23 -8 36 -27q14 -20 14 -45z" />
    <glyph glyph-name="Hcircumflex" unicode="&#x124;" horiz-adv-x="756" 
d="M699 588v-576q0 -4 -3 -9q-2 -3 -8 -3h-156q-6 0 -8 3q-3 5 -3 9v194h-282v-194q0 -4 -3 -9q-2 -3 -8 -3h-156q-6 0 -8 3q-3 5 -3 9v576q0 4 3 9q3 4 8 4h156q5 0 8 -4q3 -5 3 -9v-230h282v230q0 4 3 9q3 4 8 4h156q5 0 8 -4q3 -5 3 -9zM374 717l-102 -66q-14 -9 -24 -9
q-7 0 -18 8l-26 20q-10 9 -10 17q0 9 12 21l101 97q32 32 62 32h10q30 0 62 -32l101 -97q12 -12 12 -21q0 -8 -10 -17l-26 -20q-11 -8 -18 -8q-10 0 -24 9z" />
    <glyph glyph-name="hcircumflex" unicode="&#x125;" horiz-adv-x="526" 
d="M204 643v-261h3q42 39 118 39q79 0 124 -46t45 -121v-236q0 -5 -6 -11t-11 -6h-134q-5 0 -11 6t-6 11v217q0 21 -14 33t-36 12q-50 0 -72 -46v-217q0 -5 -6 -11t-11 -6h-134q-5 0 -11 6t-6 11v626q0 5 6 11t11 6h134q5 0 11 -6t6 -11zM123 761l-102 -66q-13 -9 -23 -9
q-7 0 -18 8l-26 20q-10 9 -10 17q0 9 12 21l100 97q32 32 62 32h10q30 0 62 -32l101 -97q12 -12 12 -21q0 -8 -10 -17l-26 -20q-11 -8 -18 -8q-11 0 -24 9z" />
    <glyph glyph-name="Imacron" unicode="&#x12a;" horiz-adv-x="294" 
d="M237 588v-576q0 -4 -3 -9q-2 -3 -8 -3h-156q-6 0 -8 3q-3 5 -3 9v576q0 4 3 9q3 4 8 4h156q5 0 8 -4q3 -5 3 -9zM277 655h-259v100h259v-100z" />
    <glyph glyph-name="imacron" unicode="&#x12b;" horiz-adv-x="240" 
d="M204 393v-376q0 -5 -6 -11t-11 -6h-134q-5 0 -11 6t-6 11v376q0 5 6 11t11 6h134q5 0 11 -6t6 -11zM250 505h-258v100h258v-100z" />
    <glyph glyph-name="Iogonek" unicode="&#x12e;" horiz-adv-x="294" 
d="M227 -132l-1 2q7 -28 7 -51q0 -10 -12 -16q-24 -12 -65 -12q-54 0 -85 26q-30 25 -30 69q0 62 59 116h97q-48 -57 -48 -95q0 -31 34 -31q3 0 15 2q3 0 7 1q3 1 4 1q15 2 18 -12zM236 590v-576q0 -4 -3 -9q-3 -4 -8 -4h-156q-5 0 -8 4q-3 5 -3 9v576q0 4 3 9q3 4 8 4h156
q5 0 8 -4q3 -5 3 -9z" />
    <glyph glyph-name="iogonek" unicode="&#x12f;" horiz-adv-x="240" 
d="M204 393v-376q0 -5 -6 -11t-11 -6h-134q-5 0 -11 6t-6 11v376q0 5 6 11t11 6h134q5 0 11 -6t6 -11zM26 536l-2 -1q0 32 26 53t69 21t69 -21t26 -52q0 -32 -25 -54t-69 -22t-69 22t-25 54zM219 -133l-1 2q7 -28 7 -51q0 -10 -12 -16q-24 -12 -65 -12q-54 0 -85 26
q-30 26 -30 69q0 62 59 116h97q-48 -57 -48 -95q0 -31 34 -31q3 0 15 2q3 1 7 1q3 1 4 1q15 1 18 -12z" />
    <glyph glyph-name="Idotaccent" unicode="&#x130;" horiz-adv-x="294" 
d="M237 588v-576q0 -4 -3 -9q-2 -3 -8 -3h-156q-6 0 -8 3q-3 5 -3 9v576q0 4 3 9q3 4 8 4h156q5 0 8 -4q3 -5 3 -9zM69 736l-4 -4q0 33 23 56t56 23q34 0 56 -22q23 -23 23 -55q0 -33 -22 -55t-55 -22q-32 0 -55 23q-22 22 -22 56z" />
    <glyph glyph-name="dotlessi" unicode="&#x131;" horiz-adv-x="240" 
d="M204 393v-376q0 -5 -6 -11t-11 -6h-134q-5 0 -11 6t-6 11v376q0 5 6 11t11 6h134q5 0 11 -6t6 -11z" />
    <glyph glyph-name="Jcircumflex" unicode="&#x134;" horiz-adv-x="560" 
d="M188 224l-1 -7q0 -38 19 -57t51 -19q33 0 51 20q18 19 18 57v369q0 5 4 9t9 4h156q5 0 9 -4t4 -9v-361q0 -107 -64 -171t-186 -64q-113 0 -181 52q-69 53 -69 140v35q0 6 6 13t13 7h147q4 0 9 -5t5 -9zM413 716l-102 -66q-13 -9 -24 -9q-7 0 -18 8l-26 20q-10 9 -10 17
q0 9 12 21l101 97q32 32 62 32h10q30 0 62 -32l101 -97q12 -12 12 -21q0 -8 -10 -17l-26 -20q-11 -8 -18 -8q-11 0 -24 9z" />
    <glyph glyph-name="jcircumflex" unicode="&#x135;" horiz-adv-x="240" 
d="M-127 -189l32 74q7 16 19 16q4 0 16 -5q31 -14 45 -14q24 0 38 17t14 45v450q0 5 6 11t11 6h134q5 0 11 -6t6 -11v-432q0 -102 -48 -161t-142 -59q-79 0 -134 39q-11 8 -11 18q0 5 3 12zM120 568l-102 -66q-14 -9 -23 -9q-7 0 -18 8l-26 20q-10 9 -10 17q0 9 12 21
l100 97q32 32 62 32h10q30 0 62 -32l101 -97q12 -12 12 -21q0 -8 -10 -17l-26 -20q-11 -8 -18 -8q-10 0 -24 9z" />
    <glyph glyph-name="Kcommaaccent" unicode="&#x136;" horiz-adv-x="693" 
d="M664 575l-229 -242l243 -315q5 -7 5 -10q0 -8 -9 -8h-192q-13 0 -22 10l-149 192l-74 -78v-112q0 -4 -3 -9q-2 -3 -8 -3h-156q-6 0 -8 3q-3 5 -3 9v576q0 4 3 9q3 4 8 4h156q5 0 8 -4q3 -5 3 -9v-227h3q13 19 35 42l177 185q10 12 26 12h182q11 0 11 -10q0 -8 -7 -15z
M253 -128q0 31 23 54t56 23q35 0 59 -26q24 -25 24 -75q0 -58 -30 -105t-85 -66q-16 -6 -26 -6t-15 9l-17 37q-3 8 -3 11q0 6 7 10q30 14 43 25q14 12 18 34v2q-24 4 -39 26q-15 21 -15 47z" />
    <glyph glyph-name="kcommaaccent" unicode="&#x137;" horiz-adv-x="551" 
d="M339 18l-69 108h-1l-65 -77v-33q0 -5 -6 -11q-5 -5 -11 -5h-134q-6 0 -11 5q-6 6 -6 11v626q0 5 6 11t11 6h134q5 0 11 -6t6 -11v-384h4q10 18 24 33l86 102q13 16 39 16h155q12 0 12 -11q0 -8 -9 -18l-120 -143l138 -213q6 -9 6 -14q0 -10 -14 -10h-153q-22 0 -33 18z
M191 -129v-1q0 31 23 54t56 23q35 0 59 -26q24 -25 24 -75q0 -58 -30 -105t-85 -66q-16 -6 -26 -6t-15 9l-17 37q-3 7 -3 12q0 6 7 10q30 14 43 25q14 12 18 34v2q-24 4 -39 26q-15 21 -15 47z" />
    <glyph glyph-name="Lacute" unicode="&#x139;" horiz-adv-x="535" 
d="M237 588v-437h264q4 0 9 -5t5 -9v-124q0 -5 -4 -9t-9 -4h-432q-6 0 -8 3q-3 5 -3 9v576q0 4 3 9q3 4 8 4h156q5 0 8 -4q3 -5 3 -9zM262 830l31 -26q12 -12 12 -27q0 -19 -16 -32l-103 -88q-7 -7 -26 -7h-63q-10 0 -10 9q0 5 6 12l102 150q16 22 36 22q18 0 31 -13z" />
    <glyph glyph-name="lacute" unicode="&#x13a;" horiz-adv-x="240" 
d="M204 643v-626q0 -5 -6 -11t-11 -6h-134q-5 0 -11 6t-6 11v626q0 5 6 11t11 6h134q5 0 11 -6t6 -11zM244 880l31 -26q12 -12 12 -27q0 -19 -16 -32l-103 -88q-7 -7 -26 -7h-63q-10 0 -10 9q0 5 6 12l102 150q16 22 36 22q18 0 31 -13z" />
    <glyph glyph-name="Lcommaaccent" unicode="&#x13b;" horiz-adv-x="535" 
d="M237 588v-437h264q4 0 9 -5t5 -9v-124q0 -5 -4 -9t-9 -4h-432q-6 0 -8 3q-3 5 -3 9v576q0 4 3 9q3 4 8 4h156q5 0 8 -4q3 -5 3 -9zM225 -116l1 2q0 28 20 48t50 20q32 0 53 -24t21 -67q0 -52 -27 -94q-28 -44 -76 -60q-14 -5 -24 -5q-7 0 -12 8l-15 33q-3 7 -3 10
q0 5 6 9q26 11 39 23q11 10 16 30v2q-22 4 -36 23q-13 17 -13 42z" />
    <glyph glyph-name="lcommaaccent" unicode="&#x13c;" horiz-adv-x="240" 
d="M47 -128v-1q0 31 23 54t56 23q35 0 59 -26t24 -75q0 -59 -30 -105q-30 -47 -85 -66q-16 -6 -26 -6t-15 9l-17 37q-3 8 -3 12q0 6 7 10q30 14 43 25q14 12 18 34v2q-24 4 -39 26q-15 21 -15 47zM204 642v-626q0 -5 -6 -11q-5 -5 -11 -5h-134q-6 0 -11 5q-6 6 -6 11v626
q0 5 6 11t11 6h134q5 0 11 -6t6 -11z" />
    <glyph glyph-name="Lcaron" unicode="&#x13d;" horiz-adv-x="535" 
d="M237 588v-437h264q4 0 9 -5t5 -9v-124q0 -5 -4 -9t-9 -4h-432q-6 0 -8 3q-3 5 -3 9v576q0 4 3 9q3 4 8 4h156q5 0 8 -4q3 -5 3 -9zM296 547l1 1q0 26 18 44t44 18q28 0 48 -20t20 -60q0 -34 -18 -70q-18 -37 -48 -62q-11 -11 -20 -11q-8 0 -14 6l-22 20q-9 6 -9 13
q0 6 6 11q32 31 36 51v2q-18 4 -30 21t-12 36z" />
    <glyph glyph-name="lcaron" unicode="&#x13e;" horiz-adv-x="401" 
d="M240 595l-1 -4q0 33 23 56t54 23q35 0 59 -25t24 -75q0 -43 -21 -88q-19 -40 -59 -77q-16 -13 -24 -13q-11 0 -18 7l-28 25q-11 11 -11 18q0 6 7 13q41 37 45 66v2q-22 7 -36 27t-14 45zM203 639v-626q0 -5 -6 -11q-7 -5 -11 -5h-134q-4 0 -11 5q-6 6 -6 11v626q0 5 6 11
t11 6h134q5 0 11 -6t6 -11z" />
    <glyph glyph-name="Ldot" unicode="&#x13f;" horiz-adv-x="535" 
d="M237 588v-437h264q4 0 9 -5t5 -9v-124q0 -5 -4 -9t-9 -4h-432q-6 0 -8 3q-3 5 -3 9v576q0 4 3 9q3 4 8 4h156q5 0 8 -4q3 -5 3 -9zM294 318q0 30 20 50t50 20t50 -20t20 -50t-20 -50t-50 -20t-50 20t-20 50z" />
    <glyph glyph-name="ldot" unicode="&#x140;" horiz-adv-x="397" 
d="M204 643v-626q0 -5 -6 -11t-11 -6h-134q-5 0 -11 6t-6 11v626q0 5 6 11t11 6h134q5 0 11 -6t6 -11zM241 306l-4 -4q0 33 23 56t56 23q34 0 56 -22q23 -23 23 -55q0 -33 -22 -55t-55 -22q-32 0 -55 23q-22 22 -22 56z" />
    <glyph glyph-name="Lslash" unicode="&#x141;" horiz-adv-x="532" 
d="M37 186l-37 -19v86l57 27v307q0 5 3 9t8 4h156q5 0 8 -4t3 -9v-189l-2 -33l2 -1q13 8 23 13l80 38v-85l-103 -50v-129h264q4 0 9 -5t5 -9v-124q0 -5 -4 -9t-9 -4h-432q-6 0 -8 3q-3 5 -3 9v154l2 32l-1 1q-6 -4 -21 -13z" />
    <glyph glyph-name="lslash" unicode="&#x142;" horiz-adv-x="295" 
d="M10 144l-11 82l62 32v385q0 5 6 11t11 6h134q5 0 11 -6t6 -11v-289l-2 -20l2 -1q12 11 22 15l31 16l11 -82l-64 -32v-233q0 -5 -6 -11t-10 -6h-134q-4 0 -10 6t-6 11v136l1 19l-1 1q-12 -9 -18 -11z" />
    <glyph glyph-name="Nacute" unicode="&#x143;" horiz-adv-x="756" 
d="M552 0l-251 255l-60 68h-4v-311q0 -4 -3 -9q-2 -3 -8 -3h-156q-6 0 -8 3q-3 5 -3 9v576q0 4 3 9q3 4 8 4h135l257 -260l55 -62h3v310q0 5 3 9t8 4h156q5 0 8 -4t3 -9v-576q0 -5 -3 -9t-8 -4h-135zM484 832l31 -26q12 -12 12 -27q0 -19 -16 -32l-103 -88q-7 -7 -26 -7h-63
q-10 0 -10 9q0 5 6 12l102 150q16 22 36 22q18 0 31 -13z" />
    <glyph glyph-name="nacute" unicode="&#x144;" horiz-adv-x="526" 
d="M36 17l1 374q0 5 6 11t11 6h113q11 0 17 -17l8 -24h3q55 51 132 51q83 0 125 -45t42 -121v-236q0 -5 -6 -11q-5 -5 -11 -5h-134q-6 0 -11 5q-6 6 -6 11v217q0 22 -13 34q-14 12 -34 12q-23 0 -44 -12q-20 -12 -31 -33v-217q0 -5 -6 -11t-11 -6h-134q-5 0 -11 6t-6 11z
M376 678l31 -26q12 -12 12 -27q0 -19 -16 -32l-103 -88q-7 -7 -26 -7h-63q-10 0 -10 9q0 5 6 12l102 150q16 22 36 22q18 0 31 -13z" />
    <glyph glyph-name="Ncommaaccent" unicode="&#x145;" horiz-adv-x="756" 
d="M552 0l-251 255l-60 68h-4v-311q0 -4 -3 -9q-2 -3 -8 -3h-156q-6 0 -8 3q-3 5 -3 9v576q0 4 3 9q3 4 8 4h135l257 -260l55 -62h3v310q0 5 3 9t8 4h156q5 0 8 -4t3 -9v-576q0 -5 -3 -9t-8 -4h-135zM316 -115h2q0 28 20 48t50 20q32 0 53 -24t21 -67q0 -52 -27 -93
q-28 -41 -76 -59q-17 -6 -24 -6q-9 0 -13 9l-15 33q-3 6 -3 10t6 9q26 11 39 23q11 10 16 30v2q-22 4 -36 23q-13 17 -13 42z" />
    <glyph glyph-name="ncommaaccent" unicode="&#x146;" horiz-adv-x="526" 
d="M36 17l1 374q0 5 6 11t11 6h113q11 0 17 -17l8 -24h3q55 51 132 51q83 0 125 -45t42 -121v-236q0 -5 -6 -11q-5 -5 -11 -5h-134q-6 0 -11 5q-6 6 -6 11v217q0 22 -13 34q-14 12 -34 12q-23 0 -44 -12q-20 -12 -31 -33v-217q0 -5 -6 -11t-11 -6h-134q-5 0 -11 6t-6 11z
M196 -130v-1q0 31 23 54t56 23q35 0 59 -26t24 -75q0 -59 -30 -105q-30 -47 -85 -66q-16 -6 -26 -6q-11 0 -15 9l-17 37q-3 8 -3 12q0 6 7 10q30 14 43 25q14 12 18 34v2q-24 4 -39 26q-15 21 -15 47z" />
    <glyph glyph-name="Ncaron" unicode="&#x147;" horiz-adv-x="756" 
d="M552 0l-251 255l-60 68h-4v-311q0 -4 -3 -9q-2 -3 -8 -3h-156q-6 0 -8 3q-3 5 -3 9v576q0 4 3 9q3 4 8 4h135l257 -260l55 -62h3v310q0 5 3 9t8 4h156q5 0 8 -4t3 -9v-576q0 -5 -3 -9t-8 -4h-135zM385 758l101 66q14 9 24 9q7 0 18 -8l26 -20q10 -9 10 -17q0 -9 -12 -21
l-96 -92q-29 -29 -66 -29h-10q-39 0 -68 29l-95 92q-12 12 -12 21q0 8 10 17l26 20q11 8 18 8q11 0 24 -9z" />
    <glyph glyph-name="ncaron" unicode="&#x148;" horiz-adv-x="526" 
d="M36 17l1 374q0 5 6 11t11 6h113q11 0 17 -17l8 -24h3q55 51 132 51q83 0 125 -45t42 -121v-236q0 -5 -6 -11q-5 -5 -11 -5h-134q-6 0 -11 5q-6 6 -6 11v217q0 22 -13 34q-14 12 -34 12q-23 0 -44 -12q-20 -12 -31 -33v-217q0 -5 -6 -11t-11 -6h-134q-5 0 -11 6t-6 11z
M254 601l101 66q13 9 24 9q7 0 18 -8l26 -20q10 -9 10 -17q0 -9 -12 -21l-96 -92q-29 -29 -66 -29h-10q-39 0 -68 29l-95 92q-12 12 -12 21q0 8 10 17l26 20q11 8 18 8q10 0 24 -9z" />
    <glyph glyph-name="Omacron" unicode="&#x14c;" 
d="M367 610h-2q143 0 240 -84q98 -84 98 -225t-97 -225q-96 -83 -240 -83t-240 83q-97 84 -97 225t98 225q97 84 240 84zM365 458v-2q-65 0 -111 -43t-46 -114t46 -114t111 -43q64 0 111 44q46 43 46 114t-46 114q-47 44 -111 44zM494 653h-259v100h259v-100z" />
    <glyph glyph-name="omacron" unicode="&#x14d;" horiz-adv-x="550" 
d="M275 420v-2q103 0 174 -57t71 -157t-71 -157q-69 -56 -174 -56t-174 56q-71 57 -71 158t71 158t174 57zM353 203q0 32 -22 53q-23 21 -57 21t-57 -21q-22 -21 -22 -53t22 -53q23 -21 57 -21t57 21q22 21 22 53zM404 503h-259v100h259v-100z" />
    <glyph glyph-name="Obreve" unicode="&#x14e;" 
d="M367 610h-2q143 0 240 -84q98 -84 98 -225t-97 -225q-96 -83 -240 -83t-240 83q-97 84 -97 225t98 225q97 84 240 84zM365 458v-2q-65 0 -111 -43t-46 -114t46 -114t111 -43q64 0 111 44q46 43 46 114t-46 114q-47 44 -111 44zM365 649v-1q-71 0 -111 39t-40 99
q0 17 14 17h76q5 0 8 -4q3 -5 3 -9q0 -22 14 -36q13 -13 36 -13q22 0 36 14t14 36q0 5 3 9t8 4h76q14 0 14 -17q0 -60 -40 -99t-111 -39z" />
    <glyph glyph-name="obreve" unicode="&#x14f;" horiz-adv-x="550" 
d="M275 420v-2q103 0 174 -57t71 -157t-71 -157q-69 -56 -174 -56t-174 56q-71 57 -71 158t71 158t174 57zM353 203q0 32 -22 53q-23 21 -57 21t-57 -21q-22 -21 -22 -53t22 -53q23 -21 57 -21t57 21q22 21 22 53zM274 489v-1q-70 0 -111 39q-40 39 -40 99q0 17 14 17h76
q5 0 8 -4q3 -5 3 -9q0 -22 14 -36q13 -13 36 -13q22 0 36 14t14 36q0 5 3 9t8 4h76q14 0 14 -17q0 -60 -40 -99q-41 -39 -111 -39z" />
    <glyph glyph-name="Ohungarumlaut" unicode="&#x150;" 
d="M367 610h-2q143 0 240 -84q98 -84 98 -225t-97 -225q-96 -83 -240 -83t-240 83q-97 84 -97 225t98 225q97 84 240 84zM365 458v-2q-65 0 -111 -43t-46 -114t46 -114t111 -43q64 0 111 44q46 43 46 114t-46 114q-47 44 -111 44zM566 831l23 -19q12 -10 12 -27
q0 -16 -17 -33l-94 -91q-11 -11 -29 -11h-59q-10 0 -10 9q0 5 6 12l102 150q16 22 36 22q16 0 30 -12zM386 833l23 -19q12 -10 12 -27q0 -16 -17 -33l-94 -91q-11 -11 -29 -11h-59q-10 0 -10 9q0 5 6 12l102 150q16 22 36 22q16 0 30 -12z" />
    <glyph glyph-name="ohungarumlaut" unicode="&#x151;" horiz-adv-x="550" 
d="M275 420v-2q103 0 174 -57t71 -157t-71 -157q-69 -56 -174 -56t-174 56q-71 57 -71 158t71 158t174 57zM353 203q0 32 -22 53q-23 21 -57 21t-57 -21q-22 -21 -22 -53t22 -53q23 -21 57 -21t57 21q22 21 22 53zM496 679l23 -19q12 -10 12 -27q0 -16 -17 -33l-94 -91
q-11 -11 -29 -11h-59q-10 0 -10 9q0 5 6 12l102 150q16 22 36 22q16 0 30 -12zM316 681l23 -19q12 -10 12 -27q0 -16 -17 -33l-94 -91q-11 -11 -29 -11h-59q-10 0 -10 9q0 5 6 12l102 150q16 22 36 22q16 0 30 -12z" />
    <glyph glyph-name="OE" unicode="&#x152;" horiz-adv-x="1036" 
d="M367 610v1q44 0 90 -10h531q4 0 9 -5t5 -9v-124q0 -4 -5 -9t-9 -5h-277l-41 2l-2 -3q20 -38 27 -72h262q4 0 9 -5t5 -9v-114q0 -4 -5 -9t-9 -5h-261q-10 -45 -30 -81l2 -2q30 3 69 3h254q4 0 9 -5t5 -9v-124q0 -4 -5 -9t-9 -5h-535q-48 -9 -90 -9q-144 0 -240 83
q-97 84 -97 225t98 225q97 84 240 84zM367 459v-2q-65 0 -111 -43t-46 -114t46 -114t111 -43q64 0 111 44q46 43 46 114t-46 114q-47 44 -111 44z" />
    <glyph glyph-name="oe" unicode="&#x153;" horiz-adv-x="860" 
d="M823 164l-305 -1q7 -46 96 -46q54 0 126 22q15 5 27 5q19 0 24 -17l14 -50q5 -20 5 -23q0 -15 -18 -24q-79 -40 -179 -40q-113 0 -177 52h-4q-61 -52 -158 -52q-105 0 -174 56q-71 57 -71 158t71 158q70 57 174 57q95 0 157 -52h4q61 52 159 52q110 0 173 -54t63 -134
q0 -10 -2 -32q-2 -18 -3 -26zM353 204q0 32 -22 53q-23 21 -57 21t-57 -21q-22 -21 -22 -53t22 -53q23 -21 57 -21t57 21q22 21 22 53zM597 305q-29 0 -51 -13q-22 -14 -27 -39h144q-1 52 -66 52z" />
    <glyph glyph-name="Racute" unicode="&#x154;" horiz-adv-x="655" 
d="M57 12l-1 576q0 4 3 9q3 4 8 4h300q113 0 183 -61q71 -62 71 -162q0 -124 -116 -180v-2q11 -15 24 -35l90 -139q7 -10 7 -15q0 -7 -10 -7h-184q-11 0 -15 7l-101 158h-81v-153q0 -4 -3 -9q-2 -3 -8 -3h-156q-6 0 -8 3q-3 5 -3 9zM352 448l-116 -1v-141h116q41 0 66 20
q24 20 24 51t-24 51q-25 20 -66 20zM404 831l31 -26q12 -12 12 -27q0 -19 -16 -32l-103 -88q-7 -7 -26 -7h-63q-10 0 -10 9q0 4 6 12l102 150q16 22 36 22q18 0 31 -13z" />
    <glyph glyph-name="racute" unicode="&#x155;" horiz-adv-x="470" 
d="M253 280l1 -1q-17 0 -31 -13q-15 -13 -19 -31v-219q0 -5 -6 -11q-5 -5 -11 -5h-134q-6 0 -11 5q-6 6 -6 11v376q0 5 6 11t11 6h112q11 0 17 -17l14 -40h4q45 67 124 67q60 0 93 -34q33 -35 33 -102v-70q0 -5 -6 -11t-11 -6h-134q-5 0 -11 6t-6 11v35q0 32 -29 32z
M349 679l31 -26q12 -12 12 -27q0 -19 -16 -32l-103 -88q-7 -7 -26 -7h-63q-10 0 -10 9q0 4 6 12l102 150q16 22 36 22q18 0 31 -13z" />
    <glyph glyph-name="Rcommaaccent" unicode="&#x156;" horiz-adv-x="655" 
d="M57 12l-1 576q0 4 3 9q3 4 8 4h300q113 0 183 -61q71 -62 71 -162q0 -124 -116 -180v-2q11 -15 24 -35l90 -139q7 -10 7 -15q0 -7 -10 -7h-184q-11 0 -15 7l-101 158h-81v-153q0 -4 -3 -9q-2 -3 -8 -3h-156q-6 0 -8 3q-3 5 -3 9zM352 448l-116 -1v-141h116q41 0 66 20
q24 20 24 51t-24 51q-25 20 -66 20zM266 -116l1 2q0 28 20 48t50 20q32 0 53 -24t21 -67q0 -52 -27 -94q-28 -44 -76 -60q-14 -5 -24 -5q-7 0 -12 8l-15 33q-3 7 -3 10q0 5 6 9q26 11 39 23q11 10 16 30v2q-22 4 -36 23q-13 17 -13 42z" />
    <glyph glyph-name="rcommaaccent" unicode="&#x157;" horiz-adv-x="470" 
d="M253 280l1 -1q-17 0 -31 -13q-15 -13 -19 -31v-219q0 -5 -6 -11q-5 -5 -11 -5h-134q-6 0 -11 5q-6 6 -6 11v376q0 5 6 11t11 6h112q11 0 17 -17l14 -40h4q45 67 124 67q60 0 93 -34q33 -35 33 -102v-70q0 -5 -6 -11t-11 -6h-134q-5 0 -11 6t-6 11v35q0 32 -29 32z
M48 -129v-1q0 31 23 54t56 23q35 0 59 -26q24 -25 24 -75q0 -58 -30 -105t-85 -66q-16 -6 -26 -6q-11 0 -15 9l-17 37q-3 7 -3 12q0 6 7 10q30 14 43 25q14 12 18 34v2q-24 4 -39 26q-15 21 -15 47z" />
    <glyph glyph-name="Rcaron" unicode="&#x158;" horiz-adv-x="655" 
d="M57 12l-1 576q0 4 3 9q3 4 8 4h300q113 0 183 -61q71 -62 71 -162q0 -124 -116 -180v-2q11 -15 24 -35l90 -139q7 -10 7 -15q0 -7 -10 -7h-184q-11 0 -15 7l-101 158h-81v-153q0 -4 -3 -9q-2 -3 -8 -3h-156q-6 0 -8 3q-3 5 -3 9zM352 448l-116 -1v-141h116q41 0 66 20
q24 20 24 51t-24 51q-25 20 -66 20zM325 757l101 66q14 9 24 9q7 0 18 -8l26 -20q10 -9 10 -17q0 -9 -12 -21l-96 -92q-29 -29 -66 -29h-10q-39 0 -68 29l-95 92q-12 12 -12 21q0 8 10 17l26 20q11 8 18 8q11 0 24 -9z" />
    <glyph glyph-name="rcaron" unicode="&#x159;" horiz-adv-x="470" 
d="M253 280l1 -1q-17 0 -31 -13q-15 -13 -19 -31v-219q0 -5 -6 -11q-5 -5 -11 -5h-134q-6 0 -11 5q-6 6 -6 11v376q0 5 6 11t11 6h112q11 0 17 -17l14 -40h4q45 67 124 67q60 0 93 -34q33 -35 33 -102v-70q0 -5 -6 -11t-11 -6h-134q-5 0 -11 6t-6 11v35q0 32 -29 32z
M230 602l101 66q13 9 24 9q7 0 18 -8l26 -20q10 -9 10 -17q0 -9 -12 -21l-96 -92q-29 -29 -66 -29h-10q-39 0 -68 29l-95 92q-12 12 -12 21q0 8 10 17l26 20q11 8 18 8q10 0 24 -9z" />
    <glyph glyph-name="Sacute" unicode="&#x15a;" horiz-adv-x="644" 
d="M56 202l130 1q16 0 24 -17q22 -51 108 -51q113 0 113 52q0 32 -61 38l-149 14q-95 9 -144 48q-51 41 -51 111q0 91 75 151t206 60t201 -51t70 -124q0 -10 -6 -16t-16 -6h-136q-15 0 -21 13q-20 41 -90 41q-47 0 -74 -15t-27 -36q0 -29 52 -33l147 -14q205 -19 205 -171
q0 -87 -75 -147q-74 -59 -217 -59q-135 0 -211 50q-78 51 -78 128v8q0 11 7 18t18 7zM413 833l31 -26q12 -12 12 -27q0 -19 -16 -32l-103 -88q-7 -7 -26 -7h-63q-10 0 -10 9q0 4 6 12l102 150q16 22 36 22q18 0 31 -13z" />
    <glyph glyph-name="sacute" unicode="&#x15b;" horiz-adv-x="503" 
d="M53 136l117 -1q16 0 21 -12q7 -24 59 -24q25 0 39 8q13 7 13 18q0 21 -45 24l-88 7q-72 6 -108 35q-37 30 -37 81q0 62 59 104t158 42q100 0 152 -34q53 -35 53 -85q0 -7 -6 -13t-14 -6h-123q-13 0 -21 12q-11 17 -42 17q-23 0 -34 -7q-12 -8 -12 -18q0 -18 29 -20
l102 -8q146 -12 146 -120q0 -61 -55 -103q-54 -41 -165 -41q-107 0 -165 34t-58 87q0 9 7 16t18 7zM368 679l31 -26q12 -12 12 -27q0 -19 -16 -32l-103 -88q-7 -7 -26 -7h-63q-10 0 -10 9q0 4 6 12l102 150q16 22 36 22q18 0 31 -13z" />
    <glyph glyph-name="Scircumflex" unicode="&#x15c;" horiz-adv-x="644" 
d="M56 202l130 1q16 0 24 -17q22 -51 108 -51q113 0 113 52q0 32 -61 38l-149 14q-95 9 -144 48q-51 41 -51 111q0 91 75 151t206 60t201 -51t70 -124q0 -10 -6 -16t-16 -6h-136q-15 0 -21 13q-20 41 -90 41q-47 0 -74 -15t-27 -36q0 -29 52 -33l147 -14q205 -19 205 -171
q0 -87 -75 -147q-74 -59 -217 -59q-135 0 -211 50q-78 51 -78 128v8q0 11 7 18t18 7zM324 718l-102 -66q-14 -9 -24 -9q-7 0 -18 8l-26 20q-10 9 -10 17q0 9 12 21l101 97q32 32 62 32h10q30 0 62 -32l101 -97q12 -12 12 -21q0 -8 -10 -17l-26 -20q-11 -8 -18 -8
q-10 0 -24 9z" />
    <glyph glyph-name="scircumflex" unicode="&#x15d;" horiz-adv-x="503" 
d="M53 136l117 -1q16 0 21 -12q7 -24 59 -24q25 0 39 8q13 7 13 18q0 21 -45 24l-88 7q-72 6 -108 35q-37 30 -37 81q0 62 59 104t158 42q100 0 152 -34q53 -35 53 -85q0 -7 -6 -13t-14 -6h-123q-13 0 -21 12q-11 17 -42 17q-23 0 -34 -7q-12 -8 -12 -18q0 -18 29 -20
l102 -8q146 -12 146 -120q0 -61 -55 -103q-54 -41 -165 -41q-107 0 -165 34t-58 87q0 9 7 16t18 7zM241 566l-102 -66q-13 -9 -24 -9q-7 0 -18 8l-26 20q-10 9 -10 17q0 9 12 21l101 97q32 32 62 32h10q30 0 62 -32l101 -97q12 -12 12 -21q0 -8 -10 -17l-26 -20
q-11 -8 -18 -8q-11 0 -24 9z" />
    <glyph glyph-name="Scedilla" unicode="&#x15e;" horiz-adv-x="644" 
d="M56 202l130 1q16 0 24 -17q22 -51 108 -51q113 0 113 52q0 32 -61 38l-149 14q-95 9 -144 48q-51 41 -51 111q0 91 75 151t206 60t201 -51t70 -124q0 -10 -6 -16t-16 -6h-136q-15 0 -21 13q-20 41 -90 41q-47 0 -74 -15t-27 -36q0 -29 52 -33l147 -14q205 -19 205 -171
q0 -87 -75 -147q-74 -59 -217 -59q-135 0 -211 50q-78 51 -78 128v8q0 11 7 18t18 7zM237 -184l9 43q2 11 17 6q33 -9 73 -9q30 0 30 18q0 17 -23 17h-61q-23 0 -19 22l16 87h87l-2 -39h18q44 0 66 -24q23 -25 23 -61q0 -45 -32 -72q-31 -27 -99 -27q-52 0 -93 12
q-12 3 -12 12q0 7 2 15z" />
    <glyph glyph-name="scedilla" unicode="&#x15f;" horiz-adv-x="503" 
d="M53 136l117 -1q16 0 21 -12q7 -24 59 -24q25 0 39 8q13 7 13 18q0 21 -45 24l-88 7q-72 6 -108 35q-37 30 -37 81q0 62 59 104t158 42q100 0 152 -34q53 -35 53 -85q0 -7 -6 -13t-14 -6h-123q-13 0 -21 12q-11 17 -42 17q-23 0 -34 -7q-12 -8 -12 -18q0 -18 29 -20
l102 -8q146 -12 146 -120q0 -61 -55 -103q-54 -41 -165 -41q-107 0 -165 34t-58 87q0 9 7 16t18 7zM156 -186l9 43q2 11 17 6q33 -9 73 -9q30 0 30 18q0 17 -23 17h-61q-23 0 -19 22l16 88h87l-2 -40h18q43 0 66 -24q23 -25 23 -61q0 -45 -32 -72t-99 -27q-53 0 -93 12
q-12 3 -12 12q0 7 2 15z" />
    <glyph glyph-name="Scaron" unicode="&#x160;" horiz-adv-x="644" 
d="M56 202l130 1q16 0 24 -17q22 -51 108 -51q113 0 113 52q0 32 -61 38l-149 14q-95 9 -144 48q-51 41 -51 111q0 91 75 151t206 60t201 -51t70 -124q0 -10 -6 -16t-16 -6h-136q-15 0 -21 13q-20 41 -90 41q-47 0 -74 -15t-27 -36q0 -29 52 -33l147 -14q205 -19 205 -171
q0 -87 -75 -147q-74 -59 -217 -59q-135 0 -211 50q-78 51 -78 128v8q0 11 7 18t18 7zM324 759l101 66q13 9 24 9q7 0 18 -8l26 -20q10 -9 10 -17q0 -9 -12 -21l-96 -92q-29 -29 -66 -29h-10q-39 0 -68 29l-95 92q-12 12 -12 21q0 8 10 17l26 20q11 8 18 8q10 0 24 -9z" />
    <glyph glyph-name="scaron" unicode="&#x161;" horiz-adv-x="503" 
d="M53 136l117 -1q16 0 21 -12q7 -24 59 -24q25 0 39 8q13 7 13 18q0 21 -45 24l-88 7q-72 6 -108 35q-37 30 -37 81q0 62 59 104t158 42q100 0 152 -34q53 -35 53 -85q0 -7 -6 -13t-14 -6h-123q-13 0 -21 12q-11 17 -42 17q-23 0 -34 -7q-12 -8 -12 -18q0 -18 29 -20
l102 -8q146 -12 146 -120q0 -61 -55 -103q-54 -41 -165 -41q-107 0 -165 34t-58 87q0 9 7 16t18 7zM240 602l101 66q13 9 24 9q7 0 18 -8l26 -20q10 -9 10 -17q0 -9 -12 -21l-96 -92q-29 -29 -66 -29h-10q-39 0 -68 29l-95 92q-12 12 -12 21q0 8 10 17l26 20q11 8 18 8
q10 0 24 -9z" />
    <glyph glyph-name="Tcommaaccent" unicode="&#x162;" horiz-adv-x="630" 
d="M225 448h-202q-4 0 -9 5q-4 4 -4 9v124q0 4 5 9t9 5h576q4 0 9 -5t5 -9v-124q0 -5 -4 -9q-5 -5 -9 -5h-198v-436q0 -4 -3 -9q-2 -3 -8 -3h-156q-6 0 -8 3q-3 5 -3 9v436zM243 -115h1q0 28 20 48t50 20q32 0 53 -24t21 -67q0 -52 -27 -93q-28 -41 -76 -59q-17 -6 -24 -6
t-12 9l-15 33q-3 6 -3 10t6 9q26 11 39 23q11 10 16 30v2q-22 4 -36 23q-13 17 -13 42z" />
    <glyph glyph-name="tcommaaccent" unicode="&#x163;" horiz-adv-x="391" 
d="M65 270l-41 2q-4 0 -9 5t-5 9v112q0 4 5 9t9 5h41v93q0 5 6 11t11 6h134q5 0 11 -6t6 -11v-93h115q4 0 9 -5t5 -9v-112q0 -4 -5 -9t-9 -5h-115v-90q0 -52 48 -52q21 0 52 14q7 4 17 1t11 -10l16 -76q2 -14 2 -18q0 -14 -13 -21q-48 -29 -126 -29q-83 0 -128 42
q-47 44 -47 124v113zM141 -126v-1q0 31 23 54t56 23q35 0 59 -26t24 -75q0 -59 -30 -105q-30 -47 -85 -66q-16 -6 -26 -6t-15 9l-17 37q-3 8 -3 12q0 6 7 10q30 14 43 25q14 12 18 34v2q-24 4 -39 26q-15 21 -15 47z" />
    <glyph glyph-name="Tcaron" unicode="&#x164;" horiz-adv-x="630" 
d="M225 448h-202q-4 0 -9 5q-4 4 -4 9v124q0 4 5 9t9 5h576q4 0 9 -5t5 -9v-124q0 -5 -4 -9q-5 -5 -9 -5h-198v-436q0 -4 -3 -9q-2 -3 -8 -3h-156q-6 0 -8 3q-3 5 -3 9v436zM311 758l101 66q14 9 24 9q7 0 18 -8l26 -20q10 -9 10 -17q0 -9 -12 -21l-96 -92q-29 -29 -66 -29
h-10q-39 0 -68 29l-95 92q-12 12 -12 21q0 8 10 17l26 20q11 8 18 8q11 0 24 -9z" />
    <glyph glyph-name="tcaron" unicode="&#x165;" horiz-adv-x="391" 
d="M65 270l-41 2q-4 0 -9 5t-5 9v112q0 4 5 9t9 5h41v93q0 5 6 11t11 6h134q5 0 11 -6t6 -11v-93h115q4 0 9 -5t5 -9v-112q0 -4 -5 -9t-9 -5h-115v-90q0 -52 48 -52q21 0 52 14q7 4 17 1t11 -10l16 -76q2 -14 2 -18q0 -14 -13 -21q-48 -29 -126 -29q-83 0 -128 42
q-47 44 -47 124v113zM265 657l-1 -4q0 33 23 56t54 23q35 0 59 -25t24 -75q0 -43 -21 -88q-19 -40 -59 -77q-16 -13 -24 -13q-11 0 -18 7l-28 25q-11 11 -11 18q0 6 7 13q40 37 45 66v2q-23 7 -36 27q-14 20 -14 45z" />
    <glyph glyph-name="Utilde" unicode="&#x168;" horiz-adv-x="736" 
d="M264 651h-57q-21 0 -21 20q0 64 26 98q26 33 72 33q40 0 72 -19l36 -21q23 -14 36 -14q28 0 28 41q0 13 15 13h57q21 0 21 -20q0 -64 -26 -98q-25 -33 -72 -33q-40 0 -72 19l-36 21q-23 14 -36 14q-28 0 -28 -41q0 -13 -15 -13zM504 296l-5 291q0 5 4 9t9 4h156q5 0 9 -4
t4 -9v-295q0 -146 -84 -225q-82 -78 -232 -78q-149 0 -232 79q-84 80 -84 224v295q0 5 4 9t9 4h156q5 0 9 -4t4 -9v-292q0 -76 36 -115t100 -39q65 0 101 39q37 41 36 116z" />
    <glyph glyph-name="utilde" unicode="&#x169;" horiz-adv-x="526" 
d="M349 38h-2q-56 -47 -139 -47q-79 0 -127 49t-48 131v223q0 5 6 11t11 6h134q5 0 11 -6t6 -11v-210q0 -23 14 -39q13 -15 36 -15q50 0 71 44v219q0 5 6 11t11 6h134q5 0 11 -6t6 -11v-376q0 -5 -6 -11t-11 -6h-100q-11 0 -17 17zM158 499h-57q-21 0 -21 20q0 64 26 98
q26 33 72 33q40 0 72 -19l36 -21q23 -14 36 -14q28 0 28 41q0 13 15 13h57q21 0 21 -20q0 -64 -26 -98q-25 -33 -72 -33q-40 0 -72 19l-36 21q-23 14 -36 14q-28 0 -28 -41q0 -13 -15 -13z" />
    <glyph glyph-name="Umacron" unicode="&#x16a;" horiz-adv-x="736" 
d="M504 296l-5 291q0 5 4 9t9 4h156q5 0 9 -4t4 -9v-295q0 -146 -84 -225q-82 -78 -232 -78q-149 0 -232 79q-84 80 -84 224v295q0 5 4 9t9 4h156q5 0 9 -4t4 -9v-292q0 -76 36 -115t100 -39q65 0 101 39q37 41 36 116zM492 654h-259v100h259v-100z" />
    <glyph glyph-name="umacron" unicode="&#x16b;" horiz-adv-x="526" 
d="M349 38h-2q-56 -47 -139 -47q-79 0 -127 49t-48 131v223q0 5 6 11t11 6h134q5 0 11 -6t6 -11v-210q0 -23 14 -39q13 -15 36 -15q50 0 71 44v219q0 5 6 11t11 6h134q5 0 11 -6t6 -11v-376q0 -5 -6 -11t-11 -6h-100q-11 0 -17 17zM393 506h-259v100h259v-100z" />
    <glyph glyph-name="Ubreve" unicode="&#x16c;" horiz-adv-x="736" 
d="M504 296l-5 291q0 5 4 9t9 4h156q5 0 9 -4t4 -9v-295q0 -146 -84 -225q-82 -78 -232 -78q-149 0 -232 79q-84 80 -84 224v295q0 5 4 9t9 4h156q5 0 9 -4t4 -9v-292q0 -76 36 -115t100 -39q65 0 101 39q37 41 36 116zM363 650v-1q-71 0 -111 39t-40 99q0 17 14 17h76
q5 0 8 -4t3 -9q0 -22 14 -36q13 -13 36 -13q22 0 36 14t14 36q0 4 3 9q3 4 8 4h76q14 0 14 -17q0 -60 -40 -99t-111 -39z" />
    <glyph glyph-name="ubreve" unicode="&#x16d;" horiz-adv-x="526" 
d="M349 38h-2q-56 -47 -139 -47q-79 0 -127 49t-48 131v223q0 5 6 11t11 6h134q5 0 11 -6t6 -11v-210q0 -23 14 -39q13 -15 36 -15q50 0 71 44v219q0 5 6 11t11 6h134q5 0 11 -6t6 -11v-376q0 -5 -6 -11t-11 -6h-100q-11 0 -17 17zM265 491v-1q-71 0 -111 39t-40 99
q0 17 14 17h76q5 0 8 -4q3 -5 3 -9q0 -22 14 -36q13 -13 36 -13q22 0 36 14t14 36q0 5 3 9t8 4h76q14 0 14 -17q0 -60 -40 -99t-111 -39z" />
    <glyph glyph-name="Uring" unicode="&#x16e;" horiz-adv-x="736" 
d="M504 296l-5 291q0 5 4 9t9 4h156q5 0 9 -4t4 -9v-295q0 -146 -84 -225q-82 -78 -232 -78q-149 0 -232 79q-84 80 -84 224v295q0 5 4 9t9 4h156q5 0 9 -4t4 -9v-292q0 -76 36 -115t100 -39q65 0 101 39q37 41 36 116zM244 742l-1 -3q0 47 33 78q34 32 86 32q54 0 86 -31
q33 -32 33 -78q0 -44 -33 -76q-32 -31 -85 -31q-52 0 -86 32q-33 31 -33 77zM328 739q0 -14 10 -23t24 -9q15 0 24 9t9 23q0 15 -9 24t-24 9q-14 0 -24 -9t-10 -24z" />
    <glyph glyph-name="uring" unicode="&#x16f;" horiz-adv-x="526" 
d="M349 38h-2q-56 -47 -139 -47q-79 0 -127 49t-48 131v223q0 5 6 11t11 6h134q5 0 11 -6t6 -11v-210q0 -23 14 -39q13 -15 36 -15q50 0 71 44v219q0 5 6 11t11 6h134q5 0 11 -6t6 -11v-376q0 -5 -6 -11t-11 -6h-100q-11 0 -17 17zM146 603l-1 -3q0 46 33 78q34 32 86 32
q54 0 86 -31q33 -31 33 -78q0 -45 -33 -76q-32 -31 -85 -31q-52 0 -86 32q-33 32 -33 77zM230 600q0 -14 10 -23t24 -9q15 0 24 9t9 23q0 15 -9 24t-24 9q-14 0 -24 -9t-10 -24z" />
    <glyph glyph-name="Uhungarumlaut" unicode="&#x170;" horiz-adv-x="736" 
d="M504 296l-5 291q0 5 4 9t9 4h156q5 0 9 -4t4 -9v-295q0 -146 -84 -225q-82 -78 -232 -78q-149 0 -232 79q-84 80 -84 224v295q0 5 4 9t9 4h156q5 0 9 -4t4 -9v-292q0 -76 36 -115t100 -39q65 0 101 39q37 41 36 116zM574 832l23 -19q12 -11 12 -27t-17 -33l-94 -91
q-11 -11 -29 -11h-59q-10 0 -10 9q0 4 6 12l102 150q16 22 36 22q16 0 30 -12zM394 834l23 -19q12 -11 12 -27t-17 -33l-94 -91q-11 -11 -29 -11h-59q-10 0 -10 9q0 4 6 12l102 150q16 22 36 22q16 0 30 -12z" />
    <glyph glyph-name="uhungarumlaut" unicode="&#x171;" horiz-adv-x="526" 
d="M349 38h-2q-56 -47 -139 -47q-79 0 -127 49t-48 131v223q0 5 6 11t11 6h134q5 0 11 -6t6 -11v-210q0 -23 14 -39q13 -15 36 -15q50 0 71 44v219q0 5 6 11t11 6h134q5 0 11 -6t6 -11v-376q0 -5 -6 -11t-11 -6h-100q-11 0 -17 17zM478 681l23 -19q12 -10 12 -27
q0 -16 -17 -33l-94 -91q-11 -11 -29 -11h-59q-10 0 -10 9q0 5 6 12l102 150q16 22 36 22q16 0 30 -12zM298 683l23 -19q12 -10 12 -27q0 -16 -17 -33l-94 -91q-11 -11 -29 -11h-59q-10 0 -10 9q0 5 6 12l102 150q16 22 36 22q16 0 30 -12z" />
    <glyph glyph-name="Uogonek" unicode="&#x172;" horiz-adv-x="736" 
d="M504 296l-5 291q0 5 4 9t9 4h156q5 0 9 -4t4 -9v-295q0 -146 -84 -225q-82 -78 -232 -78q-149 0 -232 79q-84 80 -84 224v295q0 5 4 9t9 4h156q5 0 9 -4t4 -9v-292q0 -76 36 -115t100 -39q65 0 101 39q37 41 36 116zM499 -133l-1 2q7 -28 7 -51q0 -10 -12 -16
q-24 -12 -65 -12q-54 0 -85 26q-30 26 -30 69q0 62 59 116h97q-48 -57 -48 -95q0 -31 34 -31q3 0 15 2q3 1 7 1l4 1q15 1 18 -12z" />
    <glyph glyph-name="uogonek" unicode="&#x173;" horiz-adv-x="526" 
d="M349 38h-2q-56 -47 -139 -47q-79 0 -127 49t-48 131v223q0 5 6 11t11 6h134q5 0 11 -6t6 -11v-210q0 -23 14 -39q13 -15 36 -15q50 0 71 44v219q0 5 6 11t11 6h134q5 0 11 -6t6 -11v-376q0 -5 -6 -11t-11 -6h-100q-11 0 -17 17zM508 -132l-1 2q7 -28 7 -51q0 -10 -12 -16
q-24 -12 -65 -12q-54 0 -85 26q-30 25 -30 69q0 62 59 116h97q-48 -57 -48 -95q0 -31 34 -31q3 0 15 2q3 0 7 1l4 1q15 2 18 -12z" />
    <glyph glyph-name="Wcircumflex" unicode="&#x174;" horiz-adv-x="1050" 
d="M1037 582l-252 -580h-134l-112 279l-12 32h-2l-12 -32l-112 -279h-134l-253 582q-3 8 -3 11q0 7 8 7h166q16 0 22 -14l111 -250l24 -70h3q14 42 22 63l110 270h98l109 -270l23 -64h2q11 37 24 69l111 250q6 14 22 14h166q8 0 8 -7q0 -3 -3 -11zM525 719l-102 -66
q-13 -9 -24 -9q-7 0 -18 8l-26 20q-10 9 -10 17q0 9 12 21l101 97q32 32 62 32h10q30 0 62 -32l101 -97q12 -12 12 -21q0 -8 -10 -17l-26 -20q-11 -8 -18 -8q-11 0 -24 9z" />
    <glyph glyph-name="wcircumflex" unicode="&#x175;" horiz-adv-x="728" 
d="M185 396l39 -108l15 -66h4q10 49 16 66l47 122h118l46 -122l16 -65h4q13 59 15 66l39 107q5 14 20 14h147q8 0 8 -7q0 -1 -2 -9l-154 -394h-132l-47 120l-17 60h-4q-11 -40 -18 -60l-47 -120h-133l-153 394q-2 8 -2 9q0 7 8 7h147q15 0 20 -14zM367 566l-102 -66
q-13 -9 -24 -9q-7 0 -18 8l-26 20q-10 9 -10 17q0 9 12 21l101 97q32 32 62 32h10q30 0 62 -32l101 -97q12 -12 12 -21q0 -8 -10 -17l-26 -20q-11 -8 -18 -8q-11 0 -24 9z" />
    <glyph glyph-name="Ycircumflex" unicode="&#x176;" horiz-adv-x="664" 
d="M422 230l2 -219q0 -5 -4 -9q-4 -3 -9 -3h-156q-5 0 -9 3q-4 4 -4 9v218l-227 353q-5 8 -5 12q0 6 6 6h182q16 0 24 -12l80 -132l28 -54h4q10 25 28 54l80 132q8 12 24 12h181q7 0 7 -6q0 -3 -5 -11zM335 716l-102 -66q-13 -9 -24 -9q-7 0 -18 8l-26 20q-10 9 -10 17
q0 9 12 21l101 97q32 32 62 32h10q30 0 62 -32l101 -97q12 -12 12 -21q0 -8 -10 -17l-26 -20q-11 -8 -18 -8q-11 0 -24 9z" />
    <glyph glyph-name="ycircumflex" unicode="&#x177;" horiz-adv-x="545" 
d="M105 -224l92 224l-182 387q-5 12 -5 15q0 8 9 8h149q18 0 24 -13l69 -150l15 -44h2l80 194q6 13 21 13h147q8 0 8 -8q0 -7 -5 -18l-253 -622q-4 -12 -21 -12h-147q-8 0 -8 8q0 7 5 18zM275 567l-102 -66q-13 -9 -24 -9q-7 0 -18 8l-26 20q-10 9 -10 17q0 9 12 21l101 97
q32 32 62 32h10q30 0 62 -32l101 -97q12 -12 12 -21q0 -8 -10 -17l-26 -20q-11 -8 -18 -8q-11 0 -24 9z" />
    <glyph glyph-name="Ydieresis" unicode="&#x178;" horiz-adv-x="664" 
d="M422 230l2 -219q0 -5 -4 -9q-4 -3 -9 -3h-156q-5 0 -9 3q-4 4 -4 9v218l-227 353q-5 8 -5 12q0 6 6 6h182q16 0 24 -12l80 -132l28 -54h4q10 25 28 54l80 132q8 12 24 12h181q7 0 7 -6q0 -3 -5 -11zM153 735l-4 -4q0 33 23 56t56 23q34 0 56 -22q23 -23 23 -55
q0 -33 -22 -55t-55 -22q-32 0 -55 23q-22 22 -22 56zM355 731l-4 -4q0 33 23 56t56 23q34 0 56 -22q23 -23 23 -55q0 -33 -22 -55t-55 -22q-32 0 -55 23q-22 22 -22 56z" />
    <glyph glyph-name="Zacute" unicode="&#x179;" horiz-adv-x="677" 
d="M20 0l-1 2l284 397l37 46v3h-287q-4 0 -9 5t-5 9v124q0 4 5 9t9 5h603v-2l-288 -403l-35 -41v-2h299q4 0 9 -5t5 -9v-124q0 -5 -4 -9q-5 -5 -9 -5h-613zM447 832l31 -26q12 -12 12 -27q0 -19 -16 -32l-103 -88q-7 -7 -26 -7h-63q-10 0 -10 9q0 5 6 12l102 150
q16 22 36 22q18 0 31 -13z" />
    <glyph glyph-name="zacute" unicode="&#x17a;" horiz-adv-x="475" 
d="M434 0h-415v7l141 220l31 41v2h-147q-4 0 -9 5q-4 4 -4 9v112q0 4 5 9t9 5h410v-9l-142 -219l-31 -40v-2h152q4 0 9 -5t5 -9v-112q0 -4 -5 -9t-9 -5zM370 680l31 -26q12 -12 12 -27q0 -19 -16 -32l-103 -88q-7 -7 -26 -7h-63q-10 0 -10 9q0 5 6 12l102 150q16 22 36 22
q18 0 31 -13z" />
    <glyph glyph-name="Zdotaccent" unicode="&#x17b;" horiz-adv-x="677" 
d="M20 0l-1 2l284 397l37 46v3h-287q-4 0 -9 5t-5 9v124q0 4 5 9t9 5h603v-2l-288 -403l-35 -41v-2h299q4 0 9 -5t5 -9v-124q0 -5 -4 -9q-5 -5 -9 -5h-613zM259 736l-4 -4q0 33 23 56t56 23q34 0 56 -22q23 -23 23 -55q0 -33 -22 -55t-55 -22q-32 0 -55 23q-22 22 -22 56z
" />
    <glyph glyph-name="zdotaccent" unicode="&#x17c;" horiz-adv-x="475" 
d="M434 0h-415v7l141 220l31 41v2h-147q-4 0 -9 5q-4 4 -4 9v112q0 4 5 9t9 5h410v-9l-142 -219l-31 -40v-2h152q4 0 9 -5t5 -9v-112q0 -4 -5 -9t-9 -5zM171 572l-4 -4q0 33 23 56t56 23q34 0 56 -22q23 -23 23 -55q0 -33 -22 -55t-55 -22q-32 0 -55 23q-22 22 -22 56z" />
    <glyph glyph-name="Zcaron" unicode="&#x17d;" horiz-adv-x="677" 
d="M20 0l-1 2l284 397l37 46v3h-287q-4 0 -9 5t-5 9v124q0 4 5 9t9 5h603v-2l-288 -403l-35 -41v-2h299q4 0 9 -5t5 -9v-124q0 -5 -4 -9q-5 -5 -9 -5h-613zM338 758l101 66q13 9 24 9q7 0 18 -8l26 -20q10 -9 10 -17q0 -9 -12 -21l-96 -92q-29 -29 -66 -29h-10q-39 0 -68 29
l-95 92q-12 12 -12 21q0 8 10 17l26 20q11 8 18 8q10 0 24 -9z" />
    <glyph glyph-name="zcaron" unicode="&#x17e;" horiz-adv-x="475" 
d="M434 0h-415v7l141 220l31 41v2h-147q-4 0 -9 5q-4 4 -4 9v112q0 4 5 9t9 5h410v-9l-142 -219l-31 -40v-2h152q4 0 9 -5t5 -9v-112q0 -4 -5 -9t-9 -5zM247 603l101 66q14 9 24 9q7 0 18 -8l26 -20q10 -9 10 -17q0 -9 -12 -21l-96 -92q-29 -29 -66 -29h-10q-39 0 -68 29
l-95 92q-12 12 -12 21q0 8 10 17l26 20q11 8 18 8q11 0 24 -9z" />
    <glyph glyph-name="florin" unicode="&#x192;" horiz-adv-x="460" 
d="M62 410l80 -1l15 80q17 85 70 132q54 48 138 48q55 0 99 -24q15 -7 15 -18q0 -8 -4 -17l-31 -76q-7 -18 -24 -11q-26 9 -39 9q-49 0 -61 -65l-11 -57h80q4 0 9 -5t5 -9v-112q0 -4 -5 -9t-9 -5h-107l-55 -281q-27 -133 -76 -188q-54 -60 -143 -60q-74 0 -119 39
q-8 8 -8 15q0 6 3 12l37 80q6 12 15 12q5 0 17 -6q23 -12 40 -12q24 0 38 20q13 19 21 62l59 307h-49q-4 0 -9 5t-5 9v112q0 4 5 9t9 5z" />
    <glyph glyph-name="AEacute" unicode="&#x1fc;" horiz-adv-x="928" 
d="M400 85l-161 -1l-34 -72q-5 -12 -20 -12h-168q-8 0 -8 6q0 5 4 12l267 561q9 20 27 20h573q4 0 9 -5t5 -9v-124q0 -5 -4 -9q-5 -5 -9 -5h-301v-74h271q4 0 9 -5t5 -9v-114q0 -5 -4 -9q-5 -5 -9 -5h-271v-80h304q4 0 9 -5t5 -9v-124q0 -4 -5 -9q-4 -4 -9 -4h-472
q-6 0 -9 3q-4 4 -4 9v73zM346 312l-44 -94h97v209h-11q-22 -72 -42 -115zM681 831l31 -26q12 -12 12 -27q0 -19 -16 -32l-103 -88q-7 -7 -26 -7h-63q-10 0 -10 9q0 4 6 12l102 150q16 22 36 22q18 0 31 -13z" />
    <glyph glyph-name="aeacute" unicode="&#x1fd;" horiz-adv-x="832" 
d="M795 164l-305 -2q7 -46 96 -46q54 0 126 22q15 5 27 5q19 0 24 -17l14 -50q5 -20 5 -23q0 -15 -18 -24q-79 -40 -179 -40q-116 0 -189 55h-3q-82 -55 -188 -55q-84 0 -128 35q-45 36 -45 92q0 53 45 89t133 36h112v7q0 51 -58 51q-34 0 -43 -26q-5 -12 -18 -12h-132
q-4 0 -10 6t-6 11v5q0 17 5 35q4 16 18 36t36 33q24 15 61 23q39 9 89 9q88 0 150 -44h2q65 44 150 44q110 0 173 -54t63 -134q0 -10 -2 -32q-2 -18 -3 -26zM242 98v1q52 0 90 34q-4 8 -7 25h-85q-39 0 -39 -29q0 -13 11 -22q10 -9 30 -9zM569 300v1q-29 0 -51 -15
q-23 -15 -27 -40h144q-1 54 -66 54zM562 680l31 -26q12 -12 12 -27q0 -19 -16 -32l-103 -88q-7 -7 -26 -7h-63q-10 0 -10 9q0 5 6 12l102 150q16 22 36 22q18 0 31 -13z" />
    <glyph glyph-name="Oslashacute" unicode="&#x1fe;" horiz-adv-x="735" 
d="M367 610l-2 -2q115 0 201 -55l55 55l55 -55l-50 -50q77 -83 77 -204q0 -141 -98 -225q-96 -83 -240 -83q-114 0 -198 53l-61 -60l-55 55l55 55q-77 86 -77 207q0 141 98 225q97 84 240 84zM365 457v1q-67 0 -111 -43q-45 -43 -45 -117q0 -46 21 -81l218 218
q-37 22 -83 22zM522 298h1q0 45 -21 81l-217 -218q39 -21 81 -21q65 0 111 44q45 44 45 114zM476 831l31 -26q12 -12 12 -27q0 -19 -16 -32l-103 -88q-7 -7 -26 -7h-63q-10 0 -10 9q0 4 6 12l102 150q16 22 36 22q18 0 31 -13z" />
    <glyph glyph-name="oslashacute" unicode="&#x1ff;" horiz-adv-x="550" 
d="M48 34l32 32q-51 56 -51 138q0 101 71 158q70 57 174 57q70 0 131 -29l40 40l55 -55l-32 -32q52 -56 52 -139q0 -100 -71 -157q-69 -56 -174 -56q-73 0 -132 28l-40 -39zM363 205l1 1q0 12 -5 29l-110 -110v-1q12 -3 27 -3q39 0 63 24t24 60zM188 206v-1q0 -18 4 -27
l110 109v1q-12 3 -26 3q-40 0 -64 -24t-24 -61zM403 680l31 -26q12 -12 12 -27q0 -19 -16 -32l-103 -88q-7 -7 -26 -7h-63q-10 0 -10 9q0 5 6 12l102 150q16 22 36 22q18 0 31 -13z" />
    <glyph glyph-name="Adblgrave" unicode="&#x200;" 
d="M527 13l-29 67h-262l-29 -67q-6 -13 -21 -13h-168q-8 0 -8 7q0 3 4 12l269 581h168l269 -581q4 -7 4 -12q0 -7 -8 -7h-168q-15 0 -21 13zM325 283l-27 -61h138l-27 61l-39 114h-6q-22 -77 -39 -114zM142 812l23 19q13 12 30 12q20 0 36 -22l102 -150q6 -7 6 -12
q0 -9 -10 -9h-59q-18 0 -29 11l-94 91q-17 17 -17 33q0 17 12 27zM324 810l23 19q13 12 30 12q20 0 36 -22l102 -150q6 -7 6 -12q0 -9 -10 -9h-59q-18 0 -29 11l-94 91q-17 17 -17 33q0 17 12 27z" />
    <glyph glyph-name="adblgrave" unicode="&#x201;" horiz-adv-x="522" 
d="M322 236l2 14q0 51 -58 51q-34 0 -43 -26q-5 -12 -18 -12h-132q-4 0 -10 6t-6 11v5q0 17 5 35q4 16 18 36t36 33q24 15 61 23q39 9 89 9q105 0 165 -54t60 -138v-212q0 -5 -6 -11t-11 -6h-105q-13 0 -21 17l-9 20h-3q-59 -46 -145 -46q-76 0 -117 34q-42 35 -42 90
q0 53 45 89q50 40 133 36l111 -5zM244 99h-1q44 0 81 28v24h-79q-42 0 -42 -25q0 -27 41 -27zM30 661l23 19q13 12 30 12q20 0 36 -22l102 -150q6 -8 6 -12q0 -9 -10 -9h-59q-18 0 -29 11l-94 91q-17 17 -17 33t12 27zM212 659l23 19q13 12 30 12q20 0 36 -22l102 -150
q6 -8 6 -12q0 -9 -10 -9h-59q-18 0 -29 11l-94 91q-17 17 -17 33t12 27z" />
    <glyph glyph-name="Ainvertedbreve" unicode="&#x202;" 
d="M527 13l-29 67h-262l-29 -67q-6 -13 -21 -13h-168q-8 0 -8 7q0 3 4 12l269 581h168l269 -581q4 -7 4 -12q0 -7 -8 -7h-168q-15 0 -21 13zM325 283l-27 -61h138l-27 61l-39 114h-6q-22 -77 -39 -114zM368 805l-4 -1q70 0 111 -39q40 -39 40 -99q0 -17 -14 -17h-76
q-4 0 -7 4q-3 5 -3 9q0 23 -13 36q-14 14 -36 14q-23 0 -36 -13t-13 -36q0 -5 -3 -9t-7 -4h-76q-14 0 -14 17q0 60 40 99q41 39 111 39z" />
    <glyph glyph-name="ainvertedbreve" unicode="&#x203;" horiz-adv-x="522" 
d="M322 236l2 14q0 51 -58 51q-34 0 -43 -26q-5 -12 -18 -12h-132q-4 0 -10 6t-6 11v5q0 17 5 35q4 16 18 36t36 33q24 15 61 23q39 9 89 9q105 0 165 -54t60 -138v-212q0 -5 -6 -11t-11 -6h-105q-13 0 -21 17l-9 20h-3q-59 -46 -145 -46q-76 0 -117 34q-42 35 -42 90
q0 53 45 89q50 40 133 36l111 -5zM244 99h-1q44 0 81 28v24h-79q-42 0 -42 -25q0 -27 41 -27zM271 648l-4 -1q71 0 111 -39t40 -99q0 -17 -14 -17h-76q-4 0 -7 4t-3 9q0 23 -13 36q-14 14 -36 14q-23 0 -36 -13t-13 -36q0 -4 -3 -9q-3 -4 -7 -4h-76q-14 0 -14 17q0 60 40 99
t111 39z" />
    <glyph glyph-name="Edblgrave" unicode="&#x204;" horiz-adv-x="609" 
d="M531 232l-297 -2v-80h328q4 0 9 -5t5 -9v-124q0 -5 -4 -9t-9 -4h-496q-5 0 -8 3q-3 4 -3 9v576q0 5 3 9t8 4h492q4 0 9 -5t5 -9v-124q0 -5 -4 -9q-5 -5 -9 -5h-324v-74h294q4 0 9 -5t5 -9v-114q0 -5 -4 -9q-5 -5 -9 -5zM89 797l23 20q14 12 30 12q20 0 36 -22l102 -150
q6 -7 6 -12q0 -9 -10 -9h-59q-18 0 -29 11l-94 91q-17 17 -17 33q0 15 12 26zM271 796l23 20q14 12 30 12q20 0 36 -22l102 -150q6 -8 6 -12q0 -9 -10 -9h-59q-18 0 -29 11l-94 91q-17 17 -17 33t12 26z" />
    <glyph glyph-name="edblgrave" unicode="&#x205;" horiz-adv-x="541" 
d="M504 164l-306 -2q7 -46 96 -46q54 0 126 22q15 5 27 5q19 0 24 -17l14 -50q5 -20 5 -23q0 -15 -18 -24q-79 -40 -179 -40q-119 0 -192 58q-74 59 -74 156q0 90 69 153t179 63t173 -54t63 -134q0 -10 -2 -32q-2 -18 -3 -26zM277 304q-29 0 -51 -13t-27 -39h144
q-1 52 -66 52zM41 658l23 19q14 12 30 12q20 0 36 -22l102 -150q6 -7 6 -12q0 -9 -10 -9h-59q-18 0 -29 11l-94 91q-17 17 -17 33q0 17 12 27zM223 656l23 19q14 12 30 12q20 0 36 -22l102 -150q6 -7 6 -12q0 -9 -10 -9h-59q-18 0 -29 11l-94 91q-17 17 -17 33q0 17 12 27z
" />
    <glyph glyph-name="Einvertedbreve" unicode="&#x206;" horiz-adv-x="609" 
d="M531 232l-297 -2v-80h328q4 0 9 -5t5 -9v-124q0 -5 -4 -9t-9 -4h-496q-5 0 -8 3q-3 4 -3 9v576q0 5 3 9t8 4h492q4 0 9 -5t5 -9v-124q0 -5 -4 -9q-5 -5 -9 -5h-324v-74h294q4 0 9 -5t5 -9v-114q0 -5 -4 -9q-5 -5 -9 -5zM315 778l-4 -1q71 0 111 -39t40 -99q0 -17 -14 -17
h-76q-4 0 -7 4t-3 9q0 23 -13 36q-14 14 -36 14q-23 0 -36 -13t-13 -36q0 -4 -3 -9q-3 -4 -7 -4h-76q-14 0 -14 17q0 60 40 99t111 39z" />
    <glyph glyph-name="einvertedbreve" unicode="&#x207;" horiz-adv-x="541" 
d="M504 164l-306 -2q7 -46 96 -46q54 0 126 22q15 5 27 5q19 0 24 -17l14 -50q5 -20 5 -23q0 -15 -18 -24q-79 -40 -179 -40q-119 0 -192 58q-74 59 -74 156q0 90 69 153t179 63t173 -54t63 -134q0 -10 -2 -32q-2 -18 -3 -26zM277 304q-29 0 -51 -13t-27 -39h144
q-1 52 -66 52zM272 643l-4 -1q70 0 111 -39q40 -39 40 -99q0 -17 -14 -17h-76q-4 0 -7 4q-3 5 -3 9q0 23 -13 36q-14 14 -36 14q-23 0 -36 -13t-13 -36q0 -5 -3 -9t-7 -4h-76q-14 0 -14 17q0 60 40 99q41 39 111 39z" />
    <glyph glyph-name="Idblgrave" unicode="&#x208;" horiz-adv-x="294" 
d="M-79 812l23 19q14 12 30 12q21 0 35 -22l102 -150q6 -7 6 -12q0 -9 -10 -9h-59q-18 0 -29 11l-93 91q-17 17 -17 33q0 17 12 27zM102 810l23 19q13 12 30 12q20 0 36 -22l102 -150q6 -7 6 -12q0 -9 -10 -9h-59q-18 0 -29 11l-94 91q-17 17 -17 33q0 17 12 27zM239 584
v-576q0 -5 -3 -8q-3 -4 -8 -4h-156q-5 0 -8 4q-3 3 -3 8v576q0 4 3 9q3 4 8 4h156q5 0 8 -4q3 -5 3 -9z" />
    <glyph glyph-name="idblgrave" unicode="&#x209;" horiz-adv-x="240" 
d="M-119 660l23 19q14 12 30 12q20 0 36 -22l101 -150q6 -7 6 -12q0 -9 -10 -9h-59q-17 0 -28 11l-94 91q-17 17 -17 33q0 17 12 27zM62 658l23 19q13 12 30 12q20 0 36 -22l102 -150q6 -7 6 -12q0 -9 -10 -9h-59q-18 0 -29 11l-94 91q-17 17 -17 33q0 17 12 27zM206 389
v-376q0 -5 -6 -11q-7 -5 -11 -5h-134q-4 0 -11 5q-6 6 -6 11v376q0 5 6 11t11 6h134q5 0 11 -6t6 -11z" />
    <glyph glyph-name="Iinvertedbreve" unicode="&#x20a;" horiz-adv-x="294" 
d="M148 805l-4 -1q70 0 111 -39q40 -39 40 -99q0 -17 -14 -17h-76q-4 0 -7 4q-3 5 -3 9q0 23 -13 36q-14 14 -36 14q-23 0 -36 -13t-13 -36q0 -5 -3 -9t-7 -4h-76q-13 0 -13 17q0 61 39 99q41 39 111 39zM233 587v-576q0 -5 -3 -9q-3 -3 -8 -3h-156q-5 0 -8 3q-3 4 -3 9v576
q0 5 3 9t8 4h156q5 0 8 -4t3 -9z" />
    <glyph glyph-name="iinvertedbreve" unicode="&#x20b;" horiz-adv-x="240" 
d="M120 645l-4 -1q70 0 111 -39q40 -39 40 -99q0 -17 -14 -17h-76q-4 0 -7 4q-3 5 -3 9q0 23 -13 36q-14 14 -36 14q-23 0 -36 -13t-13 -36q0 -5 -3 -9t-7 -4h-75q-14 0 -14 17q0 60 39 99q41 39 111 39zM200 392v-376q0 -5 -6 -11q-5 -5 -11 -5h-134q-6 0 -11 5q-6 6 -6 11
v376q0 5 6 11t11 6h134q5 0 11 -6t6 -11z" />
    <glyph glyph-name="Odblgrave" unicode="&#x20c;" 
d="M367 610h-2q143 0 240 -84q98 -84 98 -225t-97 -225q-96 -83 -240 -83t-240 83q-97 84 -97 225t98 225q97 84 240 84zM365 458v-2q-65 0 -111 -43t-46 -114t46 -114t111 -43q64 0 111 44q46 43 46 114t-46 114q-47 44 -111 44zM129 810l23 19q14 12 30 12q20 0 36 -22
l102 -150q6 -7 6 -12q0 -9 -10 -9h-59q-18 0 -29 11l-94 91q-17 17 -17 33q0 17 12 27zM311 808l23 19q14 12 30 12q20 0 36 -22l102 -150q6 -7 6 -12q0 -9 -10 -9h-59q-18 0 -29 11l-94 91q-17 17 -17 33q0 17 12 27z" />
    <glyph glyph-name="odblgrave" unicode="&#x20d;" horiz-adv-x="550" 
d="M275 420v-2q103 0 174 -57t71 -157t-71 -157q-69 -56 -174 -56t-174 56q-71 57 -71 158t71 158t174 57zM353 203q0 32 -22 53q-23 21 -57 21t-57 -21q-22 -21 -22 -53t22 -53q23 -21 57 -21t57 21q22 21 22 53zM48 658l23 19q13 12 30 12q20 0 36 -22l102 -150
q6 -7 6 -12q0 -9 -10 -9h-59q-18 0 -29 11l-94 91q-17 17 -17 33q0 17 12 27zM230 656l23 19q13 12 30 12q20 0 36 -22l102 -150q6 -7 6 -12q0 -9 -10 -9h-59q-18 0 -29 11l-94 91q-17 17 -17 33q0 17 12 27z" />
    <glyph glyph-name="Oinvertedbreve" unicode="&#x20e;" 
d="M367 610h-2q143 0 240 -84q98 -84 98 -225t-97 -225q-96 -83 -240 -83t-240 83q-97 84 -97 225t98 225q97 84 240 84zM365 458v-2q-65 0 -111 -43t-46 -114t46 -114t111 -43q64 0 111 44q46 43 46 114t-46 114q-47 44 -111 44zM365 803l-4 -1q71 0 111 -39t40 -99
q0 -17 -14 -17h-76q-4 0 -7 4q-3 5 -3 9q0 23 -13 36q-14 14 -36 14q-23 0 -36 -13t-13 -36q0 -5 -3 -9t-7 -4h-76q-14 0 -14 17q0 60 40 99t111 39z" />
    <glyph glyph-name="oinvertedbreve" unicode="&#x20f;" horiz-adv-x="550" 
d="M275 420v-2q103 0 174 -57t71 -157t-71 -157q-69 -56 -174 -56t-174 56q-71 57 -71 158t71 158t174 57zM353 203q0 32 -22 53q-23 21 -57 21t-57 -21q-22 -21 -22 -53t22 -53q23 -21 57 -21t57 21q22 21 22 53zM274 643l-4 -1q70 0 111 -39q40 -39 40 -99q0 -17 -14 -17
h-76q-4 0 -7 4q-3 5 -3 9q0 23 -13 36q-14 14 -36 14q-23 0 -36 -13t-13 -36q0 -5 -3 -9t-7 -4h-76q-14 0 -14 17q0 60 40 99q41 39 111 39z" />
    <glyph glyph-name="Rdblgrave" unicode="&#x210;" horiz-adv-x="655" 
d="M57 12l-1 576q0 4 3 9q3 4 8 4h300q113 0 183 -61q71 -62 71 -162q0 -124 -116 -180v-2q11 -15 24 -35l90 -139q7 -10 7 -15q0 -7 -10 -7h-184q-11 0 -15 7l-101 158h-81v-153q0 -4 -3 -9q-2 -3 -8 -3h-156q-6 0 -8 3q-3 5 -3 9zM352 448l-116 -1v-141h116q41 0 66 20
q24 20 24 51t-24 51q-25 20 -66 20zM78 811l23 19q13 12 30 12q20 0 36 -22l102 -150q6 -8 6 -12q0 -9 -10 -9h-59q-18 0 -29 11l-94 91q-17 17 -17 33t12 27zM260 809l23 19q13 12 30 12q20 0 36 -22l102 -150q6 -8 6 -12q0 -9 -10 -9h-59q-18 0 -29 11l-94 91
q-17 17 -17 33t12 27z" />
    <glyph glyph-name="rdblgrave" unicode="&#x211;" horiz-adv-x="470" 
d="M253 280l1 -1q-17 0 -31 -13q-15 -13 -19 -31v-219q0 -5 -6 -11q-5 -5 -11 -5h-134q-6 0 -11 5q-6 6 -6 11v376q0 5 6 11t11 6h112q11 0 17 -17l14 -40h4q45 67 124 67q60 0 93 -34q33 -35 33 -102v-70q0 -5 -6 -11t-11 -6h-134q-5 0 -11 6t-6 11v35q0 32 -29 32zM0 659
l23 19q13 12 30 12q20 0 36 -22l102 -150q6 -8 6 -12q0 -9 -10 -9h-59q-18 0 -29 11l-94 91q-16 18 -16 33q0 16 11 27zM182 657l23 19q13 12 30 12q20 0 36 -22l102 -150q6 -8 6 -12q0 -9 -10 -9h-59q-18 0 -29 11l-94 91q-17 17 -17 33t12 27z" />
    <glyph glyph-name="Rinvertedbreve" unicode="&#x212;" horiz-adv-x="655" 
d="M57 12l-1 576q0 4 3 9q3 4 8 4h300q113 0 183 -61q71 -62 71 -162q0 -124 -116 -180v-2q11 -15 24 -35l90 -139q7 -10 7 -15q0 -7 -10 -7h-184q-11 0 -15 7l-101 158h-81v-153q0 -4 -3 -9q-2 -3 -8 -3h-156q-6 0 -8 3q-3 5 -3 9zM352 448l-116 -1v-141h116q41 0 66 20
q24 20 24 51t-24 51q-25 20 -66 20zM304 804l-4 -1q70 0 111 -39q40 -39 40 -99q0 -17 -14 -17h-76q-4 0 -7 4t-3 9q0 23 -13 36q-14 14 -36 14q-23 0 -36 -13t-13 -36q0 -4 -3 -9q-3 -4 -7 -4h-76q-14 0 -14 17q0 60 40 99q41 39 111 39z" />
    <glyph glyph-name="rinvertedbreve" unicode="&#x213;" horiz-adv-x="470" 
d="M253 280l1 -1q-17 0 -31 -13q-15 -13 -19 -31v-219q0 -5 -6 -11q-5 -5 -11 -5h-134q-6 0 -11 5q-6 6 -6 11v376q0 5 6 11t11 6h112q11 0 17 -17l14 -40h4q45 67 124 67q60 0 93 -34q33 -35 33 -102v-70q0 -5 -6 -11t-11 -6h-134q-5 0 -11 6t-6 11v35q0 32 -29 32z
M223 644l-4 -1q71 0 111 -39t40 -99q0 -17 -14 -17h-76q-4 0 -7 4t-3 9q0 23 -13 36q-14 14 -36 14q-23 0 -36 -13t-13 -36q0 -4 -3 -9q-3 -4 -7 -4h-76q-14 0 -14 17q0 60 40 99t111 39z" />
    <glyph glyph-name="Udblgrave" unicode="&#x214;" horiz-adv-x="736" 
d="M504 296l-5 291q0 5 4 9t9 4h156q5 0 9 -4t4 -9v-295q0 -146 -84 -225q-82 -78 -232 -78q-149 0 -232 79q-84 80 -84 224v295q0 5 4 9t9 4h156q5 0 9 -4t4 -9v-292q0 -76 36 -115t100 -39q65 0 101 39q37 41 36 116zM127 811l23 19q14 12 30 12q20 0 36 -22l102 -150
q6 -8 6 -12q0 -9 -10 -9h-59q-18 0 -29 11l-94 91q-17 17 -17 33t12 27zM309 809l23 19q14 12 30 12q20 0 36 -22l102 -150q6 -8 6 -12q0 -9 -10 -9h-59q-18 0 -29 11l-94 91q-17 17 -17 33t12 27z" />
    <glyph glyph-name="udblgrave" unicode="&#x215;" horiz-adv-x="526" 
d="M349 38h-2q-56 -47 -139 -47q-79 0 -127 49t-48 131v223q0 5 6 11t11 6h134q5 0 11 -6t6 -11v-210q0 -23 14 -39q13 -15 36 -15q50 0 71 44v219q0 5 6 11t11 6h134q5 0 11 -6t6 -11v-376q0 -5 -6 -11t-11 -6h-100q-11 0 -17 17zM37 660l23 19q14 12 30 12q20 0 36 -22
l102 -150q6 -7 6 -12q0 -9 -10 -9h-59q-18 0 -29 11l-94 91q-17 17 -17 33q0 17 12 27zM219 658l23 19q14 12 30 12q20 0 36 -22l102 -150q6 -7 6 -12q0 -9 -10 -9h-59q-18 0 -29 11l-94 91q-17 17 -17 33q0 17 12 27z" />
    <glyph glyph-name="Uinvertedbreve" unicode="&#x216;" horiz-adv-x="736" 
d="M504 296l-5 291q0 5 4 9t9 4h156q5 0 9 -4t4 -9v-295q0 -146 -84 -225q-82 -78 -232 -78q-149 0 -232 79q-84 80 -84 224v295q0 5 4 9t9 4h156q5 0 9 -4t4 -9v-292q0 -76 36 -115t100 -39q65 0 101 39q37 41 36 116zM363 804l-4 -1q71 0 111 -39t40 -99q0 -17 -14 -17
h-76q-4 0 -7 4t-3 9q0 23 -13 36q-14 14 -36 14q-23 0 -36 -13t-13 -36q0 -4 -3 -9q-3 -4 -7 -4h-76q-14 0 -14 17q0 60 40 99t111 39z" />
    <glyph glyph-name="uinvertedbreve" unicode="&#x217;" horiz-adv-x="526" 
d="M349 38h-2q-56 -47 -139 -47q-79 0 -127 49t-48 131v223q0 5 6 11t11 6h134q5 0 11 -6t6 -11v-210q0 -23 14 -39q13 -15 36 -15q50 0 71 44v219q0 5 6 11t11 6h134q5 0 11 -6t6 -11v-376q0 -5 -6 -11t-11 -6h-100q-11 0 -17 17zM266 645l-4 -1q70 0 111 -39
q40 -39 40 -99q0 -17 -14 -17h-76q-4 0 -7 4q-3 5 -3 9q0 23 -13 36q-14 14 -36 14q-23 0 -36 -13t-13 -36q0 -5 -3 -9t-7 -4h-76q-14 0 -14 17q0 60 40 99q41 39 111 39z" />
    <glyph glyph-name="Scommaaccent" unicode="&#x218;" horiz-adv-x="644" 
d="M56 202l130 1q16 0 24 -17q22 -51 108 -51q113 0 113 52q0 32 -61 38l-149 14q-95 9 -144 48q-51 41 -51 111q0 91 75 151t206 60t201 -51t70 -124q0 -10 -6 -16t-16 -6h-136q-15 0 -21 13q-20 41 -90 41q-47 0 -74 -15t-27 -36q0 -29 52 -33l147 -14q205 -19 205 -171
q0 -87 -75 -147q-74 -59 -217 -59q-135 0 -211 50q-78 51 -78 128v8q0 11 7 18t18 7zM255 -114h2q0 28 20 48t50 20q32 0 53 -24t21 -67q0 -53 -27 -93q-28 -41 -76 -59q-16 -6 -24 -6t-13 9l-15 33q-3 6 -3 10q0 5 6 9q26 11 39 23q11 10 16 30v2q-22 4 -36 23
q-13 17 -13 42z" />
    <glyph glyph-name="scommaaccent" unicode="&#x219;" horiz-adv-x="503" 
d="M53 136l117 -1q16 0 21 -12q7 -24 59 -24q25 0 39 8q13 7 13 18q0 21 -45 24l-88 7q-72 6 -108 35q-37 30 -37 81q0 62 59 104t158 42q100 0 152 -34q53 -35 53 -85q0 -7 -6 -13t-14 -6h-123q-13 0 -21 12q-11 17 -42 17q-23 0 -34 -7q-12 -8 -12 -18q0 -18 29 -20
l102 -8q146 -12 146 -120q0 -61 -55 -103q-54 -41 -165 -41q-107 0 -165 34t-58 87q0 9 7 16t18 7zM181 -129v-1q0 31 23 54t56 23q35 0 59 -26q24 -25 24 -75q0 -58 -30 -105t-85 -66q-17 -6 -26 -6q-10 0 -15 9l-17 37q-3 7 -3 12q0 6 7 10q30 14 43 25q14 12 18 34v2
q-24 4 -39 26q-15 21 -15 47z" />
    <glyph glyph-name="uni021A" unicode="&#x21a;" horiz-adv-x="630" 
d="M225 448h-202q-4 0 -9 5q-4 4 -4 9v124q0 4 5 9t9 5h576q4 0 9 -5t5 -9v-124q0 -5 -4 -9q-5 -5 -9 -5h-198v-436q0 -4 -3 -9q-2 -3 -8 -3h-156q-6 0 -8 3q-3 5 -3 9v436zM243 -115h1q0 28 20 48t50 20q32 0 53 -24t21 -67q0 -52 -27 -93q-28 -41 -76 -59q-17 -6 -24 -6
t-12 9l-15 33q-3 6 -3 10t6 9q26 11 39 23q11 10 16 30v2q-22 4 -36 23q-13 17 -13 42z" />
    <glyph glyph-name="uni021B" unicode="&#x21b;" horiz-adv-x="391" 
d="M65 270l-41 2q-4 0 -9 5t-5 9v112q0 4 5 9t9 5h41v93q0 5 6 11t11 6h134q5 0 11 -6t6 -11v-93h115q4 0 9 -5t5 -9v-112q0 -4 -5 -9t-9 -5h-115v-90q0 -52 48 -52q21 0 52 14q7 4 17 1t11 -10l16 -76q2 -14 2 -18q0 -14 -13 -21q-48 -29 -126 -29q-83 0 -128 42
q-47 44 -47 124v113zM141 -126v-1q0 31 23 54t56 23q35 0 59 -26t24 -75q0 -59 -30 -105q-30 -47 -85 -66q-16 -6 -26 -6t-15 9l-17 37q-3 8 -3 12q0 6 7 10q30 14 43 25q14 12 18 34v2q-24 4 -39 26q-15 21 -15 47z" />
    <glyph glyph-name="circumflex" unicode="&#x2c6;" horiz-adv-x="833" 
d="M394 567l-102 -66q-14 -9 -24 -9q-7 0 -18 8l-26 20q-10 9 -10 17q0 9 12 21l101 97q32 32 62 32h10q30 0 62 -32l101 -97q12 -12 12 -21q0 -8 -10 -17l-26 -20q-11 -8 -18 -8q-10 0 -24 9z" />
    <glyph glyph-name="caron" unicode="&#x2c7;" horiz-adv-x="833" 
d="M394 603l101 66q13 9 24 9q7 0 18 -8l26 -20q10 -9 10 -17q0 -9 -12 -21l-96 -92q-29 -29 -66 -29h-10q-39 0 -68 29l-95 92q-12 12 -12 21q0 8 10 17l26 20q11 8 18 8q10 0 24 -9z" />
    <glyph glyph-name="breve" unicode="&#x2d8;" horiz-adv-x="406" 
d="M202 491v-1q-70 0 -111 39q-40 39 -40 99q0 17 14 17h76q5 0 8 -4q3 -5 3 -9q0 -22 14 -36q13 -13 36 -13q22 0 36 14t14 36q0 5 3 9t8 4h76q14 0 14 -17q0 -60 -40 -99q-41 -39 -111 -39z" />
    <glyph glyph-name="dotaccent" unicode="&#x2d9;" horiz-adv-x="230" 
d="M37 586l-4 -4q0 33 23 56t56 23q34 0 56 -22q23 -23 23 -55q0 -33 -22 -55t-55 -22q-32 0 -55 23q-22 22 -22 56z" />
    <glyph glyph-name="ring" unicode="&#x2da;" horiz-adv-x="270" 
d="M16 603l-1 -3q0 46 33 78q34 32 86 32q54 0 86 -31q33 -31 33 -78q0 -45 -33 -76q-32 -31 -85 -31q-52 0 -86 32q-33 32 -33 77zM100 600q0 -14 10 -23t24 -9q15 0 24 9t9 23q0 15 -9 24t-24 9q-14 0 -24 -9t-10 -24z" />
    <glyph glyph-name="ogonek" unicode="&#x2db;" horiz-adv-x="306" 
d="M236 -132l-1 2q7 -28 7 -51q0 -10 -12 -16q-24 -12 -65 -12q-54 0 -85 26q-30 25 -30 69q0 62 59 116h97q-48 -57 -48 -95q0 -31 34 -31q3 0 15 2q3 0 7 1l4 1q15 2 18 -12z" />
    <glyph glyph-name="tilde" unicode="&#x2dc;" horiz-adv-x="476" 
d="M136 501h-57q-21 0 -21 20q0 64 26 98q26 33 72 33q40 0 72 -19l36 -21q23 -14 36 -14q28 0 28 41q0 13 15 13h57q21 0 21 -20q0 -64 -26 -98q-25 -33 -72 -33q-40 0 -72 19l-36 21q-23 14 -36 14q-28 0 -28 -41q0 -13 -15 -13z" />
    <glyph glyph-name="hungarumlaut" unicode="&#x2dd;" horiz-adv-x="470" 
d="M403 681l23 -19q12 -10 12 -27q0 -16 -17 -33l-94 -91q-11 -11 -29 -11h-59q-10 0 -10 9q0 5 6 12l102 150q16 22 36 22q17 0 30 -12zM223 683l23 -19q12 -10 12 -27q0 -16 -17 -33l-94 -91q-11 -11 -29 -11h-59q-10 0 -10 9q0 5 6 12l102 150q16 22 36 22q17 0 30 -12z
" />
    <glyph glyph-name="invertedbreve" unicode="&#x311;" horiz-adv-x="406" 
d="M202 645l-4 -1q70 0 111 -39q40 -39 40 -99q0 -17 -14 -17h-76q-4 0 -7 4q-3 5 -3 9q0 23 -13 36q-14 14 -36 14q-23 0 -36 -13t-13 -36q0 -5 -3 -9t-7 -4h-76q-14 0 -14 17q0 60 40 99q41 39 111 39z" />
    <glyph glyph-name="pi" unicode="&#x3c0;" horiz-adv-x="673" 
d="M371 272h-91v-255q0 -5 -6 -11t-11 -6h-134q-5 0 -11 6t-6 11v255h-79q-4 0 -9 5q-4 4 -4 9v110q0 4 5 9t9 5h593q4 0 9 -5t5 -9v-110q0 -4 -5 -9t-9 -5h-91v-99q0 -45 38 -45q13 0 31 6q11 3 18 0t9 -9l13 -75q2 -16 2 -18q0 -14 -15 -21q-40 -20 -98 -20q-78 0 -120 41
q-43 42 -43 125v115z" />
    <glyph glyph-name="bahtthai" unicode="&#xe3f;" horiz-adv-x="662" 
d="M293 -79l-1 77h-225q-5 0 -9 3q-4 4 -4 9v576q0 5 4 9t9 4h225v80h78v-80h17q106 0 164 -46q59 -47 59 -121q0 -68 -49 -111v-1q70 -49 70 -138q0 -86 -61 -134q-62 -48 -171 -48h-28v-79h-78zM384 247h-14v-120h17q75 0 75 60t-78 60zM223 247v-120h69v120h-69zM223 467
v-102h69v102h-69zM380 467l-10 1v-102h17q57 0 57 51q0 23 -16 36q-17 14 -48 14z" />
    <glyph glyph-name="Wgrave" unicode="&#x1e80;" horiz-adv-x="1050" 
d="M1037 582l-252 -580h-134l-112 279l-12 32h-2l-12 -32l-112 -279h-134l-253 582q-3 8 -3 11q0 7 8 7h166q16 0 22 -14l111 -250l24 -70h3q14 42 22 63l110 270h98l109 -270l23 -64h2q11 37 24 69l111 250q6 14 22 14h166q8 0 8 -7q0 -3 -3 -11zM356 807l31 26
q13 13 31 13q20 0 36 -22l102 -150q6 -8 6 -12q0 -9 -10 -9h-63q-19 0 -26 7l-103 88q-16 13 -16 32q0 15 12 27z" />
    <glyph glyph-name="wgrave" unicode="&#x1e81;" horiz-adv-x="728" 
d="M185 396l39 -108l15 -66h4q10 49 16 66l47 122h118l46 -122l16 -65h4q13 59 15 66l39 107q5 14 20 14h147q8 0 8 -7q0 -1 -2 -9l-154 -394h-132l-47 120l-17 60h-4q-11 -40 -18 -60l-47 -120h-133l-153 394q-2 8 -2 9q0 7 8 7h147q15 0 20 -14zM216 652l31 26
q13 13 31 13q20 0 36 -22l102 -150q6 -7 6 -12q0 -9 -10 -9h-63q-19 0 -26 7l-103 88q-16 13 -16 32q0 15 12 27z" />
    <glyph glyph-name="Wacute" unicode="&#x1e82;" horiz-adv-x="1050" 
d="M1037 582l-252 -580h-134l-112 279l-12 32h-2l-12 -32l-112 -279h-134l-253 582q-3 8 -3 11q0 7 8 7h166q16 0 22 -14l111 -250l24 -70h3q14 42 22 63l110 270h98l109 -270l23 -64h2q11 37 24 69l111 250q6 14 22 14h166q8 0 8 -7q0 -3 -3 -11zM665 834l31 -26
q12 -12 12 -27q0 -19 -16 -32l-103 -88q-7 -7 -26 -7h-63q-10 0 -10 9q0 5 6 12l102 150q16 22 36 22q18 0 31 -13z" />
    <glyph glyph-name="wacute" unicode="&#x1e83;" horiz-adv-x="728" 
d="M185 396l39 -108l15 -66h4q10 49 16 66l47 122h118l46 -122l16 -65h4q13 59 15 66l39 107q5 14 20 14h147q8 0 8 -7q0 -1 -2 -9l-154 -394h-132l-47 120l-17 60h-4q-11 -40 -18 -60l-47 -120h-133l-153 394q-2 8 -2 9q0 7 8 7h147q15 0 20 -14zM490 679l31 -26
q12 -12 12 -27q0 -19 -16 -32l-103 -88q-7 -7 -26 -7h-63q-10 0 -10 9q0 4 6 12l102 150q16 22 36 22q18 0 31 -13z" />
    <glyph glyph-name="Wdieresis" unicode="&#x1e84;" horiz-adv-x="1050" 
d="M1037 582l-252 -580h-134l-112 279l-12 32h-2l-12 -32l-112 -279h-134l-253 582q-3 8 -3 11q0 7 8 7h166q16 0 22 -14l111 -250l24 -70h3q14 42 22 63l110 270h98l109 -270l23 -64h2q11 37 24 69l111 250q6 14 22 14h166q8 0 8 -7q0 -3 -3 -11zM344 738l-4 -4q0 33 23 56
t56 23q34 0 56 -22q23 -23 23 -55q0 -33 -22 -55t-55 -22q-32 0 -55 23q-22 22 -22 56zM546 734l-4 -4q0 33 23 56t56 23q34 0 56 -22q23 -23 23 -55q0 -33 -22 -55t-55 -22q-32 0 -55 23q-22 22 -22 56z" />
    <glyph glyph-name="wdieresis" unicode="&#x1e85;" horiz-adv-x="728" 
d="M185 396l39 -108l15 -66h4q10 49 16 66l47 122h118l46 -122l16 -65h4q13 59 15 66l39 107q5 14 20 14h147q8 0 8 -7q0 -1 -2 -9l-154 -394h-132l-47 120l-17 60h-4q-11 -40 -18 -60l-47 -120h-133l-153 394q-2 8 -2 9q0 7 8 7h147q15 0 20 -14zM182 572l-4 -4q0 33 23 56
t56 23q34 0 56 -22q23 -23 23 -55q0 -33 -22 -55t-55 -22q-32 0 -55 23q-22 22 -22 56zM384 568l-4 -4q0 33 23 56t56 23q34 0 56 -22q23 -23 23 -55q0 -33 -22 -55t-55 -22q-32 0 -55 23q-22 22 -22 56z" />
    <glyph glyph-name="Ygrave" unicode="&#x1ef2;" horiz-adv-x="664" 
d="M422 230l2 -219q0 -5 -4 -9q-4 -3 -9 -3h-156q-5 0 -9 3q-4 4 -4 9v218l-227 353q-5 8 -5 12q0 6 6 6h182q16 0 24 -12l80 -132l28 -54h4q10 25 28 54l80 132q8 12 24 12h181q7 0 7 -6q0 -3 -5 -11zM185 804l31 26q13 13 31 13q20 0 36 -22l102 -150q6 -7 6 -12
q0 -9 -10 -9h-63q-19 0 -26 7l-103 88q-16 13 -16 32q0 15 12 27z" />
    <glyph glyph-name="ygrave" unicode="&#x1ef3;" horiz-adv-x="545" 
d="M105 -224l92 224l-182 387q-5 12 -5 15q0 8 9 8h149q18 0 24 -13l69 -150l15 -44h2l80 194q6 13 21 13h147q8 0 8 -8q0 -7 -5 -18l-253 -622q-4 -12 -21 -12h-147q-8 0 -8 8q0 7 5 18zM131 653l31 26q13 13 31 13q20 0 36 -22l102 -150q6 -8 6 -12q0 -9 -10 -9h-63
q-19 0 -26 7l-103 88q-16 13 -16 32q0 15 12 27z" />
    <glyph glyph-name="endash" unicode="&#x2013;" horiz-adv-x="500" 
d="M450 174h-400v114h400v-114z" />
    <glyph glyph-name="emdash" unicode="&#x2014;" horiz-adv-x="750" 
d="M700 174h-650v114h650v-114z" />
    <glyph glyph-name="quoteleft" unicode="&#x2018;" horiz-adv-x="232" 
d="M196 409q0 -33 -22 -55t-54 -22q-35 0 -59 26t-24 75q0 44 21 89q19 40 59 77q16 13 24 13q11 0 18 -7l28 -25q11 -11 11 -18q0 -6 -7 -13q-41 -37 -45 -66v-2q22 -7 36 -27t14 -45z" />
    <glyph glyph-name="quoteright" unicode="&#x2019;" horiz-adv-x="232" 
d="M36 532l-1 -4q0 33 23 56t54 23q35 0 59 -25q24 -26 24 -75q0 -43 -21 -88q-19 -40 -59 -77q-16 -13 -24 -13q-11 0 -18 7l-28 25q-11 11 -11 18q0 6 7 13q41 38 45 66v2q-22 8 -36 27q-14 20 -14 45z" />
    <glyph glyph-name="quotesinglbase" unicode="&#x201a;" horiz-adv-x="232" 
d="M36 68l-1 -4q0 33 23 56t54 23q35 0 59 -25q24 -26 24 -75q0 -42 -21 -87q-19 -40 -59 -77q-16 -13 -24 -13q-11 0 -18 7l-28 25q-11 11 -11 18q0 6 7 13q41 37 45 66v2q-22 6 -36 26t-14 45z" />
    <glyph glyph-name="quotedblleft" unicode="&#x201c;" horiz-adv-x="421" 
d="M385 409q0 -33 -22 -55t-54 -22q-35 0 -59 26t-24 75q0 44 21 89q19 40 59 77q16 13 24 13q11 0 18 -7l28 -25q11 -11 11 -18q0 -6 -7 -13q-40 -37 -45 -66v-2q23 -7 36 -27q14 -20 14 -45zM196 409q0 -33 -22 -55t-54 -22q-35 0 -59 26t-24 75q0 44 21 89q19 40 59 77
q16 13 24 13q11 0 18 -7l28 -25q11 -11 11 -18q0 -6 -7 -13q-41 -37 -45 -66v-2q22 -7 36 -27t14 -45z" />
    <glyph glyph-name="quotedblright" unicode="&#x201d;" horiz-adv-x="421" 
d="M36 532l-1 -4q0 33 23 56t54 23q35 0 59 -25q24 -26 24 -75q0 -43 -21 -88q-19 -40 -59 -77q-16 -13 -24 -13q-11 0 -18 7l-28 25q-11 11 -11 18q0 6 7 13q41 38 45 66v2q-22 8 -36 27q-14 20 -14 45zM224 528l-1 -4q0 33 23 56t54 23q35 0 59 -25q24 -26 24 -75
q0 -43 -21 -88q-19 -40 -59 -77q-16 -13 -24 -13q-11 0 -18 7l-28 25q-11 11 -11 18q0 6 7 13q41 38 45 66v2q-22 8 -36 27q-14 20 -14 45z" />
    <glyph glyph-name="quotedblbase" unicode="&#x201e;" horiz-adv-x="421" 
d="M36 68l-1 -4q0 33 23 56t54 23q35 0 59 -25q24 -26 24 -75q0 -42 -21 -87q-19 -40 -59 -77q-16 -13 -24 -13q-11 0 -18 7l-28 25q-11 11 -11 18q0 6 7 13q41 37 45 66v2q-22 6 -36 26t-14 45zM224 64l-1 -4q0 33 23 56t54 23q35 0 59 -25q24 -26 24 -75q0 -42 -21 -87
q-19 -40 -59 -77q-16 -13 -24 -13q-11 0 -18 7l-28 25q-11 11 -11 18q0 6 7 13q41 37 45 66v2q-23 8 -36 26q-14 20 -14 45z" />
    <glyph glyph-name="dagger" unicode="&#x2020;" horiz-adv-x="496" 
d="M448 386l2 -64q0 -17 -6 -23t-22 -6h-47l-81 17l6 -76v-90l-10 -194h-80l-10 194v90l6 76l-81 -17h-48q-16 0 -22 7q-6 8 -6 24v62q0 16 5 23q4 6 21 6h48l81 -18l-18 112v65q0 25 27 25h70q15 0 21 -6t6 -19v-65l-18 -112l81 18h47q16 0 22 -7t6 -22z" />
    <glyph glyph-name="daggerdbl" unicode="&#x2021;" horiz-adv-x="496" 
d="M48 137l-1 59q0 17 6 23t23 6h47l81 -17l-6 46v34l6 46l-81 -17h-48q-16 0 -22 7q-6 8 -6 24v62q0 16 5 23q4 6 21 6h48l81 -18l-18 101v49q0 25 27 25h70q15 0 21 -6t6 -19v-49l-18 -101l81 18h47q16 0 22 -7q6 -8 6 -22v-62q0 -17 -6 -23t-22 -6h-47l-81 17l6 -46v-34
l-6 -46l81 17h48q16 0 22 -7q6 -8 6 -24v-62q0 -16 -5 -23q-4 -6 -21 -6h-48l-81 18l18 -101v-48q0 -25 -27 -25h-70q-15 0 -21 6t-6 20v48l18 101l-81 -18h-47q-16 0 -22 8q-6 7 -6 23z" />
    <glyph glyph-name="bullet" unicode="&#x2022;" horiz-adv-x="332" 
d="M60 250q0 45 30 75t75 30t75 -30t30 -75t-30 -75t-75 -30t-75 30t-30 75z" />
    <glyph glyph-name="ellipsis" unicode="&#x2026;" horiz-adv-x="610" 
d="M31 68l-4 -4q0 33 23 56t56 23q34 0 56 -22q23 -23 23 -55q0 -33 -22 -55q-23 -21 -55 -21q-31 0 -55 22q-22 22 -22 56zM223 64l-4 -4q0 33 23 56t56 23q34 0 56 -22q23 -23 23 -55q0 -33 -22 -55q-23 -21 -55 -21q-31 0 -55 22q-22 22 -22 56zM415 60l-4 -4q0 33 23 56
t56 23q34 0 56 -22q23 -23 23 -55q0 -33 -22 -55q-23 -21 -55 -21q-31 0 -55 22q-22 22 -22 56z" />
    <glyph glyph-name="perthousand" unicode="&#x2030;" horiz-adv-x="1097" 
d="M25 465v-2q0 63 45 104q46 41 112 41t112 -41q45 -41 45 -104t-45 -103q-44 -40 -112 -40q-66 0 -112 41q-45 41 -45 104zM133 463v-1q0 -21 14 -37q14 -15 35 -15q22 0 35 15q14 16 14 38t-14 38q-14 15 -35 15q-22 0 -35 -15q-14 -16 -14 -38zM94 9l477 636l78 -60
l-477 -635zM404 131v-2q0 63 45 104q46 41 112 41t112 -41q45 -41 45 -104t-45 -103q-45 -39 -112 -39q-68 0 -112 40q-45 41 -45 104zM512 129v-1q0 -21 14 -37q14 -15 35 -15t35 15q14 16 14 38t-14 38q-14 15 -35 15t-35 -15q-14 -16 -14 -38zM758 128v-2q0 64 45 104
q46 41 112 41t112 -41q45 -40 45 -104q0 -62 -45 -103q-45 -39 -112 -39q-66 0 -112 40q-45 40 -45 104zM866 126v-1q0 -21 14 -37q14 -15 35 -15t35 15q14 16 14 38t-14 38q-14 15 -35 15t-35 -15q-14 -16 -14 -38z" />
    <glyph glyph-name="guilsinglleft" unicode="&#x2039;" horiz-adv-x="307" 
d="M33 220l1 1q0 7 15 27l144 177q7 9 15 9q4 0 12 -3l49 -20q8 -5 8 -12q0 -5 -5 -17l-77 -162l77 -162q5 -12 5 -16q0 -7 -8 -12l-50 -20q-7 -3 -13 -3q-8 0 -14 8l-144 177q-15 18 -15 28z" />
    <glyph glyph-name="guilsinglright" unicode="&#x203a;" horiz-adv-x="307" 
d="M274 220v-1q0 -10 -15 -28l-144 -177q-6 -8 -14 -8q-5 0 -12 3l-50 20q-8 5 -8 12q0 4 5 16l77 162l-77 162q-5 12 -5 17q0 7 8 12l49 20q8 3 12 3q8 0 15 -9l144 -177q15 -20 15 -27z" />
    <glyph glyph-name="fraction" unicode="&#x2044;" horiz-adv-x="475" 
d="M-39 12l476 636l78 -60l-477 -635z" />
    <glyph glyph-name="zerosuperior" unicode="&#x2070;" horiz-adv-x="423" 
d="M24 408v-2q0 90 52 146q53 57 136 57q84 0 136 -57q52 -56 52 -145t-52 -145q-52 -57 -136 -57t-136 57q-52 56 -52 146zM156 406q0 -44 15 -69t42 -25q26 0 41 26t15 68t-15 68t-41 26q-27 0 -42 -25t-15 -69z" />
    <glyph glyph-name="foursuperior" unicode="&#x2074;" horiz-adv-x="418" 
d="M393 276l-40 -1v-52q0 -3 -3 -6t-6 -3h-112q-3 0 -6 3t-3 6v52h-208v98l187 236h153v-228h38q3 0 6 -3t3 -6v-87q0 -3 -3 -6t-6 -3zM175 381h52v61l3 39l-3 1q-14 -24 -21 -31l-42 -52l-20 -19l1 -2q23 3 30 3z" />
    <glyph glyph-name="fivesuperior" unicode="&#x2075;" horiz-adv-x="407" 
d="M342 498h-173l-4 -37l2 -1q30 11 67 11q70 0 109 -36t39 -91q0 -59 -46 -99t-129 -40q-65 0 -114 27q-50 27 -65 72q-3 9 -3 16q0 5 5 10q4 4 11 4h98q11 0 19 -9q15 -18 46 -18q23 0 35 9t12 22q0 30 -47 30q-16 0 -51 -11q-18 -5 -30 0l-83 32q-8 5 -8 12q0 1 0.5 4
t1 8t0.5 9l24 177h284q3 0 6 -3t3 -6v-83q0 -3 -3 -6t-6 -3z" />
    <glyph glyph-name="sixsuperior" unicode="&#x2076;" horiz-adv-x="414" 
d="M214 206l1 -2q-94 0 -142 54t-48 142q0 96 51 153t140 57q68 0 113 -33t45 -76q0 -14 -12 -14h-103q-11 0 -18 9q-11 14 -33 14q-24 0 -39 -16q-14 -16 -16 -45h2q29 21 78 21q73 0 116 -35q42 -35 42 -87q0 -62 -48 -102q-47 -40 -129 -40zM209 373q-50 0 -50 -32
q0 -15 14 -26t36 -11q50 0 50 37q0 14 -13 23q-14 9 -37 9z" />
    <glyph glyph-name="sevensuperior" unicode="&#x2077;" horiz-adv-x="338" 
d="M162 492l-145 1q-3 0 -6 3t-3 6v89q0 3 3 6t6 3h327v-13l-161 -366q-3 -7 -15 -7h-125q-5 0 -5 5q0 3 3 9l122 263z" />
    <glyph glyph-name="eightsuperior" unicode="&#x2078;" horiz-adv-x="412" 
d="M206 610l2 -1q78 0 124 -33t46 -85q0 -43 -39 -72v-2q51 -30 51 -85q0 -59 -51 -92t-132 -33t-132 33t-51 92q0 56 51 84v2q-39 28 -39 73q0 50 47 85q46 34 123 34zM258 334q0 32 -50 32t-50 -32q0 -31 50 -31t50 31zM250 486h-2q0 11 -10 18q-11 8 -31 8t-31 -8
q-10 -7 -10 -18q0 -27 42 -27t42 27z" />
    <glyph glyph-name="ninesuperior" unicode="&#x2079;" horiz-adv-x="414" 
d="M199 610l-1 -2q95 0 143 -54t48 -142q0 -97 -52 -153q-53 -57 -141 -57q-68 0 -113 33t-45 77q0 14 12 14h103q11 0 18 -9q11 -14 34 -14q24 0 39 16q14 16 16 45h-2q-28 -21 -81 -21q-73 0 -114 35t-41 87q0 61 48 103t129 42zM204 439h-1q50 0 50 32q0 16 -13 26
q-14 11 -36 11q-50 0 -50 -37q0 -14 13 -23q14 -9 37 -9z" />
    <glyph glyph-name="parenleftsuperior" unicode="&#x207d;" horiz-adv-x="223" 
d="M142 412l-1 -3q0 -83 15 -125t46 -79q8 -11 8 -16q0 -10 -17 -25t-27 -15t-21 8q-51 38 -82 95q-30 56 -30 159q0 104 30 161t83 95q11 8 21 8q11 0 27 -15q17 -15 17 -25q0 -6 -8 -16q-31 -36 -46 -81q-15 -44 -15 -126z" />
    <glyph glyph-name="parenrightsuperior" unicode="&#x207e;" horiz-adv-x="223" 
d="M81 412l-1 -1q0 83 -15 126q-15 45 -46 81q-8 10 -8 16q0 11 17 26q16 15 27 15q10 0 21 -8q53 -38 83 -95t30 -161q0 -103 -30 -159q-30 -55 -82 -94q-11 -8 -21 -8t-27 15t-17 26q0 5 8 16q30 36 46 80q15 42 15 125z" />
    <glyph glyph-name="zeroinferior" unicode="&#x2080;" horiz-adv-x="423" 
d="M24 114v-2q0 90 52 146q52 57 136 57t136 -57q52 -56 52 -145t-52 -144q-52 -57 -136 -57t-136 57q-52 55 -52 145zM156 112q0 -44 15 -69t42 -25q26 0 41 26q15 25 15 68q0 42 -15 68t-41 26q-27 0 -42 -25t-15 -69z" />
    <glyph glyph-name="oneinferior" unicode="&#x2081;" horiz-adv-x="302" 
d="M270 316l-3 -385q0 -3 -3 -6t-6 -3h-112q-3 0 -6 3t-3 6v223l-2 2l-58 -41q-4 -2 -7 -2q-5 0 -6 4l-48 72q-4 7 2 12l166 115h86z" />
    <glyph glyph-name="twoinferior" unicode="&#x2082;" horiz-adv-x="417" 
d="M26 -79l1 81l184 119q44 29 44 54q0 14 -12 23t-34 9t-34 -12t-12 -32q0 -12 -11 -12h-109q-12 0 -12 10q0 64 44 110q43 45 135 45q82 0 129 -42t47 -99q0 -68 -79 -120l-12 -8l-33 -16v-3h121q3 0 6 -3t3 -6v-89q0 -3 -3 -6t-6 -3h-357z" />
    <glyph glyph-name="threeinferior" unicode="&#x2083;" horiz-adv-x="411" 
d="M217 71l-79 2q-3 0 -6 3t-3 6v69q0 3 3 6t6 3h63q41 0 41 28q0 27 -41 27q-34 0 -41 -25q-3 -10 -13 -10h-107q-5 0 -8 3t-3 6q0 53 48 90q49 38 128 38q83 0 126 -34q44 -35 44 -84q0 -46 -36 -70v-2q49 -28 49 -84q0 -54 -48 -92q-49 -38 -139 -38q-91 0 -135 37
q-45 38 -45 89q0 11 12 11h106q11 0 15 -9q10 -27 51 -27q51 0 51 32q0 24 -39 25z" />
    <glyph glyph-name="fourinferior" unicode="&#x2084;" horiz-adv-x="418" 
d="M393 -17l-40 -1v-52q0 -3 -3 -6t-6 -3h-112q-3 0 -6 3t-3 6v52h-208v97l187 236h153v-228h38q3 0 6 -3t3 -6v-86q0 -3 -3 -6t-6 -3zM175 87h52v61l3 39l-3 1q-14 -24 -21 -31l-42 -52l-20 -19l1 -2q23 3 30 3z" />
    <glyph glyph-name="fiveinferior" unicode="&#x2085;" horiz-adv-x="407" 
d="M342 204h-173l-4 -37l2 -1q30 11 67 11q70 0 109 -36t39 -91q0 -58 -46 -98t-129 -40q-65 0 -114 27q-50 27 -65 71q-3 9 -3 16q0 5 5 10q4 4 11 4h98q11 0 19 -9q15 -18 46 -18q23 0 35 9t12 22q0 30 -47 30q-16 0 -51 -11q-18 -5 -30 0l-83 32q-8 5 -8 12q0 1 0.5 4
t1 8t0.5 9l24 177h284q3 0 6 -3t3 -6v-83q0 -3 -3 -6t-6 -3z" />
    <glyph glyph-name="sixinferior" unicode="&#x2086;" horiz-adv-x="414" 
d="M214 -87l1 -2q-94 0 -142 54q-48 53 -48 141q0 96 51 153t140 57q68 0 113 -33t45 -76q0 -14 -12 -14h-103q-11 0 -18 9q-11 14 -33 14q-24 0 -39 -16q-14 -16 -16 -45h2q29 21 78 21q73 0 116 -35q42 -35 42 -87q0 -60 -48 -101q-47 -40 -129 -40zM209 79q-50 0 -50 -32
q0 -15 14 -26t36 -11q50 0 50 37q0 14 -13 23q-14 9 -37 9z" />
    <glyph glyph-name="seveninferior" unicode="&#x2087;" horiz-adv-x="338" 
d="M162 198l-145 1q-3 0 -6 3t-3 6v89q0 3 3 6t6 3h327v-13l-161 -365q-3 -7 -15 -7h-125q-5 0 -5 5q0 3 3 9l122 262z" />
    <glyph glyph-name="eightinferior" unicode="&#x2088;" horiz-adv-x="412" 
d="M206 316l2 -1q78 0 124 -33t46 -85q0 -43 -39 -72v-2q51 -30 51 -85q0 -58 -51 -91t-132 -33t-132 33t-51 91q0 56 51 84v2q-39 28 -39 73q0 50 47 85q46 34 123 34zM258 40q0 32 -50 32t-50 -32q0 -31 50 -31t50 31zM250 192h-2q0 11 -10 18q-11 8 -31 8t-31 -8
q-10 -7 -10 -18q0 -27 42 -27t42 27z" />
    <glyph glyph-name="nineinferior" unicode="&#x2089;" horiz-adv-x="414" 
d="M199 316l-1 -2q95 0 143 -54t48 -142q0 -97 -52 -152q-53 -57 -141 -57q-68 0 -113 33t-45 76q0 14 12 14h103q11 0 18 -9q11 -14 34 -14q24 0 39 16q14 16 16 45h-2q-28 -21 -81 -21q-73 0 -114 35t-41 87q0 61 48 103t129 42zM204 145h-1q50 0 50 32q0 16 -13 26
q-14 11 -36 11q-50 0 -50 -37q0 -14 13 -23t37 -9z" />
    <glyph glyph-name="parenleftinferior" unicode="&#x208d;" horiz-adv-x="223" 
d="M142 118l-1 -3q0 -83 15 -124q15 -42 46 -79q8 -11 8 -16q0 -10 -17 -25t-27 -15t-21 8q-51 38 -82 95q-30 55 -30 158q0 104 30 161t83 95q11 8 21 8q11 0 27 -15q17 -15 17 -25q0 -6 -8 -16q-31 -36 -46 -81q-15 -44 -15 -126z" />
    <glyph glyph-name="parenrightinferior" unicode="&#x208e;" horiz-adv-x="223" 
d="M81 118l-1 -1q0 83 -15 126q-15 45 -46 81q-8 10 -8 16q0 11 17 26q16 15 27 15q10 0 21 -8q53 -38 83 -95t30 -161q0 -103 -30 -158t-82 -94q-11 -8 -21 -8t-27 15t-17 26q0 5 8 16q30 36 46 80q15 40 15 124z" />
    <glyph glyph-name="colonmonetary" unicode="&#x20a1;" horiz-adv-x="699" 
d="M138 -22l24 66q-61 41 -97 108q-36 66 -36 146q0 133 95 222t234 89h11l29 79l66 -24l-23 -63q7 -1 39 -11l22 60l66 -24l-24 -64q59 -35 92 -87q33 -53 33 -113q0 -16 -17 -16h-133q-15 0 -18 18q-4 23 -12 40h-1l-100 -273q89 11 113 97q5 17 21 17h129q18 0 18 -14
q0 -97 -84 -169q-83 -71 -227 -71q-17 0 -22 1l-27 -76l-66 24l23 61q-30 9 -40 13l-22 -60zM275 149q18 -11 39 -15l116 319q-16 9 -39 12zM197 298q0 -52 24 -94l94 259q-52 -13 -85 -57t-33 -108z" />
    <glyph glyph-name="cruzeiro" unicode="&#x20a2;" horiz-adv-x="698" 
d="M651 383l-131 -2q-16 0 -24 14q-14 33 -49 53q-36 21 -88 21q-70 0 -117 -46q-48 -47 -48 -124q0 -51 21 -90q22 -40 58 -59l1 1v191q0 5 6 11t11 6h68q10 0 14 -13l9 -23h4q25 46 78 46q41 0 62 -27t21 -76v-10q0 -5 -6 -11t-11 -6h-67q-5 0 -11 6t-6 10v5q0 22 -19 22
q-13 0 -23 -10t-15 -27v-112q37 2 65 18q28 17 42 42q7 16 24 16h126q17 0 17 -15q0 -21 -10 -45q-11 -27 -34 -54q-24 -28 -58 -52q-35 -24 -87 -39q-54 -14 -114 -14q-143 0 -238 86q-96 87 -96 224q0 135 96 222t238 87q76 0 138 -24t96 -58q35 -35 53 -68q19 -34 20 -59
q0 -17 -16 -17z" />
    <glyph glyph-name="franc" unicode="&#x20a3;" horiz-adv-x="589" 
d="M20 100l1 75h60v410q0 5 4 9t9 4h450q4 0 9 -5t5 -9v-112q0 -4 -5 -9t-9 -5h-294v-87h268q5 0 9 -4q5 -5 5 -9v-106q0 -4 -5 -9q-4 -4 -9 -4h-268v-61h158v-78h-158v-88q0 -5 -4 -9q-3 -3 -9 -3h-144q-6 0 -9 3q-4 4 -4 9v88h-60z" />
    <glyph glyph-name="naira" unicode="&#x20a6;" horiz-adv-x="830" 
d="M589 0l-184 192h-131v-180q0 -5 -4 -9q-3 -3 -9 -3h-144q-6 0 -9 3q-4 4 -4 9v180h-86v78h86v60h-86v78h86v180q0 5 4 9t9 4h123l184 -192h131v180q0 5 4 9t9 4h144q5 0 9 -4t4 -9v-180h86v-78h-86v-60h86v-78h-86v-180q0 -5 -4 -9t-9 -4h-123zM274 357l-4 -1
q4 -60 4 -86h64zM557 243h3q-4 41 -4 87h-60z" />
    <glyph glyph-name="peseta" unicode="&#x20a7;" horiz-adv-x="675" 
d="M9 325l-1 77h60v185q0 5 3 9t8 4h261q102 0 171 -54t81 -143h55v-78h-56q-15 -86 -83 -134t-167 -48h-106v-131q0 -4 -3 -9q-2 -3 -8 -3h-144q-6 0 -8 3q-3 5 -3 9v313h-60zM236 266h94q75 0 94 58h-188v-58zM330 459h-94v-57h189q-20 57 -95 57z" />
    <glyph glyph-name="rupee" unicode="&#x20a8;" horiz-adv-x="638" 
d="M31 340l18 76h311q-21 57 -98 57h-232l30 125h562l-30 -125h-88q17 -26 22 -57h65l-18 -78h-44q-7 -69 -53 -112q-45 -42 -110 -57v-2q27 -19 61 -54l87 -93q8 -8 8 -12q0 -8 -9 -8h-189q-11 0 -18 7l-241 256v18h196q81 0 101 59h-331z" />
    <glyph glyph-name="won" unicode="&#x20a9;" horiz-adv-x="1063" 
d="M30 344v78h78l-69 160q-3 8 -3 11q0 7 8 7h154q16 0 22 -14l73 -164h124l73 178h83l72 -178h125l73 164q6 14 22 14h154q8 0 8 -7q0 -3 -3 -11l-70 -160h79v-78h-113l-25 -58h138v-76h-171l-91 -210h-114l-112 279l-12 32h-3q-8 -22 -12 -32l-112 -279h-114l-92 210h-170
v76h137l-25 58h-112zM708 256v1q14 53 27 87h-59l28 -88h4zM359 257v1q13 52 27 87h-59l27 -88h5z" />
    <glyph glyph-name="sheqel" unicode="&#x20aa;" horiz-adv-x="862" 
d="M609 150l-155 -1v100q0 27 -12 38q-13 11 -43 11h-194v-298h-154v410h400q158 0 158 -143v-117zM656 409h154v-260q0 -83 -40 -117q-39 -33 -123 -33h-395v259h154v-148h197q29 0 41 12t12 38v249z" />
    <glyph glyph-name="Euro" unicode="&#x20ac;" horiz-adv-x="670" 
d="M30 318l15 76h65q30 100 115 157t199 57q97 0 175 -37q24 -12 24 -24q0 -3 -3 -15l-22 -85q-3 -13 -14 -13q-3 0 -21 6q-78 29 -129 29q-47 0 -84 -19q-38 -20 -57 -55h291l-20 -78h-298q-1 -4 -1 -18q0 -15 1 -19h288l-17 -78h-244q40 -73 141 -73q64 0 114 32
q10 6 18 6q9 0 17 -11l44 -67q5 -8 5 -15q0 -12 -14 -24q-69 -60 -191 -60q-113 0 -199 59q-87 60 -115 154h-83l18 78h51v37h-69z" />
    <glyph glyph-name="litre" unicode="&#x2113;" horiz-adv-x="461" 
d="M6 238l-1 2q0 6 7 9l68 23v147q0 97 48 145t135 48q77 0 125 -45t48 -133q0 -110 -48 -165t-149 -84v-9q0 -24 16 -39q17 -15 45 -15q18 0 61 8q9 2 15 -3t6 -12v-88q0 -14 -16 -21q-36 -14 -89 -14q-75 0 -124 37t-66 111l-1 1l-33 -9q-8 -2 -11 -2q-8 0 -11 12l-23 84
q-2 10 -2 12zM238 446v-119l1 -1q48 24 48 92v21q0 43 -25 43q-24 0 -24 -36z" />
    <glyph glyph-name="trademark" unicode="&#x2122;" horiz-adv-x="766" 
d="M27 612q-7 0 -7 7v34q0 7 7 7h292q7 0 7 -7v-34q0 -7 -7 -7h-118v-254q0 -3 -3 -6t-5 -3h-40q-2 0 -5 3t-3 6v254h-118zM668 660h29q2 0 5 -3t3 -5v-295q0 -7 -8 -7h-40q-8 0 -8 7v206h-2q-12 -25 -24 -43l-91 -131l-92 131l-26 43h-2v-206q0 -7 -7 -7h-41q-8 0 -8 7v295
q0 2 3 5t5 3h30q7 0 10 -5l126 -179h3l126 179q3 5 9 5z" />
    <glyph glyph-name="Omega" unicode="&#x2126;" horiz-adv-x="721" 
d="M44 152l50 1l28 -2l1 3q-40 24 -67 73t-27 105q0 118 95 199q94 81 234 81q142 0 237 -81t95 -199q0 -56 -27 -105t-67 -73l1 -3q22 2 27 2h51q4 0 9 -5t5 -9v-124q0 -5 -4 -9q-5 -5 -9 -5h-280v175q53 18 83 54t30 86q0 62 -43 102t-108 40q-63 0 -106 -40t-43 -102
q0 -50 31 -87q32 -37 84 -54v-175h-280q-4 0 -9 5t-5 9v124q0 4 5 9t9 5z" />
    <glyph glyph-name="estimated" unicode="&#x212e;" horiz-adv-x="770" 
d="M607 311v171q0 11 -10 21q-88 88 -211 88q-125 0 -213 -91q-8 -13 -8 -22v-167q0 -5 5 -5h432q5 0 5 5zM733 289l-564 -1q-5 0 -5 -4v-170q0 -12 8 -20q86 -92 213 -92q137 0 224 103h51q-48 -57 -120 -90q-73 -32 -155 -32q-145 0 -246 91q-102 92 -102 222t102 222
q103 92 246 92q145 0 246 -91q102 -91 102 -222v-8z" />
    <glyph glyph-name="onethird" unicode="&#x2153;" horiz-adv-x="921" 
d="M731 151l-79 2q-3 0 -6 3t-3 6v69q0 3 3 6t6 3h63q41 0 41 28q0 27 -41 27q-34 0 -41 -25q-3 -10 -13 -10h-107q-5 0 -8 3t-3 6q0 53 48 90q49 38 128 38q83 0 126 -34q44 -35 44 -84q0 -46 -36 -70v-2q49 -28 49 -84q0 -55 -48 -93q-47 -37 -139 -37t-135 36
q-45 37 -45 90q0 11 12 11h106q11 0 15 -9q10 -27 51 -27q51 0 51 32q0 24 -39 25zM268 612l-3 -386q0 -3 -3 -6t-6 -3h-112q-3 0 -6 3t-3 6v224l-2 2l-58 -41q-4 -2 -7 -2q-5 0 -6 4l-48 72q-4 7 2 12l166 115h86zM146 14l477 636l78 -60l-477 -635z" />
    <glyph glyph-name="twothirds" unicode="&#x2154;" horiz-adv-x="1034" 
d="M840 151l-79 2q-3 0 -6 3t-3 6v69q0 3 3 6t6 3h63q41 0 41 28q0 27 -41 27q-34 0 -41 -25q-3 -10 -13 -10h-107q-5 0 -8 3t-3 6q0 53 48 90q49 38 128 38q83 0 126 -34q44 -35 44 -84q0 -46 -36 -70v-2q49 -28 49 -84q0 -55 -48 -93q-47 -37 -139 -37t-135 36
q-45 37 -45 90q0 11 12 11h106q10 0 15 -9q11 -27 51 -27q51 0 51 32q0 24 -39 25zM24 216l1 82l184 119q44 29 44 54q0 14 -12 23t-34 9t-34 -12t-12 -32q0 -12 -11 -12h-109q-12 0 -12 10q0 64 44 110q43 45 135 45q82 0 129 -42t47 -99q0 -68 -79 -120l-12 -8l-33 -16v-3
h121q3 0 6 -3t3 -6v-90q0 -3 -3 -6t-6 -3h-357zM259 14l477 636l78 -60l-477 -635z" />
    <glyph glyph-name="oneeighth" unicode="&#x215b;" horiz-adv-x="917" 
d="M715 396l2 -1q77 0 124 -33q46 -33 46 -85q0 -43 -39 -72v-2q51 -30 51 -85q0 -59 -51 -92q-49 -32 -132 -32t-132 32q-51 33 -51 92q0 56 51 84v2q-39 28 -39 73q0 50 47 85q46 34 123 34zM767 120q0 32 -50 32t-50 -32q0 -31 50 -31t50 31zM759 272h-2q0 11 -10 18
q-11 8 -31 8t-31 -8q-10 -7 -10 -18q0 -27 42 -27t42 27zM270 609l-3 -386q0 -3 -3 -6t-6 -3h-112q-3 0 -6 3t-3 6v224l-2 2l-58 -41q-4 -2 -7 -2q-5 0 -6 4l-48 72q-4 7 2 12l166 115h86zM144 11l477 636l78 -60l-477 -635z" />
    <glyph glyph-name="threeeighths" unicode="&#x215c;" horiz-adv-x="982" 
d="M218 365l-80 1q-2 0 -5 3t-3 6v70q0 3 3 6t6 3h62q40 0 40 27t-40 27q-35 0 -41 -25q-4 -10 -13 -10h-107q-5 0 -8 3t-3 6q0 52 48 90q49 38 128 38q83 0 126 -34q44 -35 44 -84q0 -46 -36 -70v-2q49 -27 49 -83q0 -55 -48 -93q-49 -38 -139 -38q-91 0 -135 37
q-45 37 -45 90q0 11 12 11h107q8 0 14 -9q4 -27 51 -27q53 0 53 32q0 25 -40 25zM209 13l477 636l78 -60l-477 -635zM773 397l3 -1q78 0 123 -33t45 -85q0 -44 -38 -73v-2q51 -30 51 -85q0 -59 -51 -92q-49 -32 -132 -32q-84 0 -133 32q-51 33 -51 92q0 55 51 85v2
q-38 29 -38 73q0 50 47 85q46 34 123 34zM827 121h-1q0 32 -51 32t-51 -32q0 -31 51 -31q25 0 38 9q14 9 14 22zM817 275q0 26 -42 26t-42 -26q0 -29 42 -29t42 29z" />
    <glyph glyph-name="fiveeighths" unicode="&#x215d;" horiz-adv-x="973" 
d="M342 498h-173l-4 -37l2 -1q30 11 67 11q70 0 109 -36t39 -91q0 -59 -46 -99t-129 -40q-65 0 -114 27q-50 27 -65 72q-3 9 -3 16q0 5 5 10q4 4 11 4h98q11 0 19 -9q15 -18 46 -18q23 0 35 9t12 22q0 30 -47 30q-16 0 -51 -11q-18 -5 -30 0l-83 32q-8 5 -8 12q0 1 0.5 4
t1 8t0.5 9l24 177h284q3 0 6 -3t3 -6v-83q0 -3 -3 -6t-6 -3zM766 396l2 -1q78 0 124 -33t46 -85q0 -43 -39 -72v-2q51 -30 51 -85q0 -59 -51 -92q-49 -32 -132 -32t-132 32q-51 33 -51 92q0 56 51 84v2q-39 28 -39 73q0 50 47 85q46 34 123 34zM818 120q0 32 -50 32t-50 -32
q0 -31 50 -31t50 31zM810 272h-2q0 11 -10 18q-11 8 -31 8t-31 -8q-10 -7 -10 -18q0 -27 42 -27t42 27zM202 11l477 636l78 -60l-477 -635z" />
    <glyph glyph-name="seveneighths" unicode="&#x215e;" horiz-adv-x="848" 
d="M642 396l2 -1q77 0 124 -33q46 -33 46 -85q0 -43 -39 -72v-2q51 -30 51 -85q0 -59 -51 -92q-49 -32 -132 -32t-132 32q-51 33 -51 92q0 56 51 84v2q-39 28 -39 73q0 50 47 85q46 34 123 34zM694 120q0 32 -50 32t-50 -32q0 -31 50 -31t50 31zM686 272h-2q0 11 -10 18
q-11 8 -31 8t-31 -8q-10 -7 -10 -18q0 -27 42 -27t42 27zM162 491l-145 1q-3 0 -6 3t-3 6v89q0 3 3 6t6 3h327v-13l-161 -366q-3 -7 -15 -7h-125q-5 0 -5 5q0 3 3 9l122 263zM74 12l477 636l78 -60l-477 -635z" />
    <glyph glyph-name="partialdiff" unicode="&#x2202;" horiz-adv-x="554" 
d="M525 256l-1 -2q0 -118 -66 -192q-65 -72 -184 -72q-110 0 -177 57q-69 59 -69 157t66 156q67 59 155 59q49 0 77 -17l3 2q-50 102 -245 152q-20 4 -15 24l18 72q4 16 18 16q12 0 33 -4q183 -32 285 -144t102 -264zM352 203l-2 -1q0 34 -23 55t-57 21q-33 0 -54 -21
t-21 -53q0 -33 24 -54t55 -21q36 0 57 23q21 22 21 51z" />
    <glyph glyph-name="Delta" unicode="&#x2206;" 
d="M716 0h-698q-8 0 -8 7q0 3 4 12l281 581h144l281 -581q4 -7 4 -12q0 -7 -8 -7zM323 259l-50 -108h187l-49 107q-7 16 -18 45l-17 49l-6 21h-6q-23 -73 -41 -114z" />
    <glyph glyph-name="product" unicode="&#x220f;" horiz-adv-x="710" 
d="M653 588l-2 -576q0 -4 -3 -9q-2 -3 -8 -3h-156q-6 0 -8 3q-3 5 -3 9v430h-236v-430q0 -4 -3 -9q-2 -3 -8 -3h-156q-6 0 -8 3q-3 5 -3 9v576q0 4 3 9q3 4 8 4h572q5 0 8 -4q3 -5 3 -9z" />
    <glyph glyph-name="summation" unicode="&#x2211;" horiz-adv-x="674" 
d="M454 300l-90 -116q-5 -6 -15 -16q-6 -6 -12 -10l-4 -3v-3h298q4 0 9 -5t5 -9v-124q0 -4 -5 -9t-9 -5h-600v34l211 266l-211 266v34h590q4 0 9 -5t5 -9v-124q0 -4 -5 -9t-9 -5h-289v-3q21 -17 36 -37z" />
    <glyph glyph-name="minus" unicode="&#x2212;" horiz-adv-x="500" 
d="M450 224h-400v114h400v-114z" />
    <glyph glyph-name="radical" unicode="&#x221a;" horiz-adv-x="589" 
d="M310 153l134 623h218v-112h-125l-166 -783h-156l-92 368h-101v111h191l53 -207q5 -20 9 -49q2 -11 3.5 -27t2.5 -22l3 -20h11q7 80 15 118z" />
    <glyph glyph-name="infinity" unicode="&#x221e;" horiz-adv-x="792" 
d="M216 66h-3q-68 0 -121 47q-52 46 -52 138q0 91 53 138q52 46 120 46q52 0 90 -22t91 -75q51 56 89 77q37 21 89 21q70 0 123 -47q52 -46 52 -137q0 -92 -52 -138t-120 -46q-44 0 -95 27t-84 69q-84 -98 -180 -98zM568 323q-25 0 -45 -14q-18 -13 -58 -57q18 -20 38 -40
q11 -11 28 -21q19 -11 37 -11q24 0 42 18t18 54q0 35 -18 53t-42 18zM216 179l-1 1q6 0 16 2q5 1 15 5q8 3 12 6t14 11l13 13q1 1 15 17q7 8 17 18q-42 45 -58 57q-19 14 -43 14q-23 0 -41 -19q-18 -20 -18 -54q0 -35 18 -53t41 -18z" />
    <glyph glyph-name="integral" unicode="&#x222b;" horiz-adv-x="264" 
d="M65 -51l-1 681q0 67 35 107q35 39 102 39q19 0 37 -3t27 -6l8 -2v-85q0 -12 -13 -12h-32q-50 0 -50 -53v-682q0 -69 -36 -107t-100 -38q-19 0 -37 3t-26 6l-8 2v84q0 13 13 13h31q50 0 50 53z" />
    <glyph glyph-name="approxequal" unicode="&#x2248;" horiz-adv-x="500" 
d="M327 222q49 0 91 50l48 -88q-60 -75 -131 -75q-41 0 -87 32t-77 32q-47 0 -89 -53l-48 90q55 76 129 76q41 0 87 -32t77 -32zM327 401q49 0 91 50l48 -88q-60 -75 -131 -75q-41 0 -87 32t-77 32q-47 0 -89 -53l-48 90q55 76 129 76q41 0 87 -32t77 -32z" />
    <glyph glyph-name="notequal" unicode="&#x2260;" horiz-adv-x="500" 
d="M112 43l36 100h-98v114h140l19 54h-159v114h201l50 137l92 -35l-38 -102h95v-114h-137l-19 -54h156v-114h-198l-49 -135z" />
    <glyph glyph-name="lessequal" unicode="&#x2264;" horiz-adv-x="500" 
d="M431 0h-362v99h362v-99zM431 586v-110l-192 -120v-3l192 -121v-109h-35l-327 207v50l327 206h35z" />
    <glyph glyph-name="greaterequal" unicode="&#x2265;" horiz-adv-x="500" 
d="M431 0h-362v99h362v-99zM69 476v110h35l327 -206v-50l-327 -207h-35v109l192 121v3z" />
    <glyph glyph-name="lozenge" unicode="&#x25ca;" horiz-adv-x="509" 
d="M474 280l-181 -319h-77l-181 319l182 320h75zM166 280l87 -156h2l88 156l-88 156h-1z" />
    <glyph glyph-name="zero.tb" unicode="&#xf639;" horiz-adv-x="600" 
d="M27 300v-2q0 139 74 225t198 86q125 0 198 -85q74 -86 74 -225t-74 -225q-72 -84 -198 -84q-125 0 -198 85q-74 86 -74 225zM207 298v-2q0 -73 24 -115t69 -42t69 42t24 116t-24 116t-69 42t-69 -42t-24 -115z" />
    <glyph glyph-name="two.tb" unicode="&#xf63a;" horiz-adv-x="600" 
d="M31 0v104l281 194q65 45 65 96q0 30 -21 48t-55 18q-39 0 -60 -24t-21 -70q0 -19 -17 -19h-145q-18 0 -18 16q0 107 66 177q66 71 195 71q117 0 186 -63t69 -148q0 -120 -120 -201l-34 -23l-43 -22v-2h193q4 0 9 -5t5 -9v-124q0 -5 -4 -9q-5 -5 -9 -5h-522z" />
    <glyph glyph-name="three.tb" unicode="&#xf63b;" horiz-adv-x="600" 
d="M319 234h-116q-4 0 -9 5t-5 9v105q0 4 5 9t9 5h91q71 0 71 51q0 23 -19 36q-20 14 -51 14q-62 0 -70 -53q-1 -16 -15 -16h-147q-7 0 -12 5t-5 11q0 81 65 138q64 57 182 57q129 0 191 -54t62 -126q0 -70 -54 -105v-3q74 -41 74 -132q0 -86 -70 -143q-69 -56 -204 -56
q-125 0 -193 56q-69 57 -69 137q0 17 18 17h146q14 0 16 -15q6 -54 86 -54q40 0 65 17q24 17 24 41q0 44 -66 44z" />
    <glyph glyph-name="four.tb" unicode="&#xf63c;" horiz-adv-x="600" 
d="M558 100h-56v-85q0 -4 -5 -9t-9 -5h-150q-4 0 -9 5t-5 9v85h-311v138l286 362h205v-348h54q4 0 9 -5t5 -9v-124q0 -4 -5 -9t-9 -5zM236 252h92v100l3 54l-4 1q-19 -33 -27 -42l-72 -91l-26 -22l1 -2q30 2 33 2z" />
    <glyph glyph-name="five.tb" unicode="&#xf63d;" horiz-adv-x="600" 
d="M496 448l-258 1l-8 -71q1 -1 3 -1q45 20 102 20q107 0 165 -57q59 -57 59 -132q0 -97 -70 -157q-69 -59 -187 -59q-115 0 -191 52q-77 53 -77 123q0 8 7 14t15 6h137q13 0 21 -11q27 -37 88 -37q37 0 57 17t20 39q0 23 -21 38t-57 15q-33 0 -87 -17q-28 -9 -44 -2
l-117 51q-13 7 -12 19l39 301h416q4 0 9 -5t5 -9v-124q0 -4 -5 -9t-9 -5z" />
    <glyph glyph-name="six.tb" unicode="&#xf63e;" horiz-adv-x="600" 
d="M309 -9l-3 -3q-139 0 -207 83q-69 84 -69 217q0 146 72 233t205 87q107 0 170 -48t63 -116q0 -20 -16 -20h-137q-18 0 -27 12q-19 25 -57 25q-37 0 -63 -27t-30 -76h3q46 41 126 41q111 0 170 -55q60 -56 60 -136q0 -92 -68 -155q-66 -62 -192 -62zM300 249l-3 -2
q-38 0 -61 -16q-24 -17 -24 -36q0 -25 24 -43t63 -18q42 0 65 18t23 44q0 23 -21 38t-66 15z" />
    <glyph glyph-name="seven.tb" unicode="&#xf63f;" horiz-adv-x="600" 
d="M332 448h-280q-4 0 -9 5q-4 4 -4 9v124q0 4 5 9t9 5h538v-19l-283 -570q-6 -11 -23 -11h-170q-8 0 -8 7q0 4 4 11l221 429v1z" />
    <glyph glyph-name="eight.tb" unicode="&#xf640;" horiz-adv-x="600" 
d="M300 610l-1 -1q115 0 183 -51q67 -51 67 -130q0 -68 -57 -114v-2q76 -49 76 -133q0 -90 -74 -140q-73 -49 -195 -49t-195 49q-74 50 -74 140q0 84 76 133v2q-57 46 -57 114q0 80 68 131q67 51 183 51zM388 187v-1q0 22 -23 36t-66 14t-66 -14t-23 -36t23 -36
q22 -13 66 -13q43 0 66 14t23 36zM375 421l1 -1q0 20 -19 33t-57 13t-57 -13t-19 -33q0 -45 76 -45q40 0 57 13q18 14 18 33z" />
    <glyph glyph-name="nine.tb" unicode="&#xf641;" horiz-adv-x="600" 
d="M291 610l2 1q138 0 207 -84t69 -217q0 -146 -72 -233q-71 -86 -205 -86q-109 0 -173 48q-66 49 -66 117q0 20 16 20h137q18 0 27 -12q18 -25 62 -25q87 0 94 103h-3q-46 -41 -126 -41q-110 0 -169 55q-60 56 -60 136q0 92 68 155q67 63 192 63zM299 349v-1q39 0 62 16
q24 16 24 36q0 26 -24 44t-63 18q-42 0 -64 -18t-22 -43q0 -22 21 -37t66 -15z" />
    <glyph glyph-name="zero.ot" unicode="&#xf643;" horiz-adv-x="600" 
d="M50 215q0 95 69 159q70 65 181 65t181 -65q69 -64 69 -159t-69 -159q-68 -64 -181 -64t-181 64q-69 64 -69 159zM218 215q0 -35 23 -60q23 -24 59 -24t59 24q23 25 23 60t-23 60q-22 24 -59 24q-36 0 -59 -24q-23 -25 -23 -60z" />
    <glyph glyph-name="one.ot" unicode="&#xf644;" horiz-adv-x="600" 
d="M546 0h-472q-4 0 -9 5t-5 9v112q0 4 5 9t9 5h174v112l-2 1l-106 -46q-17 -8 -23 6l-36 86q-5 12 -5 16q0 10 14 16l237 109h89v-300h130q4 0 9 -5t5 -9v-112q0 -4 -5 -9t-9 -5z" />
    <glyph glyph-name="two.ot" unicode="&#xf645;" horiz-adv-x="600" 
d="M48 0l-2 85q0 -1 7 2t22 9l75 31l85 36q68 28 96 51q24 20 24 41q0 20 -18 32t-46 12q-31 0 -47 -16q-17 -17 -17 -39q0 -16 -17 -16h-133q-18 0 -18 16q0 79 62 138q61 58 179 58q106 0 165 -51t59 -114q0 -67 -53 -111q-13 -9 -28 -18q-16 -9 -31 -16l-13 -6l2 -6
q42 16 69 16h64q4 0 9 -5t5 -9v-106q0 -5 -4 -9q-5 -5 -9 -5h-487z" />
    <glyph glyph-name="three.ot" unicode="&#xf646;" horiz-adv-x="600" 
d="M313 82l-114 -1q-4 0 -9 5t-5 9v93q0 4 5 9t9 5h91q31 0 48 14t17 36q0 18 -16 33q-17 15 -45 15q-29 0 -46 -14q-16 -14 -18 -33q-1 -16 -15 -16h-134q-7 0 -12 6q-5 7 -5 12q0 78 60 132t174 54q106 0 167 -49q62 -50 62 -117q0 -32 -16 -60q-17 -29 -42 -45v-3
q36 -20 57 -55q21 -36 21 -78q0 -79 -69 -136t-181 -57q-121 0 -183 57t-62 129q0 17 18 17h135q13 0 15 -14q3 -24 24 -36q20 -13 54 -13q38 0 59 15q21 13 21 38q0 48 -65 48z" />
    <glyph glyph-name="four.ot" unicode="&#xf647;" horiz-adv-x="600" 
d="M556 0h-66v-134q0 -4 -5 -9t-9 -5h-138q-4 0 -9 5t-5 9v134h-301v120l282 310h187v-296h64q4 0 9 -5t5 -9v-106q0 -4 -5 -9t-9 -5zM243 131l82 1v89l2 41l-3 1q-15 -23 -26 -36l-62 -67l-33 -28l1 -3q38 2 39 2z" />
    <glyph glyph-name="five.ot" unicode="&#xf648;" horiz-adv-x="600" 
d="M493 290h-253l-8 -70l2 -1q48 20 105 20q100 0 158 -53q57 -52 57 -135q0 -89 -67 -149t-183 -60q-101 0 -176 45t-75 119q0 8 8 14q7 6 15 6h126q12 0 19 -10q25 -36 84 -36q41 0 62 18q21 16 21 43q0 25 -21 41q-22 17 -61 17q-36 0 -93 -25q-18 -8 -33 -3l-108 35
q-15 5 -14 21l32 303h402q4 0 9 -5t5 -9v-112q0 -5 -4 -9q-5 -5 -9 -5z" />
    <glyph glyph-name="six.ot" unicode="&#xf649;" horiz-adv-x="600" 
d="M309 -9l-2 -2q-132 0 -201 78q-70 79 -70 211q0 142 75 226t198 84q103 0 165 -48q61 -48 61 -112q0 -19 -16 -19h-129q-15 0 -23 11q-19 27 -63 27q-43 0 -70 -27q-26 -26 -28 -73h3q17 16 53 26q38 11 76 11q109 0 166 -51t57 -131q0 -90 -66 -151q-64 -60 -186 -60z
M304 243l-2 -2q-44 0 -69 -15t-25 -39q0 -23 25 -41t67 -18q46 0 69 18t23 42q0 23 -22 39t-66 16z" />
    <glyph glyph-name="seven.ot" unicode="&#xf64a;" horiz-adv-x="600" 
d="M349 290h-295q-4 0 -9 5t-5 9v112q0 4 5 9t9 5h537v-19l-288 -549q-6 -11 -23 -11h-159q-7 0 -7 7q0 5 4 12l231 419v1z" />
    <glyph glyph-name="eight.ot" unicode="&#xf64b;" horiz-adv-x="600" 
d="M300 590v-1q106 0 174 -51t68 -128q0 -63 -58 -108v-2q77 -48 77 -129q0 -83 -75 -132q-73 -48 -187 -48q-113 0 -187 49q-75 50 -75 132q0 38 21 72t57 57v2q-57 43 -57 108q0 77 68 128t174 51zM393 179v-1q0 22 -24 36q-25 14 -68 14q-44 0 -69 -14q-24 -14 -24 -36
t24 -36q23 -13 69 -13q43 0 68 14q24 13 24 36zM380 403v-4q0 19 -21 32q-22 14 -60 14q-41 0 -60 -13q-20 -14 -20 -31q0 -20 20 -32q19 -12 60 -12q40 0 60 13q21 14 21 33z" />
    <glyph glyph-name="nine.ot" unicode="&#xf64c;" horiz-adv-x="600" 
d="M291 440l-3 2q132 0 201 -78t69 -213q0 -142 -73 -225q-74 -84 -196 -84q-104 0 -169 47q-64 46 -64 111q0 18 16 18h129q17 0 24 -10q19 -27 66 -27q44 0 72 26q27 27 29 74h-3q-15 -14 -53 -25q-34 -10 -76 -10q-109 0 -166 51t-57 131q0 88 69 150q70 62 185 62z
M291 187l-1 3q44 0 69 15q26 15 26 39q0 23 -25 41q-26 18 -67 18q-46 0 -68 -19q-23 -20 -23 -42t23 -39q22 -16 66 -16z" />
    <glyph glyph-name="zero.denominator" unicode="&#xf655;" horiz-adv-x="423" 
d="M24 194v-1q0 89 52 145q52 57 136 57t136 -57q52 -56 52 -145t-52 -145t-136 -56t-136 56t-52 146zM156 193q0 -43 15 -69q15 -25 42 -25q26 0 41 26q15 25 15 68t-15 68q-15 26 -41 26q-27 0 -42 -25q-15 -26 -15 -69z" />
    <glyph glyph-name="one.denominator" unicode="&#xf656;" horiz-adv-x="302" 
d="M270 396l-3 -386q0 -3 -3 -6t-6 -3h-112q-3 0 -6 3t-3 6v224l-2 2l-58 -41q-4 -2 -7 -2q-5 0 -6 4l-48 72q-4 7 2 12l166 115h86z" />
    <glyph glyph-name="two.denominator" unicode="&#xf657;" horiz-adv-x="417" 
d="M26 0l1 82l184 119q44 29 44 54q0 14 -12 23t-34 9t-34 -12t-12 -32q0 -12 -11 -12h-109q-12 0 -12 10q0 64 44 110q43 45 135 45q82 0 129 -42t47 -99q0 -68 -79 -120l-12 -8l-33 -16v-3h121q3 0 6 -3t3 -6v-90q0 -3 -3 -6t-6 -3h-357z" />
    <glyph glyph-name="three.denominator" unicode="&#xf658;" horiz-adv-x="411" 
d="M217 151l-79 2q-3 0 -6 3t-3 6v69q0 3 3 6t6 3h63q41 0 41 28q0 27 -41 27q-34 0 -41 -25q-3 -10 -13 -10h-107q-5 0 -8 3t-3 6q0 53 48 90q49 38 128 38q83 0 126 -34q44 -35 44 -84q0 -46 -36 -70v-2q49 -28 49 -84q0 -55 -48 -93q-47 -37 -139 -37t-135 36
q-45 37 -45 90q0 11 12 11h106q11 0 15 -9q10 -27 51 -27q51 0 51 32q0 24 -39 25z" />
    <glyph glyph-name="four.denominator" unicode="&#xf659;" horiz-adv-x="418" 
d="M393 62l-40 -1v-52q0 -3 -3 -6t-6 -3h-112q-3 0 -6 3t-3 6v52h-208v98l187 236h153v-228h38q3 0 6 -3t3 -6v-87q0 -3 -3 -6t-6 -3zM175 167h52v61l3 39l-3 1q-14 -24 -21 -31l-42 -52l-20 -19l1 -2q23 3 30 3z" />
    <glyph glyph-name="five.denominator" unicode="&#xf65a;" horiz-adv-x="407" 
d="M342 284h-173l-4 -37l2 -1q30 11 67 11q70 0 109 -36t39 -91q0 -59 -46 -99q-45 -39 -129 -39q-66 0 -114 26q-50 27 -65 72q-3 9 -3 16q0 5 5 10q4 4 11 4h98q11 0 19 -9q15 -18 46 -18q23 0 35 9t12 22q0 30 -47 30q-16 0 -51 -11q-18 -5 -30 0l-83 32q-8 5 -8 12
q0 1 0.5 4t1 8t0.5 9l24 177h284q3 0 6 -3t3 -6v-83q0 -3 -3 -6t-6 -3z" />
    <glyph glyph-name="six.denominator" unicode="&#xf65b;" horiz-adv-x="414" 
d="M214 -7l1 -2q-95 0 -142 53q-48 54 -48 142q0 96 51 153t140 57q68 0 113 -33t45 -76q0 -14 -12 -14h-103q-11 0 -18 9q-11 14 -33 14q-24 0 -39 -16q-14 -16 -16 -45h2q29 21 78 21q73 0 116 -35q42 -35 42 -87q0 -62 -48 -102q-46 -39 -129 -39zM209 159q-50 0 -50 -32
q0 -15 14 -26t36 -11q50 0 50 37q0 14 -13 23q-14 9 -37 9z" />
    <glyph glyph-name="seven.denominator" unicode="&#xf65c;" horiz-adv-x="338" 
d="M162 278l-145 1q-3 0 -6 3t-3 6v89q0 3 3 6t6 3h327v-13l-161 -366q-3 -7 -15 -7h-125q-5 0 -5 5q0 3 3 9l122 263z" />
    <glyph glyph-name="eight.denominator" unicode="&#xf65d;" horiz-adv-x="412" 
d="M206 396l2 -1q78 0 124 -33t46 -85q0 -43 -39 -72v-2q51 -30 51 -85q0 -59 -51 -92q-49 -32 -132 -32t-132 32q-51 33 -51 92q0 56 51 84v2q-39 29 -39 73q0 50 47 85q46 34 123 34zM258 120q0 32 -50 32t-50 -32q0 -31 50 -31t50 31zM250 272h-2q0 11 -10 18
q-11 8 -31 8t-31 -8q-10 -7 -10 -18q0 -27 42 -27t42 27z" />
    <glyph glyph-name="nine.denominator" unicode="&#xf65e;" horiz-adv-x="414" 
d="M199 396l-1 -2q95 0 143 -54t48 -142q0 -97 -52 -153t-141 -56q-67 0 -113 32q-45 33 -45 77q0 14 12 14h103q11 0 18 -9q11 -14 34 -14q24 0 39 16q14 16 16 45h-2q-28 -21 -81 -21q-73 0 -114 35t-41 87q0 61 48 103t129 42zM204 225h-1q50 0 50 32q0 16 -13 26
q-14 11 -36 11q-50 0 -50 -37q0 -14 13 -23t37 -9z" />
    <glyph glyph-name="zero.numerator" unicode="&#xf661;" horiz-adv-x="423" 
d="M24 408v-2q0 90 52 146q53 57 136 57q84 0 136 -57q52 -56 52 -145t-52 -145q-52 -57 -136 -57t-136 57q-52 56 -52 146zM156 406q0 -44 15 -69t42 -25q26 0 41 26t15 68t-15 68t-41 26q-27 0 -42 -25t-15 -69z" />
    <glyph glyph-name="one.numerator" unicode="&#xf662;" horiz-adv-x="302" 
d="M270 610l-3 -386q0 -3 -3 -6t-6 -3h-112q-3 0 -6 3t-3 6v224l-2 2l-58 -41q-4 -2 -7 -2q-5 0 -6 4l-48 72q-4 7 2 12l166 115h86z" />
    <glyph glyph-name="two.numerator" unicode="&#xf663;" horiz-adv-x="417" 
d="M26 214l1 82l184 119q44 29 44 54q0 14 -12 23t-34 9t-34 -12t-12 -32q0 -12 -11 -12h-109q-12 0 -12 10q0 64 44 110q43 45 135 45q82 0 129 -42t47 -99q0 -68 -79 -120l-12 -8l-33 -16v-3h121q3 0 6 -3t3 -6v-90q0 -3 -3 -6t-6 -3h-357z" />
    <glyph glyph-name="three.numerator" unicode="&#xf664;" horiz-adv-x="411" 
d="M217 365l-79 2q-3 0 -6 3t-3 6v69q0 3 3 6t6 3h63q41 0 41 28q0 27 -41 27q-34 0 -41 -25q-3 -10 -13 -10h-107q-5 0 -8 3t-3 6q0 53 48 90q49 38 128 38q83 0 126 -34q44 -35 44 -84q0 -46 -36 -70v-2q49 -28 49 -84q0 -55 -48 -93q-49 -38 -139 -38q-91 0 -135 37
q-45 37 -45 90q0 11 12 11h106q11 0 15 -9q10 -27 51 -27q51 0 51 32q0 24 -39 25z" />
    <glyph glyph-name="four.numerator" unicode="&#xf665;" horiz-adv-x="418" 
d="M393 276l-40 -1v-52q0 -3 -3 -6t-6 -3h-112q-3 0 -6 3t-3 6v52h-208v98l187 236h153v-228h38q3 0 6 -3t3 -6v-87q0 -3 -3 -6t-6 -3zM175 381h52v61l3 39l-3 1q-14 -24 -21 -31l-42 -52l-20 -19l1 -2q23 3 30 3z" />
    <glyph glyph-name="five.numerator" unicode="&#xf666;" horiz-adv-x="407" 
d="M342 498h-173l-4 -37l2 -1q30 11 67 11q70 0 109 -36t39 -91q0 -59 -46 -99t-129 -40q-65 0 -114 27q-50 27 -65 72q-3 9 -3 16q0 5 5 10q4 4 11 4h98q11 0 19 -9q15 -18 46 -18q23 0 35 9t12 22q0 30 -47 30q-16 0 -51 -11q-18 -5 -30 0l-83 32q-8 5 -8 12q0 1 0.5 4
t1 8t0.5 9l24 177h284q3 0 6 -3t3 -6v-83q0 -3 -3 -6t-6 -3z" />
    <glyph glyph-name="six.numerator" unicode="&#xf667;" horiz-adv-x="414" 
d="M214 206l1 -2q-94 0 -142 54t-48 142q0 96 51 153t140 57q68 0 113 -33t45 -76q0 -14 -12 -14h-103q-11 0 -18 9q-11 14 -33 14q-24 0 -39 -16q-14 -16 -16 -45h2q29 21 78 21q73 0 116 -35q42 -35 42 -87q0 -62 -48 -102q-47 -40 -129 -40zM209 373q-50 0 -50 -32
q0 -15 14 -26t36 -11q50 0 50 37q0 14 -13 23q-14 9 -37 9z" />
    <glyph glyph-name="seven.numerator" unicode="&#xf668;" horiz-adv-x="338" 
d="M162 492l-145 1q-3 0 -6 3t-3 6v89q0 3 3 6t6 3h327v-13l-161 -366q-3 -7 -15 -7h-125q-5 0 -5 5q0 3 3 9l122 263z" />
    <glyph glyph-name="eight.numerator" unicode="&#xf669;" horiz-adv-x="412" 
d="M206 610l2 -1q78 0 124 -33t46 -85q0 -43 -39 -72v-2q51 -30 51 -85q0 -59 -51 -92t-132 -33t-132 33t-51 92q0 56 51 84v2q-39 28 -39 73q0 50 47 85q46 34 123 34zM258 334q0 32 -50 32t-50 -32q0 -31 50 -31t50 31zM250 486h-2q0 11 -10 18q-11 8 -31 8t-31 -8
q-10 -7 -10 -18q0 -27 42 -27t42 27z" />
    <glyph glyph-name="nine.numerator" unicode="&#xf66a;" horiz-adv-x="414" 
d="M199 610l-1 -2q95 0 143 -54t48 -142q0 -97 -52 -153q-53 -57 -141 -57q-68 0 -113 33t-45 77q0 14 12 14h103q11 0 18 -9q11 -14 34 -14q24 0 39 16q14 16 16 45h-2q-28 -21 -81 -21q-73 0 -114 35t-41 87q0 61 48 103t129 42zM204 439h-1q50 0 50 32q0 16 -13 26
q-14 11 -36 11q-50 0 -50 -37q0 -14 13 -23q14 -9 37 -9z" />
    <glyph glyph-name="Abreve.sc" unicode="&#xf66d;" horiz-adv-x="538" 
d="M268 497v-1q-70 0 -111 39q-40 39 -40 99q0 17 14 17h76q5 0 8 -4q3 -5 3 -9q0 -22 14 -36q13 -13 36 -13q22 0 36 14t14 36q0 5 3 9t8 4h76q14 0 14 -17q0 -60 -40 -99q-41 -39 -111 -39zM347 12l-11 38h-134l-11 -37q-4 -13 -21 -13h-152q-8 0 -8 7q0 3 4 12l175 410
h160l175 -410q4 -8 4 -13q0 -6 -8 -6h-152q-17 0 -21 12zM250 209l-12 -39h61l-11 39l-14 51h-10z" />
    <glyph glyph-name="Amacron.sc" unicode="&#xf66e;" horiz-adv-x="538" 
d="M347 13l-11 38h-134l-11 -37q-4 -13 -21 -13h-152q-8 0 -8 7q0 3 4 12l175 410h160l175 -410q4 -8 4 -13q0 -7 -8 -7h-152q-17 0 -21 13zM250 210l-12 -39h61l-11 39l-14 51h-10zM397 488h-259v100h259v-100z" />
    <glyph glyph-name="Aogonek.sc" unicode="&#xf66f;" horiz-adv-x="538" 
d="M552 -132l-1 2q7 -28 7 -51q0 -10 -12 -16q-24 -12 -65 -12q-54 0 -85 26q-30 25 -30 69q0 62 59 116h97q-48 -57 -48 -95q0 -31 34 -31q3 0 15 2q3 0 7 1q3 1 4 1q15 2 18 -12zM346 15l-11 38h-134l-11 -37q-4 -13 -21 -13h-152q-8 0 -8 7q0 3 4 12l175 410h160
l175 -410q4 -8 4 -13q0 -7 -8 -7h-152q-17 0 -21 13zM249 212l-12 -39h61l-11 39l-14 51h-10z" />
    <glyph glyph-name="Cacute.sc" unicode="&#xf671;" horiz-adv-x="560" 
d="M514 240l-130 -4q-16 0 -22 14q-19 46 -77 46q-39 0 -64 -25t-25 -60t25 -60t64 -25q53 0 77 40q7 13 20 13h132q16 0 16 -13q0 -27 -13 -54q-14 -30 -40 -57q-27 -29 -76 -48q-49 -18 -112 -18q-119 0 -189 64q-71 65 -71 161t71 161t189 65q61 0 111 -21q49 -21 76 -51
q28 -31 41 -60q14 -31 14 -54q0 -5 -5 -10q-4 -4 -12 -4zM412 674l31 -26q12 -12 12 -27q0 -19 -16 -32l-103 -88q-7 -7 -26 -7h-63q-10 0 -10 9q0 5 6 12l102 150q16 22 36 22q18 0 31 -13z" />
    <glyph glyph-name="Ccaron.sc" unicode="&#xf672;" horiz-adv-x="560" 
d="M514 240l-130 -4q-16 0 -22 14q-19 46 -77 46q-39 0 -64 -25t-25 -60t25 -60t64 -25q53 0 77 40q7 13 20 13h132q16 0 16 -13q0 -27 -13 -54q-14 -30 -40 -57q-27 -29 -76 -48q-49 -18 -112 -18q-119 0 -189 64q-71 65 -71 161t71 161t189 65q61 0 111 -21q49 -21 76 -51
q28 -31 41 -60q14 -31 14 -54q0 -5 -5 -10q-4 -4 -12 -4zM279 600l101 66q14 9 24 9q7 0 18 -8l26 -20q10 -9 10 -17q0 -9 -12 -21l-96 -92q-29 -29 -66 -29h-10q-39 0 -68 29l-95 92q-12 12 -12 21q0 8 10 17l26 20q11 8 18 8q11 0 24 -9z" />
    <glyph glyph-name="Ccircumflex.sc" unicode="&#xf673;" horiz-adv-x="560" 
d="M514 240l-130 -4q-16 0 -22 14q-19 46 -77 46q-39 0 -64 -25t-25 -60t25 -60t64 -25q53 0 77 40q7 13 20 13h132q16 0 16 -13q0 -27 -13 -54q-14 -30 -40 -57q-27 -29 -76 -48q-49 -18 -112 -18q-119 0 -189 64q-71 65 -71 161t71 161t189 65q61 0 111 -21q49 -21 76 -51
q28 -31 41 -60q14 -31 14 -54q0 -5 -5 -10q-4 -4 -12 -4zM279 559l-102 -66q-13 -9 -24 -9q-7 0 -18 8l-26 20q-10 9 -10 17q0 9 12 21l101 97q32 32 62 32h10q30 0 62 -32l101 -97q12 -12 12 -21q0 -8 -10 -17l-26 -20q-11 -8 -18 -8q-11 0 -24 9z" />
    <glyph glyph-name="Cdotaccent.sc" unicode="&#xf674;" horiz-adv-x="560" 
d="M514 240l-130 -4q-16 0 -22 14q-19 46 -77 46q-39 0 -64 -25t-25 -60t25 -60t64 -25q53 0 77 40q7 13 20 13h132q16 0 16 -13q0 -27 -13 -54q-14 -30 -40 -57q-27 -29 -76 -48q-49 -18 -112 -18q-119 0 -189 64q-71 65 -71 161t71 161t189 65q61 0 111 -21q49 -21 76 -51
q28 -31 41 -60q14 -31 14 -54q0 -5 -5 -10q-4 -4 -12 -4zM201 578l-4 -4q0 33 23 56t56 23q34 0 56 -22q23 -23 23 -55q0 -33 -22 -55t-55 -22q-32 0 -55 23q-22 22 -22 56z" />
    <glyph glyph-name="Dcaron.sc" unicode="&#xf675;" horiz-adv-x="539" 
d="M268 0h-219q-5 0 -9 4t-4 9v406q0 5 4 9t9 4h217q105 0 174 -60t69 -156t-64 -156q-65 -60 -177 -60zM260 290l-57 2v-150h55q39 0 61 20q21 20 21 54t-23 54q-21 18 -57 20zM223 606l101 66q14 9 24 9q7 0 18 -8l26 -20q10 -9 10 -17q0 -9 -12 -21l-96 -92
q-29 -29 -66 -29h-10q-39 0 -68 29l-95 92q-12 12 -12 21q0 8 10 17l26 20q11 8 18 8q11 0 24 -9z" />
    <glyph glyph-name="Dmacron.sc" unicode="&#xf676;" horiz-adv-x="539" 
d="M-4 176l-1 78h42v164q0 5 4 9t9 4h217q105 0 174 -60t69 -156t-64 -156q-63 -59 -177 -59h-218q-6 0 -9 3q-4 4 -4 9v164h-42zM260 290l-57 2v-36h62v-78h-62v-36h55q39 0 61 20q21 20 21 54t-23 54q-21 18 -57 20z" />
    <glyph glyph-name="Ebreve.sc" unicode="&#xf677;" horiz-adv-x="474" 
d="M412 166l-206 -2v-46h228q4 0 9 -5t5 -9v-92q0 -4 -5 -9q-4 -4 -9 -4h-384q-4 0 -9 3q-4 4 -4 9v406q0 5 4 9t9 4h380q4 0 9 -5t5 -9v-92q0 -4 -5 -9t-9 -5h-224v-44h206q4 0 9 -5t5 -9v-72q0 -4 -5 -9t-9 -5zM254 497v-1q-70 0 -111 39q-40 39 -40 99q0 17 14 17h76
q5 0 8 -4q3 -5 3 -9q0 -22 14 -36q13 -13 36 -13q22 0 36 14t14 36q0 5 3 9t8 4h76q14 0 14 -17q0 -60 -40 -99q-41 -39 -111 -39z" />
    <glyph glyph-name="Ecaron.sc" unicode="&#xf678;" horiz-adv-x="474" 
d="M412 166l-206 -2v-46h228q4 0 9 -5t5 -9v-92q0 -4 -5 -9q-4 -4 -9 -4h-384q-4 0 -9 3q-4 4 -4 9v406q0 5 4 9t9 4h380q4 0 9 -5t5 -9v-92q0 -4 -5 -9t-9 -5h-224v-44h206q4 0 9 -5t5 -9v-72q0 -4 -5 -9t-9 -5zM251 602l101 66q14 9 24 9q7 0 18 -8l26 -20q10 -9 10 -17
q0 -9 -12 -21l-96 -92q-29 -29 -66 -29h-10q-39 0 -68 29l-95 92q-12 12 -12 21q0 8 10 17l26 20q11 8 18 8q11 0 24 -9z" />
    <glyph glyph-name="Edotaccent.sc" unicode="&#xf679;" horiz-adv-x="474" 
d="M412 166l-206 -2v-46h228q4 0 9 -5t5 -9v-92q0 -4 -5 -9q-4 -4 -9 -4h-384q-4 0 -9 3q-4 4 -4 9v406q0 5 4 9t9 4h380q4 0 9 -5t5 -9v-92q0 -4 -5 -9t-9 -5h-224v-44h206q4 0 9 -5t5 -9v-72q0 -4 -5 -9t-9 -5zM182 580l-4 -4q0 33 23 56t56 23q34 0 56 -22q23 -23 23 -55
q0 -33 -22 -55t-55 -22q-32 0 -55 23q-22 22 -22 56z" />
    <glyph glyph-name="Emacron.sc" unicode="&#xf67a;" horiz-adv-x="474" 
d="M412 166l-206 -2v-46h228q4 0 9 -5t5 -9v-92q0 -4 -5 -9q-4 -4 -9 -4h-384q-4 0 -9 3q-4 4 -4 9v406q0 5 4 9t9 4h380q4 0 9 -5t5 -9v-92q0 -4 -5 -9t-9 -5h-224v-44h206q4 0 9 -5t5 -9v-72q0 -4 -5 -9t-9 -5zM377 483h-259v100h259v-100z" />
    <glyph glyph-name="Eogonek.sc" unicode="&#xf67c;" horiz-adv-x="474" 
d="M412 166l-206 -2v-46h228q4 0 9 -5t5 -9v-92q0 -4 -5 -9q-4 -4 -9 -4h-384q-4 0 -9 3q-4 4 -4 9v406q0 5 4 9t9 4h380q4 0 9 -5t5 -9v-92q0 -4 -5 -9t-9 -5h-224v-44h206q4 0 9 -5t5 -9v-72q0 -4 -5 -9t-9 -5zM469 -134l-1 2q7 -28 7 -51q0 -10 -12 -16q-24 -12 -65 -12
q-54 0 -85 26q-30 25 -30 69q0 62 59 116h97q-48 -57 -48 -95q0 -31 34 -31q3 0 15 2q3 0 7 1l4 1q15 2 18 -12z" />
    <glyph glyph-name="Gbreve.sc" unicode="&#xf67d;" horiz-adv-x="562" 
d="M501 278l-136 -3q-10 0 -18 8q-26 26 -63 26q-40 0 -65 -27q-26 -28 -26 -70t26 -70q25 -27 68 -27q29 0 48 9t24 21h-90q-4 0 -7 3t-3 8v82q0 5 3 8t8 3h262v-55q0 -82 -63 -145q-62 -62 -180 -62q-114 0 -187 64t-73 161q0 96 72 161q73 65 186 65q57 0 106 -17
q48 -16 74 -41q25 -23 39 -47q14 -23 14 -39q0 -6 -6 -11q-7 -5 -13 -5zM277 494v-1q-71 0 -111 39t-40 99q0 17 14 17h76q5 0 8 -4t3 -9q0 -22 14 -36q13 -13 36 -13q22 0 36 14t14 36q0 4 3 9q3 4 8 4h76q14 0 14 -17q0 -60 -40 -99t-111 -39z" />
    <glyph glyph-name="Gcircumflex.sc" unicode="&#xf67e;" horiz-adv-x="562" 
d="M501 278l-136 -3q-10 0 -18 8q-26 26 -63 26q-40 0 -65 -27q-26 -28 -26 -70t26 -70q25 -27 68 -27q29 0 48 9t24 21h-90q-4 0 -7 3t-3 8v82q0 5 3 8t8 3h262v-55q0 -82 -63 -145q-62 -62 -180 -62q-114 0 -187 64t-73 161q0 96 72 161q73 65 186 65q57 0 106 -17
q48 -16 74 -41q25 -23 39 -47q14 -23 14 -39q0 -6 -6 -11q-7 -5 -13 -5zM277 560l-102 -66q-13 -9 -24 -9q-7 0 -18 8l-26 20q-10 9 -10 17q0 9 12 21l101 97q32 32 62 32h10q30 0 62 -32l101 -97q12 -12 12 -21q0 -8 -10 -17l-26 -20q-11 -8 -18 -8q-11 0 -24 9z" />
    <glyph glyph-name="Gcommaaccent.sc" unicode="&#xf67f;" horiz-adv-x="562" 
d="M501 278l-136 -3q-10 0 -18 8q-26 26 -63 26q-40 0 -65 -27q-26 -28 -26 -70t26 -70q25 -27 68 -27q29 0 48 9t24 21h-90q-4 0 -7 3t-3 8v82q0 5 3 8t8 3h262v-55q0 -82 -63 -145q-62 -62 -180 -62q-114 0 -187 64t-73 161q0 96 72 161q73 65 186 65q57 0 106 -17
q48 -16 74 -41q25 -23 39 -47q14 -23 14 -39q0 -6 -6 -11q-7 -5 -13 -5zM214 -118l-1 3q0 29 21 48q22 20 50 20q32 0 54 -24q22 -23 22 -67q0 -52 -27 -94q-28 -43 -76 -59q-13 -6 -23 -6t-15 9l-15 33q-3 6 -3 10q0 5 6 9q28 10 40 21q11 10 16 30v2q-21 5 -35 23
q-14 19 -14 42z" />
    <glyph glyph-name="Gdotaccent.sc" unicode="&#xf680;" horiz-adv-x="562" 
d="M501 278l-136 -3q-10 0 -18 8q-26 26 -63 26q-40 0 -65 -27q-26 -28 -26 -70t26 -70q25 -27 68 -27q29 0 48 9t24 21h-90q-4 0 -7 3t-3 8v82q0 5 3 8t8 3h262v-55q0 -82 -63 -145q-62 -62 -180 -62q-114 0 -187 64t-73 161q0 96 72 161q73 65 186 65q57 0 106 -17
q48 -16 74 -41q25 -23 39 -47q14 -23 14 -39q0 -6 -6 -11q-7 -5 -13 -5zM202 581l-4 -4q0 33 23 56t56 23q34 0 56 -22q23 -23 23 -55q0 -33 -22 -55t-55 -22q-32 0 -55 23q-22 22 -22 56z" />
    <glyph glyph-name="Hcircumflex.sc" unicode="&#xf682;" horiz-adv-x="558" 
d="M520 418v-406q0 -5 -4 -9q-3 -3 -9 -3h-144q-6 0 -9 3q-4 4 -4 9v130h-146v-130q0 -5 -4 -9q-3 -3 -9 -3h-144q-6 0 -9 3q-4 4 -4 9v406q0 5 4 9t9 4h144q5 0 9 -4t4 -9v-136h146v136q0 5 4 9t9 4h144q5 0 9 -4t4 -9zM288 563l-102 -66q-14 -9 -24 -9q-7 0 -18 8l-26 20
q-10 9 -10 17q0 9 12 21l101 97q32 32 62 32h10q30 0 62 -32l101 -97q12 -12 12 -21q0 -8 -10 -17l-26 -20q-11 -8 -18 -8q-10 0 -24 9z" />
    <glyph glyph-name="Imacron.sc" unicode="&#xf685;" horiz-adv-x="244" 
d="M206 418v-406q0 -5 -4 -9q-3 -3 -9 -3h-144q-6 0 -9 3q-4 4 -4 9v406q0 5 4 9t9 4h144q5 0 9 -4t4 -9zM251 498h-258v100h258v-100z" />
    <glyph glyph-name="Iogonek.sc" unicode="&#xf686;" horiz-adv-x="244" 
d="M225 -132l-1 2q7 -28 7 -51q0 -10 -12 -16q-24 -12 -65 -12q-54 0 -85 26q-30 25 -30 69q0 62 59 116h97q-48 -57 -48 -95q0 -31 34 -31q3 0 15 2q3 0 7 1l4 1q15 2 18 -12zM205 420v-406q0 -5 -4 -9t-9 -4h-144q-5 0 -9 4t-4 9v406q0 5 4 9t9 4h144q5 0 9 -4t4 -9z" />
    <glyph glyph-name="Jcircumflex.sc" unicode="&#xf688;" horiz-adv-x="446" 
d="M168 189l-4 -27q0 -14 10 -24t25 -10q39 0 39 43v245q0 4 3 9q3 4 8 4h146q5 0 8 -4q3 -5 3 -9v-234q0 -86 -51 -140q-50 -53 -155 -53q-96 0 -144 49q-48 50 -48 114v36q0 5 4 9q5 5 9 5h133q5 0 9 -4q5 -5 5 -9zM322 561l-102 -66q-14 -9 -24 -9q-7 0 -18 8l-26 20
q-10 9 -10 17q0 9 12 21l101 97q32 32 62 32h10q30 0 62 -32l101 -97q12 -12 12 -21q0 -8 -10 -17l-26 -20q-11 -8 -18 -8q-10 0 -24 9z" />
    <glyph glyph-name="Kcommaaccent.sc" unicode="&#xf689;" horiz-adv-x="561" 
d="M534 412l-150 -172l160 -224q5 -7 5 -10q0 -6 -9 -6h-166q-22 0 -29 10l-77 106h-2l-60 -64v-41q0 -5 -4 -9q-4 -3 -9 -3h-144q-5 0 -9 3q-4 4 -4 9v406q0 5 4 9t9 4h144q5 0 9 -4t4 -9v-146h3q7 10 23 30l102 119q7 10 23 10h176q8 0 8 -7q0 -4 -7 -11zM200 -116l1 2
q0 28 20 48t50 20q32 0 53 -24t21 -67q0 -52 -27 -94q-28 -44 -76 -60q-14 -5 -24 -5q-7 0 -12 8l-15 33q-3 7 -3 10q0 5 6 9q26 11 39 23q11 10 16 30v2q-22 4 -36 23q-13 17 -13 42z" />
    <glyph glyph-name="Lacute.sc" unicode="&#xf68a;" horiz-adv-x="424" 
d="M206 418l-1 -279h194q4 0 9 -5t5 -9v-112q0 -4 -5 -9q-4 -4 -9 -4h-350q-6 0 -9 3q-4 4 -4 9v406q0 5 4 9t9 4h144q5 0 9 -4t4 -9zM235 678l31 -26q12 -12 12 -27q0 -19 -16 -32l-103 -88q-7 -7 -26 -7h-63q-10 0 -10 9q0 5 6 12l102 150q16 22 36 22q18 0 31 -13z" />
    <glyph glyph-name="Lcaron.sc" unicode="&#xf68b;" horiz-adv-x="424" 
d="M206 418l-1 -279h194q4 0 9 -5t5 -9v-112q0 -4 -5 -9q-4 -4 -9 -4h-350q-6 0 -9 3q-4 4 -4 9v406q0 5 4 9t9 4h144q5 0 9 -4t4 -9zM248 422l1 1q0 26 18 44t44 18q28 0 48 -20t20 -60q0 -34 -18 -70q-18 -37 -48 -62q-10 -10 -20 -10q-9 0 -14 5l-22 20q-9 7 -9 14
q0 4 6 9q31 31 36 53v2q-18 4 -30 20q-12 15 -12 36z" />
    <glyph glyph-name="Lcommaaccent.sc" unicode="&#xf68c;" horiz-adv-x="424" 
d="M206 418l-1 -279h194q4 0 9 -5t5 -9v-112q0 -4 -5 -9q-4 -4 -9 -4h-350q-6 0 -9 3q-4 4 -4 9v406q0 5 4 9t9 4h144q5 0 9 -4t4 -9zM163 -116l1 2q0 28 20 48t50 20q32 0 53 -24t21 -67q0 -52 -27 -94q-28 -44 -76 -60q-14 -5 -24 -5q-7 0 -12 8l-15 33q-3 7 -3 10
q0 5 6 9q26 11 39 23q11 10 16 30v2q-22 4 -36 23q-13 17 -13 42z" />
    <glyph glyph-name="Ldot.sc" unicode="&#xf68d;" horiz-adv-x="424" 
d="M206 418l-1 -279h194q4 0 9 -5t5 -9v-112q0 -4 -5 -9q-4 -4 -9 -4h-350q-6 0 -9 3q-4 4 -4 9v406q0 5 4 9t9 4h144q5 0 9 -4t4 -9zM238 267l-4 -4q0 33 23 56t56 23q34 0 56 -22q23 -23 23 -55q0 -33 -22 -55t-55 -22q-32 0 -55 23q-22 22 -22 56z" />
    <glyph glyph-name="Nacute.sc" unicode="&#xf68e;" horiz-adv-x="562" 
d="M512 0h-136l-133 141l-36 42h-2v-171q0 -4 -3 -9q-2 -3 -8 -3h-143q-6 0 -9 3q-4 4 -4 9v406q0 5 4 9t9 4h137l143 -152l24 -29h3v169q0 5 3 9t8 4h143q5 0 9 -4t4 -9v-406q0 -5 -4 -9t-9 -4zM416 680l31 -26q12 -12 12 -27q0 -19 -16 -32l-103 -88q-7 -7 -26 -7h-63
q-10 0 -10 9q0 5 6 12l102 150q16 22 36 22q18 0 31 -13z" />
    <glyph glyph-name="Ncaron.sc" unicode="&#xf68f;" horiz-adv-x="562" 
d="M512 0h-136l-133 141l-36 42h-2v-171q0 -4 -3 -9q-2 -3 -8 -3h-143q-6 0 -9 3q-4 4 -4 9v406q0 5 4 9t9 4h137l143 -152l24 -29h3v169q0 5 3 9t8 4h143q5 0 9 -4t4 -9v-406q0 -5 -4 -9t-9 -4zM285 606l101 66q14 9 24 9q7 0 18 -8l26 -20q10 -9 10 -17q0 -9 -12 -21
l-96 -92q-29 -29 -66 -29h-10q-39 0 -68 29l-95 92q-12 12 -12 21q0 8 10 17l26 20q11 8 18 8q11 0 24 -9z" />
    <glyph glyph-name="Ncommaaccent.sc" unicode="&#xf690;" horiz-adv-x="562" 
d="M512 0h-136l-133 141l-36 42h-2v-171q0 -4 -3 -9q-2 -3 -8 -3h-143q-6 0 -9 3q-4 4 -4 9v406q0 5 4 9t9 4h137l143 -152l24 -29h3v169q0 5 3 9t8 4h143q5 0 9 -4t4 -9v-406q0 -5 -4 -9t-9 -4zM216 -115l1 2q0 28 20 48t50 20q32 0 53 -24t21 -67q0 -52 -27 -94
q-28 -44 -76 -60q-14 -5 -24 -5q-7 0 -12 8l-15 33q-3 8 -3 10q0 4 6 9q26 11 39 23q11 10 16 30v2q-22 4 -36 23q-13 17 -13 42z" />
    <glyph glyph-name="Obreve.sc" unicode="&#xf691;" horiz-adv-x="570" 
d="M285 440h1q112 0 183 -64q72 -64 72 -162t-73 -162q-72 -63 -183 -63t-183 63q-73 64 -73 162t73 162t183 64zM374 215l-2 1q0 36 -25 60t-63 24t-63 -24t-25 -60q0 -37 26 -61t63 -24t63 24t26 60zM280 500v-1q-70 0 -111 39q-40 39 -40 99q0 17 14 17h76q5 0 8 -4t3 -9
q0 -22 14 -36q13 -13 36 -13q22 0 36 14t14 36q0 4 3 9q3 4 8 4h76q14 0 14 -17q0 -60 -40 -99q-41 -39 -111 -39z" />
    <glyph glyph-name="Ohungarumlaut.sc" unicode="&#xf692;" horiz-adv-x="570" 
d="M285 440h1q112 0 183 -64q72 -64 72 -162t-73 -162q-72 -63 -183 -63t-183 63q-73 64 -73 162t73 162t183 64zM374 215l-2 1q0 36 -25 60t-63 24t-63 -24t-25 -60q0 -37 26 -61t63 -24t63 24t26 60zM507 681l23 -20q12 -11 12 -26q0 -16 -17 -33l-94 -91q-11 -11 -29 -11
h-59q-10 0 -10 9q0 5 6 12l102 150q16 22 36 22q17 0 30 -12zM327 682l23 -20q12 -11 12 -26q0 -16 -17 -33l-94 -91q-11 -11 -29 -11h-59q-10 0 -10 9q0 4 6 12l102 150q16 22 36 22q17 0 30 -12z" />
    <glyph glyph-name="Omacron.sc" unicode="&#xf693;" horiz-adv-x="570" 
d="M285 440h1q112 0 183 -64q72 -64 72 -162t-73 -162q-72 -63 -183 -63t-183 63q-73 64 -73 162t73 162t183 64zM374 215l-2 1q0 36 -25 60t-63 24t-63 -24t-25 -60q0 -37 26 -61t63 -24t63 24t26 60zM418 486h-259v100h259v-100z" />
    <glyph glyph-name="Oslashacute.sc" unicode="&#xf694;" horiz-adv-x="570" 
d="M55 38l30 31q-57 60 -57 146q0 98 73 162t183 64q76 0 138 -33l39 39l55 -55l-32 -32q56 -62 56 -144q0 -98 -73 -162q-72 -63 -183 -63q-77 0 -135 31l-39 -38zM186 215h1q0 -23 7 -38l126 127q-16 6 -36 6q-42 0 -70 -27t-28 -68zM383 215h1q0 21 -7 35l-125 -125
q15 -5 33 -5q41 0 70 27q28 27 28 68zM426 679l31 -26q12 -12 12 -27q0 -19 -16 -32l-103 -88q-7 -7 -26 -7h-63q-10 0 -10 9q0 4 6 12l102 150q16 22 36 22q18 0 31 -13z" />
    <glyph glyph-name="Racute.sc" unicode="&#xf695;" horiz-adv-x="519" 
d="M313 7l-59 101h-46v-97q0 -5 -4 -9q-4 -3 -9 -3h-144q-5 0 -9 3q-4 4 -4 9v406q0 5 4 9t9 4h243q89 0 144 -43t55 -123q0 -84 -75 -126v-2q14 -14 24 -30l51 -86q6 -10 6 -13q0 -7 -8 -7h-163q-11 0 -15 7zM277 289h-69v-71h70q48 0 48 35q0 36 -49 36zM374 678l31 -26
q12 -12 12 -27q0 -19 -16 -32l-103 -88q-7 -7 -26 -7h-63q-10 0 -10 9q0 5 6 12l102 150q16 22 36 22q18 0 31 -13z" />
    <glyph glyph-name="Rcaron.sc" unicode="&#xf696;" horiz-adv-x="519" 
d="M313 7l-59 101h-46v-97q0 -5 -4 -9q-4 -3 -9 -3h-144q-5 0 -9 3q-4 4 -4 9v406q0 5 4 9t9 4h243q89 0 144 -43t55 -123q0 -84 -75 -126v-2q14 -14 24 -30l51 -86q6 -10 6 -13q0 -7 -8 -7h-163q-11 0 -15 7zM277 289h-69v-71h70q48 0 48 35q0 36 -49 36zM243 604l101 66
q14 9 24 9q7 0 18 -8l26 -20q10 -9 10 -17q0 -9 -12 -21l-96 -92q-29 -29 -66 -29h-10q-39 0 -68 29l-95 92q-12 12 -12 21q0 8 10 17l26 20q11 8 18 8q11 0 24 -9z" />
    <glyph glyph-name="Rcommaaccent.sc" unicode="&#xf697;" horiz-adv-x="519" 
d="M313 7l-59 101h-46v-97q0 -5 -4 -9q-4 -3 -9 -3h-144q-5 0 -9 3q-4 4 -4 9v406q0 5 4 9t9 4h243q89 0 144 -43t55 -123q0 -84 -75 -126v-2q14 -14 24 -30l51 -86q6 -10 6 -13q0 -7 -8 -7h-163q-11 0 -15 7zM277 289h-69v-71h70q48 0 48 35q0 36 -49 36zM189 -116l1 2
q0 28 20 48t50 20q32 0 53 -24t21 -67q0 -52 -27 -94q-28 -44 -76 -60q-14 -5 -24 -5q-7 0 -12 8l-15 33q-3 7 -3 10q0 5 6 9q26 11 39 23q11 10 16 30v2q-22 4 -36 23q-13 17 -13 42z" />
    <glyph glyph-name="Sacute.sc" unicode="&#xf698;" horiz-adv-x="521" 
d="M56 144h122q17 0 22 -12q12 -30 69 -30q25 0 39 9t14 22q0 22 -47 27l-98 8q-148 12 -148 119q0 65 60 110t164 45q96 0 153 -39t57 -90q0 -19 -18 -19h-119q-15 0 -23 14q-13 22 -54 22q-27 0 -40 -9t-13 -22q0 -18 32 -21l107 -9q154 -13 154 -126q0 -65 -57 -108
q-56 -43 -172 -43q-114 0 -170 38q-57 39 -57 93q0 9 6 15t17 6zM371 679l31 -26q12 -12 12 -27q0 -19 -16 -32l-103 -88q-7 -7 -26 -7h-63q-10 0 -10 9q0 4 6 12l102 150q16 22 36 22q18 0 31 -13z" />
    <glyph glyph-name="Scedilla.sc" unicode="&#xf699;" horiz-adv-x="521" 
d="M56 144h122q17 0 22 -12q12 -30 69 -30q25 0 39 9t14 22q0 22 -47 27l-98 8q-148 12 -148 119q0 65 60 110t164 45q96 0 153 -39t57 -90q0 -19 -18 -19h-119q-15 0 -23 14q-13 22 -54 22q-27 0 -40 -9t-13 -22q0 -18 32 -21l107 -9q154 -13 154 -126q0 -65 -57 -108
q-56 -43 -172 -43q-114 0 -170 38q-57 39 -57 93q0 9 6 15t17 6zM178 -185l9 43q2 11 17 6q33 -9 73 -9q30 0 30 18q0 17 -23 17h-61q-23 0 -19 22l16 88h87l-2 -40h18q43 0 66 -24q23 -25 23 -61q0 -45 -32 -72t-99 -27q-53 0 -93 12q-12 3 -12 12q0 7 2 15z" />
    <glyph glyph-name="Scircumflex.sc" unicode="&#xf69a;" horiz-adv-x="521" 
d="M56 144h122q17 0 22 -12q12 -30 69 -30q25 0 39 9t14 22q0 22 -47 27l-98 8q-148 12 -148 119q0 65 60 110t164 45q96 0 153 -39t57 -90q0 -19 -18 -19h-119q-15 0 -23 14q-13 22 -54 22q-27 0 -40 -9t-13 -22q0 -18 32 -21l107 -9q154 -13 154 -126q0 -65 -57 -108
q-56 -43 -172 -43q-114 0 -170 38q-57 39 -57 93q0 9 6 15t17 6zM252 564l-102 -66q-14 -9 -24 -9q-7 0 -18 8l-26 20q-10 9 -10 17q0 9 12 21l101 97q32 32 62 32h10q30 0 62 -32l101 -97q12 -12 12 -21q0 -8 -10 -17l-26 -20q-11 -8 -18 -8q-10 0 -24 9z" />
    <glyph glyph-name="Scommaaccent.sc" unicode="&#xf69b;" horiz-adv-x="521" 
d="M56 144h122q17 0 22 -12q12 -30 69 -30q25 0 39 9t14 22q0 22 -47 27l-98 8q-148 12 -148 119q0 65 60 110t164 45q96 0 153 -39t57 -90q0 -19 -18 -19h-119q-15 0 -23 14q-13 22 -54 22q-27 0 -40 -9t-13 -22q0 -18 32 -21l107 -9q154 -13 154 -126q0 -65 -57 -108
q-56 -43 -172 -43q-114 0 -170 38q-57 39 -57 93q0 9 6 15t17 6zM196 -115l-2 3q0 28 21 48q22 20 50 20q31 0 54 -24q22 -23 22 -67q0 -52 -27 -94q-28 -43 -76 -59q-14 -6 -23 -6t-14 9l-15 33q-3 6 -3 10t6 9q28 10 40 21q11 10 16 30v2q-21 5 -35 23q-14 19 -14 42z" />
    <glyph glyph-name="Tcaron.sc" unicode="&#xf69d;" horiz-adv-x="488" 
d="M160 290h-132q-4 0 -9 5t-5 9v112q0 4 5 9t9 5h436q4 0 9 -5t5 -9v-112q0 -4 -5 -9t-9 -5h-134v-278q0 -5 -4 -9q-3 -3 -9 -3h-144q-6 0 -9 3q-4 4 -4 9v278zM249 606l101 66q14 9 24 9q7 0 18 -8l26 -20q10 -9 10 -17q0 -9 -12 -21l-96 -92q-29 -29 -66 -29h-10
q-39 0 -68 29l-95 92q-12 12 -12 21q0 8 10 17l26 20q11 8 18 8q11 0 24 -9z" />
    <glyph glyph-name="Tcommaaccent.sc" unicode="&#xf69e;" horiz-adv-x="488" 
d="M160 290h-132q-4 0 -9 5t-5 9v112q0 4 5 9t9 5h436q4 0 9 -5t5 -9v-112q0 -4 -5 -9t-9 -5h-134v-278q0 -5 -4 -9q-3 -3 -9 -3h-144q-6 0 -9 3q-4 4 -4 9v278zM178 -115l1 2q0 28 20 48t50 20q32 0 53 -24t21 -67q0 -52 -27 -94q-28 -44 -76 -60q-14 -5 -24 -5q-7 0 -12 8
l-15 33q-3 8 -3 10q0 4 6 9q26 11 39 23q11 10 16 30v2q-22 4 -36 23q-13 17 -13 42z" />
    <glyph glyph-name="Ubreve.sc" unicode="&#xf69f;" horiz-adv-x="543" 
d="M340 199l-2 220q0 5 4 9t9 4h143q5 0 8 -4t3 -9v-215q0 -99 -61 -156q-60 -56 -174 -56t-174 56q-61 57 -61 155v215q0 5 4 9t9 4h143q5 0 8 -4q3 -5 3 -9v-219q0 -33 19 -51t51 -18t50 18t18 51zM271 500v-1q-71 0 -111 39t-40 99q0 17 14 17h76q5 0 8 -4t3 -9
q0 -22 14 -36q13 -13 36 -13q22 0 36 14t14 36q0 4 3 9q3 4 8 4h76q14 0 14 -17q0 -60 -40 -99t-111 -39z" />
    <glyph glyph-name="Uhungarumlaut.sc" unicode="&#xf6a0;" horiz-adv-x="543" 
d="M340 199l-2 220q0 5 4 9t9 4h143q5 0 8 -4t3 -9v-215q0 -99 -61 -156q-60 -56 -174 -56t-174 56q-61 57 -61 155v215q0 5 4 9t9 4h143q5 0 8 -4q3 -5 3 -9v-219q0 -33 19 -51t51 -18t50 18t18 51zM495 680l23 -19q12 -11 12 -27t-17 -33l-94 -91q-11 -11 -29 -11h-59
q-10 0 -10 9q0 4 6 12l102 150q16 22 36 22q17 0 30 -12zM315 682l23 -19q12 -11 12 -27t-17 -33l-94 -91q-11 -11 -29 -11h-59q-10 0 -10 9q0 4 6 12l102 150q16 22 36 22q17 0 30 -12z" />
    <glyph glyph-name="Umacron.sc" unicode="&#xf6a1;" horiz-adv-x="543" 
d="M340 199l-2 220q0 5 4 9t9 4h143q5 0 8 -4t3 -9v-215q0 -99 -61 -156q-60 -56 -174 -56t-174 56q-61 57 -61 155v215q0 5 4 9t9 4h143q5 0 8 -4q3 -5 3 -9v-219q0 -33 19 -51t51 -18t50 18t18 51zM402 484h-259v100h259v-100z" />
    <glyph glyph-name="Uogonek.sc" unicode="&#xf6a2;" horiz-adv-x="543" 
d="M340 199l-2 220q0 5 4 9t9 4h143q5 0 8 -4t3 -9v-215q0 -99 -61 -156q-60 -56 -174 -56t-174 56q-61 57 -61 155v215q0 5 4 9t9 4h143q5 0 8 -4q3 -5 3 -9v-219q0 -33 19 -51t51 -18t50 18t18 51zM393 -131l-1 2q7 -28 7 -51q0 -10 -12 -16q-24 -12 -65 -12q-54 0 -85 26
q-30 26 -30 69q0 62 59 116h97q-48 -57 -48 -95q0 -31 34 -31q3 0 15 2q3 1 7 1q3 1 4 1q15 1 18 -12z" />
    <glyph glyph-name="Uring.sc" unicode="&#xf6a3;" horiz-adv-x="543" 
d="M340 199l-2 220q0 5 4 9t9 4h143q5 0 8 -4t3 -9v-215q0 -99 -61 -156q-60 -56 -174 -56t-174 56q-61 57 -61 155v215q0 5 4 9t9 4h143q5 0 8 -4q3 -5 3 -9v-219q0 -33 19 -51t51 -18t50 18t18 51zM155 601l-1 -3q0 46 33 78q34 32 86 32q54 0 86 -31q33 -31 33 -78
q0 -45 -33 -76q-32 -31 -85 -31q-52 0 -86 32q-33 32 -33 77zM239 598q0 -14 10 -23q11 -9 24 -9q15 0 24 9t9 23q0 15 -9 24t-24 9q-13 0 -24 -9q-10 -9 -10 -24z" />
    <glyph glyph-name="Utilde.sc" unicode="&#xf6a4;" horiz-adv-x="543" 
d="M172 497h-57q-21 0 -21 20q0 64 26 98q26 33 72 33q40 0 72 -19l36 -21q23 -14 36 -14q28 0 28 41q0 13 15 13h57q21 0 21 -20q0 -64 -26 -98q-25 -33 -72 -33q-40 0 -72 19l-36 21q-23 14 -36 14q-28 0 -28 -41q0 -13 -15 -13zM340 199l-2 220q0 5 4 9t9 4h143q5 0 8 -4
t3 -9v-215q0 -99 -61 -156q-60 -56 -174 -56t-174 56q-61 57 -61 155v215q0 5 4 9t9 4h143q5 0 8 -4q3 -5 3 -9v-219q0 -33 19 -51t51 -18t50 18t18 51z" />
    <glyph glyph-name="Wacute.sc" unicode="&#xf6a5;" horiz-adv-x="776" 
d="M181 0l-167 408q-4 9 -4 13q0 7 8 7h150q14 0 20 -14l54 -134l17 -56h4q5 28 15 57l56 148h108l56 -148l15 -56h4q7 32 17 57l55 134q6 14 19 14h150q8 0 8 -7q0 -4 -4 -13l-167 -410h-141l-53 145l-11 42h-4q-4 -23 -11 -42l-53 -145h-141zM514 678l31 -26
q12 -12 12 -27q0 -19 -16 -32l-103 -88q-7 -7 -26 -7h-63q-10 0 -10 9q0 5 6 12l102 150q16 22 36 22q18 0 31 -13z" />
    <glyph glyph-name="Wcircumflex.sc" unicode="&#xf6a6;" horiz-adv-x="776" 
d="M181 0l-167 408q-4 9 -4 13q0 7 8 7h150q14 0 20 -14l54 -134l17 -56h4q5 28 15 57l56 148h108l56 -148l15 -56h4q7 32 17 57l55 134q6 14 19 14h150q8 0 8 -7q0 -4 -4 -13l-167 -410h-141l-53 145l-11 42h-4q-4 -23 -11 -42l-53 -145h-141zM389 562l-102 -66
q-13 -9 -24 -9q-7 0 -18 8l-26 20q-10 9 -10 17q0 9 12 21l101 97q32 32 62 32h10q30 0 62 -32l101 -97q12 -12 12 -21q0 -8 -10 -17l-26 -20q-11 -8 -18 -8q-11 0 -24 9z" />
    </font>
</defs>
</svg>
