<svg xmlns="http://www.w3.org/2000/svg" width="16" height="15" viewBox="0 0 16 15">
    <g fill="none" fill-rule="evenodd">
        <g fill="#4F662E">
            <g>
                <path d="M11.872 1.537C10.839.546 9.41 0 7.848 0 5.462 0 3.995.978 3.184 1.799c-1 1.01-1.573 2.353-1.573 3.683 0 1.67.699 2.951 1.868 3.428.079.032.158.049.235.049.247 0 .443-.162.51-.42.04-.15.131-.516.171-.675.085-.314.016-.465-.17-.684-.338-.4-.495-.874-.495-1.49 0-1.83 1.362-3.774 3.887-3.774 2.004 0 3.248 1.139 3.248 2.972 0 1.157-.249 2.228-.701 3.016-.315.548-.868 1.201-1.717 1.201-.367 0-.697-.15-.905-.413-.196-.249-.261-.57-.182-.905.09-.378.211-.772.329-1.153.215-.696.418-1.354.418-1.879 0-.897-.552-1.5-1.373-1.5-1.043 0-1.86 1.06-1.86 2.413 0 .663.176 1.16.256 1.35L4.069 11.51c-.086.365-.602 3.244.252 3.473.96.258 1.818-2.546 1.905-2.863.071-.257.319-1.232.47-1.83.464.446 1.21.748 1.936.748 1.369 0 2.6-.616 3.466-1.734.84-1.085 1.303-2.597 1.303-4.257 0-1.297-.558-2.577-1.53-3.51z" transform="translate(-898.000000, -775.000000) translate(804.500000, 742.000000) translate(94.000000, 33.000000)"/>
            </g>
        </g>
    </g>
</svg>
