<svg xmlns="http://www.w3.org/2000/svg" width="16" height="15" viewBox="0 0 16 15">
    <g fill="none" fill-rule="evenodd">
        <g fill="#4F662E">
            <g>
                <g>
                    <path d="M14.826 1.487c-.545.252-1.133.423-1.748.5.63-.394 1.11-1.015 1.338-1.755-.588.363-1.239.626-1.931.77C11.93.386 11.139 0 10.264 0c-1.68 0-3.041 1.42-3.041 3.172 0 .249.027.491.079.723C4.774 3.762 2.533 2.5 1.032.581c-.26.468-.41 1.013-.41 1.595 0 1.1.536 2.071 1.35 2.64-.498-.017-.966-.159-1.377-.397v.04c0 1.537 1.048 2.82 2.44 3.11-.255.073-.524.112-.802.112-.196 0-.386-.02-.572-.057.387 1.26 1.51 2.178 2.841 2.203-1.04.851-2.351 1.358-3.776 1.358-.247 0-.488-.015-.726-.044 1.345.9 2.944 1.425 4.662 1.425 5.594 0 8.652-4.835 8.652-9.026 0-.137-.003-.274-.009-.41.597-.447 1.112-1.006 1.52-1.643" transform="translate(-851.000000, -775.000000) translate(804.500000, 742.000000) translate(47.000000, 33.000000) translate(0.000000, 1.142578)"/>
                </g>
            </g>
        </g>
    </g>
</svg>
